G75*
G70*
%OFA0B0*%
%FSLAX24Y24*%
%IPPOS*%
%LPD*%
%AMOC8*
5,1,8,0,0,1.08239X$1,22.5*
%
%ADD10C,0.0000*%
%ADD11C,0.0100*%
%ADD12R,0.0709X0.0394*%
%ADD13R,0.0866X0.0630*%
%ADD14R,0.0315X0.0315*%
%ADD15R,0.0394X0.0394*%
%ADD16R,0.1083X0.0551*%
%ADD17R,0.0591X0.0079*%
%ADD18R,0.0079X0.0591*%
%ADD19R,0.0740X0.0740*%
%ADD20C,0.0740*%
%ADD21R,0.1181X0.0358*%
%ADD22R,0.4098X0.4252*%
%ADD23R,0.0358X0.1181*%
%ADD24R,0.4252X0.4098*%
%ADD25R,0.0433X0.0433*%
%ADD26R,0.0748X0.0709*%
%ADD27R,0.1181X0.1969*%
%ADD28R,0.1969X0.1181*%
%ADD29R,0.0709X0.1575*%
%ADD30R,0.1575X0.0709*%
%ADD31R,0.1969X0.1299*%
%ADD32R,0.2500X0.1500*%
%ADD33R,0.2500X0.1299*%
%ADD34R,0.0709X0.0748*%
%ADD35R,0.1614X0.2205*%
%ADD36R,0.2205X0.1614*%
%ADD37R,0.0800X0.0800*%
%ADD38C,0.0800*%
%ADD39R,0.0480X0.0880*%
%ADD40R,0.1417X0.0866*%
%ADD41R,0.0630X0.1024*%
%ADD42R,0.0787X0.0709*%
%ADD43R,0.0950X0.0950*%
%ADD44C,0.0950*%
%ADD45OC8,0.0740*%
%ADD46R,0.1260X0.0669*%
%ADD47R,0.1575X0.0787*%
%ADD48R,0.0551X0.1437*%
%ADD49R,0.1181X0.1575*%
%ADD50R,0.1181X0.1378*%
%ADD51R,0.0197X0.1280*%
%ADD52R,0.0394X0.0276*%
%ADD53R,0.0098X0.0500*%
%ADD54R,0.1024X0.0630*%
%ADD55R,0.0500X0.0250*%
%ADD56R,0.0551X0.0709*%
%ADD57R,0.0748X0.0551*%
%ADD58R,0.0591X0.0315*%
%ADD59C,0.0079*%
%ADD60C,0.0320*%
%ADD61C,0.0760*%
%ADD62C,0.0160*%
%ADD63C,0.0397*%
%ADD64C,0.0400*%
%ADD65C,0.0500*%
%ADD66C,0.0197*%
%ADD67C,0.0240*%
%ADD68C,0.0120*%
%ADD69C,0.0354*%
%ADD70C,0.0860*%
%ADD71C,0.1000*%
%ADD72C,0.0560*%
%ADD73C,0.0436*%
%ADD74C,0.0660*%
%ADD75C,0.0098*%
%ADD76C,0.0700*%
D10*
X000158Y000309D02*
X000142Y027943D01*
X046320Y027939D01*
X046335Y000305D01*
X000158Y000309D01*
X006016Y007483D02*
X006050Y007643D01*
X006146Y007776D01*
X006288Y007858D01*
X006451Y007875D01*
X006607Y007824D01*
X006729Y007715D01*
X006795Y007565D01*
X006795Y007401D01*
X006729Y007251D01*
X006607Y007142D01*
X006451Y007091D01*
X006288Y007108D01*
X006146Y007190D01*
X006050Y007323D01*
X006016Y007483D01*
X016567Y007483D02*
X016601Y007643D01*
X016697Y007776D01*
X016839Y007858D01*
X017002Y007875D01*
X017158Y007824D01*
X017280Y007715D01*
X017346Y007565D01*
X017346Y007401D01*
X017280Y007251D01*
X017158Y007142D01*
X017002Y007091D01*
X016839Y007108D01*
X016697Y007190D01*
X016601Y007323D01*
X016567Y007483D01*
X020693Y014160D02*
X020728Y014371D01*
X020830Y014559D01*
X020987Y014704D01*
X021183Y014790D01*
X021397Y014808D01*
X021604Y014755D01*
X021783Y014638D01*
X021915Y014469D01*
X021984Y014267D01*
X021984Y014053D01*
X021915Y013851D01*
X021783Y013682D01*
X021604Y013565D01*
X021397Y013512D01*
X021183Y013530D01*
X020987Y013616D01*
X020830Y013761D01*
X020728Y013949D01*
X020693Y014160D01*
X016567Y018034D02*
X016601Y018194D01*
X016697Y018327D01*
X016839Y018409D01*
X017002Y018426D01*
X017158Y018375D01*
X017280Y018266D01*
X017346Y018116D01*
X017346Y017952D01*
X017280Y017802D01*
X017158Y017693D01*
X017002Y017642D01*
X016839Y017659D01*
X016697Y017741D01*
X016601Y017874D01*
X016567Y018034D01*
X006016Y018034D02*
X006050Y018194D01*
X006146Y018327D01*
X006288Y018409D01*
X006451Y018426D01*
X006607Y018375D01*
X006729Y018266D01*
X006795Y018116D01*
X006795Y017952D01*
X006729Y017802D01*
X006607Y017693D01*
X006451Y017642D01*
X006288Y017659D01*
X006146Y017741D01*
X006050Y017874D01*
X006016Y018034D01*
X004536Y017168D02*
X004574Y017383D01*
X004683Y017573D01*
X004851Y017714D01*
X005057Y017788D01*
X005275Y017788D01*
X005481Y017714D01*
X005649Y017573D01*
X005758Y017383D01*
X005796Y017168D01*
X005758Y016953D01*
X005649Y016763D01*
X005481Y016622D01*
X005275Y016548D01*
X005057Y016548D01*
X004851Y016622D01*
X004683Y016763D01*
X004574Y016953D01*
X004536Y017168D01*
X035194Y014609D02*
X035231Y014818D01*
X035337Y015001D01*
X035499Y015137D01*
X035698Y015210D01*
X035910Y015210D01*
X036109Y015137D01*
X036271Y015001D01*
X036377Y014818D01*
X036414Y014609D01*
X036377Y014400D01*
X036271Y014217D01*
X036109Y014081D01*
X035910Y014008D01*
X035698Y014008D01*
X035499Y014081D01*
X035337Y014217D01*
X035231Y014400D01*
X035194Y014609D01*
X041887Y019711D02*
X041924Y019920D01*
X042030Y020103D01*
X042192Y020239D01*
X042391Y020312D01*
X042603Y020312D01*
X042802Y020239D01*
X042964Y020103D01*
X043070Y019920D01*
X043107Y019711D01*
X043070Y019502D01*
X042964Y019319D01*
X042802Y019183D01*
X042603Y019110D01*
X042391Y019110D01*
X042192Y019183D01*
X042030Y019319D01*
X041924Y019502D01*
X041887Y019711D01*
X037776Y022750D02*
X037814Y022965D01*
X037923Y023155D01*
X038091Y023296D01*
X038297Y023370D01*
X038515Y023370D01*
X038721Y023296D01*
X038889Y023155D01*
X038998Y022965D01*
X039036Y022750D01*
X038998Y022535D01*
X038889Y022345D01*
X038721Y022204D01*
X038515Y022130D01*
X038297Y022130D01*
X038091Y022204D01*
X037923Y022345D01*
X037814Y022535D01*
X037776Y022750D01*
X040379Y001518D02*
X040417Y001733D01*
X040526Y001923D01*
X040694Y002064D01*
X040900Y002138D01*
X041118Y002138D01*
X041324Y002064D01*
X041492Y001923D01*
X041601Y001733D01*
X041639Y001518D01*
X041601Y001303D01*
X041492Y001113D01*
X041324Y000972D01*
X041118Y000898D01*
X040900Y000898D01*
X040694Y000972D01*
X040526Y001113D01*
X040417Y001303D01*
X040379Y001518D01*
D11*
X030729Y001703D02*
X030694Y001668D01*
X029501Y001668D01*
X029497Y001664D01*
X030284Y001683D02*
X030304Y001703D01*
X030729Y001703D01*
X030678Y003238D02*
X029497Y003238D01*
X030625Y003258D02*
X030644Y003238D01*
X030678Y003238D01*
X027390Y002502D02*
X026642Y003250D01*
X026619Y003250D01*
X026505Y011506D02*
X026540Y011542D01*
X026540Y014053D01*
X024792Y015187D02*
X024792Y015325D01*
X023997Y016120D01*
X022654Y016120D01*
X022410Y015916D01*
X022430Y015896D01*
X022430Y015884D01*
X027469Y019549D02*
X027926Y019093D01*
X028772Y019093D01*
X028934Y018931D01*
X028930Y018931D01*
X028930Y018967D01*
X029233Y019270D01*
X029255Y019270D01*
X028930Y018931D02*
X028930Y018404D01*
X028928Y018402D01*
X028928Y018412D01*
X028928Y018402D02*
X028926Y018400D01*
X028674Y018408D02*
X028674Y018671D01*
X028631Y018715D01*
X028414Y018715D01*
X028296Y018711D01*
X028672Y018412D02*
X028674Y018410D01*
X028674Y018408D01*
X027316Y019868D02*
X026658Y019868D01*
X026847Y019813D01*
X027316Y019868D02*
X027477Y020030D01*
X028981Y020030D01*
X028983Y020028D01*
X029201Y020246D01*
X030823Y020246D01*
X030977Y020400D01*
X030977Y020727D01*
X030975Y020736D02*
X030975Y021331D01*
X031071Y021427D01*
X031068Y021423D01*
X031068Y021412D01*
X031032Y021782D02*
X030863Y021782D01*
X030719Y021638D01*
X030719Y020736D01*
X030463Y020736D02*
X030463Y021843D01*
X030599Y021979D01*
X032568Y021979D01*
X032725Y022136D01*
X032725Y022530D01*
X032701Y022506D01*
X032701Y022502D01*
X031701Y022530D02*
X031701Y022502D01*
X031701Y022530D02*
X031544Y022372D01*
X030599Y022372D01*
X030207Y021981D01*
X030207Y020736D01*
X029951Y020736D02*
X029951Y022390D01*
X029839Y022502D01*
X029827Y022502D01*
X029697Y021620D02*
X028867Y022451D01*
X028827Y022490D01*
X028827Y022502D01*
X028867Y022451D02*
X028843Y022427D01*
X029024Y021900D02*
X028158Y021900D01*
X027843Y022215D01*
X027843Y022451D01*
X027827Y022467D01*
X027827Y022502D01*
X027843Y022518D01*
X027843Y022530D01*
X027607Y021664D02*
X026820Y022451D01*
X026827Y022459D01*
X026827Y022502D01*
X026820Y022494D01*
X025902Y022502D02*
X026977Y021427D01*
X028552Y021427D01*
X028672Y021307D01*
X028672Y020736D01*
X028928Y020736D02*
X028928Y020355D01*
X028792Y020219D01*
X027536Y020219D01*
X027280Y020475D01*
X026839Y020475D01*
X026847Y020483D01*
X026839Y020475D02*
X026835Y020475D01*
X027607Y021664D02*
X028946Y021664D01*
X029182Y021427D01*
X029182Y020738D01*
X029184Y020736D01*
X029440Y020736D02*
X029442Y020738D01*
X029442Y021483D01*
X029024Y021900D01*
X029697Y021620D02*
X029697Y020738D01*
X029696Y020736D01*
X033394Y021309D02*
X033741Y020963D01*
X033741Y021006D01*
X033741Y020963D02*
X033749Y020955D01*
X033394Y021309D02*
X033394Y021782D01*
X025902Y022502D02*
X025827Y022502D01*
X025800Y022530D01*
X025796Y022530D01*
X029575Y015829D02*
X029568Y015821D01*
X026497Y011514D02*
X026493Y011514D01*
X026497Y011514D02*
X026505Y011506D01*
X004457Y017168D02*
X004495Y017398D01*
X004606Y017603D01*
X004778Y017762D01*
X004992Y017855D01*
X005225Y017875D01*
X005451Y017817D01*
X005646Y017690D01*
X005790Y017505D01*
X005865Y017285D01*
X005865Y017051D01*
X005790Y016831D01*
X005646Y016646D01*
X005451Y016519D01*
X005225Y016461D01*
X004992Y016481D01*
X004778Y016574D01*
X004606Y016733D01*
X004495Y016938D01*
X004457Y017168D01*
D12*
X030638Y016278D03*
X030638Y015294D03*
D13*
X032394Y011628D03*
X034127Y011628D03*
X034127Y010526D03*
X032394Y010526D03*
D14*
X042312Y010671D03*
X042902Y010671D03*
X042902Y011420D03*
X042312Y011420D03*
X042312Y009884D03*
X042902Y009884D03*
X042906Y009116D03*
X042316Y009116D03*
X016461Y016849D03*
X015871Y016849D03*
X008414Y026368D03*
X007823Y026368D03*
X014504Y004286D03*
X015094Y004286D03*
X015099Y003510D03*
X014509Y003510D03*
D15*
X013795Y003414D03*
X013086Y003414D03*
X013552Y005845D03*
X013552Y006553D03*
X016733Y008935D03*
X016733Y009644D03*
X021595Y009042D03*
X021595Y008333D03*
X023477Y008805D03*
X023477Y009514D03*
X034745Y008447D03*
X035453Y008447D03*
X040989Y009097D03*
X041697Y009097D03*
X041694Y009884D03*
X040985Y009884D03*
X040989Y010671D03*
X041697Y010671D03*
X041701Y011420D03*
X040993Y011420D03*
X040890Y012404D03*
X040182Y012404D03*
X036631Y012620D03*
X036631Y011912D03*
X036701Y016530D03*
X035993Y016530D03*
X035993Y017203D03*
X036701Y017203D03*
X033442Y017542D03*
X033442Y018250D03*
X032757Y018719D03*
X033544Y019093D03*
X032757Y019467D03*
X028178Y019549D03*
X027469Y019549D03*
X038725Y020049D03*
X039473Y020049D03*
X040162Y019979D03*
X040162Y019270D03*
X039099Y019262D03*
X042438Y020682D03*
X042438Y021391D03*
X015879Y018317D03*
X015879Y017609D03*
X007871Y024711D03*
X007871Y025420D03*
D16*
X019306Y003254D03*
X021963Y003254D03*
X021963Y002467D03*
X021963Y001679D03*
X023636Y001675D03*
X026294Y001675D03*
X026294Y002463D03*
X026294Y003250D03*
X027967Y003258D03*
X027967Y001683D03*
X030625Y001683D03*
X030625Y002471D03*
X030625Y003258D03*
X023636Y003250D03*
X019306Y001679D03*
D17*
X024064Y011691D03*
X024064Y011849D03*
X024064Y012006D03*
X024064Y012164D03*
X024064Y012321D03*
X024064Y012479D03*
X024064Y012636D03*
X024064Y012794D03*
X024064Y012951D03*
X024064Y013109D03*
X024064Y013266D03*
X024064Y013423D03*
X024064Y013581D03*
X024064Y013738D03*
X024064Y013896D03*
X024064Y014053D03*
X024064Y014211D03*
X024064Y014368D03*
X024064Y014526D03*
X024064Y014683D03*
X024064Y014841D03*
X024064Y014998D03*
X024064Y015156D03*
X024064Y015313D03*
X024064Y015471D03*
X029398Y015471D03*
X029398Y015313D03*
X029398Y015156D03*
X029398Y014998D03*
X029398Y014841D03*
X029398Y014683D03*
X029398Y014526D03*
X029398Y014368D03*
X029398Y014211D03*
X029398Y014053D03*
X029398Y013896D03*
X029398Y013738D03*
X029398Y013581D03*
X029398Y013423D03*
X029398Y013266D03*
X029398Y013109D03*
X029398Y012951D03*
X029398Y012794D03*
X029398Y012636D03*
X029398Y012479D03*
X029398Y012321D03*
X029398Y012164D03*
X029398Y012006D03*
X029398Y011849D03*
X029398Y011691D03*
D18*
X028591Y010943D03*
X028434Y010943D03*
X028276Y010943D03*
X028119Y010943D03*
X027961Y010943D03*
X027804Y010943D03*
X027646Y010943D03*
X027489Y010943D03*
X027331Y010943D03*
X027174Y010943D03*
X027016Y010943D03*
X026859Y010943D03*
X026701Y010943D03*
X026544Y010943D03*
X026386Y010943D03*
X026229Y010943D03*
X026071Y010943D03*
X025914Y010943D03*
X025757Y010943D03*
X025599Y010943D03*
X025442Y010943D03*
X025284Y010943D03*
X025127Y010943D03*
X024969Y010943D03*
X024812Y010943D03*
X024812Y016219D03*
X024969Y016219D03*
X025127Y016219D03*
X025284Y016219D03*
X025442Y016219D03*
X025599Y016219D03*
X025757Y016219D03*
X025914Y016219D03*
X026071Y016219D03*
X026229Y016219D03*
X026386Y016219D03*
X026544Y016219D03*
X026701Y016219D03*
X026859Y016219D03*
X027016Y016219D03*
X027174Y016219D03*
X027331Y016219D03*
X027489Y016219D03*
X027646Y016219D03*
X027804Y016219D03*
X027961Y016219D03*
X028119Y016219D03*
X028276Y016219D03*
X028434Y016219D03*
X028591Y016219D03*
D19*
X033343Y012660D03*
X019914Y006518D03*
X018320Y009947D03*
X016961Y010744D03*
X035473Y020971D03*
X031701Y022502D03*
X012643Y022512D03*
D20*
X011643Y022512D03*
X010643Y022512D03*
X009643Y022512D03*
X015946Y019309D03*
X016984Y015854D03*
X017984Y015854D03*
X018984Y015854D03*
X016961Y014744D03*
X016961Y013744D03*
X016961Y012744D03*
X016961Y011744D03*
X019914Y011518D03*
X021201Y011522D03*
X021201Y010522D03*
X019914Y010518D03*
X019914Y009518D03*
X019914Y008518D03*
X018320Y008947D03*
X018320Y007947D03*
X019914Y007518D03*
X018320Y006947D03*
X018320Y005947D03*
X018320Y004947D03*
X013583Y004742D03*
X016575Y001750D03*
X007757Y001120D03*
X029961Y008994D03*
X034339Y012679D03*
X034339Y013679D03*
X033343Y013660D03*
X033343Y014660D03*
X034347Y014679D03*
X034347Y015679D03*
X033343Y015660D03*
X034347Y016679D03*
X034347Y017679D03*
X034347Y018679D03*
X036182Y019388D03*
X036473Y020971D03*
X037473Y020971D03*
X038473Y020971D03*
X039473Y020971D03*
X040473Y020971D03*
X041473Y020971D03*
X042398Y024447D03*
X042398Y025447D03*
X034701Y022502D03*
X033701Y022502D03*
X032701Y022502D03*
X029827Y022502D03*
X028827Y022502D03*
X027827Y022502D03*
X026827Y022502D03*
X025827Y022502D03*
X025827Y023502D03*
X026827Y023502D03*
X027827Y023502D03*
X028827Y023502D03*
X029827Y023502D03*
X029827Y024502D03*
X028827Y024502D03*
X027827Y024502D03*
X026827Y024502D03*
X025827Y024502D03*
X020034Y026420D03*
X019034Y026420D03*
X018034Y026420D03*
X017034Y026420D03*
X016034Y026420D03*
X015034Y026420D03*
X009410Y027183D03*
X033741Y021006D03*
X036634Y013573D03*
X037634Y013573D03*
X038634Y013573D03*
D21*
X009591Y013738D03*
X009591Y013238D03*
X009591Y012738D03*
X009591Y012238D03*
X009591Y011738D03*
X009591Y011238D03*
X009591Y010738D03*
D22*
X012985Y012238D03*
D23*
X006749Y022002D03*
X006249Y022002D03*
X005749Y022002D03*
X005249Y022002D03*
X004749Y022002D03*
X004249Y022002D03*
X003749Y022002D03*
D24*
X005249Y025396D03*
D25*
X008796Y022943D03*
X008796Y022274D03*
X005079Y020951D03*
X004410Y020951D03*
X004410Y020368D03*
X005079Y020368D03*
X002788Y021927D03*
X002788Y022597D03*
X009678Y014872D03*
X010347Y014872D03*
X008485Y013053D03*
X007914Y013049D03*
X007914Y012380D03*
X008485Y012384D03*
X017296Y008947D03*
X017296Y008278D03*
X015123Y005105D03*
X014453Y005105D03*
X022879Y002955D03*
X022879Y002286D03*
X024142Y008829D03*
X024823Y008829D03*
X024823Y009498D03*
X024142Y009498D03*
X026725Y009250D03*
X026725Y009920D03*
X028426Y009790D03*
X028426Y009120D03*
X031316Y010671D03*
X031316Y011341D03*
X032989Y009845D03*
X033658Y009845D03*
X034886Y010719D03*
X034886Y011388D03*
X030977Y013227D03*
X030308Y013227D03*
X031260Y015345D03*
X031930Y015345D03*
X031930Y016266D03*
X031260Y016266D03*
X026847Y019813D03*
X026847Y020483D03*
X032505Y020805D03*
X032505Y020136D03*
X038221Y016506D03*
X038221Y015837D03*
X041142Y022085D03*
X041812Y022085D03*
X035788Y024337D03*
X035119Y024337D03*
X022430Y015884D03*
X021760Y015884D03*
X017859Y013904D03*
X017859Y013234D03*
X020757Y013372D03*
X020757Y012703D03*
X045457Y005321D03*
X045457Y004652D03*
D26*
X031320Y009986D03*
X030138Y009986D03*
X015505Y005892D03*
X014323Y005892D03*
X022383Y021053D03*
X023564Y021053D03*
X034847Y023553D03*
X036028Y023553D03*
X041237Y023065D03*
X042418Y023065D03*
D27*
X009831Y016408D03*
X007040Y016408D03*
D28*
X001638Y023817D03*
X001638Y026609D03*
D29*
X013032Y026837D03*
X013032Y024475D03*
X014308Y009569D03*
X014308Y007207D03*
X039973Y023778D03*
X039973Y026140D03*
D30*
X033575Y024427D03*
X031213Y024427D03*
X011355Y024459D03*
X008993Y024459D03*
X009682Y019585D03*
X007320Y019585D03*
D31*
X006697Y003443D03*
D32*
X002918Y006274D03*
D33*
X002918Y001042D03*
D34*
X015867Y011963D03*
X015867Y013144D03*
X019886Y012648D03*
X019886Y013829D03*
X025150Y008128D03*
X025150Y006947D03*
X036564Y008927D03*
X036564Y010109D03*
X044532Y005573D03*
X044532Y004392D03*
X031694Y019880D03*
X031694Y021061D03*
X025753Y021057D03*
X025753Y019876D03*
X008087Y021971D03*
X008087Y023152D03*
D35*
X008020Y006935D03*
X012312Y006935D03*
D36*
X012792Y016203D03*
X012792Y020494D03*
D37*
X002229Y010734D03*
D38*
X002229Y008766D03*
D39*
X040071Y007919D03*
X040981Y007919D03*
X041891Y007919D03*
D40*
X040981Y005479D03*
D41*
X042985Y005616D03*
X042985Y004199D03*
X038426Y005471D03*
X038426Y006888D03*
X038009Y008857D03*
X038009Y010274D03*
X018540Y011278D03*
X018540Y012695D03*
X010272Y003179D03*
X010272Y001762D03*
D42*
X004512Y010723D03*
X004512Y012022D03*
D43*
X002229Y017120D03*
D44*
X002229Y015152D03*
X002229Y013183D03*
D45*
X015024Y022518D03*
X016024Y022518D03*
X017024Y022518D03*
X018024Y022518D03*
X019024Y022518D03*
X020024Y022518D03*
X021024Y022518D03*
X022024Y022518D03*
X023024Y022518D03*
X024024Y022518D03*
X024024Y023518D03*
X023024Y023518D03*
X022024Y023518D03*
X021024Y023518D03*
X020024Y023518D03*
X019024Y023518D03*
X018024Y023518D03*
X017024Y023518D03*
X016024Y023518D03*
X015024Y023518D03*
X021142Y005687D03*
X022142Y005687D03*
X023142Y005687D03*
X024142Y005687D03*
X025142Y005687D03*
X026142Y005687D03*
X027142Y005687D03*
X028142Y005687D03*
X029142Y005687D03*
X030142Y005687D03*
X030142Y004687D03*
X029142Y004687D03*
X028142Y004687D03*
X027142Y004687D03*
X026142Y004687D03*
X025142Y004687D03*
X024142Y004687D03*
X023142Y004687D03*
X022142Y004687D03*
X021142Y004687D03*
D46*
X032457Y006427D03*
X032457Y008199D03*
D47*
X005225Y012931D03*
X005225Y015731D03*
D48*
X001560Y019439D03*
X001560Y021723D03*
X007154Y011963D03*
X007154Y009679D03*
D49*
X032245Y002178D03*
X036497Y002178D03*
D50*
X036497Y003851D03*
X032245Y003851D03*
D51*
X033741Y004048D03*
X034056Y004048D03*
X034371Y004048D03*
X034686Y004048D03*
X035001Y004048D03*
D52*
X024127Y007514D03*
X023182Y007888D03*
X024127Y008262D03*
D53*
X028672Y018412D03*
X028928Y018412D03*
X029184Y018412D03*
X029440Y018412D03*
X029696Y018412D03*
X029951Y018412D03*
X030207Y018412D03*
X030463Y018412D03*
X030719Y018412D03*
X030975Y018412D03*
X030975Y020736D03*
X030719Y020736D03*
X030463Y020736D03*
X030207Y020736D03*
X029951Y020736D03*
X029696Y020736D03*
X029440Y020736D03*
X029184Y020736D03*
X028928Y020736D03*
X028672Y020736D03*
D54*
X024650Y025168D03*
X023233Y025168D03*
D55*
X031792Y019140D03*
X031792Y018790D03*
X031792Y018440D03*
X031788Y017711D03*
X031788Y017357D03*
X029768Y007585D03*
X029768Y007231D03*
X028839Y007231D03*
X028839Y007585D03*
X036804Y006979D03*
X036804Y006624D03*
D56*
X039493Y014046D03*
X039493Y016290D03*
D57*
X044670Y013416D03*
X045064Y018593D03*
D58*
X043548Y016758D03*
X043390Y016325D03*
X043548Y015892D03*
X043627Y015459D03*
X043548Y015026D03*
X043627Y014593D03*
X043548Y014160D03*
X043548Y013727D03*
D59*
X042906Y009116D02*
X042918Y009105D01*
X042918Y008502D01*
X042914Y008502D01*
X042902Y008514D01*
X035430Y009971D02*
X034209Y008750D01*
X030953Y008750D01*
X030627Y008423D01*
X030627Y007132D01*
X031438Y006321D01*
X031438Y004565D01*
X031406Y004534D01*
X031404Y004536D01*
X030715Y003847D01*
X030713Y003849D01*
X027890Y003849D01*
X027142Y004597D01*
X027142Y004687D01*
X028142Y004687D02*
X028142Y004502D01*
X028623Y004022D01*
X030623Y004022D01*
X030627Y004018D01*
X031190Y004581D01*
X031233Y004624D01*
X031237Y004628D02*
X031237Y006195D01*
X030402Y007030D01*
X030402Y008483D01*
X030875Y008955D01*
X032607Y008955D01*
X032599Y008955D01*
X032607Y008955D02*
X034134Y008955D01*
X035272Y010093D01*
X035272Y010376D01*
X035272Y010372D01*
X035272Y010376D02*
X035272Y011585D01*
X034875Y011983D01*
X034875Y013927D01*
X034623Y014160D01*
X032465Y014160D01*
X032276Y014368D01*
X031540Y014368D01*
X029398Y014368D01*
X029398Y014211D02*
X032146Y014211D01*
X032489Y013868D01*
X032961Y013868D01*
X033197Y013632D01*
X033316Y013632D01*
X033343Y013660D01*
X033205Y013683D01*
X032816Y013565D02*
X032816Y012849D01*
X032965Y012699D01*
X033304Y012699D01*
X033343Y012660D01*
X033631Y012116D02*
X032879Y012116D01*
X032646Y012349D01*
X032646Y012656D01*
X032123Y013179D01*
X032123Y013333D01*
X031717Y013738D01*
X029398Y013738D01*
X029398Y013581D02*
X031623Y013581D01*
X031953Y013250D01*
X031953Y013065D01*
X032465Y012553D01*
X032465Y012234D01*
X032320Y012089D01*
X031867Y012089D01*
X031784Y012006D01*
X031784Y010727D01*
X031784Y010723D01*
X031784Y010727D02*
X031965Y010546D01*
X032280Y010546D01*
X032308Y010518D01*
X032316Y010526D01*
X032394Y010526D01*
X032386Y010526D01*
X032367Y010506D01*
X032331Y010542D01*
X031331Y011349D02*
X030892Y011788D01*
X030890Y011786D01*
X030922Y011754D01*
X030886Y011718D01*
X030886Y010812D01*
X030169Y010095D01*
X030169Y010009D01*
X030160Y010009D01*
X030138Y009986D01*
X030138Y010010D01*
X029418Y010089D02*
X029418Y009144D01*
X029575Y008986D01*
X029812Y008986D01*
X029843Y009018D01*
X028792Y008751D02*
X028792Y009711D01*
X028721Y009782D01*
X028457Y009782D01*
X028430Y009754D01*
X028426Y009758D01*
X028426Y009790D01*
X028418Y009790D01*
X028280Y009927D01*
X028178Y009927D01*
X027961Y010144D01*
X027961Y010943D01*
X027804Y010943D02*
X027804Y010057D01*
X028056Y009805D01*
X028056Y009219D01*
X028154Y009120D01*
X028426Y009120D01*
X028461Y009120D01*
X028461Y008864D01*
X028209Y008612D01*
X028209Y008605D01*
X028792Y008738D02*
X028792Y008751D01*
X028792Y008751D01*
X028792Y008223D01*
X028601Y008033D01*
X028190Y008033D01*
X028188Y008030D01*
X028694Y007609D02*
X028717Y007585D01*
X028839Y007585D01*
X028823Y007648D01*
X028946Y007648D01*
X028946Y009872D01*
X028701Y010116D01*
X028268Y010116D01*
X028119Y010266D01*
X028119Y010943D01*
X028276Y010943D02*
X028276Y010392D01*
X028394Y010274D01*
X028760Y010274D01*
X029103Y009931D01*
X029103Y007963D01*
X029481Y007585D01*
X029768Y007585D01*
X029591Y007585D01*
X029575Y007569D01*
X029568Y007585D02*
X029768Y007585D01*
X030048Y008006D02*
X030048Y008120D01*
X030048Y008042D01*
X030205Y007884D01*
X030205Y007301D01*
X030134Y007231D01*
X029768Y007231D01*
X030320Y006754D02*
X031016Y006057D01*
X031016Y004691D01*
X030505Y004179D01*
X029296Y004179D01*
X029138Y004337D01*
X029138Y004632D01*
X029146Y004640D01*
X029142Y004644D01*
X029142Y004687D01*
X030142Y004687D02*
X030233Y004687D01*
X030284Y004636D01*
X030776Y005128D01*
X030776Y006022D01*
X030233Y006565D01*
X028343Y006565D01*
X027686Y007223D01*
X027686Y009683D01*
X027489Y009880D01*
X027489Y010943D01*
X027646Y010943D02*
X027646Y009967D01*
X027867Y009746D01*
X027867Y007309D01*
X028119Y007057D01*
X028123Y007057D01*
X028426Y006754D01*
X030320Y006754D01*
X029969Y006376D02*
X030115Y006231D01*
X030115Y005727D01*
X030146Y005695D01*
X030142Y005691D01*
X030142Y005687D01*
X029158Y005707D02*
X029154Y005711D01*
X029154Y006101D01*
X029056Y006199D01*
X028209Y006199D01*
X027371Y007038D01*
X027371Y009538D01*
X027174Y009734D01*
X027174Y010943D01*
X027331Y010943D02*
X027331Y009790D01*
X027532Y009589D01*
X027532Y007112D01*
X028268Y006376D01*
X029969Y006376D01*
X029158Y005707D02*
X029142Y005691D01*
X029142Y005687D01*
X028150Y005699D02*
X028138Y005711D01*
X028138Y006014D01*
X027776Y006376D01*
X026642Y006376D01*
X026465Y006553D01*
X026465Y008711D01*
X026229Y008947D01*
X026229Y010943D01*
X026386Y010943D02*
X026386Y009451D01*
X026611Y009227D01*
X026631Y009246D01*
X026725Y009250D01*
X026725Y008849D01*
X026784Y008786D01*
X027107Y008636D02*
X027107Y009549D01*
X026733Y009923D01*
X026729Y009920D01*
X026725Y009920D01*
X026544Y010101D01*
X026544Y010943D01*
X026701Y010943D02*
X026701Y010561D01*
X026883Y010380D01*
X026725Y009920D02*
X026741Y009904D01*
X025442Y010274D02*
X025363Y010195D01*
X025115Y010195D01*
X024930Y010010D01*
X024930Y009538D01*
X024890Y009498D01*
X024823Y009498D01*
X024823Y009490D01*
X024816Y009483D01*
X024823Y009498D02*
X024831Y009506D01*
X024847Y009506D01*
X025174Y009179D01*
X025174Y008132D01*
X025154Y008132D01*
X025150Y008128D01*
X025150Y008164D01*
X025272Y008286D01*
X025272Y009880D01*
X025442Y010274D02*
X025442Y010943D01*
X025599Y010943D02*
X025599Y008620D01*
X025674Y008546D01*
X025674Y007203D01*
X025666Y007203D01*
X025402Y006939D01*
X025087Y006939D01*
X025095Y006947D01*
X025150Y006947D01*
X025162Y006935D01*
X025150Y006947D02*
X025138Y006935D01*
X024894Y006935D01*
X024662Y007168D01*
X024662Y008668D01*
X024823Y008829D01*
X024489Y008510D02*
X024253Y008274D01*
X024119Y008274D01*
X024119Y008270D01*
X024127Y008262D01*
X024489Y008510D02*
X024489Y009455D01*
X024461Y009483D01*
X024158Y009483D01*
X024142Y009498D01*
X024182Y009498D01*
X025032Y010349D01*
X025237Y010349D01*
X025284Y010396D01*
X025284Y010943D01*
X025127Y010943D02*
X025127Y010530D01*
X025095Y010498D01*
X024946Y010498D01*
X024300Y009853D01*
X023591Y009853D01*
X023512Y009774D01*
X023512Y009538D01*
X023477Y009502D01*
X023477Y009514D01*
X023477Y009502D02*
X023434Y009459D01*
X023595Y008853D02*
X023678Y008770D01*
X023670Y008833D02*
X023670Y008845D01*
X023595Y008853D02*
X024119Y008853D01*
X024142Y008829D01*
X024146Y009479D02*
X024146Y009494D01*
X024142Y009498D01*
X025757Y008707D02*
X025839Y008624D01*
X025839Y006561D01*
X025312Y006034D01*
X025312Y005845D01*
X025154Y005687D01*
X025142Y005687D01*
X026068Y005837D02*
X026166Y005738D01*
X026142Y005715D01*
X026142Y005687D01*
X026068Y005837D02*
X026068Y008652D01*
X025914Y008805D01*
X025914Y010943D01*
X026071Y010943D02*
X026071Y008880D01*
X026280Y008671D01*
X026280Y006459D01*
X026524Y006215D01*
X026953Y006215D01*
X027123Y006046D01*
X027123Y005786D01*
X027154Y005754D01*
X027142Y005742D01*
X027142Y005687D01*
X028142Y005691D02*
X028142Y005687D01*
X028142Y005691D02*
X028150Y005699D01*
X031190Y004581D02*
X031237Y004628D01*
X031221Y003675D02*
X019174Y003675D01*
X018894Y003955D01*
X018938Y004494D02*
X018938Y010475D01*
X019103Y010640D01*
X019103Y014656D01*
X019497Y015049D01*
X022469Y015049D01*
X022993Y014526D01*
X024064Y014526D01*
X024064Y014683D02*
X024997Y014683D01*
X024788Y014372D02*
X025221Y014372D01*
X025355Y014506D01*
X025355Y015368D01*
X025587Y015601D01*
X028009Y015601D01*
X028016Y015609D01*
X028016Y015610D01*
X028016Y015609D02*
X028020Y015609D01*
X027961Y016219D02*
X027961Y016715D01*
X028402Y017156D01*
X028658Y017156D01*
X028875Y017372D01*
X028875Y017652D01*
X028690Y017837D01*
X028127Y017837D01*
X027922Y018042D01*
X027922Y018357D01*
X027449Y018829D01*
X026347Y018829D01*
X026111Y019065D01*
X025323Y019065D01*
X024930Y019459D01*
X024930Y023947D01*
X024457Y024420D01*
X021859Y024420D01*
X021150Y023711D01*
X021150Y023632D01*
X021036Y023518D01*
X021024Y023518D01*
X020520Y023227D02*
X020520Y023947D01*
X020678Y024105D01*
X021308Y024105D01*
X021780Y024577D01*
X024536Y024577D01*
X025087Y024026D01*
X025087Y019538D01*
X025402Y019223D01*
X026190Y019223D01*
X026426Y018986D01*
X027528Y018986D01*
X028079Y018435D01*
X028079Y018120D01*
X028158Y018042D01*
X028709Y018042D01*
X029024Y017727D01*
X029024Y017254D01*
X028757Y016986D01*
X028757Y016983D01*
X028477Y016983D01*
X028119Y016624D01*
X028119Y016219D01*
X028119Y016215D01*
X028276Y016219D02*
X028276Y016553D01*
X028544Y016821D01*
X028843Y016821D01*
X029182Y017160D01*
X029182Y018396D01*
X029184Y018398D01*
X029184Y018412D01*
X029440Y018412D02*
X029440Y017185D01*
X028914Y016660D01*
X028575Y016660D01*
X028434Y016518D01*
X028434Y016219D01*
X028591Y016219D02*
X028713Y016219D01*
X029694Y017199D01*
X029694Y018384D01*
X029697Y018388D01*
X029696Y018390D01*
X029696Y018412D01*
X029951Y018412D02*
X029951Y018890D01*
X030138Y019077D01*
X031694Y019077D01*
X031717Y019101D01*
X031721Y019096D01*
X031792Y019140D01*
X031792Y018790D02*
X031481Y018790D01*
X031390Y018699D01*
X031390Y018195D01*
X031564Y018022D01*
X032194Y018022D01*
X032268Y017947D01*
X032268Y015065D01*
X032201Y014998D01*
X029398Y014998D01*
X029398Y014841D02*
X032304Y014841D01*
X032461Y014998D01*
X032461Y016479D01*
X032949Y016967D01*
X033615Y016967D01*
X033839Y016742D01*
X033839Y016420D01*
X033847Y016412D01*
X033851Y016416D01*
X034087Y016179D01*
X034666Y016179D01*
X034902Y015943D01*
X034902Y014227D01*
X035044Y014085D01*
X035044Y013979D01*
X035044Y014006D01*
X035044Y013979D02*
X035044Y012049D01*
X035430Y011664D01*
X035430Y010309D01*
X035430Y009971D01*
X035430Y010305D02*
X035430Y010309D01*
X034142Y011628D02*
X034127Y011628D01*
X034127Y011620D01*
X033631Y012116D01*
X034142Y011628D02*
X034150Y011636D01*
X032127Y012400D02*
X032127Y012404D01*
X031662Y012868D01*
X030638Y012868D01*
X030308Y013199D01*
X030308Y013227D01*
X030308Y013242D01*
X030127Y013423D01*
X029398Y013423D01*
X029386Y013266D02*
X029398Y013266D01*
X029386Y013266D02*
X029383Y013262D01*
X029379Y013266D01*
X028131Y013266D01*
X027859Y013538D01*
X027843Y013553D01*
X027430Y013270D02*
X027587Y013112D01*
X027587Y013109D01*
X029398Y013109D01*
X029398Y012951D02*
X027571Y012951D01*
X027347Y012727D01*
X027733Y012723D02*
X027733Y012317D01*
X027646Y012231D01*
X027414Y012231D01*
X027386Y012203D01*
X027390Y012203D01*
X027390Y012183D01*
X027394Y012179D01*
X027375Y012191D02*
X027386Y012203D01*
X027733Y012723D02*
X027804Y012794D01*
X029398Y012794D01*
X029398Y012636D02*
X031284Y012636D01*
X031375Y012546D01*
X031367Y012538D01*
X031367Y012439D01*
X031052Y012372D02*
X031052Y011951D01*
X031115Y011888D01*
X031363Y011888D01*
X031371Y011896D01*
X031371Y011939D01*
X030892Y011788D02*
X030879Y011801D01*
X030879Y012227D01*
X030784Y012321D01*
X029398Y012321D01*
X029398Y012164D02*
X030371Y012164D01*
X030548Y011986D01*
X030540Y011986D01*
X030548Y011986D02*
X030564Y011971D01*
X030229Y011900D02*
X030229Y011518D01*
X030264Y011483D01*
X030544Y011483D01*
X030556Y011471D01*
X030556Y011479D01*
X030556Y011471D02*
X030564Y011463D01*
X030056Y011794D02*
X030056Y010955D01*
X030146Y010864D01*
X030158Y010864D01*
X029733Y011270D02*
X029497Y011270D01*
X029497Y011262D01*
X029485Y011250D01*
X029733Y011270D02*
X029890Y011427D01*
X029890Y011601D01*
X029800Y011691D01*
X029398Y011691D01*
X029398Y011849D02*
X030001Y011849D01*
X030056Y011794D01*
X030229Y011900D02*
X030123Y012006D01*
X029398Y012006D01*
X029398Y012479D02*
X030946Y012479D01*
X031052Y012372D01*
X030977Y013227D02*
X031477Y013227D01*
X031512Y013191D01*
X031512Y013187D01*
X031438Y013896D02*
X031843Y013896D01*
X032453Y013286D01*
X032453Y013309D01*
X032465Y013321D01*
X032367Y013668D02*
X032713Y013668D01*
X032816Y013565D01*
X032367Y013668D02*
X031981Y014053D01*
X029398Y014053D01*
X029398Y013896D02*
X031438Y013896D01*
X031442Y013900D01*
X032528Y014526D02*
X032843Y014841D01*
X032843Y016179D01*
X033099Y016435D01*
X033320Y016435D01*
X033323Y016439D01*
X033646Y016278D02*
X033670Y016254D01*
X033670Y016258D01*
X034249Y015679D01*
X034347Y015679D01*
X033674Y016250D02*
X033670Y016254D01*
X033646Y016278D02*
X033646Y016656D01*
X033524Y016778D01*
X033020Y016778D01*
X032646Y016404D01*
X032646Y014920D01*
X032410Y014683D01*
X029398Y014683D01*
X029398Y014526D02*
X032528Y014526D01*
X030638Y015294D02*
X030607Y015294D01*
X030469Y015156D01*
X029398Y015156D01*
X029398Y015313D02*
X029839Y015313D01*
X029890Y015364D01*
X029890Y015916D01*
X030205Y016231D01*
X030599Y016231D01*
X030638Y016270D01*
X030638Y016278D01*
X029575Y015837D02*
X029568Y015829D01*
X029568Y015821D01*
X029568Y015794D01*
X029568Y015640D01*
X029398Y015471D01*
X029115Y015703D02*
X029115Y015860D01*
X030678Y017423D01*
X030678Y017805D01*
X030973Y018101D01*
X030973Y018412D01*
X030975Y018412D01*
X030975Y018410D01*
X030977Y018408D01*
X030719Y018412D02*
X030719Y018807D01*
X030816Y018904D01*
X031079Y018904D01*
X031229Y018754D01*
X031229Y018061D01*
X031556Y017734D01*
X031764Y017734D01*
X031788Y017711D01*
X031390Y018191D02*
X031390Y018195D01*
X031386Y018199D01*
X030473Y018384D02*
X030465Y018376D01*
X030465Y017467D01*
X028949Y015951D01*
X028949Y015774D01*
X027016Y013841D01*
X027016Y010943D01*
X026859Y010943D02*
X026859Y013912D01*
X028788Y015841D01*
X028788Y016038D01*
X030209Y017459D01*
X030209Y018376D01*
X030225Y018392D01*
X030207Y018410D01*
X030207Y018412D01*
X030463Y018394D02*
X030463Y018412D01*
X030463Y018394D02*
X030473Y018384D01*
X028674Y018408D02*
X028674Y018345D01*
X027764Y018278D02*
X027764Y017805D01*
X027485Y017526D01*
X027485Y016223D01*
X027489Y016219D01*
X027335Y016219D02*
X027335Y017601D01*
X027607Y017872D01*
X027607Y018199D01*
X027292Y018514D01*
X026190Y018514D01*
X025953Y018750D01*
X025166Y018750D01*
X024615Y019301D01*
X024615Y023762D01*
X024272Y024105D01*
X022331Y024105D01*
X022016Y023790D01*
X022016Y023553D01*
X022024Y023546D01*
X022024Y023518D01*
X021516Y023841D02*
X021516Y023081D01*
X022024Y022573D01*
X022024Y022518D01*
X021024Y022518D02*
X021024Y022723D01*
X020520Y023227D01*
X020532Y022868D02*
X020024Y023376D01*
X020024Y023518D01*
X019524Y023018D02*
X019524Y022187D01*
X019812Y021900D01*
X020205Y021900D01*
X021229Y020876D01*
X021229Y018908D01*
X021701Y018435D01*
X023434Y018435D01*
X023591Y018278D01*
X025701Y018278D01*
X026544Y017435D01*
X026544Y016219D01*
X026701Y016219D02*
X026701Y017494D01*
X025760Y018435D01*
X023670Y018435D01*
X023512Y018593D01*
X021780Y018593D01*
X021386Y018986D01*
X021386Y020955D01*
X020048Y022294D01*
X020048Y022494D01*
X020024Y022518D01*
X020024Y022447D01*
X020024Y022518D02*
X020024Y022526D01*
X020532Y022258D02*
X020532Y022046D01*
X021544Y021034D01*
X021544Y019065D01*
X021859Y018750D01*
X023591Y018750D01*
X023749Y018593D01*
X025835Y018593D01*
X026859Y017569D01*
X026859Y016219D01*
X027016Y016219D02*
X027016Y017687D01*
X026607Y018097D01*
X026694Y018183D01*
X026694Y018207D01*
X026697Y018203D01*
X027174Y018010D02*
X027241Y018077D01*
X027233Y018085D01*
X027174Y018010D02*
X027174Y016219D01*
X027331Y016219D02*
X027335Y016219D01*
X027646Y016219D02*
X027646Y017171D01*
X027993Y017518D01*
X028512Y017526D02*
X027804Y016817D01*
X027804Y016219D01*
X029115Y015703D02*
X027430Y014018D01*
X027430Y013270D01*
X026540Y014053D02*
X026536Y014057D01*
X025704Y014493D02*
X025702Y013535D01*
X025275Y013109D01*
X024064Y013109D01*
X022733Y013109D01*
X022154Y012530D01*
X020914Y012530D01*
X020757Y012687D01*
X020757Y012703D01*
X020757Y012695D01*
X020768Y012683D01*
X020792Y012660D01*
X020768Y012683D02*
X020780Y012695D01*
X020898Y012349D02*
X022225Y012349D01*
X022823Y012947D01*
X022831Y012947D01*
X022827Y012951D01*
X024064Y012951D01*
X024064Y012794D02*
X022910Y012794D01*
X022282Y012166D01*
X022280Y012168D01*
X021032Y012168D01*
X020642Y011778D01*
X020642Y008872D01*
X020284Y008514D01*
X019890Y008514D01*
X019894Y008518D01*
X019914Y008518D01*
X019568Y008014D02*
X019379Y007825D01*
X019379Y004927D01*
X019686Y004620D01*
X019690Y004624D01*
X019690Y004652D01*
X019587Y004112D02*
X019103Y004597D01*
X019103Y010404D01*
X019260Y010561D01*
X019260Y014561D01*
X019591Y014892D01*
X022390Y014892D01*
X022914Y014368D01*
X024064Y014368D01*
X024064Y014211D02*
X024611Y014211D01*
X024788Y014372D01*
X025016Y014069D02*
X025005Y014057D01*
X025001Y014053D01*
X024083Y014053D01*
X023138Y014053D01*
X023138Y014211D02*
X024064Y014211D01*
X024064Y014053D02*
X024083Y014053D01*
X024087Y014049D01*
X024064Y013896D02*
X023044Y013896D01*
X022422Y014518D01*
X022257Y014518D01*
X022438Y013920D02*
X022438Y013896D01*
X022410Y013868D01*
X022540Y013738D01*
X024064Y013738D01*
X024064Y013581D02*
X022674Y013581D01*
X022016Y012923D01*
X021930Y013010D01*
X021894Y013010D01*
X021867Y013010D01*
X021859Y013002D01*
X022044Y012687D02*
X021308Y012687D01*
X021150Y012845D01*
X021150Y013238D01*
X020993Y013396D01*
X020757Y013396D01*
X020757Y013372D01*
X020757Y013353D01*
X020757Y013372D02*
X020863Y013266D01*
X020757Y013372D02*
X020749Y013380D01*
X020016Y013821D02*
X019886Y013829D01*
X019894Y013837D01*
X019894Y014270D01*
X019788Y014376D01*
X019788Y014534D01*
X019886Y013829D02*
X019922Y013829D01*
X019934Y013817D01*
X020087Y012703D02*
X020016Y012632D01*
X019886Y012648D01*
X020012Y012628D02*
X020016Y012632D01*
X020536Y011986D02*
X020898Y012349D01*
X020540Y011994D02*
X020536Y011990D01*
X020469Y011923D01*
X020469Y009801D01*
X020205Y009538D01*
X019890Y009538D01*
X019910Y009518D01*
X019914Y009518D01*
X019914Y009589D01*
X021595Y009042D02*
X021607Y009053D01*
X021753Y009053D01*
X021753Y011384D01*
X023005Y012636D01*
X024064Y012636D01*
X024064Y012479D02*
X023095Y012479D01*
X022174Y011557D01*
X022174Y006624D01*
X021938Y006388D01*
X020835Y006388D01*
X020642Y006195D01*
X020642Y006109D01*
X020642Y004782D01*
X020741Y004687D01*
X021142Y004687D01*
X021709Y004112D02*
X019587Y004112D01*
X019489Y003943D02*
X020678Y003943D01*
X022398Y003943D01*
X023142Y004687D01*
X022142Y004687D02*
X022142Y004546D01*
X021709Y004112D01*
X020678Y003943D02*
X020646Y003943D01*
X019489Y003943D02*
X018938Y004494D01*
X021142Y005687D02*
X021150Y005695D01*
X021150Y006073D01*
X021308Y006231D01*
X022016Y006231D01*
X022331Y006546D01*
X022331Y011459D01*
X023194Y012321D01*
X024064Y012321D01*
X024056Y012164D02*
X024064Y012164D01*
X024056Y012164D02*
X024052Y012160D01*
X024048Y012164D01*
X023288Y012164D01*
X022489Y011364D01*
X022489Y006388D01*
X022095Y005994D01*
X022095Y005679D01*
X022134Y005679D01*
X022142Y005687D01*
X022646Y006388D02*
X023197Y005837D01*
X023197Y005679D01*
X023150Y005679D01*
X023142Y005687D01*
X022646Y006388D02*
X022646Y011266D01*
X023386Y012006D01*
X024044Y012006D01*
X024048Y012002D01*
X024052Y012006D01*
X024064Y012006D01*
X024064Y011849D02*
X023489Y011849D01*
X022804Y011164D01*
X022804Y007490D01*
X024142Y006152D01*
X024142Y006175D01*
X024142Y006152D02*
X024142Y005687D01*
X023182Y007888D02*
X023194Y007900D01*
X023205Y007900D01*
X021595Y008333D02*
X021276Y008014D01*
X019568Y008014D01*
X023697Y010475D02*
X023697Y010486D01*
X023709Y010479D01*
X023686Y010577D01*
X024544Y011435D01*
X024910Y011435D01*
X024969Y011376D01*
X024969Y010943D01*
X024812Y010943D02*
X024725Y010943D01*
X024229Y010447D01*
X024229Y010467D01*
X024229Y010447D02*
X024225Y010443D01*
X023709Y010479D02*
X023701Y010514D01*
X023197Y011034D02*
X023197Y011349D01*
X023540Y011691D01*
X024064Y011691D01*
X024071Y011691D01*
X024075Y011687D01*
X023197Y011034D02*
X023182Y011018D01*
X023158Y011018D01*
X025757Y010963D02*
X025757Y010943D01*
X025757Y008707D01*
X026788Y008317D02*
X027107Y008636D01*
X026788Y008317D02*
X026788Y008246D01*
X028760Y007589D02*
X028839Y007585D01*
X029418Y008120D02*
X029497Y008120D01*
X029497Y008124D01*
X029497Y008160D01*
X029418Y008120D02*
X029260Y008278D01*
X029260Y010010D01*
X028839Y010431D01*
X028512Y010431D01*
X028434Y010510D01*
X028434Y010943D01*
X028591Y010943D02*
X028591Y010731D01*
X028776Y010731D01*
X029418Y010089D01*
X031316Y011341D02*
X031323Y011341D01*
X031331Y011349D01*
X030056Y008128D02*
X030048Y008120D01*
X032280Y006227D02*
X033520Y006227D01*
X033717Y006030D01*
X033717Y004581D01*
X033741Y004557D01*
X033741Y004048D02*
X033741Y004031D01*
X033744Y004027D01*
X033113Y003397D01*
X033113Y001337D01*
X032932Y001156D01*
X031646Y001156D01*
X031410Y001392D01*
X031410Y003486D01*
X031221Y003675D01*
X033961Y002951D02*
X033968Y002957D01*
X033969Y002959D01*
X034501Y002959D01*
X034688Y003146D01*
X034688Y004046D01*
X034686Y004048D01*
X034686Y004392D01*
X033969Y002957D02*
X033968Y002957D01*
X035615Y005825D02*
X035642Y005825D01*
X035670Y005853D01*
X035676Y005859D01*
X035676Y005860D01*
X035670Y005853D02*
X035674Y005849D01*
X022623Y013266D02*
X022044Y012687D01*
X022623Y013266D02*
X024064Y013266D01*
X024064Y013423D02*
X024946Y013423D01*
X025154Y013632D01*
X025300Y013632D01*
X025288Y013620D01*
X025300Y013632D02*
X025323Y013632D01*
X025005Y014053D02*
X025005Y014057D01*
X024064Y014683D02*
X023056Y014683D01*
X023087Y014841D02*
X023087Y014845D01*
X022725Y015207D01*
X020205Y015207D01*
X019812Y015601D01*
X019812Y020168D01*
X019497Y020483D01*
X018394Y020483D01*
X017764Y021112D01*
X016741Y021112D01*
X016111Y021742D01*
X014851Y021742D01*
X014516Y022077D01*
X014516Y023156D01*
X014875Y023514D01*
X015028Y023514D01*
X015024Y023518D01*
X015028Y023522D01*
X015036Y023522D01*
X015036Y023459D01*
X016024Y023518D02*
X016532Y023010D01*
X016532Y022030D01*
X016977Y021585D01*
X018001Y021585D01*
X018631Y020955D01*
X019733Y020955D01*
X020284Y020404D01*
X020284Y016782D01*
X020757Y016309D01*
X024721Y016309D01*
X024812Y016219D01*
X024969Y016219D02*
X024969Y016636D01*
X024902Y016703D01*
X024457Y016703D01*
X024221Y016467D01*
X020835Y016467D01*
X020442Y016860D01*
X020442Y020483D01*
X019812Y021112D01*
X018709Y021112D01*
X018079Y021742D01*
X017371Y021742D01*
X017056Y022057D01*
X017056Y022486D01*
X017024Y022518D01*
X017032Y022510D01*
X017528Y022136D02*
X017528Y023238D01*
X017213Y023553D01*
X017056Y023553D01*
X017056Y023549D01*
X017024Y023518D01*
X018024Y023518D02*
X018524Y023018D01*
X018524Y022085D01*
X019024Y021585D01*
X020048Y021585D01*
X020914Y020719D01*
X020914Y018750D01*
X021544Y018120D01*
X021780Y018120D01*
X022489Y017412D01*
X023197Y017412D01*
X023434Y017648D01*
X025442Y017648D01*
X025914Y017175D01*
X025914Y016219D01*
X026071Y016219D02*
X026071Y017238D01*
X025505Y017805D01*
X023355Y017805D01*
X023119Y017569D01*
X022646Y017569D01*
X022410Y017805D01*
X022410Y017963D01*
X022406Y017967D01*
X022883Y017963D02*
X022883Y017912D01*
X022894Y017900D01*
X022883Y017963D02*
X025560Y017963D01*
X026229Y017294D01*
X026229Y016219D01*
X026386Y016219D02*
X026386Y017384D01*
X025658Y018112D01*
X023540Y018112D01*
X023367Y018286D01*
X021631Y018286D01*
X021079Y018837D01*
X021079Y018876D01*
X021079Y018868D01*
X021079Y018876D02*
X021079Y020309D01*
X021079Y020778D01*
X020115Y021742D01*
X019603Y021742D01*
X019028Y022317D01*
X019028Y022467D01*
X019044Y022483D01*
X019024Y022502D01*
X019024Y022518D01*
X019524Y023018D02*
X019024Y023518D01*
X018012Y022530D02*
X018024Y022518D01*
X018024Y022219D01*
X018001Y022294D02*
X018001Y022530D01*
X018012Y022530D01*
X018001Y022294D02*
X018867Y021427D01*
X019969Y021427D01*
X020757Y020640D01*
X020757Y018671D01*
X021465Y017963D01*
X021701Y017963D01*
X022390Y017274D01*
X022390Y017258D01*
X023867Y017258D01*
X024083Y017475D01*
X025386Y017475D01*
X025757Y017105D01*
X025757Y016219D01*
X025599Y016219D02*
X025599Y016994D01*
X025284Y017309D01*
X024154Y017309D01*
X023942Y017097D01*
X022016Y017097D01*
X022030Y017110D01*
X022044Y017097D01*
X022030Y017110D02*
X021886Y017254D01*
X021509Y016939D02*
X024005Y016939D01*
X024225Y017160D01*
X025178Y017160D01*
X025442Y016896D01*
X025442Y016219D01*
X025284Y016219D02*
X025284Y016821D01*
X025107Y016998D01*
X024292Y016998D01*
X024075Y016782D01*
X021071Y016782D01*
X020914Y016939D01*
X020914Y017435D01*
X020922Y017443D01*
X020922Y017435D01*
X021335Y017112D02*
X021509Y016939D01*
X020934Y016624D02*
X020599Y016959D01*
X020599Y020561D01*
X019890Y021270D01*
X018788Y021270D01*
X018158Y021900D01*
X017764Y021900D01*
X017528Y022136D01*
X017922Y021427D02*
X016898Y021427D01*
X016032Y022294D01*
X016032Y022530D01*
X016024Y022522D01*
X016024Y022518D01*
X016020Y022514D01*
X016190Y021900D02*
X015560Y021900D01*
X015009Y022451D01*
X015024Y022467D01*
X015024Y022518D01*
X016190Y021900D02*
X016820Y021270D01*
X017843Y021270D01*
X018473Y020640D01*
X019575Y020640D01*
X019969Y020246D01*
X019969Y015679D01*
X020284Y015364D01*
X022808Y015364D01*
X023174Y014998D01*
X024064Y014998D01*
X024064Y014841D02*
X023087Y014841D01*
X023304Y015156D02*
X022938Y015522D01*
X020363Y015522D01*
X020127Y015758D01*
X020127Y020325D01*
X019654Y020797D01*
X018552Y020797D01*
X017922Y021427D01*
X020532Y022246D02*
X020532Y022258D01*
X020532Y022868D01*
X021516Y023841D02*
X021938Y024262D01*
X024379Y024262D01*
X024772Y023868D01*
X024772Y019380D01*
X025245Y018908D01*
X026032Y018908D01*
X026268Y018671D01*
X027371Y018671D01*
X027764Y018278D01*
X028512Y017526D02*
X028524Y017526D01*
X025127Y016738D02*
X025127Y016219D01*
X024969Y016219D02*
X024969Y016215D01*
X025127Y016738D02*
X025009Y016857D01*
X024394Y016857D01*
X024162Y016624D01*
X020934Y016624D01*
X020442Y015908D02*
X021737Y015908D01*
X021760Y015884D01*
X022402Y015872D02*
X022418Y015872D01*
X022839Y015872D01*
X022875Y015837D01*
X022883Y015837D01*
X022883Y015829D01*
X023398Y015313D01*
X024064Y015313D01*
X024064Y015156D02*
X023304Y015156D01*
X023528Y015471D02*
X023457Y015542D01*
X023457Y015790D01*
X023461Y015794D01*
X023457Y015794D01*
X023528Y015471D02*
X024064Y015471D01*
X024776Y015183D02*
X024788Y015183D01*
X024792Y015187D01*
X022430Y015884D02*
X022418Y015872D01*
X023150Y013423D02*
X024064Y013423D01*
X020536Y011990D02*
X020536Y011986D01*
X021079Y020309D02*
X021079Y020329D01*
X025835Y022463D02*
X025855Y022502D01*
X025827Y022502D01*
X025827Y022498D01*
X025835Y022490D01*
X026820Y022490D02*
X026827Y022498D01*
X026827Y022502D01*
X027827Y022502D02*
X027831Y022502D01*
X027843Y022490D01*
X028827Y022502D02*
X028855Y022502D01*
X028867Y022490D01*
X029812Y022451D02*
X029851Y022490D01*
X029839Y022502D01*
X031032Y021782D02*
X031036Y021786D01*
X031071Y021427D02*
X031150Y021349D01*
X031150Y021270D01*
X031308Y021112D01*
X031308Y021034D01*
X031623Y021034D01*
X031650Y021061D01*
X031694Y021061D01*
X031701Y022490D02*
X031662Y022530D01*
X031701Y022502D02*
X031701Y022490D01*
X032701Y022502D02*
X032701Y022475D01*
X032725Y022451D01*
X003737Y020546D02*
X003686Y020546D01*
X003678Y020553D01*
X003678Y020510D01*
X003682Y020510D01*
X003682Y020490D01*
X003631Y020439D01*
X003678Y020553D02*
X003670Y020561D01*
D60*
X008798Y020967D02*
X008798Y021007D01*
X009648Y022507D02*
X009643Y022512D01*
X009649Y022507D02*
X009648Y022507D01*
X009649Y022507D02*
X009649Y024314D01*
X009430Y024534D01*
X008993Y024459D01*
X009398Y024566D02*
X009430Y024534D01*
X010646Y023368D02*
X011170Y023892D01*
X010646Y023368D02*
X010646Y022509D01*
X010643Y022512D01*
X010646Y022509D02*
X010646Y022455D01*
X015879Y019301D02*
X015938Y019360D01*
X015879Y019301D02*
X015879Y018317D01*
X022518Y020241D02*
X022560Y020199D01*
X022713Y020353D01*
X024119Y020353D01*
X024280Y020191D01*
X024280Y020183D01*
X024276Y020186D01*
X024276Y020199D01*
X025753Y019876D02*
X025890Y019813D01*
X026847Y019813D01*
X025839Y021006D02*
X025753Y021057D01*
X024052Y019325D02*
X024060Y019199D01*
X029255Y019249D02*
X029255Y019247D01*
X029255Y019249D02*
X029257Y019252D01*
X029257Y019377D01*
X029760Y019880D01*
X031694Y019880D01*
X033505Y019577D02*
X033509Y019581D01*
X033509Y019585D01*
X033942Y019585D01*
X034044Y019483D01*
X034957Y019483D01*
X035111Y019329D01*
X035111Y018715D01*
X035359Y018530D01*
X041233Y018530D01*
X040162Y019270D02*
X040134Y019270D01*
X040127Y019262D01*
X039099Y019262D01*
X039473Y020049D02*
X039473Y020413D01*
X039473Y020939D01*
X039457Y020955D01*
X039473Y020939D02*
X039473Y020971D01*
X041473Y020971D02*
X041820Y021317D01*
X041820Y022077D01*
X041812Y022085D01*
X041812Y022046D01*
X042359Y022593D01*
X042359Y023034D01*
X042418Y023065D02*
X042772Y023065D01*
X043406Y023699D01*
X041855Y022089D02*
X042438Y021505D01*
X042438Y021391D01*
X041796Y022030D02*
X041812Y022046D01*
X041812Y022085D02*
X041851Y022085D01*
X041855Y022089D01*
X041827Y022085D02*
X041812Y022085D01*
X036028Y023553D02*
X036024Y023557D01*
X036024Y024101D01*
X035788Y024337D01*
X035119Y024337D02*
X034847Y024065D01*
X034847Y023553D01*
X032906Y025439D02*
X032902Y025439D01*
X032898Y025443D01*
X032898Y025439D01*
X030540Y024534D02*
X030540Y024518D01*
X030540Y022774D01*
X030532Y022766D01*
X031068Y021412D02*
X031414Y021065D01*
X031690Y021065D01*
X031694Y021061D01*
X029255Y019270D02*
X029255Y019249D01*
X031064Y017640D02*
X031064Y017609D01*
X031064Y017640D02*
X031071Y017648D01*
X031071Y017018D01*
X031308Y016782D01*
X031623Y016782D01*
X031859Y016546D01*
X031859Y016345D01*
X031930Y016266D02*
X031942Y016234D01*
X031938Y016231D01*
X031938Y015337D01*
X031268Y015325D02*
X031260Y015345D01*
X031268Y015325D02*
X031229Y015286D01*
X030646Y015286D01*
X030686Y016231D02*
X031229Y016231D01*
X031260Y016262D01*
X031260Y016266D01*
X033343Y013660D02*
X034355Y013683D01*
X034355Y013687D01*
X034355Y013683D02*
X034355Y013679D01*
X034339Y013679D01*
X034383Y012683D02*
X033343Y012660D01*
X034339Y012679D02*
X034383Y012679D01*
X034383Y012683D01*
X034383Y012679D02*
X034383Y012668D01*
X034127Y011628D02*
X034308Y011447D01*
X034871Y011447D01*
X034871Y011404D01*
X034886Y011388D01*
X034886Y010719D02*
X034729Y010561D01*
X034138Y010561D01*
X034138Y010538D01*
X034127Y010526D01*
X034158Y010526D01*
X034217Y010467D01*
X034107Y010542D02*
X033701Y010136D01*
X033701Y009845D01*
X033701Y009530D01*
X033469Y009297D01*
X033005Y009297D01*
X033020Y009282D01*
X033020Y009278D01*
X032977Y009833D02*
X032989Y009845D01*
X032977Y009833D02*
X032965Y009833D01*
X032965Y009955D01*
X032394Y010526D01*
X031316Y010671D02*
X031316Y010034D01*
X031335Y010014D01*
X031320Y009998D01*
X031320Y009986D01*
X033658Y009845D02*
X033701Y009845D01*
X035800Y010034D02*
X035820Y010034D01*
X036489Y010034D01*
X036564Y010109D01*
X036260Y009231D02*
X035804Y009231D01*
X036260Y009231D02*
X036564Y008927D01*
X037280Y008876D02*
X037280Y008884D01*
X037280Y008876D02*
X037280Y008601D01*
X036863Y007522D02*
X036855Y007514D01*
X036851Y007510D01*
X036225Y007510D01*
X036229Y007514D01*
X036225Y007510D02*
X035969Y007254D01*
X035969Y006431D01*
X035969Y006345D01*
X036493Y005821D01*
X036493Y001986D01*
X036501Y001979D01*
X036507Y001984D01*
X032910Y005581D02*
X031993Y005581D01*
X031485Y006738D02*
X031386Y006837D01*
X031386Y007896D01*
X031548Y008057D01*
X031554Y008051D01*
X031705Y008203D01*
X032453Y008203D01*
X032457Y008199D01*
X031554Y008051D02*
X031544Y008042D01*
X031524Y008061D01*
X031524Y008175D01*
X031351Y008349D01*
X031544Y008042D02*
X031505Y008002D01*
X026796Y008234D02*
X026796Y006943D01*
X025150Y006947D02*
X025134Y006931D01*
X024316Y006931D01*
X026776Y008254D02*
X026784Y008246D01*
X026796Y008234D01*
X026788Y008246D02*
X026784Y008246D01*
X025142Y004687D02*
X025142Y004620D01*
X025115Y004593D01*
X025131Y004577D01*
X025131Y004128D01*
X025052Y004049D01*
X023638Y004049D01*
X023638Y004061D01*
X023646Y004069D01*
X023636Y003250D02*
X023131Y003250D01*
X022914Y003034D01*
X022914Y002975D01*
X022879Y002955D01*
X022879Y002286D02*
X022879Y001738D01*
X022804Y001664D01*
X022898Y001664D02*
X022898Y001675D01*
X022902Y001679D01*
X023410Y001018D02*
X023410Y000719D01*
X023414Y000715D01*
X023418Y000715D02*
X023012Y000715D01*
X023005Y000723D01*
X023005Y000715D01*
X023410Y000715D02*
X023410Y000719D01*
X024741Y001664D02*
X024753Y001664D01*
X024741Y001664D02*
X024741Y001675D01*
X015094Y004286D02*
X015127Y004526D01*
X015127Y005101D01*
X015123Y005105D01*
X014497Y004459D02*
X013946Y003908D01*
X013040Y003908D01*
X012725Y004223D01*
X012725Y005325D01*
X012804Y005404D01*
X013111Y005404D01*
X013552Y005845D01*
X013552Y006553D02*
X013552Y007207D01*
X013552Y007215D01*
X017296Y008947D02*
X018320Y008947D01*
X018335Y008947D01*
X019886Y012648D02*
X019886Y012683D01*
X019906Y012703D01*
X020757Y012703D01*
X020757Y013372D02*
X020701Y013372D01*
X020284Y013790D01*
X019890Y013790D01*
X019886Y013794D01*
X019886Y013829D01*
X014497Y004459D02*
X014504Y004286D01*
X038221Y016506D02*
X038237Y016522D01*
X038237Y016860D01*
X038631Y017254D01*
X039116Y017254D01*
X039126Y017244D01*
X039123Y017247D01*
X039079Y017247D01*
X039079Y017238D01*
X043609Y012347D02*
X044670Y013408D01*
X044670Y013416D01*
X043609Y012347D02*
X043408Y012146D01*
X043406Y012148D01*
X042894Y011636D01*
X042894Y011392D01*
X042902Y011384D01*
X042902Y011420D02*
X042902Y010671D01*
X042902Y009884D01*
X042312Y009884D02*
X042304Y009892D01*
X041701Y009892D01*
X041694Y009884D01*
X040985Y009884D02*
X040981Y009888D01*
X040379Y009888D01*
X040363Y009872D01*
X040371Y010656D02*
X040973Y010656D01*
X040989Y010671D01*
X041697Y010671D02*
X042312Y010671D01*
X042902Y010671D02*
X042902Y010675D01*
X042312Y011420D02*
X042296Y011435D01*
X041717Y011435D01*
X041701Y011420D01*
X040993Y011420D02*
X040977Y011435D01*
X040363Y011435D01*
X040363Y011443D01*
X040375Y010660D02*
X040371Y010656D01*
X041713Y009112D02*
X042312Y009112D01*
X042316Y009116D01*
X041713Y009112D02*
X041697Y009097D01*
X043312Y012049D02*
X043408Y012146D01*
D61*
X036497Y003851D02*
X036497Y002288D01*
X036512Y002272D01*
X036497Y002257D01*
X036497Y002178D01*
X032245Y002178D02*
X032174Y002178D01*
X032245Y002249D01*
X032245Y003851D01*
X032174Y002178D02*
X032162Y002166D01*
X029812Y023514D02*
X026820Y023514D01*
X026808Y023502D01*
X025827Y023502D01*
X025827Y024502D02*
X026855Y024502D01*
X026859Y024498D01*
X029851Y024498D01*
X029827Y024502D02*
X029812Y024518D01*
X030540Y024518D01*
X031123Y024518D01*
X031213Y024427D01*
X022087Y025231D02*
X022064Y025207D01*
X021544Y025207D01*
X020993Y024656D01*
X014772Y024656D01*
X014615Y024498D01*
X014536Y024498D01*
X014570Y024465D01*
D62*
X031938Y016309D02*
X031938Y016266D01*
X031930Y016266D01*
X031930Y015345D02*
X031938Y015337D01*
X034300Y016675D02*
X034343Y016675D01*
X035847Y016675D01*
X035993Y016530D01*
X036701Y016530D02*
X036709Y016522D01*
X037288Y016522D01*
X037296Y016522D01*
X036701Y017203D02*
X036725Y017227D01*
X039109Y017227D01*
X039126Y017244D01*
X035993Y017203D02*
X035532Y017664D01*
X034331Y017664D01*
X034347Y017679D01*
X034343Y017679D01*
X034331Y017668D01*
X034323Y017675D01*
X034320Y017664D02*
X034331Y017664D01*
X033292Y018250D02*
X033272Y018231D01*
X032784Y018719D01*
X032757Y018719D01*
X033292Y018250D02*
X033442Y018250D01*
X033969Y018668D02*
X034359Y018668D01*
X034347Y018679D01*
X034351Y018675D01*
X034351Y018668D01*
X034359Y018668D02*
X034367Y018668D01*
X033969Y018668D02*
X033544Y019093D01*
X033481Y020073D02*
X033477Y020077D01*
X034241Y020077D01*
X034268Y020049D01*
X034268Y020053D01*
X033477Y020077D02*
X033469Y020077D01*
X036182Y019398D02*
X036182Y019394D01*
X036636Y019394D01*
X037489Y020246D01*
X037489Y020876D01*
X037449Y020916D01*
X037461Y020927D01*
X037473Y020971D01*
X040162Y019979D02*
X040209Y019931D01*
X040288Y020010D01*
X040914Y020010D01*
X039099Y019262D02*
X038383Y019262D01*
X038217Y019246D01*
X034347Y016679D02*
X034343Y016675D01*
X036631Y013577D02*
X036631Y012620D01*
X036631Y011912D02*
X036638Y011904D01*
X036638Y010065D01*
X036607Y010065D01*
X036564Y010109D01*
X035827Y010022D02*
X035820Y010030D01*
X035820Y010034D01*
X036564Y008927D02*
X036564Y008900D01*
X036595Y008868D01*
X036603Y008876D01*
X036993Y008876D01*
X038009Y008857D02*
X038032Y008833D01*
X038170Y008833D01*
X038646Y013321D02*
X038611Y013357D01*
X038611Y013416D01*
X038634Y013439D01*
X038634Y013573D01*
X036634Y013573D02*
X036631Y013577D01*
X030138Y010010D02*
X029482Y010666D01*
X029421Y010666D01*
X029427Y010672D01*
X028917Y011183D01*
X028917Y011416D01*
X028688Y011646D01*
X027612Y011646D01*
X025756Y011616D02*
X025756Y014435D01*
X025698Y014493D01*
X025704Y014493D01*
X025698Y014493D02*
X025694Y014498D01*
X028532Y013616D02*
X028544Y013628D01*
X028753Y013837D01*
X028753Y014821D01*
X028544Y013628D02*
X028560Y013616D01*
X029408Y010666D02*
X029421Y010666D01*
X024142Y008829D02*
X024138Y008833D01*
X023670Y008833D01*
X023670Y008376D01*
X023194Y007900D01*
X023205Y007900D02*
X023213Y007892D01*
X024457Y007892D01*
X024505Y007845D01*
X024505Y007168D01*
X024316Y006979D01*
X024316Y006931D01*
X023670Y008833D02*
X023473Y008833D01*
X023398Y008833D01*
X023083Y009148D01*
X023083Y009951D01*
X023099Y009967D01*
X023091Y009975D01*
X023087Y009975D01*
X023473Y008833D02*
X023473Y008809D01*
X023477Y008805D01*
X028178Y007502D02*
X028178Y007471D01*
X028174Y007467D01*
X028410Y007231D01*
X028839Y007231D01*
X043627Y015459D02*
X043645Y015459D01*
X043649Y015463D01*
X043652Y015459D01*
D63*
X045835Y014719D03*
X045497Y011683D03*
X045646Y010423D03*
X045646Y008845D03*
X045646Y007274D03*
X042902Y008514D03*
X040449Y009101D03*
X040363Y009872D03*
X039221Y009872D03*
X040375Y010660D03*
X040363Y011443D03*
X035820Y010034D03*
X035804Y009231D03*
X037280Y008601D03*
X036855Y007514D03*
X039823Y006754D03*
X035670Y005853D03*
X032910Y005581D03*
X031993Y005581D03*
X031930Y004947D03*
X029497Y003238D03*
X027394Y002494D03*
X027390Y002502D03*
X028985Y001668D03*
X029497Y001664D03*
X033969Y002957D03*
X035477Y003343D03*
X037579Y002228D03*
X039068Y001923D03*
X041993Y000790D03*
X031485Y006738D03*
X030056Y008128D03*
X029497Y008124D03*
X028188Y008030D03*
X028178Y007502D03*
X026796Y006943D03*
X026788Y008246D03*
X026784Y008786D03*
X028209Y008605D03*
X031343Y008357D03*
X031327Y009337D03*
X033020Y009278D03*
X033386Y008341D03*
X033949Y008364D03*
X030158Y010864D03*
X029427Y010672D03*
X029485Y011250D03*
X030556Y011479D03*
X030564Y011463D03*
X030540Y011986D03*
X031371Y011939D03*
X031367Y012439D03*
X032127Y012400D03*
X032453Y013309D03*
X031512Y013187D03*
X028753Y014821D03*
X028016Y015609D03*
X029568Y015794D03*
X028524Y017526D03*
X027993Y017518D03*
X027233Y018085D03*
X026694Y018207D03*
X028296Y018711D03*
X029257Y019252D03*
X028749Y019648D03*
X026386Y021010D03*
X025557Y021739D03*
X022518Y020241D03*
X022812Y019723D03*
X023249Y019305D03*
X024060Y019199D03*
X024280Y020183D03*
X022406Y017967D03*
X022894Y017900D03*
X021886Y017254D03*
X021335Y017112D03*
X020922Y017443D03*
X020442Y015908D03*
X019788Y014534D03*
X019776Y014522D03*
X022257Y014518D03*
X022438Y013920D03*
X021894Y013010D03*
X025005Y014053D03*
X025288Y013620D03*
X026536Y014057D03*
X025704Y014493D03*
X024997Y014683D03*
X024776Y015183D03*
X023457Y015794D03*
X027859Y013538D03*
X028560Y013616D03*
X027375Y012727D03*
X027390Y012203D03*
X027375Y012191D03*
X027612Y011646D03*
X026493Y011514D03*
X025756Y011616D03*
X026883Y010380D03*
X025272Y009880D03*
X024229Y010447D03*
X024229Y010467D03*
X023709Y010479D03*
X023158Y011018D03*
X023087Y009975D03*
X024316Y006931D03*
X019745Y005203D03*
X019690Y004652D03*
X018894Y003955D03*
X018071Y003790D03*
X017611Y002833D03*
X017615Y002801D03*
X018934Y002447D03*
X018359Y001679D03*
X020367Y001644D03*
X020938Y001652D03*
X023410Y001018D03*
X015709Y003053D03*
X012062Y002174D03*
X001276Y001420D03*
X001276Y000931D03*
X001398Y006026D03*
X001394Y006549D03*
X005585Y009130D03*
X005292Y010782D03*
X007997Y010679D03*
X011351Y010683D03*
X012138Y010683D03*
X012138Y011471D03*
X011351Y011471D03*
X011351Y012258D03*
X012138Y012258D03*
X012926Y012258D03*
X013713Y012258D03*
X014501Y012258D03*
X014501Y011471D03*
X014501Y010683D03*
X013713Y010683D03*
X012926Y010683D03*
X012926Y011471D03*
X013713Y011471D03*
X013713Y013046D03*
X012926Y013046D03*
X012138Y013046D03*
X011351Y013046D03*
X011351Y013833D03*
X012138Y013833D03*
X012926Y013833D03*
X013713Y013833D03*
X014501Y013833D03*
X014501Y013046D03*
X015655Y015035D03*
X007371Y013801D03*
X005406Y014943D03*
X004910Y014951D03*
X003631Y018951D03*
X003678Y020510D03*
X000922Y021723D03*
X003512Y023711D03*
X004300Y023711D03*
X005087Y023711D03*
X005875Y023711D03*
X006662Y023711D03*
X006662Y024498D03*
X005875Y024498D03*
X005087Y024498D03*
X004300Y024498D03*
X003512Y024498D03*
X003512Y025286D03*
X003512Y026073D03*
X004300Y026073D03*
X005087Y026073D03*
X005087Y025286D03*
X004300Y025286D03*
X005875Y025286D03*
X006662Y025286D03*
X006662Y026073D03*
X005875Y026073D03*
X005875Y026860D03*
X006662Y026860D03*
X005087Y026860D03*
X004300Y026860D03*
X003512Y026860D03*
X010615Y025632D03*
X013911Y025410D03*
X008083Y021057D03*
X015670Y020546D03*
X024989Y026325D03*
X026386Y026215D03*
X030851Y026321D03*
X032906Y025439D03*
X030532Y022766D03*
X031068Y021412D03*
X033481Y020073D03*
X033505Y019577D03*
X034268Y020053D03*
X038217Y019246D03*
X040914Y020010D03*
X041119Y019030D03*
X041233Y018530D03*
X039126Y017244D03*
X038847Y016624D03*
X037560Y015085D03*
X033323Y016439D03*
X032949Y017809D03*
X031064Y017609D03*
X043406Y023699D03*
X041009Y026294D03*
X044760Y019337D03*
X013287Y009086D03*
X010835Y008514D03*
D64*
X010912Y008175D02*
X010905Y008157D01*
X010905Y005714D01*
X010996Y005493D01*
X011165Y005324D01*
X011291Y005272D01*
X011291Y004727D01*
X010586Y004022D01*
X010573Y003991D01*
X010272Y003991D01*
X009898Y003991D01*
X009787Y003945D01*
X009703Y003861D01*
X009657Y003751D01*
X009657Y003180D01*
X010272Y003180D01*
X010272Y003991D01*
X010272Y003180D01*
X010272Y003180D01*
X010272Y003179D01*
X009657Y003179D01*
X009657Y002799D01*
X009617Y002782D01*
X009449Y002614D01*
X009357Y002393D01*
X009357Y001131D01*
X009449Y000910D01*
X009451Y000908D01*
X008394Y000909D01*
X008426Y000987D01*
X008426Y001120D01*
X007757Y001120D01*
X007757Y001120D01*
X008426Y001120D01*
X008426Y001254D01*
X008324Y001500D01*
X008136Y001688D01*
X007890Y001790D01*
X007757Y001790D01*
X007757Y001121D01*
X007756Y001121D01*
X007756Y001790D01*
X007623Y001790D01*
X007377Y001688D01*
X007189Y001500D01*
X007087Y001254D01*
X007087Y001120D01*
X007087Y000987D01*
X007119Y000909D01*
X004468Y000909D01*
X004468Y000917D01*
X003043Y000917D01*
X003043Y001166D01*
X004468Y001166D01*
X004468Y001751D01*
X004422Y001861D01*
X004338Y001945D01*
X004228Y001991D01*
X003043Y001991D01*
X003043Y001167D01*
X002793Y001167D01*
X002793Y001991D01*
X001608Y001991D01*
X001498Y001945D01*
X001414Y001861D01*
X001368Y001751D01*
X001368Y001166D01*
X002793Y001166D01*
X002793Y000917D01*
X001368Y000917D01*
X001368Y000909D01*
X000758Y000909D01*
X000754Y007311D01*
X000792Y007364D01*
X004055Y007364D01*
X004086Y007334D01*
X004086Y007324D01*
X003093Y007324D01*
X003093Y006449D01*
X002743Y006449D01*
X002743Y007324D01*
X001608Y007324D01*
X001498Y007278D01*
X001414Y007194D01*
X001368Y007084D01*
X001368Y006449D01*
X002743Y006449D01*
X002743Y006099D01*
X001368Y006099D01*
X001368Y005464D01*
X001414Y005354D01*
X001498Y005270D01*
X001608Y005224D01*
X002743Y005224D01*
X002743Y006099D01*
X003093Y006099D01*
X003093Y005224D01*
X004086Y005224D01*
X004086Y005045D01*
X004086Y004755D01*
X004161Y004475D01*
X004305Y004224D01*
X005113Y003417D01*
X005113Y002674D01*
X005205Y002454D01*
X005373Y002285D01*
X005594Y002194D01*
X007801Y002194D01*
X008022Y002285D01*
X008190Y002454D01*
X008282Y002674D01*
X008282Y004212D01*
X008190Y004433D01*
X008022Y004601D01*
X007801Y004693D01*
X006948Y004693D01*
X006286Y005355D01*
X006286Y006489D01*
X006608Y006489D01*
X006613Y006491D01*
X006613Y005714D01*
X006705Y005493D01*
X006873Y005324D01*
X007094Y005233D01*
X008947Y005233D01*
X009167Y005324D01*
X009336Y005493D01*
X009427Y005714D01*
X009427Y008157D01*
X009420Y008175D01*
X010912Y008175D01*
X010905Y008123D02*
X009427Y008123D01*
X009427Y007724D02*
X010905Y007724D01*
X010905Y007326D02*
X009427Y007326D01*
X009427Y006927D02*
X010905Y006927D01*
X010905Y006528D02*
X009427Y006528D01*
X009427Y006130D02*
X010905Y006130D01*
X010905Y005731D02*
X009427Y005731D01*
X009176Y005333D02*
X011156Y005333D01*
X011291Y004934D02*
X006707Y004934D01*
X006865Y005333D02*
X006308Y005333D01*
X006286Y005731D02*
X006613Y005731D01*
X006613Y006130D02*
X006286Y006130D01*
X008087Y004536D02*
X011100Y004536D01*
X010701Y004137D02*
X008282Y004137D01*
X008282Y003739D02*
X009657Y003739D01*
X009657Y003340D02*
X008282Y003340D01*
X008282Y002942D02*
X009657Y002942D01*
X009419Y002543D02*
X008227Y002543D01*
X008835Y002860D02*
X008835Y001416D01*
X008528Y001109D01*
X007749Y001109D01*
X007749Y001124D01*
X007756Y001120D02*
X007756Y001120D01*
X007087Y001120D01*
X007756Y001120D01*
X007756Y001347D02*
X007757Y001347D01*
X008388Y001347D02*
X009357Y001347D01*
X009433Y000949D02*
X008411Y000949D01*
X007997Y001746D02*
X009357Y001746D01*
X009357Y002144D02*
X000757Y002144D01*
X000757Y001746D02*
X001368Y001746D01*
X001368Y001347D02*
X000757Y001347D01*
X000758Y000949D02*
X002793Y000949D01*
X003043Y000949D02*
X007102Y000949D01*
X007125Y001347D02*
X004468Y001347D01*
X004468Y001746D02*
X007516Y001746D01*
X007756Y001746D02*
X007757Y001746D01*
X008835Y002860D02*
X009107Y003132D01*
X010225Y003132D01*
X010272Y003179D01*
X010272Y003340D02*
X010272Y003340D01*
X010272Y003739D02*
X010272Y003739D01*
X011264Y003569D02*
X012091Y004396D01*
X012091Y006797D01*
X012245Y006951D01*
X012300Y006951D01*
X012300Y006947D01*
X012312Y006935D01*
X015134Y005431D02*
X015134Y005132D01*
X015111Y005109D01*
X015115Y005105D01*
X015123Y005105D01*
X015134Y005431D02*
X015343Y005640D01*
X015481Y005640D01*
X011264Y003569D02*
X011264Y002089D01*
X011264Y002057D01*
X010930Y001723D01*
X010312Y001723D01*
X010272Y001762D01*
X005168Y002543D02*
X000757Y002543D01*
X000757Y002942D02*
X005113Y002942D01*
X005113Y003340D02*
X000756Y003340D01*
X000756Y003739D02*
X004791Y003739D01*
X004393Y004137D02*
X000756Y004137D01*
X000756Y004536D02*
X004144Y004536D01*
X004086Y004934D02*
X000755Y004934D01*
X000755Y005333D02*
X001435Y005333D01*
X001368Y005731D02*
X000755Y005731D01*
X000755Y006130D02*
X002743Y006130D01*
X002918Y006274D02*
X001725Y006274D01*
X001725Y006278D01*
X001453Y006549D01*
X001394Y006549D01*
X001368Y006528D02*
X000755Y006528D01*
X000754Y006927D02*
X001368Y006927D01*
X000764Y007326D02*
X004086Y007326D01*
X003093Y006927D02*
X002743Y006927D01*
X002743Y006528D02*
X003093Y006528D01*
X003093Y005731D02*
X002743Y005731D01*
X002743Y005333D02*
X003093Y005333D01*
X001725Y006274D02*
X001682Y006274D01*
X001446Y006038D01*
X001398Y006026D01*
X002793Y001746D02*
X003043Y001746D01*
X003043Y001347D02*
X002793Y001347D01*
X016961Y010744D02*
X016967Y010744D01*
X016985Y010727D01*
X017859Y011601D02*
X017859Y013234D01*
X018540Y013648D02*
X018540Y012695D01*
X018540Y013648D02*
X017414Y014774D01*
X017064Y014774D01*
X017009Y014829D01*
X016961Y014782D01*
X016961Y014744D01*
X019776Y014522D02*
X019776Y014514D01*
X019886Y014404D01*
X019886Y013829D01*
X019981Y013829D01*
X020012Y013797D01*
X020032Y013817D01*
X012737Y016203D02*
X010119Y018821D01*
X003760Y018821D01*
X003631Y018951D01*
X004312Y019585D02*
X004312Y019652D01*
X004410Y019750D01*
X004410Y020368D01*
X003701Y020546D02*
X003670Y020514D01*
X003674Y020510D01*
X003678Y020510D01*
X001560Y021723D02*
X000934Y021723D01*
X000922Y021734D01*
X000922Y021723D01*
X000922Y021734D02*
X000918Y021738D01*
X003512Y023711D02*
X004367Y023711D01*
X004386Y023691D01*
X004367Y023711D02*
X004300Y023711D01*
X005087Y023711D02*
X005087Y024416D01*
X005134Y024463D01*
X005099Y024498D01*
X005087Y024498D01*
X005087Y024849D01*
X005276Y025038D01*
X005249Y025038D01*
X005875Y025053D02*
X005875Y025286D01*
X005875Y025053D02*
X005898Y025030D01*
X005898Y025026D01*
X006063Y024891D02*
X006063Y024888D01*
X005942Y024766D01*
X005942Y024620D01*
X005957Y024605D01*
X005965Y024605D01*
X005898Y024538D01*
X005898Y024455D01*
X005875Y024479D01*
X005875Y024498D01*
X005875Y024408D01*
X005942Y024341D01*
X005875Y024274D01*
X005875Y023711D01*
X006532Y023711D01*
X006611Y023632D01*
X006662Y023683D01*
X006662Y023711D01*
X006662Y024498D02*
X006879Y024498D01*
X006977Y024597D01*
X007068Y024597D01*
X007111Y024640D01*
X006670Y025195D02*
X006347Y024872D01*
X006347Y024660D01*
X006670Y025195D02*
X006662Y025203D01*
X006662Y025286D01*
X006662Y026073D02*
X006512Y026073D01*
X006276Y026309D01*
X006264Y026309D01*
X006028Y026073D01*
X005875Y026073D01*
X006225Y026349D02*
X006264Y026309D01*
X006316Y026349D02*
X005875Y026790D01*
X005875Y026860D01*
X006339Y026459D02*
X006662Y026782D01*
X006662Y026860D01*
X006339Y026459D02*
X006339Y026368D01*
X006316Y026368D02*
X006316Y026349D01*
X005383Y025652D02*
X004638Y025652D01*
X004288Y026002D01*
X004300Y026014D01*
X004300Y026073D01*
X004300Y026451D01*
X004300Y025431D01*
X004371Y025360D01*
X004300Y025290D01*
X004300Y025286D01*
X004300Y024609D01*
X004327Y024581D01*
X004300Y024553D01*
X004300Y024498D01*
X005383Y025652D02*
X005087Y025947D01*
X005087Y026073D01*
X004300Y026451D02*
X004162Y026589D01*
X004166Y026593D01*
X004150Y026609D02*
X004150Y026644D01*
X004320Y026813D01*
X004300Y026833D01*
X004300Y026860D01*
X005040Y026860D01*
X005087Y026813D01*
X005087Y026860D01*
X005087Y026813D02*
X005103Y026797D01*
X003532Y026841D02*
X003512Y026821D01*
X003512Y026073D01*
X003532Y026841D02*
X003512Y026860D01*
X009357Y022215D02*
X009649Y022507D01*
X009357Y022215D02*
X008855Y022215D01*
X008796Y022274D01*
X009638Y019628D02*
X009638Y019530D01*
X009682Y019585D02*
X009638Y019628D01*
X020371Y025503D02*
X020402Y025534D01*
X020402Y025568D01*
X020401Y025570D01*
X024028Y022538D02*
X024028Y022522D01*
X024028Y021518D01*
X023564Y021053D01*
X022383Y021053D02*
X021953Y020691D01*
X021953Y019372D01*
X022217Y019136D01*
X023079Y019136D01*
X023249Y019305D01*
X022812Y019695D02*
X022938Y019821D01*
X023556Y019821D01*
X024052Y019325D01*
X022812Y019695D02*
X022812Y019723D01*
X024024Y022518D02*
X024028Y022522D01*
X031213Y024018D02*
X031705Y023526D01*
X033056Y023526D01*
X033674Y022908D01*
X033678Y022912D01*
X033697Y022912D01*
X033697Y022549D01*
X033682Y022534D01*
X033701Y022514D01*
X033701Y022502D01*
X033709Y022502D01*
X033713Y022506D01*
X033571Y022648D01*
X033697Y022912D02*
X034339Y023553D01*
X034847Y023553D01*
X036028Y023553D02*
X036028Y023109D01*
X035446Y022526D01*
X034733Y022526D01*
X034709Y022502D01*
X034701Y022502D01*
X034701Y022490D01*
X034753Y022542D01*
X034701Y022490D02*
X034674Y022463D01*
X032505Y020805D02*
X032260Y021049D01*
X031682Y021049D01*
X031694Y021061D01*
X031682Y021049D02*
X031650Y021049D01*
X032505Y020136D02*
X032237Y019868D01*
X031705Y019868D01*
X031694Y019880D01*
X037288Y016762D02*
X037768Y017242D01*
X039128Y017242D01*
X039126Y017244D01*
X039128Y017242D02*
X039142Y017242D01*
X037288Y016762D02*
X037288Y016522D01*
X037288Y015357D01*
X037560Y015085D01*
X034107Y010542D02*
X032394Y011628D01*
X034107Y010542D02*
X034127Y010526D01*
X036654Y010199D02*
X036697Y010242D01*
X037977Y010242D01*
X038009Y010274D01*
X040446Y009097D02*
X040961Y008581D01*
X040981Y008581D01*
X040981Y007919D01*
X040981Y005479D01*
X040929Y005479D01*
X040918Y005490D01*
X040962Y005498D02*
X042886Y005498D01*
X042985Y005597D01*
X042985Y005616D01*
X044457Y005616D01*
X044501Y005573D01*
X044532Y005573D01*
X045194Y005573D01*
X045446Y005321D01*
X045457Y005321D01*
X045457Y004652D02*
X045457Y002813D01*
X045414Y002770D01*
X044032Y002770D01*
X043134Y001872D01*
X043075Y001872D01*
X041993Y000790D01*
X041797Y000991D02*
X041938Y001333D01*
X041938Y001703D01*
X041797Y002045D01*
X041535Y002306D01*
X041193Y002448D01*
X040824Y002448D01*
X040552Y002335D01*
X040552Y003986D01*
X040544Y003994D01*
X040544Y004518D01*
X042370Y004518D01*
X042370Y004199D01*
X042370Y003628D01*
X042416Y003517D01*
X042500Y003433D01*
X042610Y003387D01*
X042985Y003387D01*
X043360Y003387D01*
X043470Y003433D01*
X043554Y003517D01*
X043600Y003628D01*
X043600Y004199D01*
X043600Y004518D01*
X043878Y004518D01*
X043878Y004392D01*
X044532Y004392D01*
X045249Y004392D01*
X045457Y004601D01*
X045457Y004652D01*
X045457Y004518D02*
X045457Y004135D01*
X045457Y004518D01*
X045457Y004518D01*
X045394Y004479D02*
X045394Y004388D01*
X045430Y004353D01*
X045430Y004022D01*
X045201Y003794D01*
X045134Y003794D01*
X044898Y003557D01*
X044898Y003317D01*
X045127Y003546D01*
X045737Y003546D01*
X046024Y003833D01*
X046024Y005711D01*
X045351Y006384D01*
X045351Y007577D01*
X045009Y007919D01*
X041891Y007919D01*
X041899Y007919D01*
X040071Y007919D02*
X040071Y007963D01*
X040068Y007967D01*
X040446Y009097D02*
X040449Y009101D01*
X040453Y009097D01*
X040989Y009097D01*
X045497Y011683D02*
X045835Y012034D01*
X045835Y014719D01*
X040473Y020971D02*
X040485Y020983D01*
X040485Y021671D01*
X040906Y022093D01*
X041138Y022093D01*
X041138Y022089D01*
X041142Y022085D01*
X041142Y022975D01*
X041233Y023065D01*
X041237Y023065D01*
X042359Y023034D02*
X042390Y023065D01*
X042418Y023065D01*
X035812Y024305D02*
X035796Y024321D01*
X035796Y024821D01*
X035650Y024967D01*
X034729Y024967D01*
X034190Y024427D01*
X033575Y024427D01*
X035788Y024337D02*
X035788Y024329D01*
X035796Y024321D01*
X031213Y024427D02*
X031213Y024018D01*
X036812Y006423D02*
X037150Y006085D01*
X037461Y006085D01*
X037461Y006077D01*
X037579Y005959D01*
X037579Y004211D01*
X037582Y004211D01*
X037583Y004210D01*
X037579Y004207D01*
X037579Y002228D01*
X040552Y002543D02*
X045957Y002543D01*
X045957Y002942D02*
X040552Y002942D01*
X040552Y003340D02*
X045957Y003340D01*
X045957Y003739D02*
X044996Y003739D01*
X044946Y003718D02*
X045056Y003764D01*
X045141Y003848D01*
X045186Y003958D01*
X045186Y004135D01*
X045457Y004135D01*
X045734Y004135D01*
X045844Y004181D01*
X045928Y004265D01*
X045936Y004284D01*
X045957Y004262D01*
X045957Y000711D01*
X045852Y000605D01*
X041236Y000606D01*
X041535Y000730D01*
X041797Y000991D01*
X041754Y000949D02*
X045957Y000949D01*
X045957Y001347D02*
X041938Y001347D01*
X041921Y001746D02*
X045957Y001746D01*
X045957Y002144D02*
X041697Y002144D01*
X042985Y003387D02*
X042985Y004199D01*
X044379Y004199D01*
X044536Y004357D01*
X044532Y004360D01*
X044532Y004392D01*
X044532Y004392D01*
X043878Y004392D01*
X043878Y003958D01*
X043923Y003848D01*
X044008Y003764D01*
X044118Y003718D01*
X044532Y003718D01*
X044532Y004392D01*
X044532Y004392D01*
X044532Y003718D01*
X044946Y003718D01*
X044532Y003739D02*
X044532Y003739D01*
X044532Y004137D02*
X044532Y004137D01*
X044068Y003739D02*
X043600Y003739D01*
X043600Y004137D02*
X043878Y004137D01*
X043600Y004199D02*
X042985Y004199D01*
X043600Y004199D01*
X042985Y004199D02*
X042985Y004199D01*
X042985Y003387D01*
X042985Y003739D02*
X042985Y003739D01*
X042985Y004137D02*
X042985Y004137D01*
X042985Y004199D02*
X042985Y004199D01*
X042984Y004199D02*
X042370Y004199D01*
X042984Y004199D01*
X042984Y004199D01*
X042370Y004137D02*
X040544Y004137D01*
X040552Y003739D02*
X042370Y003739D01*
X040981Y005471D02*
X040981Y005479D01*
X037473Y006085D02*
X037461Y006085D01*
X032162Y004715D02*
X031930Y004947D01*
X032162Y004715D02*
X032162Y002166D01*
X024142Y004687D02*
X024127Y004703D01*
X024127Y004719D01*
X045457Y004137D02*
X045457Y004137D01*
X045738Y004137D02*
X045957Y004137D01*
D65*
X039827Y002132D02*
X039820Y002124D01*
X039820Y001471D01*
X039064Y000715D01*
X023418Y000715D01*
X023410Y000715D02*
X023005Y000715D01*
X016674Y000715D01*
X016516Y000872D01*
X016516Y001675D01*
X016583Y001742D01*
X016575Y001750D01*
X018359Y001679D02*
X019306Y001679D01*
X021963Y001679D01*
X021963Y002398D01*
X022016Y002451D01*
X022001Y002467D01*
X021963Y002467D01*
X022016Y003238D02*
X022001Y003254D01*
X019306Y003254D01*
X021963Y003254D02*
X022001Y003254D01*
X023636Y003250D02*
X026294Y003250D01*
X026335Y003250D01*
X026347Y003238D01*
X026294Y002463D02*
X026294Y001717D01*
X026335Y001675D01*
X026294Y001675D01*
X024741Y001675D01*
X023636Y001675D01*
X023603Y001675D01*
X023591Y001664D01*
X022898Y001664D01*
X022804Y001664D01*
X022016Y001664D01*
X022001Y001679D01*
X021963Y001679D01*
X026335Y001675D02*
X026347Y001664D01*
X027922Y001664D01*
X027942Y001683D01*
X027967Y001683D01*
X030284Y001683D01*
X030625Y001683D01*
X030658Y001683D01*
X030625Y001717D01*
X030625Y002471D01*
X030658Y001683D02*
X030678Y001664D01*
X030678Y003238D02*
X030658Y003258D01*
X030625Y003258D01*
X027967Y003258D01*
X036512Y001979D02*
X036737Y001979D01*
X037276Y001439D01*
X038599Y001439D01*
X039083Y001923D01*
X039068Y001923D01*
X039068Y004829D01*
X038426Y005471D01*
X038426Y006888D02*
X039296Y007758D01*
X039296Y008679D01*
X039438Y008821D01*
X039772Y008821D01*
X040064Y008530D01*
X040064Y007926D01*
X040071Y007919D01*
X039823Y006754D02*
X039823Y002136D01*
X039827Y002132D01*
X039087Y001927D02*
X039083Y001923D01*
X038009Y008857D02*
X037989Y008876D01*
X037280Y008876D01*
X036595Y008876D01*
X036595Y008896D01*
X036564Y008927D01*
X036564Y010109D02*
X036654Y010199D01*
X038009Y010274D02*
X038012Y010270D01*
X038012Y010199D01*
X038894Y010199D01*
X039221Y009872D01*
X044670Y013416D02*
X045048Y013794D01*
X045048Y014597D01*
X045048Y018593D01*
X045064Y018593D01*
X039934Y023727D02*
X039934Y023738D01*
X039973Y023778D01*
X039973Y026140D02*
X040134Y026301D01*
X041016Y026301D01*
X041009Y026294D01*
X041016Y026301D02*
X041036Y026301D01*
X029851Y024695D02*
X029851Y024522D01*
X029847Y024522D01*
X029827Y024502D01*
X023233Y025168D02*
X023170Y025231D01*
X022087Y025231D01*
X022087Y025219D01*
X022071Y025219D01*
X022064Y025211D01*
X020419Y025551D02*
X020401Y025570D01*
X020371Y025503D02*
X013966Y025503D01*
X013900Y025437D01*
X013434Y025010D01*
X013434Y022053D01*
X013052Y021633D01*
X013052Y021069D01*
X008095Y021069D01*
X008083Y021057D01*
X011170Y023892D02*
X011355Y024459D01*
X011843Y024502D01*
X014095Y023990D02*
X014095Y021778D01*
X014430Y021443D01*
X014430Y021231D01*
X014469Y021191D01*
X014470Y021192D01*
X014470Y021192D01*
X014095Y023990D02*
X014570Y024465D01*
X014608Y024503D01*
X009449Y024498D02*
X008993Y024459D01*
X009446Y024494D02*
X009449Y024498D01*
X016961Y014744D02*
X016973Y014733D01*
X016973Y014723D01*
X016973Y014317D01*
X016930Y014317D01*
X015867Y013254D01*
X015867Y013144D01*
X016961Y013744D02*
X016973Y013756D01*
X016973Y014317D01*
X016973Y014711D02*
X017052Y014711D01*
X017859Y013904D01*
X016973Y014711D02*
X016973Y014723D01*
X015867Y011963D02*
X015867Y011636D01*
X016949Y010770D02*
X016961Y010758D01*
X016981Y010738D01*
X017272Y010738D01*
X017272Y010766D01*
X017859Y011353D01*
X017859Y011601D01*
X018540Y011278D02*
X018001Y010738D01*
X017272Y010738D01*
X016981Y010738D02*
X016975Y010744D01*
X016961Y010744D01*
X016961Y010758D01*
X016961Y010744D02*
X016967Y010738D01*
X029843Y009018D02*
X029938Y009018D01*
X029961Y008994D01*
X029969Y008986D01*
X033323Y014648D02*
X033335Y014660D01*
X033355Y014679D01*
X034347Y014679D01*
X033343Y014660D02*
X033335Y014660D01*
D66*
X030229Y009986D02*
X030138Y009986D01*
X030229Y009986D02*
X030284Y009931D01*
X033386Y008341D02*
X033394Y008349D01*
X033398Y008349D01*
X033398Y008112D01*
X034056Y007455D01*
X034056Y004048D01*
X034371Y004048D02*
X034371Y007943D01*
X033949Y008364D01*
X034686Y008392D02*
X034745Y008451D01*
X034745Y008447D01*
X034686Y008392D02*
X034686Y004048D01*
X035001Y004048D02*
X035001Y006168D01*
X035264Y006431D01*
X035969Y006431D01*
X035977Y006431D01*
X035676Y005859D02*
X035477Y005660D01*
X035477Y003343D01*
X035477Y003297D01*
X036497Y003851D02*
X036497Y004888D01*
X036493Y004892D01*
X036493Y005821D01*
X036497Y004888D02*
X036501Y004884D01*
X033741Y004048D02*
X033741Y006010D01*
X033544Y006207D01*
X033146Y006207D01*
X033142Y006211D01*
X033142Y006207D01*
X033170Y006207D01*
X033142Y006207D02*
X032300Y006207D01*
X032288Y006219D01*
X032457Y006427D01*
X032280Y006227D02*
X032288Y006219D01*
X035453Y008447D02*
X035843Y008057D01*
X038516Y008057D01*
X038741Y008282D01*
X038741Y009042D01*
X039095Y009396D01*
X040182Y009396D01*
X040469Y009109D01*
X040461Y009101D01*
X040449Y009101D01*
X036493Y001998D02*
X036507Y001984D01*
X036512Y001979D01*
X026847Y020483D02*
X026855Y020734D01*
X026855Y021097D01*
X026209Y021742D01*
X025560Y021742D01*
X025557Y021739D01*
D67*
X025828Y021468D01*
X025828Y021047D01*
X025838Y021047D01*
X025753Y021057D01*
X024135Y021521D02*
X024135Y021928D01*
X024024Y021928D01*
X024024Y022518D01*
X024024Y022928D01*
X024024Y023518D01*
X024024Y023518D01*
X024024Y022928D01*
X024024Y022518D01*
X024024Y022518D01*
X024024Y022518D01*
X024024Y021928D01*
X023780Y021928D01*
X023680Y022028D01*
X023360Y021708D01*
X023078Y021708D01*
X023130Y021657D01*
X023142Y021628D01*
X023506Y021628D01*
X023506Y021111D01*
X023621Y021111D01*
X023621Y021628D01*
X024029Y021628D01*
X024135Y021521D01*
X024135Y021688D02*
X023099Y021688D01*
X023506Y021449D02*
X023621Y021449D01*
X023621Y021210D02*
X023506Y021210D01*
X023578Y021926D02*
X024135Y021926D01*
X024024Y022165D02*
X024024Y022165D01*
X024024Y022403D02*
X024024Y022403D01*
X024024Y022642D02*
X024024Y022642D01*
X024024Y022880D02*
X024024Y022880D01*
X024024Y023119D02*
X024024Y023119D01*
X024024Y023357D02*
X024024Y023357D01*
X025827Y024503D02*
X025827Y025092D01*
X025710Y025092D01*
X025493Y025002D01*
X025382Y024891D01*
X025382Y025130D01*
X024688Y025130D01*
X024688Y025205D01*
X025382Y025205D01*
X025382Y025574D01*
X025354Y025601D01*
X025480Y025727D01*
X025642Y025889D01*
X025669Y025956D01*
X025701Y025988D01*
X025776Y025807D01*
X025979Y025604D01*
X026243Y025495D01*
X029450Y025495D01*
X029853Y025092D01*
X029828Y025092D01*
X029828Y024503D01*
X029827Y024503D01*
X029827Y025092D01*
X029710Y025092D01*
X029493Y025002D01*
X029327Y024837D01*
X029162Y025002D01*
X028945Y025092D01*
X028828Y025092D01*
X028828Y024503D01*
X028827Y024503D01*
X028827Y025092D01*
X028710Y025092D01*
X028493Y025002D01*
X028327Y024837D01*
X028162Y025002D01*
X027945Y025092D01*
X027828Y025092D01*
X027828Y024503D01*
X027827Y024503D01*
X027827Y025092D01*
X027710Y025092D01*
X027493Y025002D01*
X027327Y024837D01*
X027162Y025002D01*
X026945Y025092D01*
X026828Y025092D01*
X026828Y024503D01*
X026827Y024503D01*
X026827Y025092D01*
X026710Y025092D01*
X026493Y025002D01*
X026327Y024837D01*
X026162Y025002D01*
X025945Y025092D01*
X025828Y025092D01*
X025828Y024503D01*
X025827Y024503D01*
X025828Y024502D02*
X026237Y024502D01*
X026827Y024502D01*
X026827Y024502D01*
X026237Y024502D01*
X025828Y024502D01*
X025828Y024502D01*
X025827Y024550D02*
X025828Y024550D01*
X025827Y024789D02*
X025828Y024789D01*
X025827Y025027D02*
X025828Y025027D01*
X026102Y025027D02*
X026553Y025027D01*
X026827Y025027D02*
X026828Y025027D01*
X026827Y024789D02*
X026828Y024789D01*
X026827Y024550D02*
X026828Y024550D01*
X026828Y024502D02*
X027237Y024502D01*
X027827Y024502D01*
X027827Y024502D01*
X027237Y024502D01*
X026828Y024502D01*
X026828Y024502D01*
X027102Y025027D02*
X027553Y025027D01*
X027827Y025027D02*
X027828Y025027D01*
X027827Y024789D02*
X027828Y024789D01*
X027827Y024550D02*
X027828Y024550D01*
X027828Y024502D02*
X028237Y024502D01*
X028827Y024502D01*
X028827Y024502D01*
X028237Y024502D01*
X027828Y024502D01*
X027828Y024502D01*
X028102Y025027D02*
X028553Y025027D01*
X028827Y025027D02*
X028828Y025027D01*
X028827Y024789D02*
X028828Y024789D01*
X028827Y024550D02*
X028828Y024550D01*
X028828Y024502D02*
X029237Y024502D01*
X028828Y024502D01*
X028828Y024502D01*
X029237Y024502D02*
X029827Y024502D01*
X029827Y024502D01*
X029237Y024502D01*
X029828Y024502D02*
X030206Y024502D01*
X029828Y024502D01*
X029828Y024502D01*
X029827Y024550D02*
X029828Y024550D01*
X029827Y024789D02*
X029828Y024789D01*
X029827Y025027D02*
X029828Y025027D01*
X029553Y025027D02*
X029102Y025027D01*
X029679Y025266D02*
X025382Y025266D01*
X025382Y025504D02*
X026220Y025504D01*
X025840Y025743D02*
X025496Y025743D01*
X025695Y025981D02*
X025704Y025981D01*
X025553Y025027D02*
X025382Y025027D01*
X024469Y026934D02*
X020879Y026934D01*
X020725Y026870D01*
X020721Y026879D01*
X020493Y027107D01*
X020196Y027230D01*
X019873Y027230D01*
X019576Y027107D01*
X019534Y027066D01*
X019493Y027107D01*
X019196Y027230D01*
X018873Y027230D01*
X018576Y027107D01*
X018534Y027066D01*
X018493Y027107D01*
X018196Y027230D01*
X017873Y027230D01*
X017576Y027107D01*
X017534Y027066D01*
X017493Y027107D01*
X017196Y027230D01*
X016873Y027230D01*
X016576Y027107D01*
X016534Y027066D01*
X016493Y027107D01*
X016196Y027230D01*
X015873Y027230D01*
X015576Y027107D01*
X015534Y027066D01*
X015493Y027107D01*
X015196Y027230D01*
X014873Y027230D01*
X014576Y027107D01*
X014348Y026879D01*
X014224Y026581D01*
X014224Y026259D01*
X014252Y026193D01*
X013829Y026193D01*
X013797Y026180D01*
X013758Y026180D01*
X013606Y026117D01*
X013606Y026780D01*
X013090Y026780D01*
X013090Y026894D01*
X013606Y026894D01*
X013606Y027502D01*
X025037Y027501D01*
X024469Y026934D01*
X024471Y026936D02*
X020665Y026936D01*
X020331Y027174D02*
X024710Y027174D01*
X024948Y027413D02*
X013606Y027413D01*
X013606Y027174D02*
X014738Y027174D01*
X014404Y026936D02*
X013606Y026936D01*
X013606Y026697D02*
X014272Y026697D01*
X014224Y026458D02*
X013606Y026458D01*
X013606Y026220D02*
X014241Y026220D01*
X013251Y025829D02*
X013246Y025817D01*
X013131Y025702D01*
X012590Y025702D01*
X012429Y025635D01*
X012305Y025511D01*
X012238Y025350D01*
X012238Y025029D01*
X012233Y025033D01*
X011412Y025033D01*
X011412Y024516D01*
X011298Y024516D01*
X011298Y025033D01*
X010476Y025033D01*
X010348Y024904D01*
X010348Y024516D01*
X011298Y024516D01*
X011298Y024402D01*
X011298Y024401D02*
X011412Y024401D01*
X011412Y023885D01*
X012233Y023885D01*
X012238Y023889D01*
X012238Y023600D01*
X012305Y023438D01*
X012420Y023322D01*
X012185Y023322D01*
X012024Y023255D01*
X012007Y023238D01*
X011804Y023322D01*
X011482Y023322D01*
X011184Y023199D01*
X010987Y023002D01*
X010977Y023013D01*
X010760Y023102D01*
X010643Y023102D01*
X010643Y022513D01*
X010643Y022513D01*
X010643Y023102D01*
X010525Y023102D01*
X010309Y023013D01*
X010298Y023002D01*
X010249Y023051D01*
X010249Y024195D01*
X010249Y024433D01*
X010220Y024504D01*
X010220Y024901D01*
X010153Y025062D01*
X010150Y025066D01*
X010150Y026852D01*
X010220Y027022D01*
X010220Y027344D01*
X010155Y027502D01*
X012458Y027502D01*
X012458Y026894D01*
X012975Y026894D01*
X012975Y026780D01*
X012458Y026780D01*
X012458Y025958D01*
X012587Y025829D01*
X012975Y025829D01*
X012975Y026779D01*
X013089Y026779D01*
X013089Y025829D01*
X013251Y025829D01*
X013172Y025743D02*
X010150Y025743D01*
X010150Y025981D02*
X012458Y025981D01*
X012458Y026220D02*
X010150Y026220D01*
X010150Y026458D02*
X012458Y026458D01*
X012458Y026697D02*
X010150Y026697D01*
X010184Y026936D02*
X012458Y026936D01*
X012458Y027174D02*
X010220Y027174D01*
X010192Y027413D02*
X012458Y027413D01*
X012975Y026697D02*
X013089Y026697D01*
X013089Y026458D02*
X012975Y026458D01*
X012975Y026220D02*
X013089Y026220D01*
X013089Y025981D02*
X012975Y025981D01*
X012302Y025504D02*
X010150Y025504D01*
X010150Y025266D02*
X012238Y025266D01*
X011412Y025027D02*
X011298Y025027D01*
X011298Y024789D02*
X011412Y024789D01*
X011412Y024550D02*
X011298Y024550D01*
X011412Y024516D02*
X012238Y024516D01*
X012238Y024402D01*
X011412Y024402D01*
X011412Y024516D01*
X011298Y024401D02*
X011298Y023885D01*
X010476Y023885D01*
X010348Y024013D01*
X010348Y024402D01*
X011298Y024402D01*
X011298Y024312D02*
X011412Y024312D01*
X011412Y024073D02*
X011298Y024073D01*
X012238Y023834D02*
X010249Y023834D01*
X010249Y023596D02*
X012239Y023596D01*
X012385Y023357D02*
X010249Y023357D01*
X010249Y023119D02*
X011104Y023119D01*
X010643Y022880D02*
X010643Y022880D01*
X010643Y022642D02*
X010643Y022642D01*
X010643Y022512D02*
X010643Y021922D01*
X010760Y021922D01*
X010977Y022012D01*
X010987Y022023D01*
X011184Y021826D01*
X011345Y021759D01*
X009941Y021759D01*
X010102Y021826D01*
X010298Y022023D01*
X010309Y022012D01*
X010525Y021922D01*
X010643Y021922D01*
X010643Y022512D01*
X010643Y022512D01*
X010643Y022403D02*
X010643Y022403D01*
X010643Y022165D02*
X010643Y022165D01*
X010643Y021926D02*
X010643Y021926D01*
X010769Y021926D02*
X011084Y021926D01*
X010516Y021926D02*
X010202Y021926D01*
X008796Y022944D02*
X008796Y022944D01*
X008796Y023380D01*
X009049Y023380D01*
X009049Y023665D01*
X008614Y023665D01*
X008662Y023617D01*
X008662Y023380D01*
X008796Y023380D01*
X008796Y022944D01*
X008796Y023119D02*
X008796Y023119D01*
X008796Y023357D02*
X008796Y023357D01*
X008662Y023596D02*
X009049Y023596D01*
X008030Y023209D02*
X008030Y023095D01*
X007513Y023095D01*
X007513Y022730D01*
X007484Y022718D01*
X007368Y022602D01*
X007368Y022680D01*
X007301Y022842D01*
X007177Y022966D01*
X007015Y023033D01*
X006482Y023033D01*
X005982Y023033D01*
X005482Y023033D01*
X005320Y022966D01*
X005265Y022911D01*
X005223Y023012D01*
X005109Y023127D01*
X005129Y023127D01*
X005129Y025276D01*
X005369Y025276D01*
X005369Y025516D01*
X007234Y025516D01*
X007234Y025276D01*
X005369Y025276D01*
X005369Y023127D01*
X007466Y023127D01*
X007548Y023209D01*
X008030Y023209D01*
X008030Y023119D02*
X005117Y023119D01*
X005129Y023357D02*
X005369Y023357D01*
X005369Y023596D02*
X005129Y023596D01*
X005129Y023834D02*
X005369Y023834D01*
X005369Y024073D02*
X005129Y024073D01*
X005129Y024312D02*
X005369Y024312D01*
X005369Y024550D02*
X005129Y024550D01*
X005129Y024789D02*
X005369Y024789D01*
X005369Y025027D02*
X005129Y025027D01*
X005129Y025266D02*
X005369Y025266D01*
X005296Y025333D02*
X005296Y025349D01*
X005296Y025420D01*
X006225Y026349D01*
X006245Y026368D01*
X006316Y026368D01*
X006339Y026368D01*
X007823Y026368D01*
X008410Y026372D02*
X008410Y025813D01*
X007871Y025420D01*
X007234Y025504D02*
X005369Y025504D01*
X005369Y025516D02*
X005129Y025516D01*
X005129Y027503D01*
X005369Y027503D01*
X005369Y025516D01*
X005249Y025396D02*
X005296Y025349D01*
X005129Y025276D02*
X002903Y025276D01*
X002903Y024750D01*
X002872Y024781D01*
X002710Y024848D01*
X000584Y024848D01*
X000584Y025798D01*
X001518Y025798D01*
X001518Y026488D01*
X001758Y026488D01*
X001758Y025798D01*
X002714Y025798D01*
X002843Y025927D01*
X002843Y026489D01*
X001759Y026489D01*
X001759Y026728D01*
X002843Y026728D01*
X002843Y027290D01*
X002714Y027419D01*
X001758Y027419D01*
X001758Y026729D01*
X001518Y026729D01*
X001518Y027419D01*
X000583Y027419D01*
X000583Y027503D01*
X002903Y027503D01*
X002903Y025516D01*
X005129Y025516D01*
X005129Y025276D01*
X005129Y025504D02*
X000584Y025504D01*
X000584Y025266D02*
X002903Y025266D01*
X002903Y025027D02*
X000584Y025027D01*
X000584Y025743D02*
X002903Y025743D01*
X002903Y025981D02*
X002843Y025981D01*
X002843Y026220D02*
X002903Y026220D01*
X002903Y026458D02*
X002843Y026458D01*
X002903Y026697D02*
X001759Y026697D01*
X001758Y026936D02*
X001518Y026936D01*
X001518Y027174D02*
X001758Y027174D01*
X001758Y027413D02*
X001518Y027413D01*
X001518Y026458D02*
X001758Y026458D01*
X001758Y026220D02*
X001518Y026220D01*
X001518Y025981D02*
X001758Y025981D01*
X002843Y026936D02*
X002903Y026936D01*
X002903Y027174D02*
X002843Y027174D01*
X002903Y027413D02*
X002720Y027413D01*
X005129Y027413D02*
X005369Y027413D01*
X005369Y027174D02*
X005129Y027174D01*
X005129Y026936D02*
X005369Y026936D01*
X005369Y026697D02*
X005129Y026697D01*
X005129Y026458D02*
X005369Y026458D01*
X005369Y026220D02*
X005129Y026220D01*
X005129Y025981D02*
X005369Y025981D01*
X005369Y025743D02*
X005129Y025743D01*
X002903Y024789D02*
X002853Y024789D01*
X003001Y022884D02*
X002792Y022675D01*
X002788Y022597D01*
X003001Y022884D02*
X004564Y022884D01*
X004627Y022821D01*
X004627Y022817D01*
X004749Y022695D01*
X004749Y022002D01*
X005080Y020951D02*
X005516Y020951D01*
X005516Y020972D01*
X005668Y020972D01*
X005725Y020834D01*
X005942Y020617D01*
X006116Y020444D01*
X006330Y020355D01*
X005516Y020355D01*
X005516Y020368D01*
X005080Y020368D01*
X005080Y020369D01*
X005079Y020369D01*
X005079Y020514D01*
X005079Y020951D01*
X005080Y020951D01*
X005080Y020951D01*
X005516Y020951D01*
X005516Y020643D01*
X005516Y020369D01*
X005080Y020369D01*
X005080Y020514D01*
X005080Y020951D01*
X005079Y020733D02*
X005080Y020733D01*
X005079Y020495D02*
X005080Y020495D01*
X005516Y020495D02*
X006064Y020495D01*
X005942Y020617D02*
X005942Y020617D01*
X005826Y020733D02*
X005516Y020733D01*
X008266Y020350D02*
X008675Y020350D01*
X011250Y020350D01*
X011250Y019600D01*
X011317Y019438D01*
X011440Y019314D01*
X011602Y019247D01*
X013700Y019247D01*
X013700Y017450D01*
X012395Y017450D01*
X010689Y019156D01*
X010689Y019528D01*
X009739Y019528D01*
X009739Y019642D01*
X010689Y019642D01*
X010689Y020030D01*
X010560Y020159D01*
X009739Y020159D01*
X009739Y019642D01*
X009624Y019642D01*
X009624Y019528D01*
X008674Y019528D01*
X008674Y019461D01*
X008547Y019461D01*
X008547Y020027D01*
X008480Y020188D01*
X008356Y020312D01*
X008266Y020350D01*
X008412Y020256D02*
X011250Y020256D01*
X011250Y020018D02*
X010689Y020018D01*
X010689Y019779D02*
X011250Y019779D01*
X011274Y019541D02*
X009739Y019541D01*
X009624Y019541D02*
X008547Y019541D01*
X008674Y019642D02*
X009624Y019642D01*
X009624Y020159D01*
X008803Y020159D01*
X008674Y020030D01*
X008674Y019642D01*
X008674Y019779D02*
X008547Y019779D01*
X008547Y020018D02*
X008674Y020018D01*
X009624Y020018D02*
X009739Y020018D01*
X009739Y019779D02*
X009624Y019779D01*
X010689Y019302D02*
X011470Y019302D01*
X011020Y018825D02*
X013700Y018825D01*
X013700Y018586D02*
X011258Y018586D01*
X011497Y018348D02*
X013700Y018348D01*
X013700Y018109D02*
X011735Y018109D01*
X011974Y017871D02*
X013700Y017871D01*
X013700Y017632D02*
X012213Y017632D01*
X011118Y016917D02*
X010642Y016917D01*
X010642Y017155D02*
X010879Y017155D01*
X010642Y017393D02*
X011250Y016785D01*
X011250Y015308D01*
X011317Y015147D01*
X011440Y015023D01*
X011602Y014956D01*
X013982Y014956D01*
X014144Y015023D01*
X014267Y015147D01*
X014322Y015279D01*
X015017Y014584D01*
X013105Y014584D01*
X013105Y012359D01*
X012865Y012359D01*
X012865Y014584D01*
X011196Y014584D01*
X011196Y014763D01*
X011103Y014990D01*
X011004Y015089D01*
X011004Y015176D01*
X010937Y015338D01*
X010813Y015462D01*
X010651Y015529D01*
X010642Y015529D01*
X010642Y016288D01*
X009951Y016288D01*
X009951Y016528D01*
X009711Y016528D01*
X009711Y017612D01*
X009150Y017612D01*
X009021Y017483D01*
X009021Y016528D01*
X009711Y016528D01*
X009711Y016288D01*
X009021Y016288D01*
X009021Y015332D01*
X009067Y015286D01*
X009057Y015263D01*
X008071Y016250D01*
X008071Y017479D01*
X008004Y017641D01*
X007880Y017765D01*
X007718Y017832D01*
X007229Y017832D01*
X007244Y017868D01*
X007244Y018181D01*
X009854Y018181D01*
X010423Y017612D01*
X009951Y017612D01*
X009951Y016528D01*
X010642Y016528D01*
X010642Y017393D01*
X010402Y017632D02*
X008007Y017632D01*
X008071Y017394D02*
X009021Y017394D01*
X009021Y017155D02*
X008071Y017155D01*
X008071Y016917D02*
X009021Y016917D01*
X009021Y016678D02*
X008071Y016678D01*
X008071Y016440D02*
X009711Y016440D01*
X009711Y016678D02*
X009951Y016678D01*
X009951Y016440D02*
X011250Y016440D01*
X011250Y016678D02*
X010642Y016678D01*
X009951Y016917D02*
X009711Y016917D01*
X009711Y017155D02*
X009951Y017155D01*
X009951Y017394D02*
X009711Y017394D01*
X010164Y017871D02*
X007244Y017871D01*
X007244Y018109D02*
X009925Y018109D01*
X010781Y019064D02*
X013700Y019064D01*
X015239Y018897D02*
X015259Y018850D01*
X015279Y018831D01*
X015279Y018691D01*
X015242Y018602D01*
X015242Y018033D01*
X015271Y017963D01*
X015242Y017893D01*
X015242Y017324D01*
X015305Y017171D01*
X015273Y017094D01*
X015273Y016604D01*
X015340Y016442D01*
X015464Y016318D01*
X015626Y016251D01*
X016116Y016251D01*
X016277Y016318D01*
X016401Y016442D01*
X016413Y016471D01*
X016456Y016471D01*
X016297Y016313D01*
X016174Y016015D01*
X016174Y015693D01*
X016235Y015544D01*
X015239Y016540D01*
X015239Y018897D01*
X015239Y018825D02*
X015279Y018825D01*
X015242Y018586D02*
X015239Y018586D01*
X015239Y018348D02*
X015242Y018348D01*
X015239Y018109D02*
X015242Y018109D01*
X015239Y017871D02*
X015242Y017871D01*
X015239Y017632D02*
X015242Y017632D01*
X015239Y017394D02*
X015242Y017394D01*
X015239Y017155D02*
X015299Y017155D01*
X015273Y016917D02*
X015239Y016917D01*
X015239Y016678D02*
X015273Y016678D01*
X015340Y016440D02*
X015343Y016440D01*
X015578Y016201D02*
X016251Y016201D01*
X016225Y016219D02*
X016225Y015408D01*
X016894Y014738D01*
X016900Y014744D01*
X016961Y014744D01*
X016961Y014744D01*
X016961Y014154D01*
X016961Y013745D01*
X016961Y013745D01*
X016961Y013744D02*
X016961Y013744D01*
X016371Y013744D01*
X016371Y013679D01*
X016312Y013738D01*
X015924Y013738D01*
X015924Y013201D01*
X015810Y013201D01*
X015810Y013738D01*
X015421Y013738D01*
X015292Y013609D01*
X015292Y013201D01*
X015809Y013201D01*
X015809Y013087D01*
X015292Y013087D01*
X015292Y012722D01*
X015263Y012710D01*
X015254Y012701D01*
X015254Y014368D01*
X015502Y014265D01*
X015809Y014265D01*
X016091Y014382D01*
X016308Y014599D01*
X016371Y014752D01*
X016371Y014744D01*
X016371Y014627D01*
X016461Y014410D01*
X016627Y014244D01*
X016461Y014079D01*
X016371Y013862D01*
X016371Y013744D01*
X016961Y013744D01*
X016961Y013745D02*
X016961Y014154D01*
X016961Y014744D01*
X016371Y014744D01*
X016961Y014744D01*
X016961Y014744D01*
X016962Y014744D02*
X016962Y014744D01*
X017551Y014744D01*
X017551Y014627D01*
X017461Y014410D01*
X017296Y014244D01*
X017422Y014118D01*
X017422Y014211D01*
X017551Y014340D01*
X017859Y014340D01*
X017859Y013904D01*
X017859Y013904D01*
X018295Y013904D01*
X018295Y014211D01*
X018167Y014340D01*
X017859Y014340D01*
X017859Y013904D01*
X017859Y013904D01*
X018295Y013904D01*
X018295Y013836D01*
X018325Y013824D01*
X018448Y013700D01*
X018515Y013539D01*
X018515Y012930D01*
X018502Y012899D01*
X018502Y012733D01*
X018577Y012733D01*
X018577Y013427D01*
X018624Y013427D01*
X018624Y014560D01*
X018624Y014751D01*
X018697Y014927D01*
X019033Y015264D01*
X018984Y015264D01*
X018984Y015853D01*
X018983Y015853D01*
X018983Y015264D01*
X018866Y015264D01*
X018649Y015354D01*
X018639Y015364D01*
X018443Y015167D01*
X018145Y015044D01*
X017823Y015044D01*
X017525Y015167D01*
X017484Y015208D01*
X017443Y015167D01*
X017393Y015147D01*
X017461Y015079D01*
X017551Y014862D01*
X017551Y014744D01*
X016962Y014744D01*
X016961Y014745D02*
X016961Y015044D01*
X016961Y015044D01*
X016961Y014745D01*
X016961Y014745D01*
X016961Y014770D02*
X016961Y014770D01*
X017009Y014829D02*
X018034Y014829D01*
X019020Y015815D01*
X018984Y015851D01*
X018984Y015854D01*
X018983Y015854D01*
X018983Y016444D01*
X018866Y016444D01*
X018649Y016354D01*
X018639Y016344D01*
X018443Y016540D01*
X018145Y016664D01*
X017823Y016664D01*
X017525Y016540D01*
X017484Y016499D01*
X017443Y016540D01*
X017145Y016664D01*
X016839Y016664D01*
X016839Y016848D01*
X016474Y016848D01*
X016474Y016849D01*
X016839Y016849D01*
X016839Y017097D01*
X016710Y017226D01*
X016475Y017226D01*
X016513Y017317D01*
X016795Y017200D01*
X017127Y017200D01*
X017434Y017327D01*
X017668Y017561D01*
X017795Y017868D01*
X017795Y018200D01*
X017668Y018506D01*
X017434Y018740D01*
X017127Y018867D01*
X016795Y018867D01*
X016546Y018764D01*
X016632Y018850D01*
X016755Y019148D01*
X016755Y019470D01*
X016632Y019768D01*
X016404Y019996D01*
X016107Y020119D01*
X015784Y020119D01*
X015487Y019996D01*
X015259Y019768D01*
X015239Y019721D01*
X015239Y021263D01*
X015912Y021263D01*
X016469Y020706D01*
X016645Y020633D01*
X016836Y020633D01*
X017566Y020633D01*
X018123Y020076D01*
X018299Y020003D01*
X018490Y020003D01*
X019298Y020003D01*
X019332Y019969D01*
X019332Y016339D01*
X019318Y016354D01*
X019101Y016444D01*
X018984Y016444D01*
X018984Y015854D01*
X018983Y015963D02*
X018984Y015963D01*
X018983Y016201D02*
X018984Y016201D01*
X018983Y016440D02*
X018984Y016440D01*
X019111Y016440D02*
X019332Y016440D01*
X019332Y016678D02*
X016839Y016678D01*
X016839Y016917D02*
X019332Y016917D01*
X019332Y017155D02*
X016781Y017155D01*
X016461Y016849D02*
X016461Y016455D01*
X016225Y016219D01*
X016174Y015963D02*
X015817Y015963D01*
X016056Y015724D02*
X016174Y015724D01*
X016399Y016440D02*
X016424Y016440D01*
X015914Y016876D02*
X015879Y016912D01*
X015879Y017609D01*
X015914Y016876D02*
X015886Y016849D01*
X015871Y016849D01*
X017500Y017394D02*
X019332Y017394D01*
X019332Y017632D02*
X017697Y017632D01*
X017795Y017871D02*
X019332Y017871D01*
X019332Y018109D02*
X017795Y018109D01*
X017733Y018348D02*
X019332Y018348D01*
X019332Y018586D02*
X017587Y018586D01*
X017229Y018825D02*
X019332Y018825D01*
X019332Y019064D02*
X016720Y019064D01*
X016693Y018825D02*
X016607Y018825D01*
X016755Y019302D02*
X019332Y019302D01*
X019332Y019541D02*
X016726Y019541D01*
X016621Y019779D02*
X019332Y019779D01*
X018264Y020018D02*
X016352Y020018D01*
X015539Y020018D02*
X015239Y020018D01*
X015239Y020256D02*
X017943Y020256D01*
X017704Y020495D02*
X015239Y020495D01*
X015239Y020733D02*
X016442Y020733D01*
X016203Y020972D02*
X015239Y020972D01*
X015239Y021210D02*
X015965Y021210D01*
X015270Y019779D02*
X015239Y019779D01*
X018543Y016440D02*
X018856Y016440D01*
X018983Y015724D02*
X018984Y015724D01*
X018983Y015485D02*
X018984Y015485D01*
X019016Y015247D02*
X018522Y015247D01*
X018778Y015008D02*
X017491Y015008D01*
X017551Y014770D02*
X018631Y014770D01*
X018624Y014531D02*
X017512Y014531D01*
X017504Y014293D02*
X017344Y014293D01*
X016961Y014293D02*
X016961Y014293D01*
X016961Y014531D02*
X016961Y014531D01*
X016578Y014293D02*
X015875Y014293D01*
X016240Y014531D02*
X016411Y014531D01*
X016451Y014054D02*
X015254Y014054D01*
X015254Y013816D02*
X016371Y013816D01*
X015924Y013577D02*
X015810Y013577D01*
X015810Y013339D02*
X015924Y013339D01*
X015809Y013100D02*
X015254Y013100D01*
X015254Y012861D02*
X015292Y012861D01*
X015072Y012358D02*
X015072Y012118D01*
X013105Y012118D01*
X013105Y009892D01*
X013733Y009892D01*
X013733Y009729D01*
X013723Y009739D01*
X013440Y009856D01*
X013134Y009856D01*
X012851Y009739D01*
X012634Y009522D01*
X012535Y009522D01*
X012634Y009522D02*
X012605Y009451D01*
X012244Y009813D01*
X012052Y009892D01*
X012865Y009892D01*
X012865Y012118D01*
X013105Y012118D01*
X013105Y012358D01*
X015072Y012358D01*
X015072Y012146D02*
X013105Y012146D01*
X013105Y012384D02*
X012865Y012384D01*
X012865Y012358D02*
X012865Y012118D01*
X010716Y012118D01*
X010716Y011780D01*
X010622Y011819D01*
X010622Y012005D01*
X010555Y012167D01*
X010543Y012178D01*
X010642Y012219D01*
X010781Y012358D01*
X012865Y012358D01*
X012865Y012146D02*
X010563Y012146D01*
X010622Y011907D02*
X010716Y011907D01*
X008561Y011907D02*
X007870Y011907D01*
X007870Y011944D02*
X007870Y011856D01*
X008520Y011206D01*
X008561Y011108D01*
X008561Y011505D01*
X008561Y011948D01*
X008485Y011948D01*
X008485Y012384D01*
X008485Y012384D01*
X008485Y011948D01*
X008226Y011948D01*
X008222Y011944D01*
X007914Y011944D01*
X007914Y012380D01*
X007914Y012380D01*
X007914Y011944D01*
X007870Y011944D01*
X007914Y012146D02*
X007914Y012146D01*
X008351Y012384D02*
X008351Y012384D01*
X008484Y012384D01*
X008484Y012384D01*
X008351Y012384D01*
X008485Y012146D02*
X008485Y012146D01*
X008561Y011669D02*
X008057Y011669D01*
X008296Y011430D02*
X008561Y011430D01*
X008561Y011192D02*
X008526Y011192D01*
X008581Y010422D02*
X008628Y010310D01*
X008751Y010186D01*
X008913Y010119D01*
X009970Y010119D01*
X009970Y009521D01*
X010064Y009294D01*
X010238Y009121D01*
X010418Y008940D01*
X010592Y008766D01*
X010819Y008672D01*
X011639Y008672D01*
X011675Y008636D01*
X011675Y008478D01*
X011417Y008478D01*
X011255Y008411D01*
X011132Y008287D01*
X011065Y008125D01*
X011065Y005745D01*
X011132Y005584D01*
X011255Y005460D01*
X011417Y005393D01*
X011451Y005393D01*
X011451Y004661D01*
X010722Y003932D01*
X010703Y003886D01*
X010678Y003911D01*
X010310Y003911D01*
X010310Y003217D01*
X010235Y003217D01*
X010235Y003911D01*
X009866Y003911D01*
X009737Y003782D01*
X009737Y003217D01*
X010235Y003217D01*
X010235Y003142D01*
X009737Y003142D01*
X009737Y002659D01*
X009708Y002647D01*
X009584Y002523D01*
X009517Y002361D01*
X009517Y001163D01*
X009584Y001001D01*
X009708Y000877D01*
X009870Y000810D01*
X010675Y000810D01*
X010836Y000877D01*
X010960Y001001D01*
X010994Y001083D01*
X011057Y001083D01*
X011292Y001180D01*
X011306Y001194D01*
X011429Y001143D01*
X011651Y001143D01*
X015293Y001143D01*
X015499Y001228D01*
X015656Y001386D01*
X015793Y001522D01*
X015826Y001442D01*
X015826Y001010D01*
X015826Y000748D01*
X008219Y000749D01*
X008257Y000786D01*
X008346Y001003D01*
X008346Y001120D01*
X007757Y001120D01*
X007757Y001120D01*
X008346Y001120D01*
X008346Y001238D01*
X008257Y001454D01*
X008091Y001620D01*
X007874Y001710D01*
X007757Y001710D01*
X007757Y001121D01*
X007756Y001121D01*
X007756Y001710D01*
X007639Y001710D01*
X007422Y001620D01*
X007256Y001454D01*
X007167Y001238D01*
X007167Y001120D01*
X007167Y001003D01*
X007256Y000786D01*
X007294Y000749D01*
X004388Y000749D01*
X004388Y000922D01*
X003038Y000922D01*
X003038Y001161D01*
X004388Y001161D01*
X004388Y001782D01*
X004259Y001911D01*
X003038Y001911D01*
X003038Y001162D01*
X002798Y001162D01*
X002798Y001911D01*
X001577Y001911D01*
X001448Y001782D01*
X001448Y001161D01*
X002798Y001161D01*
X002798Y000922D01*
X001448Y000922D01*
X001448Y000749D01*
X000598Y000749D01*
X000593Y009129D01*
X000811Y009039D01*
X001325Y009039D01*
X001289Y008953D01*
X001289Y008579D01*
X001432Y008234D01*
X001696Y007969D01*
X002042Y007826D01*
X002070Y007826D01*
X002444Y007826D01*
X002501Y007850D01*
X003796Y007850D01*
X004246Y007400D01*
X004246Y007244D01*
X003038Y007244D01*
X003038Y006394D01*
X002798Y006394D01*
X002798Y007244D01*
X001577Y007244D01*
X001448Y007115D01*
X001448Y006394D01*
X002798Y006394D01*
X002798Y006154D01*
X001448Y006154D01*
X001448Y005433D01*
X001577Y005304D01*
X002798Y005304D01*
X002798Y006154D01*
X003038Y006154D01*
X003038Y005304D01*
X004246Y005304D01*
X004246Y005087D01*
X004246Y004713D01*
X004389Y004367D01*
X005273Y003483D01*
X005273Y002706D01*
X005340Y002544D01*
X005464Y002421D01*
X005626Y002354D01*
X007769Y002354D01*
X007931Y002421D01*
X008055Y002544D01*
X008122Y002706D01*
X008122Y004180D01*
X008055Y004342D01*
X007931Y004466D01*
X007769Y004533D01*
X006882Y004533D01*
X006126Y005289D01*
X006126Y006698D01*
X006244Y006649D01*
X006576Y006649D01*
X006773Y006731D01*
X006773Y005745D01*
X006840Y005584D01*
X006964Y005460D01*
X007126Y005393D01*
X008915Y005393D01*
X009077Y005460D01*
X009200Y005584D01*
X009267Y005745D01*
X009267Y008125D01*
X009200Y008287D01*
X009077Y008411D01*
X008915Y008478D01*
X008193Y008478D01*
X007894Y008777D01*
X007720Y008951D01*
X007650Y008980D01*
X007650Y009661D01*
X007172Y009661D01*
X007172Y009045D01*
X007136Y009045D01*
X007136Y009661D01*
X007172Y009661D01*
X007172Y009697D01*
X007650Y009697D01*
X007650Y010132D01*
X007870Y010041D01*
X008124Y010041D01*
X008358Y010138D01*
X008538Y010318D01*
X008581Y010422D01*
X008700Y010237D02*
X008458Y010237D01*
X007650Y009999D02*
X009970Y009999D01*
X009970Y009760D02*
X007650Y009760D01*
X007650Y009522D02*
X009970Y009522D01*
X010075Y009283D02*
X007650Y009283D01*
X007650Y009045D02*
X010314Y009045D01*
X010552Y008806D02*
X007865Y008806D01*
X008103Y008568D02*
X011675Y008568D01*
X011174Y008329D02*
X009158Y008329D01*
X009267Y008091D02*
X011065Y008091D01*
X011065Y007852D02*
X009267Y007852D01*
X009267Y007614D02*
X011065Y007614D01*
X011065Y007375D02*
X009267Y007375D01*
X009267Y007136D02*
X011065Y007136D01*
X011065Y006898D02*
X009267Y006898D01*
X009267Y006659D02*
X011065Y006659D01*
X011065Y006421D02*
X009267Y006421D01*
X009267Y006182D02*
X011065Y006182D01*
X011065Y005944D02*
X009267Y005944D01*
X009251Y005705D02*
X011081Y005705D01*
X011249Y005467D02*
X009083Y005467D01*
X007818Y004512D02*
X011303Y004512D01*
X011451Y004751D02*
X006664Y004751D01*
X006425Y004990D02*
X011451Y004990D01*
X011451Y005228D02*
X006187Y005228D01*
X006126Y005467D02*
X006957Y005467D01*
X006790Y005705D02*
X006126Y005705D01*
X006126Y005944D02*
X006773Y005944D01*
X006773Y006182D02*
X006126Y006182D01*
X006126Y006421D02*
X006773Y006421D01*
X006773Y006659D02*
X006601Y006659D01*
X006219Y006659D02*
X006126Y006659D01*
X004246Y007375D02*
X000594Y007375D01*
X000594Y007614D02*
X004032Y007614D01*
X003038Y007136D02*
X002798Y007136D01*
X002798Y006898D02*
X003038Y006898D01*
X003038Y006659D02*
X002798Y006659D01*
X002798Y006421D02*
X003038Y006421D01*
X002798Y006182D02*
X000595Y006182D01*
X000595Y005944D02*
X001448Y005944D01*
X001448Y005705D02*
X000595Y005705D01*
X000595Y005467D02*
X001448Y005467D01*
X000595Y005228D02*
X004246Y005228D01*
X004246Y004990D02*
X000595Y004990D01*
X000596Y004751D02*
X004246Y004751D01*
X004329Y004512D02*
X000596Y004512D01*
X000596Y004274D02*
X004482Y004274D01*
X004721Y004035D02*
X000596Y004035D01*
X000596Y003797D02*
X004959Y003797D01*
X005198Y003558D02*
X000596Y003558D01*
X000596Y003320D02*
X005273Y003320D01*
X005273Y003081D02*
X000596Y003081D01*
X000597Y002843D02*
X005273Y002843D01*
X005315Y002604D02*
X000597Y002604D01*
X000597Y002366D02*
X005597Y002366D01*
X004282Y001888D02*
X009517Y001888D01*
X009517Y001650D02*
X008020Y001650D01*
X007757Y001650D02*
X007756Y001650D01*
X007756Y001411D02*
X007757Y001411D01*
X007756Y001173D02*
X007757Y001173D01*
X007756Y001120D02*
X007167Y001120D01*
X007756Y001120D01*
X007756Y001120D01*
X007195Y000934D02*
X003038Y000934D01*
X003038Y001173D02*
X002798Y001173D01*
X002798Y001411D02*
X003038Y001411D01*
X003038Y001650D02*
X002798Y001650D01*
X002798Y001888D02*
X003038Y001888D01*
X001554Y001888D02*
X000597Y001888D01*
X000597Y001650D02*
X001448Y001650D01*
X001448Y001411D02*
X000597Y001411D01*
X000598Y001173D02*
X001448Y001173D01*
X000598Y000934D02*
X002798Y000934D01*
X004388Y001173D02*
X007167Y001173D01*
X007239Y001411D02*
X004388Y001411D01*
X004388Y001650D02*
X007493Y001650D01*
X008275Y001411D02*
X009517Y001411D01*
X009517Y001173D02*
X008346Y001173D01*
X008318Y000934D02*
X009651Y000934D01*
X010894Y000934D02*
X015826Y000934D01*
X015826Y001173D02*
X015365Y001173D01*
X015682Y001411D02*
X015826Y001411D01*
X015182Y001703D02*
X011540Y001703D01*
X011253Y001990D01*
X011253Y002089D01*
X011264Y002089D01*
X012062Y002174D02*
X012179Y002057D01*
X013052Y002057D01*
X013086Y002092D01*
X013086Y003414D01*
X013795Y003414D02*
X014366Y003414D01*
X014462Y003510D01*
X014509Y003510D01*
X015099Y003510D02*
X015099Y004264D01*
X015093Y004270D01*
X015094Y004271D01*
X015094Y004286D01*
X015104Y004286D02*
X015472Y004286D01*
X015472Y004534D01*
X015343Y004663D01*
X015094Y004663D01*
X015063Y004663D01*
X015061Y004668D01*
X015122Y004668D01*
X015122Y004838D01*
X015123Y004839D01*
X015123Y004668D01*
X015430Y004668D01*
X015559Y004797D01*
X015559Y005104D01*
X015173Y005104D01*
X015173Y005105D01*
X015559Y005105D01*
X015559Y005412D01*
X015447Y005524D01*
X015447Y005835D01*
X015562Y005835D01*
X015562Y005318D01*
X015732Y005318D01*
X015732Y003692D01*
X015582Y003692D01*
X015476Y003648D01*
X015476Y003758D01*
X015348Y003887D01*
X015099Y003887D01*
X015051Y003887D01*
X015044Y003903D01*
X015046Y003908D01*
X015094Y003908D01*
X015094Y004023D01*
X015094Y004024D01*
X015094Y003908D01*
X015343Y003908D01*
X015472Y004037D01*
X015472Y004285D01*
X015104Y004285D01*
X015104Y004286D01*
X015094Y004583D02*
X015094Y004584D01*
X015094Y004663D01*
X015094Y004583D01*
X015122Y004751D02*
X015123Y004751D01*
X015513Y004751D02*
X015732Y004751D01*
X015732Y004512D02*
X015472Y004512D01*
X015472Y004274D02*
X015732Y004274D01*
X015732Y004035D02*
X015470Y004035D01*
X015438Y003797D02*
X015732Y003797D01*
X016292Y003727D02*
X016292Y005916D01*
X016288Y005920D01*
X016288Y006829D01*
X016064Y007053D01*
X016056Y007053D01*
X016052Y007057D01*
X016052Y007998D01*
X016300Y008246D01*
X016300Y009475D01*
X016453Y009628D01*
X016733Y009628D01*
X016749Y009644D01*
X016733Y009644D01*
X018020Y009644D01*
X018323Y009947D01*
X018320Y009947D01*
X018323Y009947D02*
X018335Y009959D01*
X016753Y009648D02*
X016749Y009644D01*
X016093Y010060D02*
X015979Y009945D01*
X015825Y009792D01*
X015740Y009586D01*
X015740Y009363D01*
X015740Y008478D01*
X015577Y008315D01*
X015492Y008110D01*
X015492Y007887D01*
X015492Y007169D01*
X015492Y006946D01*
X015577Y006740D01*
X015581Y006736D01*
X015728Y006589D01*
X015728Y006466D01*
X015562Y006466D01*
X015562Y005949D01*
X015447Y005949D01*
X015447Y006466D01*
X015102Y006466D01*
X015102Y008082D01*
X015035Y008244D01*
X014911Y008367D01*
X014750Y008434D01*
X014598Y008434D01*
X014471Y008562D01*
X014753Y008562D01*
X014882Y008691D01*
X014882Y009512D01*
X014365Y009512D01*
X014365Y009626D01*
X014882Y009626D01*
X014882Y009892D01*
X015125Y009892D01*
X015254Y010021D01*
X015254Y010778D01*
X015671Y010361D01*
X015887Y010145D01*
X016093Y010060D01*
X016032Y009999D02*
X015232Y009999D01*
X015254Y010237D02*
X015794Y010237D01*
X015556Y010476D02*
X015254Y010476D01*
X015254Y010715D02*
X015317Y010715D01*
X015979Y009945D02*
X015979Y009945D01*
X015812Y009760D02*
X014882Y009760D01*
X014882Y009283D02*
X015740Y009283D01*
X015740Y009045D02*
X014882Y009045D01*
X014882Y008806D02*
X015740Y008806D01*
X015740Y008568D02*
X014759Y008568D01*
X014949Y008329D02*
X015591Y008329D01*
X015492Y008091D02*
X015098Y008091D01*
X015102Y007852D02*
X015492Y007852D01*
X015492Y007614D02*
X015102Y007614D01*
X015102Y007375D02*
X015492Y007375D01*
X015492Y007136D02*
X015102Y007136D01*
X015102Y006898D02*
X015512Y006898D01*
X015658Y006659D02*
X015102Y006659D01*
X015447Y006421D02*
X015562Y006421D01*
X015562Y006182D02*
X015447Y006182D01*
X015447Y005705D02*
X015562Y005705D01*
X015562Y005467D02*
X015505Y005467D01*
X015559Y005228D02*
X015732Y005228D01*
X015732Y004990D02*
X015559Y004990D01*
X016852Y004990D02*
X017510Y004990D01*
X017510Y005108D02*
X017510Y004786D01*
X017633Y004488D01*
X017861Y004260D01*
X018158Y004137D01*
X018279Y004137D01*
X018256Y004082D01*
X018256Y003828D01*
X018262Y003814D01*
X016996Y003814D01*
X016852Y003959D01*
X016852Y006027D01*
X016848Y006036D01*
X016848Y006649D01*
X017127Y006649D01*
X017434Y006776D01*
X017510Y006852D01*
X017510Y006786D01*
X017633Y006488D01*
X017674Y006447D01*
X017633Y006406D01*
X017510Y006108D01*
X017510Y005786D01*
X017633Y005488D01*
X017674Y005447D01*
X017633Y005406D01*
X017510Y005108D01*
X017559Y005228D02*
X016852Y005228D01*
X016852Y005467D02*
X017654Y005467D01*
X017543Y005705D02*
X016852Y005705D01*
X016852Y005944D02*
X017510Y005944D01*
X017540Y006182D02*
X016848Y006182D01*
X016848Y006421D02*
X017648Y006421D01*
X017562Y006659D02*
X017152Y006659D01*
X018319Y007757D02*
X018319Y007947D01*
X018320Y007947D01*
X018320Y007757D01*
X018319Y007757D01*
X018319Y007852D02*
X018320Y007852D01*
X018367Y007876D02*
X018320Y007923D01*
X017965Y008278D01*
X017296Y008278D01*
X017686Y007888D01*
X017686Y004175D01*
X018071Y003790D01*
X018256Y004035D02*
X016852Y004035D01*
X016852Y004274D02*
X017847Y004274D01*
X017623Y004512D02*
X016852Y004512D01*
X016852Y004751D02*
X017524Y004751D01*
X016292Y003727D02*
X016764Y003254D01*
X019306Y003254D01*
X019572Y002539D02*
X019935Y002539D01*
X019996Y002564D01*
X021202Y002564D01*
X021202Y002485D01*
X021945Y002485D01*
X021945Y002449D01*
X021202Y002449D01*
X021202Y002100D01*
X021229Y002073D01*
X021202Y002046D01*
X021202Y001697D01*
X021945Y001697D01*
X021945Y001661D01*
X021202Y001661D01*
X021202Y001405D01*
X020067Y001405D01*
X020067Y001661D01*
X019324Y001661D01*
X019324Y001697D01*
X020067Y001697D01*
X020067Y002046D01*
X019938Y002175D01*
X019512Y002175D01*
X019572Y002320D01*
X019572Y002539D01*
X019572Y002366D02*
X021202Y002366D01*
X021202Y002127D02*
X019986Y002127D01*
X020067Y001888D02*
X021202Y001888D01*
X021202Y001650D02*
X020067Y001650D01*
X020067Y001411D02*
X021202Y001411D01*
X020938Y001644D02*
X020938Y001652D01*
X020938Y001644D02*
X020367Y001644D01*
X019288Y001661D02*
X018544Y001661D01*
X018544Y001405D01*
X017309Y001405D01*
X017385Y001589D01*
X017385Y001647D01*
X017407Y001647D01*
X017978Y001647D01*
X018184Y001732D01*
X018339Y001887D01*
X018544Y001887D01*
X018544Y001697D01*
X019288Y001697D01*
X019288Y001661D01*
X018544Y001650D02*
X017985Y001650D01*
X018544Y001411D02*
X017312Y001411D01*
X017296Y002207D02*
X017052Y002451D01*
X015930Y002451D01*
X015182Y001703D01*
X015930Y002833D02*
X015709Y003053D01*
X015701Y003061D01*
X015930Y002833D02*
X017611Y002833D01*
X018107Y002447D02*
X017867Y002207D01*
X017296Y002207D01*
X018107Y002447D02*
X018934Y002447D01*
X021945Y002449D02*
X021945Y001971D01*
X021945Y001697D01*
X021981Y001697D01*
X022725Y001697D01*
X022725Y001849D01*
X022875Y001849D01*
X022875Y001693D01*
X023618Y001693D01*
X023618Y001658D01*
X022875Y001658D01*
X022875Y001405D01*
X022725Y001405D01*
X022725Y001661D01*
X021981Y001661D01*
X021981Y001697D01*
X021981Y001971D01*
X021981Y002449D01*
X022329Y002449D01*
X022294Y002485D01*
X021981Y002485D01*
X021981Y002449D01*
X021945Y002449D01*
X021945Y002366D02*
X021981Y002366D01*
X021981Y002127D02*
X021945Y002127D01*
X021945Y001888D02*
X021981Y001888D01*
X022725Y001650D02*
X022875Y001650D01*
X022875Y001411D02*
X022725Y001411D01*
X023619Y001693D02*
X023619Y002171D01*
X023315Y002171D01*
X023315Y002285D01*
X022879Y002285D01*
X022879Y002286D01*
X023315Y002286D01*
X023315Y002353D01*
X023344Y002365D01*
X023468Y002489D01*
X023487Y002535D01*
X024265Y002535D01*
X024327Y002560D01*
X025533Y002560D01*
X025533Y002481D01*
X026276Y002481D01*
X026276Y002445D01*
X025533Y002445D01*
X025533Y002096D01*
X025560Y002069D01*
X025533Y002042D01*
X025533Y001693D01*
X026276Y001693D01*
X026276Y001658D01*
X025533Y001658D01*
X025533Y001405D01*
X024398Y001405D01*
X024398Y001658D01*
X023654Y001658D01*
X023654Y001693D01*
X023619Y001693D01*
X023654Y001693D02*
X023654Y002171D01*
X024269Y002171D01*
X024398Y002042D01*
X024398Y001693D01*
X023654Y001693D01*
X023654Y001888D02*
X023619Y001888D01*
X023619Y002127D02*
X023654Y002127D01*
X023344Y002366D02*
X025533Y002366D01*
X025533Y002127D02*
X024313Y002127D01*
X024398Y001888D02*
X025533Y001888D01*
X025533Y001650D02*
X024398Y001650D01*
X024398Y001411D02*
X025533Y001411D01*
X026276Y001693D02*
X026276Y001967D01*
X026276Y002445D01*
X026312Y002445D01*
X026312Y001967D01*
X026312Y001693D01*
X027055Y001693D01*
X027055Y001944D01*
X027206Y001881D01*
X027206Y001701D01*
X027949Y001701D01*
X027949Y001665D01*
X027206Y001665D01*
X027206Y001405D01*
X027055Y001405D01*
X027055Y001658D01*
X026312Y001658D01*
X026312Y001693D01*
X026276Y001693D01*
X026276Y001888D02*
X026312Y001888D01*
X026312Y002127D02*
X026276Y002127D01*
X026276Y002366D02*
X026312Y002366D01*
X027055Y001888D02*
X027189Y001888D01*
X027206Y001650D02*
X027055Y001650D01*
X027055Y001411D02*
X027206Y001411D01*
X027949Y001701D02*
X027949Y002166D01*
X028033Y002367D01*
X028033Y002543D01*
X028596Y002543D01*
X028658Y002568D01*
X029863Y002568D01*
X029863Y002489D01*
X030607Y002489D01*
X030607Y002453D01*
X030642Y002453D01*
X030642Y002179D01*
X030642Y001701D01*
X030607Y001701D01*
X030607Y001975D01*
X030607Y002453D01*
X029863Y002453D01*
X029863Y002104D01*
X029890Y002077D01*
X029863Y002050D01*
X029863Y001701D01*
X030607Y001701D01*
X030607Y001665D01*
X029863Y001665D01*
X029863Y001405D01*
X028728Y001405D01*
X028728Y001665D01*
X027985Y001665D01*
X027985Y001701D01*
X028728Y001701D01*
X028728Y002050D01*
X028600Y002179D01*
X027985Y002179D01*
X027985Y001701D01*
X027949Y001701D01*
X027949Y001888D02*
X027985Y001888D01*
X027985Y002127D02*
X027949Y002127D01*
X028032Y002366D02*
X029863Y002366D01*
X029863Y002127D02*
X028651Y002127D01*
X028728Y001888D02*
X029863Y001888D01*
X029863Y001650D02*
X028728Y001650D01*
X028728Y001411D02*
X029863Y001411D01*
X030643Y001665D02*
X030643Y001701D01*
X030931Y001701D01*
X030931Y001665D01*
X030643Y001665D01*
X030642Y001888D02*
X030607Y001888D01*
X030607Y002127D02*
X030642Y002127D01*
X030642Y002366D02*
X030607Y002366D01*
X032125Y002366D02*
X032365Y002366D01*
X032365Y002298D02*
X032125Y002298D01*
X032125Y002942D01*
X032125Y003731D01*
X032365Y003731D01*
X032365Y002942D01*
X032365Y002298D01*
X032365Y002604D02*
X032125Y002604D01*
X032125Y002843D02*
X032365Y002843D01*
X032365Y003081D02*
X032125Y003081D01*
X032125Y003320D02*
X032365Y003320D01*
X032365Y003558D02*
X032125Y003558D01*
X032125Y003971D02*
X032125Y004760D01*
X031917Y004760D01*
X031917Y004943D01*
X032120Y004943D01*
X032212Y004981D01*
X032690Y004981D01*
X032783Y004943D01*
X033037Y004943D01*
X033202Y005011D01*
X033202Y004164D01*
X033055Y004017D01*
X033055Y004631D01*
X032926Y004760D01*
X032365Y004760D01*
X032365Y003971D01*
X032125Y003971D01*
X032125Y004035D02*
X032365Y004035D01*
X032365Y004274D02*
X032125Y004274D01*
X032125Y004512D02*
X032365Y004512D01*
X032365Y004751D02*
X032125Y004751D01*
X032935Y004751D02*
X033202Y004751D01*
X033202Y004512D02*
X033055Y004512D01*
X033055Y004274D02*
X033202Y004274D01*
X033074Y004035D02*
X033055Y004035D01*
X033150Y004990D02*
X033202Y004990D01*
X035224Y006310D02*
X035224Y007810D01*
X035329Y007810D01*
X035387Y007752D01*
X035538Y007601D01*
X035736Y007519D01*
X036407Y007519D01*
X036305Y007477D01*
X036181Y007353D01*
X036114Y007191D01*
X036114Y006766D01*
X036114Y006412D01*
X036181Y006250D01*
X036198Y006233D01*
X036202Y006224D01*
X036032Y006394D01*
X035797Y006491D01*
X035543Y006491D01*
X035308Y006394D01*
X035224Y006310D01*
X035224Y006421D02*
X035373Y006421D01*
X035224Y006659D02*
X036114Y006659D01*
X036114Y006421D02*
X035966Y006421D01*
X036278Y006052D02*
X036788Y005542D01*
X036939Y005479D01*
X036939Y004760D01*
X036617Y004760D01*
X036617Y003971D01*
X036377Y003971D01*
X036377Y004760D01*
X036015Y004760D01*
X036015Y005305D01*
X036032Y005311D01*
X036211Y005491D01*
X036308Y005726D01*
X036308Y005980D01*
X036278Y006052D01*
X036308Y005944D02*
X036386Y005944D01*
X036300Y005705D02*
X036625Y005705D01*
X036939Y005467D02*
X036187Y005467D01*
X036015Y005228D02*
X036939Y005228D01*
X036939Y004990D02*
X036015Y004990D01*
X036377Y004751D02*
X036617Y004751D01*
X036617Y004512D02*
X036377Y004512D01*
X036377Y004274D02*
X036617Y004274D01*
X036617Y004035D02*
X036377Y004035D01*
X036377Y003731D02*
X036617Y003731D01*
X036617Y003185D01*
X036617Y002298D01*
X036377Y002298D01*
X036377Y003185D01*
X036377Y003731D01*
X036377Y003558D02*
X036617Y003558D01*
X036617Y003320D02*
X036377Y003320D01*
X036377Y003081D02*
X036617Y003081D01*
X036617Y002843D02*
X036377Y002843D01*
X036377Y002604D02*
X036617Y002604D01*
X036617Y002366D02*
X036377Y002366D01*
X036377Y002298D02*
X036377Y002058D01*
X036377Y001405D01*
X036617Y001405D01*
X036617Y002058D01*
X036377Y002058D01*
X035686Y002058D01*
X035686Y001827D01*
X035679Y001830D01*
X033593Y001830D01*
X033593Y002431D01*
X033607Y002416D01*
X033842Y002319D01*
X034096Y002319D01*
X034331Y002416D01*
X034394Y002480D01*
X034596Y002480D01*
X034772Y002553D01*
X034907Y002687D01*
X035068Y002849D01*
X035115Y002802D01*
X035350Y002705D01*
X035604Y002705D01*
X035686Y002739D01*
X035686Y002298D01*
X036377Y002298D01*
X036377Y002127D02*
X033593Y002127D01*
X033593Y001888D02*
X035686Y001888D01*
X035686Y002366D02*
X034209Y002366D01*
X033729Y002366D02*
X033593Y002366D01*
X034824Y002604D02*
X035686Y002604D01*
X035075Y002843D02*
X035062Y002843D01*
X036377Y001888D02*
X036617Y001888D01*
X036617Y001650D02*
X036377Y001650D01*
X036377Y001411D02*
X036617Y001411D01*
X037307Y001411D02*
X038784Y001411D01*
X038778Y001405D02*
X037307Y001405D01*
X037307Y001647D01*
X037451Y001588D01*
X037706Y001588D01*
X037941Y001685D01*
X038121Y001865D01*
X038219Y002100D01*
X038219Y004074D01*
X038222Y004083D01*
X038222Y004338D01*
X038219Y004345D01*
X038219Y004739D01*
X038388Y004739D01*
X038388Y005433D01*
X038463Y005433D01*
X038463Y004739D01*
X038832Y004739D01*
X038961Y004868D01*
X038961Y005433D01*
X038464Y005433D01*
X038464Y005508D01*
X038961Y005508D01*
X038961Y005991D01*
X038990Y006003D01*
X039114Y006127D01*
X039133Y006175D01*
X039133Y002273D01*
X039133Y002271D01*
X039130Y002261D01*
X039130Y001987D01*
X039130Y001756D01*
X038778Y001405D01*
X039023Y001650D02*
X037856Y001650D01*
X038131Y001888D02*
X039130Y001888D01*
X039130Y002127D02*
X038219Y002127D01*
X038219Y002366D02*
X039133Y002366D01*
X039133Y002604D02*
X038219Y002604D01*
X038219Y002843D02*
X039133Y002843D01*
X039133Y003081D02*
X038219Y003081D01*
X038219Y003320D02*
X039133Y003320D01*
X039133Y003558D02*
X038219Y003558D01*
X038219Y003797D02*
X039133Y003797D01*
X039133Y004035D02*
X038219Y004035D01*
X038222Y004274D02*
X039133Y004274D01*
X039133Y004512D02*
X038219Y004512D01*
X038388Y004751D02*
X038463Y004751D01*
X038463Y004990D02*
X038388Y004990D01*
X038388Y005228D02*
X038463Y005228D01*
X038464Y005467D02*
X039133Y005467D01*
X039133Y005705D02*
X038961Y005705D01*
X038961Y005944D02*
X039133Y005944D01*
X039133Y005228D02*
X038961Y005228D01*
X038961Y004990D02*
X039133Y004990D01*
X039133Y004751D02*
X038844Y004751D01*
X040513Y004606D02*
X041777Y004606D01*
X041939Y004673D01*
X042063Y004797D01*
X042088Y004858D01*
X042296Y004858D01*
X042297Y004855D01*
X042421Y004732D01*
X042450Y004719D01*
X042450Y004237D01*
X042947Y004237D01*
X042947Y004161D01*
X043022Y004161D01*
X043022Y003467D01*
X043391Y003467D01*
X043520Y003596D01*
X043520Y004161D01*
X043023Y004161D01*
X043023Y004237D01*
X043520Y004237D01*
X043520Y004719D01*
X043549Y004732D01*
X043673Y004855D01*
X043723Y004976D01*
X043794Y004976D01*
X043805Y004950D01*
X043929Y004826D01*
X043958Y004814D01*
X043958Y004449D01*
X044475Y004449D01*
X044475Y004335D01*
X043958Y004335D01*
X043958Y003927D01*
X044087Y003798D01*
X044475Y003798D01*
X044475Y004335D01*
X044589Y004335D01*
X044589Y003798D01*
X044978Y003798D01*
X045106Y003927D01*
X045106Y004259D01*
X045150Y004215D01*
X045457Y004215D01*
X045457Y004651D01*
X045457Y004651D01*
X045457Y004215D01*
X045765Y004215D01*
X045893Y004343D01*
X045895Y000745D01*
X041749Y000746D01*
X041865Y000861D01*
X042005Y001105D01*
X042078Y001377D01*
X042078Y001659D01*
X042005Y001931D01*
X041865Y002175D01*
X041665Y002374D01*
X041421Y002515D01*
X041149Y002588D01*
X040868Y002588D01*
X040596Y002515D01*
X040513Y002467D01*
X040513Y004606D01*
X040513Y004512D02*
X042450Y004512D01*
X042450Y004274D02*
X040513Y004274D01*
X040513Y004035D02*
X042450Y004035D01*
X042450Y004161D02*
X042450Y003596D01*
X042579Y003467D01*
X042947Y003467D01*
X042947Y004161D01*
X042450Y004161D01*
X042450Y003797D02*
X040513Y003797D01*
X040513Y003558D02*
X042488Y003558D01*
X042947Y003558D02*
X043022Y003558D01*
X043022Y003797D02*
X042947Y003797D01*
X042947Y004035D02*
X043022Y004035D01*
X043520Y004035D02*
X043958Y004035D01*
X043958Y004274D02*
X043520Y004274D01*
X043520Y004512D02*
X043958Y004512D01*
X043958Y004751D02*
X043569Y004751D01*
X044475Y004274D02*
X044589Y004274D01*
X044589Y004035D02*
X044475Y004035D01*
X043520Y003797D02*
X045893Y003797D01*
X045893Y004035D02*
X045106Y004035D01*
X045457Y004274D02*
X045457Y004274D01*
X045457Y004512D02*
X045457Y004512D01*
X045824Y004274D02*
X045893Y004274D01*
X045893Y003558D02*
X043482Y003558D01*
X042401Y004751D02*
X042017Y004751D01*
X042019Y006058D02*
X041995Y006116D01*
X041894Y006217D01*
X041761Y006272D01*
X041541Y006272D01*
X041541Y007278D01*
X041560Y007259D01*
X041891Y007259D01*
X042222Y007259D01*
X042351Y007388D01*
X042351Y007919D01*
X042351Y008177D01*
X042361Y008152D01*
X042541Y007973D01*
X042775Y007876D01*
X043029Y007876D01*
X043264Y007973D01*
X043443Y008152D01*
X043541Y008387D01*
X043541Y008641D01*
X043474Y008801D01*
X043504Y008871D01*
X043504Y009361D01*
X043437Y009523D01*
X043313Y009647D01*
X043280Y009661D01*
X043280Y009884D01*
X042912Y009884D01*
X042912Y009884D01*
X043280Y009884D01*
X042903Y009884D01*
X042903Y009884D01*
X043280Y009884D01*
X043280Y009635D01*
X043236Y009592D01*
X043268Y009579D01*
X043369Y009478D01*
X043424Y009345D01*
X043424Y008887D01*
X043388Y008801D01*
X043461Y008625D01*
X043461Y008403D01*
X043376Y008198D01*
X043219Y008041D01*
X043013Y007956D01*
X042791Y007956D01*
X042586Y008041D01*
X042429Y008198D01*
X042351Y008386D01*
X042351Y007919D01*
X041891Y007919D01*
X041891Y007919D01*
X042351Y007919D01*
X041891Y007919D01*
X041891Y007259D01*
X042222Y007259D01*
X042351Y007388D01*
X042351Y007919D01*
X041891Y007919D01*
X041891Y007919D01*
X041891Y007919D01*
X041891Y007259D01*
X041891Y007919D01*
X041891Y007919D01*
X041891Y007259D01*
X041621Y007259D01*
X041621Y006352D01*
X041777Y006352D01*
X041939Y006285D01*
X042063Y006161D01*
X042072Y006138D01*
X042230Y006138D01*
X042230Y006216D01*
X042297Y006377D01*
X042421Y006501D01*
X042582Y006568D01*
X043387Y006568D01*
X043549Y006501D01*
X043673Y006377D01*
X043723Y006256D01*
X043865Y006256D01*
X043929Y006320D01*
X044090Y006387D01*
X044974Y006387D01*
X045136Y006320D01*
X045243Y006213D01*
X045321Y006213D01*
X045556Y006116D01*
X045694Y005978D01*
X045761Y005978D01*
X045892Y005923D01*
X045889Y011168D01*
X045868Y011147D01*
X045859Y011143D01*
X045858Y011142D01*
X045831Y011131D01*
X045635Y011046D01*
X045625Y011045D01*
X045624Y011045D01*
X045594Y011045D01*
X045380Y011041D01*
X045371Y011045D01*
X045370Y011045D01*
X045342Y011056D01*
X045144Y011135D01*
X045136Y011142D01*
X045135Y011142D01*
X045114Y011163D01*
X044960Y011311D01*
X044956Y011321D01*
X044955Y011322D01*
X044944Y011349D01*
X044859Y011545D01*
X044859Y011555D01*
X044858Y011556D01*
X044858Y011586D01*
X044855Y011800D01*
X044858Y011809D01*
X044858Y011810D01*
X044870Y011838D01*
X044948Y012036D01*
X044955Y012044D01*
X044955Y012045D01*
X044976Y012066D01*
X045195Y012292D01*
X045195Y012980D01*
X045135Y012920D01*
X044688Y012920D01*
X044688Y013398D01*
X044652Y013398D01*
X044652Y012920D01*
X044205Y012920D01*
X044076Y013049D01*
X044076Y013189D01*
X043931Y013129D01*
X043165Y013129D01*
X043003Y013196D01*
X042880Y013320D01*
X042813Y013482D01*
X042813Y013660D01*
X040927Y013660D01*
X040728Y013660D01*
X040544Y013736D01*
X040208Y014072D01*
X040208Y013604D01*
X040141Y013442D01*
X040018Y013318D01*
X039856Y013251D01*
X039378Y013251D01*
X039321Y013114D01*
X039292Y013085D01*
X039414Y012964D01*
X039726Y012964D01*
X039736Y012974D01*
X039897Y013041D01*
X040466Y013041D01*
X040628Y012974D01*
X040752Y012850D01*
X040764Y012821D01*
X040890Y012821D01*
X040890Y012404D01*
X040891Y012404D01*
X041307Y012404D01*
X041307Y012692D01*
X041178Y012821D01*
X040891Y012821D01*
X040891Y012404D01*
X040891Y012404D01*
X041307Y012404D01*
X041307Y012116D01*
X041248Y012056D01*
X041277Y012056D01*
X041347Y012027D01*
X041417Y012056D01*
X041986Y012056D01*
X042037Y012035D01*
X042415Y012035D01*
X042459Y012017D01*
X042557Y012017D01*
X042718Y011950D01*
X042842Y011826D01*
X042854Y011797D01*
X042902Y011797D01*
X042902Y011682D01*
X042902Y011681D01*
X042902Y011797D01*
X042758Y011797D01*
X042737Y011818D01*
X042816Y011920D01*
X042930Y012034D01*
X045057Y012034D01*
X045034Y012010D01*
X045023Y012000D01*
X045023Y011999D01*
X045017Y011992D01*
X044944Y011808D01*
X044938Y011794D01*
X044935Y011785D01*
X044938Y011588D01*
X044938Y011572D01*
X044939Y011572D01*
X044939Y011562D01*
X045018Y011381D01*
X045023Y011367D01*
X045024Y011366D01*
X045027Y011358D01*
X045170Y011220D01*
X045180Y011210D01*
X045181Y011210D01*
X045188Y011203D01*
X045372Y011131D01*
X045386Y011125D01*
X045395Y011121D01*
X045592Y011125D01*
X045608Y011125D01*
X045608Y011125D01*
X045618Y011125D01*
X045799Y011204D01*
X045813Y011210D01*
X045813Y011210D01*
X045822Y011214D01*
X045960Y011357D01*
X045969Y011366D01*
X045972Y005919D01*
X045887Y005834D01*
X045878Y005843D01*
X045745Y005898D01*
X045661Y005898D01*
X045511Y006048D01*
X045305Y006133D01*
X045199Y006133D01*
X045192Y006151D01*
X045090Y006252D01*
X044958Y006307D01*
X044106Y006307D01*
X043974Y006252D01*
X043898Y006176D01*
X043660Y006176D01*
X043660Y006200D01*
X043605Y006332D01*
X043504Y006433D01*
X043371Y006488D01*
X042598Y006488D01*
X042466Y006433D01*
X042365Y006332D01*
X042310Y006200D01*
X042310Y006058D01*
X042019Y006058D01*
X042042Y006182D02*
X042230Y006182D01*
X042310Y006182D02*
X041928Y006182D01*
X041621Y006421D02*
X042340Y006421D01*
X042453Y006421D02*
X041541Y006421D01*
X041541Y006659D02*
X045972Y006659D01*
X045892Y006659D02*
X041621Y006659D01*
X041621Y006898D02*
X045891Y006898D01*
X045971Y006898D02*
X041541Y006898D01*
X041541Y007136D02*
X045971Y007136D01*
X045891Y007136D02*
X041621Y007136D01*
X041891Y007375D02*
X041891Y007375D01*
X041891Y007375D01*
X041891Y007614D02*
X041891Y007614D01*
X041891Y007614D01*
X041891Y007852D02*
X041891Y007852D01*
X041891Y007852D01*
X042351Y007852D02*
X045891Y007852D01*
X045971Y007852D02*
X042351Y007852D01*
X042351Y007614D02*
X045891Y007614D01*
X045971Y007614D02*
X042351Y007614D01*
X042338Y007375D02*
X045891Y007375D01*
X045971Y007375D02*
X042338Y007375D01*
X042351Y008091D02*
X042423Y008091D01*
X042351Y008091D02*
X042536Y008091D01*
X042374Y008329D02*
X042351Y008329D01*
X043269Y008091D02*
X045971Y008091D01*
X045891Y008091D02*
X043382Y008091D01*
X043430Y008329D02*
X045971Y008329D01*
X045891Y008329D02*
X043517Y008329D01*
X043541Y008568D02*
X045891Y008568D01*
X045971Y008568D02*
X043461Y008568D01*
X043477Y008806D02*
X045890Y008806D01*
X045970Y008806D02*
X043390Y008806D01*
X043424Y009045D02*
X045970Y009045D01*
X045890Y009045D02*
X043504Y009045D01*
X043504Y009283D02*
X045890Y009283D01*
X045970Y009283D02*
X043424Y009283D01*
X043437Y009522D02*
X045890Y009522D01*
X045970Y009522D02*
X043325Y009522D01*
X043280Y009760D02*
X045890Y009760D01*
X045970Y009760D02*
X043280Y009760D01*
X043280Y009884D02*
X043280Y010133D01*
X043151Y010262D01*
X042902Y010262D01*
X042854Y010262D01*
X042847Y010278D01*
X042854Y010294D01*
X042902Y010294D01*
X042902Y010409D01*
X042902Y010410D01*
X042902Y010294D01*
X042902Y010671D01*
X042902Y010671D01*
X042902Y010294D01*
X042758Y010294D01*
X042742Y010278D01*
X042758Y010262D01*
X042902Y010262D01*
X042902Y010146D01*
X042902Y010145D01*
X042902Y010262D01*
X042902Y009884D01*
X042902Y009884D01*
X042902Y010262D01*
X043151Y010262D01*
X043280Y010133D01*
X043280Y009884D01*
X043280Y009999D02*
X045890Y009999D01*
X045970Y009999D02*
X043280Y009999D01*
X043175Y010237D02*
X045890Y010237D01*
X045970Y010237D02*
X043175Y010237D01*
X043151Y010294D02*
X043280Y010423D01*
X043280Y010671D01*
X042912Y010671D01*
X042912Y010672D01*
X043280Y010672D01*
X043280Y010920D01*
X043154Y011045D01*
X043280Y011171D01*
X043280Y011419D01*
X042912Y011419D01*
X042912Y011420D01*
X043280Y011420D01*
X043280Y011668D01*
X043151Y011797D01*
X042902Y011797D01*
X042902Y011420D01*
X042902Y011420D01*
X042902Y011797D01*
X043151Y011797D01*
X043280Y011668D01*
X043280Y011420D01*
X042903Y011420D01*
X042903Y011419D01*
X043280Y011419D01*
X043280Y011171D01*
X043154Y011045D01*
X043280Y010920D01*
X043280Y010672D01*
X042903Y010672D01*
X042903Y010671D01*
X043280Y010671D01*
X043280Y010423D01*
X043151Y010294D01*
X042902Y010294D01*
X043151Y010294D01*
X043280Y010476D02*
X045889Y010476D01*
X045969Y010476D02*
X043280Y010476D01*
X043280Y010715D02*
X045889Y010715D01*
X045969Y010715D02*
X043280Y010715D01*
X043247Y010953D02*
X045889Y010953D01*
X045969Y010953D02*
X043247Y010953D01*
X043280Y011192D02*
X045084Y011192D01*
X045217Y011192D02*
X043280Y011192D01*
X043280Y011430D02*
X044909Y011430D01*
X044996Y011430D02*
X043280Y011430D01*
X043279Y011669D02*
X044857Y011669D01*
X044937Y011669D02*
X043279Y011669D01*
X042902Y011669D02*
X042902Y011669D01*
X042902Y011430D02*
X042902Y011430D01*
X042902Y011419D02*
X042902Y011042D01*
X042902Y011419D01*
X042902Y011419D01*
X042902Y011192D02*
X042902Y011192D01*
X042902Y011042D02*
X042902Y010672D01*
X042902Y010672D01*
X042902Y011042D01*
X042902Y010953D02*
X042902Y010953D01*
X042902Y010715D02*
X042902Y010715D01*
X042902Y010476D02*
X042902Y010476D01*
X042902Y010237D02*
X042902Y010237D01*
X042902Y010237D01*
X042902Y009999D02*
X042902Y009999D01*
X045386Y011125D02*
X045386Y011125D01*
X045770Y011192D02*
X045969Y011192D01*
X044938Y011794D02*
X044938Y011794D01*
X044897Y011907D02*
X042761Y011907D01*
X042806Y011907D02*
X044983Y011907D01*
X045054Y012146D02*
X041307Y012146D01*
X041307Y012384D02*
X045195Y012384D01*
X045195Y012623D02*
X041307Y012623D01*
X040891Y012623D02*
X040890Y012623D01*
X040890Y012404D02*
X043552Y012404D01*
X043609Y012347D01*
X043627Y012329D01*
X044076Y013100D02*
X039307Y013100D01*
X038646Y012939D02*
X038646Y013534D01*
X038619Y013561D01*
X038631Y013573D01*
X038634Y013573D01*
X038646Y012939D02*
X039182Y012404D01*
X040182Y012404D01*
X040740Y012861D02*
X045195Y012861D01*
X044688Y013100D02*
X044652Y013100D01*
X044652Y013339D02*
X044688Y013339D01*
X044688Y013434D02*
X044652Y013434D01*
X044652Y013911D01*
X044283Y013911D01*
X044283Y013972D01*
X044283Y014405D01*
X044216Y014566D01*
X044190Y014593D01*
X044216Y014619D01*
X044283Y014781D01*
X044283Y015040D01*
X044295Y015052D01*
X044362Y015214D01*
X044362Y015704D01*
X044295Y015866D01*
X044283Y015877D01*
X044283Y016137D01*
X044216Y016299D01*
X044190Y016325D01*
X044216Y016351D01*
X044283Y016513D01*
X044283Y017003D01*
X044216Y017165D01*
X044092Y017289D01*
X043931Y017356D01*
X043165Y017356D01*
X043003Y017289D01*
X042880Y017165D01*
X042832Y017051D01*
X041745Y018139D01*
X041774Y018168D01*
X041871Y018403D01*
X041871Y018657D01*
X041774Y018891D01*
X041595Y019071D01*
X041360Y019168D01*
X041106Y019168D01*
X041013Y019130D01*
X040799Y019130D01*
X040799Y019372D01*
X041041Y019372D01*
X041276Y019469D01*
X041446Y019640D01*
X041446Y019573D01*
X041518Y019305D01*
X041656Y019066D01*
X041852Y018870D01*
X042091Y018732D01*
X042358Y018661D01*
X042635Y018661D01*
X042902Y018732D01*
X043142Y018870D01*
X043337Y019066D01*
X043475Y019305D01*
X043547Y019573D01*
X043547Y019849D01*
X043475Y020116D01*
X043337Y020356D01*
X043142Y020551D01*
X043075Y020589D01*
X043075Y020966D01*
X043008Y021128D01*
X042884Y021252D01*
X042855Y021264D01*
X042855Y021391D01*
X042855Y021679D01*
X042726Y021808D01*
X042439Y021808D01*
X042439Y021391D01*
X042855Y021391D01*
X042439Y021391D01*
X042439Y021391D01*
X042438Y021391D01*
X042438Y021391D01*
X042022Y021391D01*
X042022Y021648D01*
X041812Y021648D01*
X041812Y022084D01*
X041811Y022084D01*
X041811Y021648D01*
X041744Y021648D01*
X041732Y021619D01*
X041649Y021536D01*
X041807Y021471D01*
X041973Y021305D01*
X041995Y021253D01*
X042022Y021264D01*
X042022Y021391D01*
X042438Y021391D01*
X042438Y021808D01*
X042248Y021808D01*
X042248Y022085D01*
X042248Y022393D01*
X042150Y022491D01*
X042361Y022491D01*
X042361Y023008D01*
X042475Y023008D01*
X042475Y022491D01*
X042883Y022491D01*
X043012Y022620D01*
X043012Y023008D01*
X042475Y023008D01*
X042475Y023122D01*
X043012Y023122D01*
X043012Y023511D01*
X042883Y023639D01*
X042680Y023639D01*
X042705Y023664D01*
X042761Y023720D01*
X042857Y023760D01*
X043085Y023988D01*
X043208Y024286D01*
X043208Y024608D01*
X043085Y024906D01*
X043044Y024947D01*
X043085Y024988D01*
X043208Y025286D01*
X043208Y025608D01*
X043085Y025906D01*
X042857Y026134D01*
X042559Y026257D01*
X042237Y026257D01*
X042207Y026245D01*
X041040Y026245D01*
X040757Y026127D01*
X040547Y025917D01*
X040547Y026083D01*
X040030Y026083D01*
X040030Y025133D01*
X040309Y025133D01*
X040309Y025120D01*
X040194Y025005D01*
X039531Y025005D01*
X039369Y024938D01*
X039267Y024835D01*
X039267Y026677D01*
X039302Y026762D01*
X039302Y027069D01*
X039185Y027352D01*
X039037Y027500D01*
X045880Y027499D01*
X045887Y015359D01*
X045708Y015359D01*
X045473Y015261D01*
X045293Y015081D01*
X045195Y014846D01*
X045195Y013851D01*
X045135Y013911D01*
X044688Y013911D01*
X044688Y013434D01*
X044688Y013577D02*
X044652Y013577D01*
X044652Y013816D02*
X044688Y013816D01*
X044283Y014054D02*
X045195Y014054D01*
X045195Y014293D02*
X044283Y014293D01*
X044231Y014531D02*
X045195Y014531D01*
X045048Y014597D02*
X043631Y014597D01*
X043627Y014593D01*
X044279Y014770D02*
X045195Y014770D01*
X045263Y015008D02*
X044283Y015008D01*
X044362Y015247D02*
X045458Y015247D01*
X045887Y015485D02*
X044362Y015485D01*
X044354Y015724D02*
X045886Y015724D01*
X045886Y015963D02*
X044283Y015963D01*
X044257Y016201D02*
X045886Y016201D01*
X045886Y016440D02*
X044253Y016440D01*
X044283Y016678D02*
X045886Y016678D01*
X045886Y016917D02*
X044283Y016917D01*
X044220Y017155D02*
X045886Y017155D01*
X045886Y017394D02*
X042489Y017394D01*
X042251Y017632D02*
X045885Y017632D01*
X045885Y017871D02*
X042012Y017871D01*
X041774Y018109D02*
X044586Y018109D01*
X044598Y018097D02*
X045046Y018097D01*
X045046Y018575D01*
X045081Y018575D01*
X045081Y018097D01*
X045529Y018097D01*
X045658Y018226D01*
X045658Y018575D01*
X045082Y018575D01*
X045082Y018611D01*
X045658Y018611D01*
X045658Y018959D01*
X045529Y019088D01*
X045081Y019088D01*
X045081Y018611D01*
X045046Y018611D01*
X045046Y019088D01*
X044598Y019088D01*
X044470Y018959D01*
X044470Y018611D01*
X045046Y018611D01*
X045046Y018575D01*
X044470Y018575D01*
X044470Y018226D01*
X044598Y018097D01*
X044470Y018348D02*
X041849Y018348D01*
X041871Y018586D02*
X045046Y018586D01*
X045082Y018586D02*
X045885Y018586D01*
X045885Y018348D02*
X045658Y018348D01*
X045541Y018109D02*
X045885Y018109D01*
X045081Y018109D02*
X045046Y018109D01*
X045046Y018348D02*
X045081Y018348D01*
X045081Y018825D02*
X045046Y018825D01*
X045046Y019064D02*
X045081Y019064D01*
X045553Y019064D02*
X045885Y019064D01*
X045884Y019302D02*
X043473Y019302D01*
X043538Y019541D02*
X045884Y019541D01*
X045884Y019779D02*
X043547Y019779D01*
X043502Y020018D02*
X045884Y020018D01*
X045884Y020256D02*
X043394Y020256D01*
X043198Y020495D02*
X045884Y020495D01*
X045884Y020733D02*
X043075Y020733D01*
X043073Y020972D02*
X045884Y020972D01*
X045883Y021210D02*
X042926Y021210D01*
X042855Y021449D02*
X045883Y021449D01*
X045883Y021688D02*
X042846Y021688D01*
X042439Y021688D02*
X042438Y021688D01*
X042438Y021449D02*
X042439Y021449D01*
X042022Y021449D02*
X041829Y021449D01*
X041811Y021688D02*
X041812Y021688D01*
X041811Y021926D02*
X041812Y021926D01*
X041812Y022085D02*
X041812Y022085D01*
X042248Y022085D01*
X041812Y022085D01*
X042248Y022165D02*
X045883Y022165D01*
X045883Y022403D02*
X042237Y022403D01*
X042361Y022642D02*
X042475Y022642D01*
X042475Y022880D02*
X042361Y022880D01*
X042361Y023008D02*
X042051Y023008D01*
X042051Y023122D01*
X042361Y023122D01*
X042361Y023008D01*
X042361Y023119D02*
X042051Y023119D01*
X042475Y023119D02*
X045882Y023119D01*
X045882Y023357D02*
X043012Y023357D01*
X042927Y023596D02*
X045882Y023596D01*
X045882Y023834D02*
X042931Y023834D01*
X043120Y024073D02*
X045882Y024073D01*
X045882Y024312D02*
X043208Y024312D01*
X043208Y024550D02*
X045881Y024550D01*
X045881Y024789D02*
X043134Y024789D01*
X043101Y025027D02*
X045881Y025027D01*
X045881Y025266D02*
X043200Y025266D01*
X043208Y025504D02*
X045881Y025504D01*
X045881Y025743D02*
X043152Y025743D01*
X043009Y025981D02*
X045881Y025981D01*
X045881Y026220D02*
X042649Y026220D01*
X040981Y026220D02*
X040547Y026220D01*
X040547Y026197D02*
X040547Y027019D01*
X040419Y027147D01*
X040030Y027147D01*
X040030Y026197D01*
X039916Y026197D01*
X039916Y026083D01*
X039399Y026083D01*
X039399Y025261D01*
X039528Y025133D01*
X039916Y025133D01*
X039916Y026083D01*
X040030Y026083D01*
X040030Y026197D01*
X040547Y026197D01*
X040547Y025981D02*
X040611Y025981D01*
X040030Y025981D02*
X039916Y025981D01*
X039916Y026197D02*
X039399Y026197D01*
X039399Y027019D01*
X039528Y027147D01*
X039916Y027147D01*
X039916Y026197D01*
X039916Y026220D02*
X040030Y026220D01*
X040030Y026458D02*
X039916Y026458D01*
X039916Y026697D02*
X040030Y026697D01*
X040030Y026936D02*
X039916Y026936D01*
X039399Y026936D02*
X039302Y026936D01*
X039275Y026697D02*
X039399Y026697D01*
X039399Y026458D02*
X039267Y026458D01*
X039179Y026430D02*
X039179Y025265D01*
X039246Y025103D01*
X039369Y024980D01*
X039531Y024913D01*
X040415Y024913D01*
X040577Y024980D01*
X040603Y025006D01*
X041076Y024533D01*
X040801Y024257D01*
X040584Y024041D01*
X040547Y023952D01*
X040547Y024656D01*
X040419Y024785D01*
X040030Y024785D01*
X040030Y023835D01*
X039916Y023835D01*
X039916Y024785D01*
X039528Y024785D01*
X039399Y024656D01*
X039399Y023835D01*
X039916Y023835D01*
X039916Y023721D01*
X039399Y023721D01*
X039399Y023171D01*
X039262Y023407D01*
X039063Y023606D01*
X038819Y023747D01*
X038547Y023820D01*
X038265Y023820D01*
X037993Y023747D01*
X037749Y023606D01*
X037550Y023407D01*
X037409Y023163D01*
X037336Y022891D01*
X037336Y022609D01*
X037409Y022337D01*
X037550Y022093D01*
X037749Y021894D01*
X037993Y021753D01*
X038147Y021712D01*
X038014Y021657D01*
X037973Y021616D01*
X037932Y021657D01*
X037634Y021781D01*
X037312Y021781D01*
X037014Y021657D01*
X036973Y021616D01*
X036932Y021657D01*
X036722Y021744D01*
X036270Y022196D01*
X036090Y022271D01*
X035895Y022271D01*
X035244Y022271D01*
X035291Y022385D01*
X035291Y022502D01*
X034702Y022502D01*
X034702Y022502D01*
X035291Y022502D01*
X035291Y022620D01*
X035234Y022759D01*
X035309Y022759D01*
X035470Y022826D01*
X035594Y022950D01*
X035606Y022979D01*
X035971Y022979D01*
X035971Y023496D01*
X036085Y023496D01*
X036085Y022979D01*
X036493Y022979D01*
X036622Y023108D01*
X036622Y023496D01*
X036086Y023496D01*
X036086Y023611D01*
X036622Y023611D01*
X036622Y023999D01*
X036493Y024128D01*
X036225Y024128D01*
X036225Y024337D01*
X036225Y024644D01*
X036096Y024773D01*
X035788Y024773D01*
X035720Y024773D01*
X035708Y024803D01*
X035584Y024926D01*
X035423Y024993D01*
X034815Y024993D01*
X034653Y024926D01*
X034583Y024856D01*
X034583Y024873D01*
X034454Y025002D01*
X033633Y025002D01*
X033633Y024587D01*
X033518Y024701D01*
X033518Y025002D01*
X033487Y025002D01*
X033516Y025031D01*
X033626Y025296D01*
X033626Y025582D01*
X033516Y025847D01*
X033446Y025918D01*
X033446Y025927D01*
X033221Y026152D01*
X033067Y026152D01*
X033049Y026159D01*
X032755Y026159D01*
X030822Y026159D01*
X030156Y026825D01*
X030152Y026827D01*
X030233Y027160D01*
X030323Y027250D01*
X038359Y027250D01*
X039179Y026430D01*
X039151Y026458D02*
X030523Y026458D01*
X030762Y026220D02*
X039179Y026220D01*
X039267Y026220D02*
X039399Y026220D01*
X039399Y025981D02*
X039267Y025981D01*
X039179Y025981D02*
X033392Y025981D01*
X033560Y025743D02*
X039179Y025743D01*
X039267Y025743D02*
X039399Y025743D01*
X039399Y025504D02*
X039267Y025504D01*
X039179Y025504D02*
X033626Y025504D01*
X033614Y025266D02*
X039179Y025266D01*
X039267Y025266D02*
X039399Y025266D01*
X039322Y025027D02*
X033512Y025027D01*
X033518Y024789D02*
X033633Y024789D01*
X033735Y024485D02*
X034418Y024485D01*
X034345Y024412D01*
X033808Y024412D01*
X033735Y024485D01*
X032348Y024550D02*
X032221Y024550D01*
X032221Y024485D02*
X032221Y024719D01*
X032348Y024719D01*
X032348Y023986D01*
X032415Y023824D01*
X032539Y023700D01*
X032700Y023633D01*
X034253Y023633D01*
X034253Y023611D01*
X034790Y023611D01*
X034790Y023496D01*
X034253Y023496D01*
X034253Y023193D01*
X034243Y023189D01*
X034046Y022992D01*
X034036Y023002D01*
X033819Y023092D01*
X033702Y023092D01*
X033702Y022503D01*
X033701Y022503D01*
X033701Y023092D01*
X033584Y023092D01*
X033367Y023002D01*
X033357Y022992D01*
X033160Y023189D01*
X032863Y023312D01*
X032540Y023312D01*
X032338Y023228D01*
X032321Y023245D01*
X032159Y023312D01*
X031244Y023312D01*
X031082Y023245D01*
X030958Y023121D01*
X030891Y022960D01*
X030891Y022862D01*
X030555Y022862D01*
X030514Y022961D01*
X030473Y023002D01*
X030514Y023043D01*
X030637Y023341D01*
X030637Y023663D01*
X030559Y023853D01*
X031156Y023853D01*
X031156Y024370D01*
X031270Y024370D01*
X031270Y023853D01*
X032092Y023853D01*
X032221Y023982D01*
X032221Y024370D01*
X031271Y024370D01*
X031271Y024485D01*
X032221Y024485D01*
X032221Y024312D02*
X032348Y024312D01*
X032348Y024073D02*
X032221Y024073D01*
X032411Y023834D02*
X030566Y023834D01*
X030637Y023596D02*
X034790Y023596D01*
X034253Y023357D02*
X030637Y023357D01*
X030545Y023119D02*
X030957Y023119D01*
X030891Y022880D02*
X030548Y022880D01*
X031156Y024073D02*
X031270Y024073D01*
X031270Y024312D02*
X031156Y024312D01*
X030206Y024502D02*
X030206Y024502D01*
X033230Y023119D02*
X034173Y023119D01*
X033702Y022880D02*
X033701Y022880D01*
X033701Y022642D02*
X033702Y022642D01*
X033702Y022502D02*
X033891Y022502D01*
X033702Y022502D01*
X033702Y022502D01*
X033891Y022502D02*
X033891Y022502D01*
X034701Y022502D02*
X034701Y022271D01*
X034702Y022271D01*
X034702Y022502D01*
X034701Y022502D01*
X034701Y022403D02*
X034702Y022403D01*
X035282Y022642D02*
X037336Y022642D01*
X037336Y022880D02*
X035525Y022880D01*
X035971Y023119D02*
X036085Y023119D01*
X036085Y023357D02*
X035971Y023357D01*
X035971Y023611D02*
X035971Y023900D01*
X036085Y023900D01*
X036085Y023611D01*
X035971Y023611D01*
X036086Y023596D02*
X037739Y023596D01*
X037521Y023357D02*
X036622Y023357D01*
X036622Y023119D02*
X037397Y023119D01*
X036622Y023834D02*
X039916Y023834D01*
X039916Y023720D02*
X040030Y023720D01*
X040030Y022770D01*
X040419Y022770D01*
X040423Y022775D01*
X040423Y022623D01*
X040455Y022546D01*
X040364Y022455D01*
X040122Y022214D01*
X040122Y022214D01*
X039942Y022034D01*
X039845Y021799D01*
X039845Y021693D01*
X039634Y021781D01*
X039312Y021781D01*
X039014Y021657D01*
X038973Y021616D01*
X038932Y021657D01*
X038747Y021734D01*
X038819Y021753D01*
X039063Y021894D01*
X039262Y022093D01*
X039403Y022337D01*
X039476Y022609D01*
X039476Y022822D01*
X039528Y022770D01*
X039916Y022770D01*
X039916Y023720D01*
X040030Y023721D02*
X040467Y023721D01*
X040467Y023758D01*
X040499Y023835D01*
X040030Y023835D01*
X040030Y023721D01*
X040030Y023834D02*
X040499Y023834D01*
X040547Y024073D02*
X040616Y024073D01*
X040547Y024312D02*
X040855Y024312D01*
X041059Y024550D02*
X040547Y024550D01*
X040820Y024789D02*
X035714Y024789D01*
X035788Y024773D02*
X035788Y024337D01*
X035788Y024337D01*
X035788Y024773D01*
X035788Y024550D02*
X035788Y024550D01*
X035788Y024337D02*
X036225Y024337D01*
X035788Y024337D01*
X035788Y024337D01*
X035788Y024336D02*
X035788Y024128D01*
X035788Y024128D01*
X035788Y024336D01*
X035788Y024336D01*
X035788Y024312D02*
X035788Y024312D01*
X036225Y024312D02*
X039399Y024312D01*
X039399Y024550D02*
X036225Y024550D01*
X036548Y024073D02*
X039399Y024073D01*
X039399Y023596D02*
X039074Y023596D01*
X039291Y023357D02*
X039399Y023357D01*
X039916Y023357D02*
X040030Y023357D01*
X040030Y023119D02*
X039916Y023119D01*
X039916Y022880D02*
X040030Y022880D01*
X040423Y022642D02*
X039476Y022642D01*
X039421Y022403D02*
X040312Y022403D01*
X040364Y022455D02*
X040364Y022455D01*
X040073Y022165D02*
X039303Y022165D01*
X039095Y021926D02*
X039898Y021926D01*
X039087Y021688D02*
X038859Y021688D01*
X038087Y021688D02*
X037859Y021688D01*
X037717Y021926D02*
X036540Y021926D01*
X036302Y022165D02*
X037509Y022165D01*
X037391Y022403D02*
X035291Y022403D01*
X036859Y021688D02*
X037087Y021688D01*
X038009Y020289D02*
X038014Y020284D01*
X038308Y020162D01*
X038308Y020050D01*
X038725Y020050D01*
X038725Y020049D01*
X038308Y020049D01*
X038308Y019885D01*
X038090Y019885D01*
X037856Y019787D01*
X037676Y019608D01*
X037579Y019373D01*
X037579Y019130D01*
X037108Y019130D01*
X037930Y019952D01*
X038009Y020143D01*
X038009Y020289D01*
X038009Y020256D02*
X038081Y020256D01*
X037957Y020018D02*
X038308Y020018D01*
X037847Y019779D02*
X037757Y019779D01*
X037648Y019541D02*
X037519Y019541D01*
X037579Y019302D02*
X037280Y019302D01*
X040799Y019302D02*
X041520Y019302D01*
X041455Y019541D02*
X041347Y019541D01*
X041602Y019064D02*
X041659Y019064D01*
X041802Y018825D02*
X041930Y018825D01*
X043063Y018825D02*
X044470Y018825D01*
X044574Y019064D02*
X043335Y019064D01*
X045658Y018825D02*
X045885Y018825D01*
X042876Y017155D02*
X042728Y017155D01*
X040709Y016201D02*
X040208Y016201D01*
X040208Y016380D02*
X040208Y015848D01*
X040141Y015686D01*
X040018Y015562D01*
X039856Y015495D01*
X039130Y015495D01*
X038968Y015562D01*
X038844Y015686D01*
X038777Y015848D01*
X038777Y015986D01*
X038756Y015986D01*
X038687Y015917D01*
X038658Y015904D01*
X038658Y015837D01*
X038221Y015837D01*
X038221Y015850D01*
X038221Y015850D01*
X038221Y015837D01*
X038221Y015837D01*
X038221Y015837D01*
X038221Y015836D02*
X038221Y015836D01*
X038221Y015400D01*
X038122Y015400D01*
X038200Y015212D01*
X038200Y015160D01*
X040427Y015160D01*
X040611Y015084D01*
X040751Y014943D01*
X041034Y014660D01*
X042250Y014660D01*
X040530Y016380D01*
X040208Y016380D01*
X040208Y015963D02*
X040947Y015963D01*
X041186Y015724D02*
X040157Y015724D01*
X040686Y015008D02*
X041902Y015008D01*
X042140Y014770D02*
X040924Y014770D01*
X041663Y015247D02*
X038185Y015247D01*
X038221Y015400D02*
X038529Y015400D01*
X038658Y015529D01*
X038658Y015837D01*
X038221Y015837D01*
X038221Y015836D02*
X038221Y015400D01*
X038221Y015485D02*
X038221Y015485D01*
X038221Y015724D02*
X038221Y015724D01*
X038658Y015724D02*
X038828Y015724D01*
X038777Y015963D02*
X038733Y015963D01*
X038614Y015485D02*
X041424Y015485D01*
X040226Y014054D02*
X040208Y014054D01*
X040208Y013816D02*
X040464Y013816D01*
X040197Y013577D02*
X042813Y013577D01*
X042872Y013339D02*
X040038Y013339D01*
X034493Y009991D02*
X034164Y009991D01*
X034164Y010488D01*
X034089Y010488D01*
X034089Y010158D01*
X034095Y010152D01*
X034095Y009845D01*
X033659Y009845D01*
X033659Y009844D01*
X034095Y009844D01*
X034095Y009593D01*
X034493Y009991D01*
X034262Y009760D02*
X034095Y009760D01*
X034095Y009999D02*
X034164Y009999D01*
X034164Y010237D02*
X034089Y010237D01*
X034089Y010476D02*
X034164Y010476D01*
X034089Y010488D02*
X033474Y010488D01*
X033474Y010415D01*
X033455Y010434D01*
X033293Y010501D01*
X033267Y010501D01*
X033267Y010928D01*
X033200Y011090D01*
X033077Y011214D01*
X033047Y011226D01*
X033047Y011591D01*
X032432Y011591D01*
X032432Y011617D01*
X032551Y011666D01*
X032714Y011666D01*
X032783Y011637D01*
X032974Y011637D01*
X033254Y011637D01*
X033254Y011226D01*
X033321Y011064D01*
X033444Y010940D01*
X033474Y010928D01*
X033474Y010563D01*
X034089Y010563D01*
X034089Y010488D01*
X033474Y010476D02*
X033354Y010476D01*
X033267Y010501D02*
X033267Y010501D01*
X033267Y010715D02*
X033474Y010715D01*
X033431Y010953D02*
X033257Y010953D01*
X033268Y011192D02*
X033099Y011192D01*
X033047Y011430D02*
X033254Y011430D01*
X031367Y010620D02*
X031367Y009337D01*
X031327Y009337D01*
X031308Y009357D01*
X031741Y009357D01*
X031745Y009360D01*
X032938Y009360D01*
X033020Y009278D01*
X031377Y009434D02*
X031262Y009434D01*
X031262Y009929D01*
X031377Y009929D01*
X031377Y009434D01*
X031377Y009522D02*
X031262Y009522D01*
X031288Y009357D02*
X031308Y009357D01*
X031262Y009760D02*
X031377Y009760D01*
X031377Y010044D02*
X031262Y010044D01*
X031262Y010235D01*
X031315Y010235D01*
X031315Y010596D01*
X031316Y010597D01*
X031316Y010235D01*
X031377Y010235D01*
X031377Y010044D01*
X031315Y010237D02*
X031316Y010237D01*
X031315Y010476D02*
X031316Y010476D01*
X031367Y010620D02*
X031316Y010671D01*
X035221Y009084D02*
X035579Y009442D01*
X035693Y009395D01*
X035926Y009395D01*
X035960Y009361D01*
X035989Y009349D01*
X035989Y008985D01*
X036506Y008985D01*
X036506Y008870D01*
X036033Y008870D01*
X036023Y008893D01*
X035899Y009017D01*
X035738Y009084D01*
X035221Y009084D01*
X035420Y009283D02*
X035989Y009283D01*
X035989Y009045D02*
X035832Y009045D01*
X036506Y008870D02*
X036506Y008596D01*
X036621Y008596D01*
X036621Y008870D01*
X036621Y008985D01*
X037138Y008985D01*
X037138Y009349D01*
X037167Y009361D01*
X037291Y009485D01*
X037311Y009535D01*
X037321Y009513D01*
X037444Y009389D01*
X037474Y009377D01*
X037474Y008894D01*
X037971Y008894D01*
X037971Y008819D01*
X037474Y008819D01*
X037474Y008596D01*
X037138Y008596D01*
X037138Y008870D01*
X036621Y008870D01*
X036506Y008870D01*
X036506Y008806D02*
X036621Y008806D01*
X037138Y008806D02*
X037474Y008806D01*
X037474Y009045D02*
X037138Y009045D01*
X037138Y009283D02*
X037474Y009283D01*
X037317Y009522D02*
X037306Y009522D01*
X038046Y008894D02*
X038202Y008894D01*
X038202Y008819D01*
X038046Y008819D01*
X038046Y008894D01*
X036203Y007375D02*
X035224Y007375D01*
X035224Y007614D02*
X035526Y007614D01*
X035224Y007136D02*
X036114Y007136D01*
X036114Y006898D02*
X035224Y006898D01*
X036804Y006979D02*
X038331Y006979D01*
X038426Y006884D01*
X038426Y006888D01*
X038426Y006884D02*
X038434Y006876D01*
X036812Y006597D02*
X036812Y006423D01*
X036812Y006597D02*
X036804Y006605D01*
X036804Y006624D01*
X031351Y008349D02*
X031343Y008357D01*
X025093Y007004D02*
X025093Y006890D01*
X024576Y006890D01*
X024576Y006795D01*
X024428Y006943D01*
X024573Y007003D01*
X024576Y007006D01*
X024576Y007004D01*
X025093Y007004D01*
X025093Y006898D02*
X024473Y006898D01*
X023182Y007888D02*
X023178Y007892D01*
X023162Y007892D01*
X021694Y007696D02*
X021694Y006867D01*
X020931Y006867D01*
X020740Y006867D01*
X020724Y006861D01*
X020724Y006975D01*
X020657Y007137D01*
X020533Y007261D01*
X020459Y007292D01*
X020504Y007401D01*
X020504Y007518D01*
X020504Y007535D01*
X021372Y007535D01*
X021548Y007608D01*
X021636Y007696D01*
X021694Y007696D01*
X021694Y007614D02*
X021554Y007614D01*
X021694Y007375D02*
X020493Y007375D01*
X020504Y007518D02*
X019914Y007518D01*
X020504Y007518D01*
X020657Y007136D02*
X021694Y007136D01*
X021694Y006898D02*
X020724Y006898D01*
X019914Y007518D02*
X019914Y007518D01*
X018320Y007923D02*
X018320Y007947D01*
X017312Y008931D02*
X017308Y008935D01*
X016733Y008935D01*
X017296Y008947D02*
X017308Y008935D01*
X015740Y009522D02*
X014365Y009522D01*
X013733Y009760D02*
X013671Y009760D01*
X013105Y009999D02*
X012865Y009999D01*
X012865Y010237D02*
X013105Y010237D01*
X013105Y010476D02*
X012865Y010476D01*
X012865Y010715D02*
X013105Y010715D01*
X013105Y010953D02*
X012865Y010953D01*
X012865Y011192D02*
X013105Y011192D01*
X013105Y011430D02*
X012865Y011430D01*
X012865Y011669D02*
X013105Y011669D01*
X013105Y011907D02*
X012865Y011907D01*
X012865Y012623D02*
X013105Y012623D01*
X013105Y012861D02*
X012865Y012861D01*
X012865Y013100D02*
X013105Y013100D01*
X013105Y013339D02*
X012865Y013339D01*
X012865Y013577D02*
X013105Y013577D01*
X013105Y013816D02*
X012865Y013816D01*
X012865Y014054D02*
X013105Y014054D01*
X013105Y014293D02*
X012865Y014293D01*
X012865Y014531D02*
X013105Y014531D01*
X014108Y015008D02*
X014593Y015008D01*
X014355Y015247D02*
X014309Y015247D01*
X014832Y014770D02*
X011194Y014770D01*
X011084Y015008D02*
X011475Y015008D01*
X011275Y015247D02*
X010974Y015247D01*
X010756Y015485D02*
X011250Y015485D01*
X011250Y015724D02*
X010642Y015724D01*
X010642Y015963D02*
X011250Y015963D01*
X011250Y016201D02*
X010642Y016201D01*
X009021Y016201D02*
X008119Y016201D01*
X008358Y015963D02*
X009021Y015963D01*
X009021Y015724D02*
X008596Y015724D01*
X008835Y015485D02*
X009021Y015485D01*
X006479Y014983D02*
X005946Y014450D01*
X005852Y014223D01*
X005852Y013978D01*
X005852Y013765D01*
X004350Y013765D01*
X004188Y013698D01*
X004065Y013574D01*
X003998Y013413D01*
X003998Y013383D01*
X003986Y013371D01*
X003871Y013257D01*
X003754Y012974D01*
X003754Y012668D01*
X003754Y012634D01*
X003746Y012625D01*
X003679Y012464D01*
X003679Y011580D01*
X003702Y011524D01*
X002837Y011524D01*
X002716Y011574D01*
X001741Y011574D01*
X001646Y011535D01*
X001646Y012783D01*
X001835Y012594D01*
X002091Y012488D01*
X002221Y012488D01*
X002221Y013175D01*
X002237Y013175D01*
X002237Y012488D01*
X002367Y012488D01*
X002623Y012594D01*
X002818Y012790D01*
X002924Y013045D01*
X002924Y013175D01*
X002237Y013175D01*
X002237Y013191D01*
X002924Y013191D01*
X002924Y013322D01*
X002818Y013577D01*
X004067Y013577D01*
X003953Y013339D02*
X002917Y013339D01*
X002924Y013100D02*
X003806Y013100D01*
X003754Y012861D02*
X002848Y012861D01*
X002651Y012623D02*
X003745Y012623D01*
X003679Y012384D02*
X001646Y012384D01*
X001646Y012146D02*
X003679Y012146D01*
X003679Y011907D02*
X001646Y011907D01*
X001646Y011669D02*
X003679Y011669D01*
X004571Y010782D02*
X005292Y010782D01*
X004571Y010782D02*
X004512Y010723D01*
X007136Y009522D02*
X007172Y009522D01*
X007172Y009283D02*
X007136Y009283D01*
X007136Y009045D02*
X007172Y009045D01*
X012296Y009760D02*
X012903Y009760D01*
X018502Y012861D02*
X018577Y012861D01*
X018577Y013100D02*
X018515Y013100D01*
X018515Y013339D02*
X018577Y013339D01*
X018624Y013577D02*
X018499Y013577D01*
X018624Y013816D02*
X018333Y013816D01*
X018295Y014054D02*
X018624Y014054D01*
X018624Y014293D02*
X018214Y014293D01*
X017859Y014293D02*
X017859Y014293D01*
X017859Y014054D02*
X017859Y014054D01*
X016961Y014054D02*
X016961Y014054D01*
X016961Y013816D02*
X016961Y013816D01*
X015436Y014293D02*
X015254Y014293D01*
X015254Y013577D02*
X015292Y013577D01*
X015292Y013339D02*
X015254Y013339D01*
X016961Y015008D02*
X016961Y015008D01*
X019829Y014413D02*
X019829Y013886D01*
X019944Y013886D01*
X020288Y013886D01*
X020319Y013772D01*
X019944Y013772D01*
X019944Y013886D01*
X019944Y014413D01*
X019829Y014413D01*
X019829Y014293D02*
X019944Y014293D01*
X019944Y014054D02*
X019829Y014054D01*
X019944Y013816D02*
X020307Y013816D01*
X023947Y019072D02*
X024191Y019072D01*
X024135Y019206D01*
X024135Y019551D01*
X023919Y019641D01*
X023807Y019753D01*
X023706Y019753D01*
X023791Y019668D01*
X023889Y019433D01*
X023889Y019178D01*
X023875Y019145D01*
X023947Y019072D01*
X023889Y019302D02*
X024135Y019302D01*
X024135Y019541D02*
X023844Y019541D01*
X025810Y019819D02*
X025810Y019933D01*
X026327Y019933D01*
X026327Y019947D01*
X026381Y019893D01*
X026411Y019881D01*
X026411Y019813D01*
X026411Y019650D01*
X026327Y019685D01*
X026327Y019819D01*
X025810Y019819D01*
X026327Y019779D02*
X026411Y019779D01*
X026411Y019813D02*
X026832Y019813D01*
X026832Y019813D01*
X026411Y019813D01*
X030949Y017017D02*
X031084Y017152D01*
X031098Y017186D01*
X031098Y017144D01*
X031165Y016982D01*
X031225Y016922D01*
X030956Y016922D01*
X030937Y016915D01*
X030847Y016915D01*
X030949Y017017D01*
X030949Y017017D01*
X030942Y016917D02*
X030849Y016917D01*
X031086Y017155D02*
X031098Y017155D01*
X033287Y014660D02*
X033343Y014660D01*
X033343Y014659D01*
X033287Y014659D01*
X033287Y014660D01*
X032987Y020709D02*
X032970Y020726D01*
X032941Y020738D01*
X032941Y020805D01*
X032505Y020805D01*
X032505Y020806D01*
X032941Y020806D01*
X032941Y020820D01*
X032987Y020709D01*
X032977Y020733D02*
X032952Y020733D01*
X032504Y020805D02*
X032268Y020805D01*
X032268Y020806D01*
X032504Y020806D01*
X032504Y020805D01*
X031636Y021004D02*
X031244Y021004D01*
X031244Y021078D01*
X031209Y021113D01*
X031209Y021118D01*
X031636Y021118D01*
X031636Y021004D01*
X035971Y023834D02*
X036085Y023834D01*
X039267Y025027D02*
X040216Y025027D01*
X040030Y025266D02*
X039916Y025266D01*
X039916Y025504D02*
X040030Y025504D01*
X040030Y025743D02*
X039916Y025743D01*
X040547Y026458D02*
X045880Y026458D01*
X045880Y026697D02*
X040547Y026697D01*
X040547Y026936D02*
X045880Y026936D01*
X045880Y027174D02*
X039259Y027174D01*
X039124Y027413D02*
X045880Y027413D01*
X040030Y024550D02*
X039916Y024550D01*
X039916Y024312D02*
X040030Y024312D01*
X040030Y024073D02*
X039916Y024073D01*
X039916Y023596D02*
X040030Y023596D01*
X042248Y021926D02*
X045883Y021926D01*
X045883Y022642D02*
X043012Y022642D01*
X043012Y022880D02*
X045882Y022880D01*
X038912Y026697D02*
X030285Y026697D01*
X030178Y026936D02*
X038674Y026936D01*
X038435Y027174D02*
X030247Y027174D01*
X019738Y027174D02*
X019331Y027174D01*
X018738Y027174D02*
X018331Y027174D01*
X017738Y027174D02*
X017331Y027174D01*
X016738Y027174D02*
X016331Y027174D01*
X015738Y027174D02*
X015331Y027174D01*
X010470Y025027D02*
X010168Y025027D01*
X010220Y024789D02*
X010348Y024789D01*
X010348Y024550D02*
X010220Y024550D01*
X010249Y024312D02*
X010348Y024312D01*
X010348Y024073D02*
X010249Y024073D01*
X007513Y022880D02*
X007262Y022880D01*
X007368Y022642D02*
X007408Y022642D01*
X001572Y021705D02*
X001572Y021255D01*
X001572Y021009D01*
X001577Y020997D01*
X001577Y020784D01*
X001666Y020784D01*
X001666Y020783D01*
X001851Y020598D01*
X001197Y020598D01*
X001035Y020531D01*
X000911Y020407D01*
X000844Y020245D01*
X000844Y019776D01*
X000770Y019596D01*
X000770Y019282D01*
X000844Y019102D01*
X000844Y018633D01*
X000911Y018471D01*
X001035Y018348D01*
X001197Y018281D01*
X001923Y018281D01*
X001974Y018302D01*
X002240Y018035D01*
X001666Y018035D01*
X001505Y017968D01*
X001381Y017845D01*
X001314Y017683D01*
X001314Y016558D01*
X001381Y016396D01*
X001505Y016272D01*
X001666Y016205D01*
X002743Y016205D01*
X002943Y016006D01*
X003756Y015192D01*
X003860Y015084D01*
X003867Y015082D01*
X003872Y015077D01*
X004010Y015019D01*
X004149Y014959D01*
X004156Y014959D01*
X004162Y014956D01*
X004207Y014956D01*
X004272Y014929D01*
X004272Y014824D01*
X004369Y014589D01*
X004548Y014410D01*
X004586Y014394D01*
X004707Y014273D01*
X004997Y014153D01*
X005311Y014153D01*
X005602Y014273D01*
X005704Y014375D01*
X005768Y014402D01*
X005947Y014581D01*
X006045Y014816D01*
X006045Y014897D01*
X006100Y014897D01*
X006262Y014964D01*
X006305Y015007D01*
X006362Y014983D01*
X006479Y014983D01*
X006266Y014770D02*
X006025Y014770D01*
X006027Y014531D02*
X005897Y014531D01*
X005881Y014293D02*
X005621Y014293D01*
X005852Y014054D02*
X002249Y014054D01*
X002237Y013878D02*
X002237Y013191D01*
X002221Y013191D01*
X002221Y013878D01*
X002091Y013878D01*
X002060Y013865D01*
X002445Y014251D01*
X002747Y014376D01*
X003005Y014634D01*
X003144Y014970D01*
X003144Y015334D01*
X003005Y015670D01*
X002747Y015927D01*
X002411Y016067D01*
X002047Y016067D01*
X001711Y015927D01*
X001453Y015670D01*
X001328Y015368D01*
X000590Y014630D01*
X000585Y022787D01*
X001273Y022787D01*
X001398Y022661D01*
X001193Y022661D01*
X001064Y022532D01*
X001064Y021740D01*
X001542Y021740D01*
X001542Y021705D01*
X001572Y021705D01*
X001572Y021688D02*
X001542Y021688D01*
X001542Y021705D02*
X001542Y020784D01*
X001193Y020784D01*
X001064Y020913D01*
X001064Y021705D01*
X001542Y021705D01*
X001542Y021449D02*
X001572Y021449D01*
X001572Y021210D02*
X001542Y021210D01*
X001542Y020972D02*
X001577Y020972D01*
X001716Y020733D02*
X000586Y020733D01*
X000587Y020495D02*
X000999Y020495D01*
X000849Y020256D02*
X000587Y020256D01*
X000587Y020018D02*
X000844Y020018D01*
X000844Y019779D02*
X000587Y019779D01*
X000587Y019541D02*
X000770Y019541D01*
X000770Y019302D02*
X000587Y019302D01*
X000587Y019064D02*
X000844Y019064D01*
X000844Y018825D02*
X000588Y018825D01*
X000588Y018586D02*
X000863Y018586D01*
X001035Y018348D02*
X000588Y018348D01*
X000588Y018109D02*
X002166Y018109D01*
X001407Y017871D02*
X000588Y017871D01*
X000588Y017632D02*
X001314Y017632D01*
X001314Y017394D02*
X000588Y017394D01*
X000588Y017155D02*
X001314Y017155D01*
X001314Y016917D02*
X000589Y016917D01*
X000589Y016678D02*
X001314Y016678D01*
X001363Y016440D02*
X000589Y016440D01*
X000589Y016201D02*
X002748Y016201D01*
X002663Y015963D02*
X002986Y015963D01*
X002951Y015724D02*
X003225Y015724D01*
X003081Y015485D02*
X003463Y015485D01*
X003702Y015247D02*
X003144Y015247D01*
X003144Y015008D02*
X004035Y015008D01*
X004294Y014770D02*
X003061Y014770D01*
X002902Y014531D02*
X004427Y014531D01*
X004687Y014293D02*
X002546Y014293D01*
X002367Y013878D02*
X002237Y013878D01*
X002237Y013816D02*
X002221Y013816D01*
X002367Y013878D02*
X002623Y013772D01*
X002818Y013577D01*
X002518Y013816D02*
X005852Y013816D01*
X002237Y013577D02*
X002221Y013577D01*
X002221Y013339D02*
X002237Y013339D01*
X002221Y013100D02*
X002237Y013100D01*
X002221Y012861D02*
X002237Y012861D01*
X002221Y012623D02*
X002237Y012623D01*
X001806Y012623D02*
X001646Y012623D01*
X000730Y014770D02*
X000590Y014770D01*
X000590Y015008D02*
X000968Y015008D01*
X001207Y015247D02*
X000590Y015247D01*
X000589Y015485D02*
X001377Y015485D01*
X001507Y015724D02*
X000589Y015724D01*
X000589Y015963D02*
X001795Y015963D01*
X001064Y020972D02*
X000586Y020972D01*
X000586Y021210D02*
X001064Y021210D01*
X001064Y021449D02*
X000586Y021449D01*
X000586Y021688D02*
X001064Y021688D01*
X001064Y021926D02*
X000586Y021926D01*
X000586Y022165D02*
X001064Y022165D01*
X001064Y022403D02*
X000585Y022403D01*
X000585Y022642D02*
X001174Y022642D01*
X008410Y026372D02*
X008414Y026368D01*
X008410Y026372D02*
X008410Y026384D01*
X000797Y009045D02*
X000593Y009045D01*
X000593Y008806D02*
X001289Y008806D01*
X001294Y008568D02*
X000593Y008568D01*
X000594Y008329D02*
X001392Y008329D01*
X001575Y008091D02*
X000594Y008091D01*
X000594Y007852D02*
X001979Y007852D01*
X001469Y007136D02*
X000594Y007136D01*
X000594Y006898D02*
X001448Y006898D01*
X001448Y006659D02*
X000594Y006659D01*
X000595Y006421D02*
X001448Y006421D01*
X002798Y005944D02*
X003038Y005944D01*
X003038Y005705D02*
X002798Y005705D01*
X002798Y005467D02*
X003038Y005467D01*
X008083Y004274D02*
X011064Y004274D01*
X010826Y004035D02*
X008122Y004035D01*
X008122Y003797D02*
X009752Y003797D01*
X009737Y003558D02*
X008122Y003558D01*
X008122Y003320D02*
X009737Y003320D01*
X009737Y003081D02*
X008122Y003081D01*
X008122Y002843D02*
X009737Y002843D01*
X009665Y002604D02*
X008079Y002604D01*
X007798Y002366D02*
X009519Y002366D01*
X009517Y002127D02*
X000597Y002127D01*
X010235Y003320D02*
X010310Y003320D01*
X010310Y003558D02*
X010235Y003558D01*
X010235Y003797D02*
X010310Y003797D01*
X011275Y001173D02*
X011357Y001173D01*
X015099Y003771D02*
X015099Y003772D01*
X015099Y003887D01*
X015099Y003771D01*
X015099Y003797D02*
X015099Y003797D01*
X040513Y003320D02*
X045894Y003320D01*
X045894Y003081D02*
X040513Y003081D01*
X040513Y002843D02*
X045894Y002843D01*
X045894Y002604D02*
X040513Y002604D01*
X041674Y002366D02*
X045894Y002366D01*
X045894Y002127D02*
X041892Y002127D01*
X042017Y001888D02*
X045894Y001888D01*
X045894Y001650D02*
X042078Y001650D01*
X042078Y001411D02*
X045895Y001411D01*
X045895Y001173D02*
X042024Y001173D01*
X041907Y000934D02*
X045895Y000934D01*
X045843Y005944D02*
X045892Y005944D01*
X045972Y005944D02*
X045615Y005944D01*
X045395Y006182D02*
X045892Y006182D01*
X045972Y006182D02*
X045160Y006182D01*
X045892Y006421D02*
X043629Y006421D01*
X043516Y006421D02*
X045972Y006421D01*
X043904Y006182D02*
X043660Y006182D01*
D68*
X043481Y014152D02*
X043473Y014160D01*
X040827Y014160D01*
X040327Y014660D01*
X037209Y014660D01*
X035186Y016683D01*
X034343Y016683D01*
X034347Y016679D01*
X034757Y016679D01*
X034343Y016683D02*
X034327Y016683D01*
X033662Y017171D02*
X033855Y017364D01*
X033855Y017553D01*
X033977Y017675D01*
X034280Y017675D01*
X034304Y017699D01*
X034323Y017679D01*
X034343Y017679D01*
X034347Y017679D02*
X034379Y017648D01*
X041083Y017648D01*
X042839Y015892D01*
X043497Y015892D01*
X043509Y015904D01*
X043520Y015892D01*
X043548Y015892D01*
X043627Y015459D02*
X042654Y015459D01*
X040875Y017238D01*
X039079Y017238D01*
X038953Y017238D01*
X039044Y016880D02*
X038847Y016683D01*
X038847Y016624D01*
X039044Y016880D02*
X040737Y016880D01*
X042591Y015026D01*
X043548Y015026D01*
X043631Y014597D02*
X042300Y014597D01*
X041166Y015731D01*
X038386Y015731D01*
X038249Y015868D01*
X038221Y015841D01*
X038221Y015837D01*
X040997Y018179D02*
X034099Y018179D01*
X033461Y017542D01*
X033442Y017542D01*
X033194Y017542D01*
X032934Y017801D01*
X032942Y017809D01*
X032949Y017809D01*
X032946Y017813D01*
X032946Y017923D01*
X032363Y018506D01*
X032363Y019073D01*
X032757Y019467D01*
X033170Y019711D02*
X033170Y019085D01*
X032804Y018719D01*
X032784Y018719D01*
X032114Y018440D02*
X032556Y017998D01*
X032556Y017553D01*
X032938Y017171D01*
X033662Y017171D01*
X031930Y016266D02*
X031859Y016345D01*
X031260Y016266D02*
X031241Y016231D01*
X030686Y016231D02*
X030638Y016278D01*
X029575Y015994D02*
X029575Y015837D01*
X029575Y015829D01*
X029575Y015994D02*
X031071Y017490D01*
X031071Y017254D01*
X031071Y017490D02*
X031071Y017648D01*
X031792Y018440D02*
X032114Y018440D01*
X033170Y019711D02*
X032922Y019959D01*
X032922Y020416D01*
X032532Y020805D01*
X032505Y020805D01*
X032497Y020805D01*
X028749Y019656D02*
X028642Y019549D01*
X028178Y019549D01*
X028749Y019648D02*
X028749Y019656D01*
X026398Y020321D02*
X026398Y020998D01*
X026386Y021010D01*
X026398Y020321D02*
X025890Y019813D01*
X030638Y015294D02*
X030646Y015286D01*
X031260Y015345D02*
X031308Y015297D01*
X031308Y015286D01*
X027375Y012727D02*
X027375Y012723D01*
X027371Y012727D01*
X027347Y012727D01*
X024127Y007514D02*
X024103Y007490D01*
X023985Y007490D01*
X023906Y007412D01*
X023906Y006758D01*
X024646Y006018D01*
X024646Y005420D01*
X024879Y005187D01*
X025642Y005187D01*
X026142Y004687D01*
X026359Y003250D02*
X026347Y003238D01*
X026359Y003250D02*
X026619Y003250D01*
X027375Y002494D01*
X027394Y002494D01*
X020442Y005675D02*
X019969Y005203D01*
X019745Y005203D01*
X020442Y005675D02*
X020442Y007231D01*
X020162Y007510D01*
X019922Y007510D01*
X019914Y007518D01*
X019918Y007518D01*
X019922Y007522D01*
X024119Y007506D02*
X024127Y007514D01*
X024123Y007510D01*
X040997Y018179D02*
X042851Y016325D01*
X043390Y016325D01*
X043489Y014160D02*
X043548Y014160D01*
X043489Y014160D02*
X043481Y014152D01*
X040989Y018896D02*
X038040Y018896D01*
X037816Y019120D01*
X037816Y019896D01*
X037969Y020049D01*
X038323Y020049D01*
X038308Y020049D01*
X038323Y020049D02*
X038725Y020049D01*
X039471Y020413D02*
X039479Y020405D01*
X041733Y020405D01*
X042010Y020682D01*
X042438Y020682D01*
X039473Y020413D02*
X039471Y020413D01*
X040989Y018900D02*
X041119Y019030D01*
X041115Y019026D02*
X041115Y019022D01*
X040989Y018896D01*
X040989Y018900D01*
D69*
X036028Y023109D02*
X036028Y023711D01*
X036048Y023731D01*
X012792Y020494D02*
X012772Y020494D01*
X012760Y020483D01*
X012276Y020967D01*
X008798Y020967D01*
X008079Y020967D01*
X008079Y020971D01*
X008083Y020975D01*
X008083Y021057D01*
X008083Y021065D01*
X008099Y021081D01*
X008087Y021093D01*
X008087Y021971D01*
X008540Y021971D01*
X008808Y022238D01*
X008796Y022250D01*
X008796Y022274D01*
X008796Y022943D02*
X006347Y024660D01*
X006063Y024891D01*
X005898Y025026D01*
X005827Y024936D01*
X008087Y023152D01*
X006249Y022006D02*
X006249Y022002D01*
X006249Y021183D01*
X006465Y020967D01*
X008079Y020967D01*
X008095Y021069D02*
X008119Y021093D01*
X008119Y021211D01*
X008855Y021211D01*
X009414Y020372D02*
X009678Y020109D01*
X009678Y019612D01*
X009709Y019581D01*
X009682Y019553D01*
X009682Y019585D01*
X009414Y020372D02*
X005083Y020372D01*
X005079Y020368D01*
X005079Y020951D01*
X005083Y020951D01*
X005249Y021116D01*
X005249Y022002D01*
X005249Y025038D01*
X005249Y025109D01*
X005280Y025140D01*
X005280Y025349D01*
X005237Y025392D01*
X005241Y025396D01*
X005249Y025396D01*
X005320Y025337D01*
X005827Y024936D01*
X007871Y024711D02*
X008335Y024455D01*
X009213Y024455D01*
X009233Y024475D01*
X009422Y024475D01*
X009422Y024506D01*
X008993Y024459D01*
X004249Y022002D02*
X004249Y021085D01*
X004406Y020927D01*
X004410Y020931D01*
X004410Y020408D01*
X004422Y020396D01*
X004410Y020384D01*
X004410Y020368D01*
X004434Y020345D01*
X003737Y020546D02*
X003737Y021546D01*
X003741Y021549D01*
X003749Y021549D01*
X003749Y021396D01*
X003501Y021148D01*
X003087Y021148D01*
X002788Y021368D01*
X002788Y021927D01*
X003749Y022002D02*
X003749Y021549D01*
X004410Y020951D02*
X004410Y020931D01*
X003631Y020439D02*
X002883Y020439D01*
X002190Y021132D01*
X002190Y022742D01*
X001638Y023294D01*
X001638Y023817D01*
X007040Y016408D02*
X008879Y014569D01*
X008879Y014022D01*
X008871Y014022D01*
X008847Y014046D01*
X008182Y014046D01*
X007512Y014715D01*
X007083Y014715D01*
X006469Y014101D01*
X006469Y008715D01*
X006757Y008427D01*
X007371Y008427D01*
X008020Y007778D01*
X008020Y006935D01*
X008079Y008514D02*
X010835Y008514D01*
X010942Y009290D02*
X011894Y009290D01*
X012292Y008892D01*
X012292Y006943D01*
X012284Y006935D01*
X012312Y006935D01*
X012284Y006935D02*
X012264Y006916D01*
X014300Y006742D02*
X014300Y007175D01*
X014308Y007183D01*
X014308Y007207D01*
X014323Y005892D02*
X014323Y005853D01*
X014453Y005723D01*
X014453Y005105D01*
X015123Y005105D02*
X015123Y005282D01*
X015481Y005640D02*
X015481Y005837D01*
X015520Y005876D01*
X015505Y005892D01*
X010942Y009290D02*
X010587Y009644D01*
X010587Y011061D01*
X010410Y011238D01*
X009591Y011238D01*
X009587Y011234D01*
X009591Y012238D02*
X008631Y012238D01*
X008485Y012384D01*
X008465Y012384D01*
X008457Y012376D01*
X008453Y012380D01*
X007914Y012380D01*
X007847Y013046D02*
X007627Y013046D01*
X007627Y013077D01*
X007154Y013549D01*
X007154Y013585D01*
X007371Y013801D01*
X007154Y013585D02*
X007154Y011963D01*
X007154Y011920D01*
X007158Y011916D01*
X007150Y011908D01*
X007150Y011703D01*
X007997Y010857D01*
X007997Y010679D01*
X007154Y009679D02*
X007154Y009439D01*
X008079Y008514D01*
X014300Y009538D02*
X014308Y009546D01*
X014339Y009577D01*
X014308Y009569D02*
X014308Y009546D01*
X012985Y012238D02*
X011910Y012301D01*
X011961Y012301D01*
X012776Y012238D02*
X012922Y012238D01*
X012938Y012223D01*
X012953Y012238D01*
X012985Y012238D01*
X012776Y012238D02*
X009591Y012238D01*
X009591Y012738D02*
X010036Y012738D01*
X010040Y012742D01*
X010292Y012742D01*
X010579Y013030D01*
X010579Y014640D01*
X010347Y014872D01*
X009678Y014868D02*
X009591Y014782D01*
X009591Y013738D01*
X009568Y013738D01*
X009552Y013754D01*
X009540Y013742D01*
X008879Y013742D01*
X008879Y014022D01*
X008670Y013238D02*
X009591Y013238D01*
X009611Y013238D01*
X009603Y013238D02*
X009591Y013238D01*
X008670Y013238D02*
X008485Y013053D01*
X008485Y013049D01*
X008481Y013046D01*
X008477Y013049D01*
X007914Y013049D01*
X007890Y013049D01*
X007871Y013069D01*
X007847Y013046D01*
X007627Y013046D02*
X007516Y013046D01*
X007154Y012683D01*
X005406Y014943D02*
X005150Y014943D01*
X005142Y014935D01*
X005154Y014943D02*
X005406Y014943D01*
X005154Y014943D02*
X004942Y014943D01*
X004934Y014951D01*
X004910Y014951D01*
X009678Y014868D02*
X009678Y014872D01*
X012737Y016203D02*
X012749Y016191D01*
X012760Y016203D01*
X012792Y016203D01*
D70*
X005249Y025396D02*
X005249Y025447D01*
X005280Y025479D01*
X004166Y026593D01*
X004150Y026609D01*
X001638Y026609D01*
D71*
X002296Y008805D02*
X002312Y008790D01*
X004186Y008790D01*
X005186Y007790D01*
X005186Y004900D01*
X006650Y003435D01*
X006658Y003443D01*
X006697Y003443D01*
X007658Y001034D02*
X003241Y001034D01*
X002918Y001042D01*
X002257Y008766D02*
X002296Y008805D01*
X002257Y008766D02*
X002229Y008766D01*
D72*
X011351Y010683D02*
X011351Y011471D01*
X012138Y011471D01*
X012174Y011506D01*
X011386Y011506D02*
X011351Y011471D01*
X011961Y012301D02*
X012166Y012301D01*
X012174Y012294D01*
X012138Y012258D01*
X012776Y012231D02*
X012776Y012238D01*
X012776Y012231D02*
X012050Y012957D01*
X012138Y013046D01*
X012174Y013081D01*
X012209Y013046D01*
X012926Y013046D01*
X012926Y013038D01*
X012946Y013018D01*
X012886Y012959D01*
X012886Y012612D01*
X015390Y010109D01*
X015390Y005731D01*
X015481Y005640D01*
X014453Y005105D02*
X013883Y005105D01*
X013520Y004742D01*
X013583Y004742D01*
X013520Y004742D02*
X013512Y004734D01*
X014300Y005459D02*
X014300Y005868D01*
X014323Y005892D01*
X014323Y006609D01*
X014339Y006624D01*
X014300Y006664D01*
X014300Y006742D01*
X014300Y007175D02*
X013591Y007175D01*
X013560Y007207D01*
X013552Y007207D01*
X012638Y007207D01*
X012367Y006935D01*
X012312Y006935D01*
X014339Y009577D02*
X014363Y009601D01*
X014363Y010872D01*
X014536Y011046D01*
X014536Y011506D01*
X014501Y011471D01*
X014363Y010872D02*
X014516Y010719D01*
X014536Y010719D01*
X014501Y010683D01*
X014501Y012258D02*
X014501Y012329D01*
X013749Y013081D01*
X013713Y013046D01*
X014501Y013046D02*
X014528Y013073D01*
X014599Y013144D01*
X015867Y013144D01*
X014536Y013081D02*
X014501Y013116D01*
X014501Y013833D01*
X014536Y013868D01*
X014501Y013833D02*
X013713Y013833D01*
X013749Y013868D01*
X012961Y013868D01*
X012926Y013833D01*
X012138Y013833D01*
X011780Y013475D01*
X011386Y013475D01*
X011351Y013510D01*
X011351Y013833D01*
X011780Y013475D02*
X011656Y013351D01*
X011351Y013046D01*
X011656Y013351D02*
X011595Y013412D01*
X011595Y014778D01*
X011071Y015301D01*
X011071Y016085D01*
X010749Y016408D01*
X009831Y016408D01*
X011656Y013351D02*
X012050Y012957D01*
X012926Y012258D02*
X012961Y012294D01*
X012997Y012258D01*
X013713Y012258D01*
X014501Y012258D02*
X014536Y012294D01*
X014501Y012329D01*
X014501Y013046D01*
X014528Y013073D02*
X014536Y013081D01*
X009442Y024526D02*
X008993Y024459D01*
X009430Y024526D02*
X009430Y027164D01*
X009410Y027183D01*
X009442Y024526D02*
X009430Y024526D01*
X013900Y025437D02*
X013911Y025427D01*
X013911Y025410D01*
X020419Y025551D02*
X021032Y026164D01*
X026386Y026215D02*
X029749Y026215D01*
X030524Y025439D01*
X032898Y025439D01*
X032906Y025439D01*
X030540Y024518D02*
X029867Y024518D01*
X029847Y024538D01*
X040875Y005498D02*
X040962Y005498D01*
X040981Y005479D01*
D73*
X024753Y001664D03*
X023646Y004069D03*
X022064Y025211D03*
D74*
X022060Y025191D02*
X022083Y025168D01*
X023233Y025168D01*
X024650Y025168D02*
X029599Y025168D01*
X029788Y024979D01*
X029788Y024601D01*
X029867Y024522D01*
X029847Y024502D01*
X029827Y024502D01*
X030851Y026321D02*
X030851Y027132D01*
X030827Y027156D01*
X030827Y027164D01*
X033957Y027164D01*
X033957Y027156D01*
X033965Y027148D01*
X033965Y025018D01*
X033575Y024628D01*
X033575Y024427D01*
X033957Y027164D02*
X038284Y027164D01*
X038532Y026916D01*
X038497Y026880D01*
X038497Y024357D01*
X039127Y023727D01*
X039934Y023727D01*
X039973Y023778D02*
X040056Y023778D01*
X041079Y024801D01*
X041079Y025360D01*
X041194Y025475D01*
X042383Y025475D01*
X042383Y025463D01*
X042398Y025447D01*
X042398Y024447D02*
X042052Y024101D01*
X041733Y024101D01*
X041237Y023605D01*
X041237Y023065D01*
X044760Y019337D02*
X045064Y019034D01*
X045064Y018593D01*
X030827Y027164D02*
X025788Y027164D01*
X024827Y026203D01*
X024827Y026164D01*
X024989Y026325D01*
X024827Y026164D02*
X021032Y026164D01*
X013922Y025404D02*
X013032Y024514D01*
X013032Y024475D01*
X013911Y025410D02*
X013916Y025410D01*
X013922Y025404D01*
X013032Y026837D02*
X011229Y026837D01*
X010615Y026223D01*
X010615Y025632D01*
X014470Y021192D02*
X014470Y016221D01*
X015655Y015035D01*
X015867Y011636D02*
X015867Y011254D01*
X016323Y010797D01*
X016934Y010797D01*
X016987Y010744D01*
X016961Y010744D01*
X016987Y010744D02*
X017001Y010731D01*
X013287Y009086D02*
X013287Y008656D01*
X014308Y007636D01*
X014308Y007207D01*
X004524Y012034D02*
X004524Y012821D01*
X004638Y012935D01*
X005335Y012935D01*
X005225Y012931D01*
X004524Y012034D02*
X004512Y012022D01*
X004312Y019585D02*
X001741Y019585D01*
X001595Y019439D01*
X001560Y019439D01*
X004312Y019585D02*
X007320Y019585D01*
D75*
X031032Y021782D02*
X033394Y021782D01*
X035993Y021782D01*
X036473Y021301D01*
X036473Y020971D01*
D76*
X005347Y015679D02*
X005154Y015486D01*
X005154Y014943D01*
X005347Y015679D02*
X005225Y015731D01*
X004320Y015746D01*
X003390Y016675D01*
X003390Y018002D01*
X001922Y019471D01*
X001591Y019471D01*
X001560Y019439D01*
X002229Y015152D02*
X000856Y013779D01*
X000856Y009941D01*
X000968Y009829D01*
X004896Y009829D01*
X005585Y009139D01*
X005585Y009130D01*
X004512Y010723D02*
X004501Y010734D01*
X002229Y010734D01*
M02*
