%
M48
M72
T01C0.0197
T02C0.0236
T03C0.0400
T04C0.0512
T05C0.0787
T06C0.1220
T07C0.1260
T08C0.1300
%
T01
X1276Y931
X1276Y1420
X1398Y6026
X1394Y6549
X5585Y9130
X5292Y10782
X7997Y10679
X11351Y10683
X12138Y10683
X12138Y11471
X11351Y11471
X11351Y12258
X12138Y12258
X12926Y12258
X13713Y12258
X14501Y12258
X14501Y11471
X14501Y10683
X13713Y10683
X12926Y10683
X12926Y11471
X13713Y11471
X13713Y13046
X12926Y13046
X12138Y13046
X11351Y13046
X11351Y13833
X12138Y13833
X12926Y13833
X13713Y13833
X14501Y13833
X14501Y13046
X15655Y15035
X19776Y14522
X19788Y14534
X20442Y15908
X21335Y17112
X20922Y17443
X21886Y17254
X22894Y17900
X22406Y17967
X23249Y19305
X22812Y19723
X22518Y20241
X24280Y20183
X24060Y19199
X26694Y18207
X27233Y18085
X27993Y17518
X28524Y17526
X28296Y18711
X29257Y19252
X28749Y19648
X26386Y21010
X25557Y21739
X30532Y22766
X31068Y21412
X33481Y20073
X33505Y19577
X34268Y20053
X38217Y19246
X40914Y20010
X41119Y19030
X41233Y18530
X39126Y17244
X38847Y16624
X37560Y15085
X33323Y16439
X32949Y17809
X31064Y17609
X29568Y15794
X28016Y15609
X28753Y14821
X28560Y13616
X27859Y13538
X27375Y12727
X27390Y12203
X27375Y12191
X27612Y11646
X26493Y11514
X25756Y11616
X26883Y10380
X25272Y9880
X24229Y10447
X24229Y10467
X23709Y10479
X23158Y11018
X23087Y9975
X26784Y8786
X26788Y8246
X28188Y8030
X28178Y7502
X29497Y8124
X30056Y8128
X31343Y8357
X31327Y9337
X33020Y9278
X33386Y8341
X33949Y8364
X35804Y9231
X37280Y8601
X36855Y7514
X39823Y6754
X42902Y8514
X40449Y9101
X40363Y9872
X39221Y9872
X40375Y10660
X40363Y11443
X35820Y10034
X32127Y12400
X31367Y12439
X31371Y11939
X30540Y11986
X30556Y11479
X30564Y11463
X30158Y10864
X29427Y10672
X29485Y11250
X31512Y13187
X32453Y13309
X26536Y14057
X25704Y14493
X24997Y14683
X24776Y15183
X23457Y15794
X22257Y14518
X22438Y13920
X21894Y13010
X25005Y14053
X25288Y13620
X28209Y8605
X26796Y6943
X24316Y6931
X19745Y5203
X19690Y4652
X18894Y3955
X18071Y3790
X17611Y2833
X17615Y2801
X18934Y2447
X18359Y1679
X20367Y1644
X20938Y1652
X23410Y1018
X27390Y2502
X27394Y2494
X28985Y1668
X29497Y1664
X29497Y3238
X31930Y4947
X31993Y5581
X32910Y5581
X31485Y6738
X35670Y5853
X35477Y3343
X33969Y2957
X37579Y2228
X39068Y1923
X41993Y790
X45646Y7274
X45646Y8845
X45646Y10423
X45497Y11683
X45835Y14719
X44760Y19337
X43406Y23699
X41009Y26294
X32906Y25439
X30851Y26321
X26386Y26215
X24989Y26325
X15670Y20546
X8083Y21057
X3678Y20510
X3631Y18951
X922Y21723
X3512Y23711
X4300Y23711
X5087Y23711
X5875Y23711
X6662Y23711
X6662Y24498
X5875Y24498
X5087Y24498
X4300Y24498
X3512Y24498
X3512Y25286
X3512Y26073
X4300Y26073
X5087Y26073
X5087Y25286
X4300Y25286
X5875Y25286
X6662Y25286
X6662Y26073
X5875Y26073
X5875Y26860
X6662Y26860
X5087Y26860
X4300Y26860
X3512Y26860
X10615Y25632
X13911Y25410
X5406Y14943
X4910Y14951
X7371Y13801
X13287Y9086
X10835Y8514
X15709Y3053
X12062Y2174
T02
X23646Y4069
X24753Y1664
X22064Y25211
T03
X20034Y26420
X19034Y26420
X18034Y26420
X17034Y26420
X16034Y26420
X15034Y26420
X15024Y23518
X16024Y23518
X17024Y23518
X18024Y23518
X19024Y23518
X20024Y23518
X21024Y23518
X22024Y23518
X23024Y23518
X24024Y23518
X24024Y22518
X23024Y22518
X22024Y22518
X21024Y22518
X20024Y22518
X19024Y22518
X18024Y22518
X17024Y22518
X16024Y22518
X15024Y22518
X12643Y22512
X11643Y22512
X10643Y22512
X9643Y22512
X15946Y19309
X16984Y15854
X17984Y15854
X18984Y15854
X16961Y14744
X16961Y13744
X16961Y12744
X16961Y11744
X16961Y10744
X18320Y9947
X19914Y9518
X19914Y8518
X18320Y8947
X18320Y7947
X19914Y7518
X19914Y6518
X21142Y5687
X22142Y5687
X23142Y5687
X24142Y5687
X25142Y5687
X26142Y5687
X27142Y5687
X28142Y5687
X29142Y5687
X30142Y5687
X30142Y4687
X29142Y4687
X28142Y4687
X27142Y4687
X26142Y4687
X25142Y4687
X24142Y4687
X23142Y4687
X22142Y4687
X21142Y4687
X18320Y4947
X18320Y5947
X18320Y6947
X13583Y4742
X16575Y1750
X7757Y1120
X19914Y10518
X21201Y10522
X21201Y11522
X19914Y11518
X29961Y8994
X33343Y12660
X34339Y12679
X34339Y13679
X33343Y13660
X33343Y14660
X34347Y14679
X34347Y15679
X33343Y15660
X34347Y16679
X34347Y17679
X34347Y18679
X36182Y19388
X36473Y20971
X35473Y20971
X33741Y21006
X33701Y22502
X32701Y22502
X31701Y22502
X29827Y22502
X28827Y22502
X27827Y22502
X26827Y22502
X25827Y22502
X25827Y23502
X26827Y23502
X27827Y23502
X28827Y23502
X29827Y23502
X29827Y24502
X28827Y24502
X27827Y24502
X26827Y24502
X25827Y24502
X34701Y22502
X37473Y20971
X38473Y20971
X39473Y20971
X40473Y20971
X41473Y20971
X42398Y24447
X42398Y25447
X38634Y13573
X37634Y13573
X36634Y13573
X9410Y27183
T04
X2229Y17120
X2229Y15152
X2229Y13183
X2229Y10734
X2229Y8766
T05
X6410Y7483
X16961Y7483
X16961Y18034
X6410Y18034
T06
X35804Y14609
X42497Y19711
T07
X38406Y22750
X5166Y17168
X41009Y1518
T08
X21343Y14160
M30
