G75*
G70*
%OFA0B0*%
%FSLAX24Y24*%
%IPPOS*%
%LPD*%
%AMOC8*
5,1,8,0,0,1.08239X$1,22.5*
%
%ADD10C,0.1340*%
%ADD11R,0.0560X0.0960*%
%ADD12R,0.1497X0.0946*%
%ADD13R,0.0960X0.0560*%
%ADD14R,0.0946X0.1497*%
%ADD15R,0.0474X0.0474*%
%ADD16R,0.0820X0.0820*%
%ADD17C,0.0820*%
%ADD18C,0.1380*%
%ADD19C,0.0867*%
%ADD20C,0.1300*%
%ADD21R,0.4178X0.4332*%
%ADD22R,0.4332X0.4178*%
%ADD23R,0.1655X0.0789*%
%ADD24R,0.0789X0.1655*%
%ADD25R,0.0513X0.0513*%
%ADD26R,0.0789X0.0828*%
%ADD27R,0.0880X0.0880*%
%ADD28C,0.0880*%
%ADD29R,0.0828X0.0789*%
%ADD30R,0.0631X0.0789*%
%ADD31R,0.1104X0.0710*%
%ADD32R,0.0710X0.1104*%
%ADD33R,0.1030X0.1030*%
%ADD34C,0.1030*%
%ADD35OC8,0.0820*%
%ADD36R,0.0946X0.0552*%
%ADD37R,0.0552X0.0946*%
%ADD38R,0.0552X0.0552*%
%ADD39R,0.0178X0.0580*%
%ADD40R,0.0330X0.0580*%
D10*
X005166Y017168D03*
X038406Y022750D03*
X041009Y001518D03*
D11*
X024738Y020918D03*
X023828Y020918D03*
X022918Y020918D03*
D12*
X023828Y018478D03*
D13*
X008980Y004082D03*
X008980Y003172D03*
X008980Y002262D03*
D14*
X011420Y003172D03*
D15*
X020942Y009337D03*
X021650Y009337D03*
X022308Y009486D03*
X022308Y010195D03*
X027107Y003904D03*
X027107Y003195D03*
X035316Y017986D03*
X036024Y017986D03*
X029843Y021049D03*
X029174Y021046D03*
X028524Y021046D03*
X027867Y021053D03*
X027217Y021061D03*
X027217Y021770D03*
X027867Y021762D03*
X028524Y021754D03*
X029174Y021754D03*
X029843Y021758D03*
D16*
X031701Y022502D03*
X035473Y020971D03*
X033343Y012660D03*
X019914Y006518D03*
X018320Y009947D03*
X016961Y010744D03*
X012643Y022512D03*
D17*
X007757Y001120D03*
X013583Y004742D03*
X018320Y004947D03*
X018320Y005947D03*
X018320Y006947D03*
X019914Y007518D03*
X018320Y007947D03*
X018320Y008947D03*
X019914Y008518D03*
X019914Y009518D03*
X019914Y010518D03*
X021201Y010522D03*
X021201Y011522D03*
X019914Y011518D03*
X016961Y011744D03*
X016961Y012744D03*
X016961Y013744D03*
X016961Y014744D03*
X016984Y015854D03*
X017984Y015854D03*
X018984Y015854D03*
X015946Y019309D03*
X011643Y022512D03*
X010643Y022512D03*
X009643Y022512D03*
X015034Y026420D03*
X016034Y026420D03*
X017034Y026420D03*
X018034Y026420D03*
X019034Y026420D03*
X020034Y026420D03*
X025827Y024502D03*
X026827Y024502D03*
X027827Y024502D03*
X028827Y024502D03*
X029827Y024502D03*
X029827Y023502D03*
X028827Y023502D03*
X027827Y023502D03*
X026827Y023502D03*
X025827Y023502D03*
X025827Y022502D03*
X026827Y022502D03*
X027827Y022502D03*
X028827Y022502D03*
X029827Y022502D03*
X032701Y022502D03*
X033701Y022502D03*
X034701Y022502D03*
X033741Y021006D03*
X036182Y019388D03*
X034347Y018679D03*
X034347Y017679D03*
X034347Y016679D03*
X034347Y015679D03*
X033343Y015660D03*
X033343Y014660D03*
X034347Y014679D03*
X034339Y013679D03*
X033343Y013660D03*
X034339Y012679D03*
X036634Y013573D03*
X037634Y013573D03*
X038634Y013573D03*
X029961Y008994D03*
X016575Y001750D03*
X036473Y020971D03*
X037473Y020971D03*
X038473Y020971D03*
X039473Y020971D03*
X040473Y020971D03*
X041473Y020971D03*
X042398Y024447D03*
X042398Y025447D03*
X009410Y027183D03*
D18*
X021343Y014160D03*
D19*
X016961Y018034D03*
X006410Y018034D03*
X006410Y007483D03*
X016961Y007483D03*
D20*
X035804Y014609D03*
X042497Y019711D03*
D21*
X012985Y012238D03*
D22*
X005249Y025396D03*
D23*
X021460Y026319D03*
X023823Y026319D03*
X024536Y015758D03*
X026898Y015758D03*
X011323Y009620D03*
X008961Y009620D03*
D24*
X012697Y017553D03*
X012697Y019916D03*
X007319Y021762D03*
X007319Y024124D03*
X013107Y024049D03*
X013107Y026412D03*
X031871Y026266D03*
X031871Y023904D03*
D25*
X025741Y020864D03*
X025741Y020195D03*
X023898Y021656D03*
X023229Y021656D03*
X021115Y020420D03*
X021115Y019750D03*
X017713Y019475D03*
X017713Y020144D03*
X010930Y023384D03*
X010260Y023384D03*
X025288Y018408D03*
X025957Y018408D03*
X032520Y015506D03*
X032520Y014837D03*
X031115Y011451D03*
X031115Y010782D03*
X033375Y010443D03*
X034044Y010443D03*
X030776Y003242D03*
X030107Y003242D03*
X020658Y006994D03*
X020658Y007664D03*
X015553Y001979D03*
X015553Y001310D03*
D26*
X014720Y001061D03*
X014720Y002242D03*
X021442Y006967D03*
X021442Y008148D03*
X027512Y007742D03*
X027512Y008923D03*
X016890Y019227D03*
X016890Y020408D03*
X021946Y020675D03*
X021946Y019494D03*
D27*
X002229Y010734D03*
D28*
X002229Y008766D03*
D29*
X025339Y017648D03*
X026520Y017648D03*
X030859Y016892D03*
X032040Y016892D03*
X028032Y020270D03*
X026851Y020270D03*
X029583Y013297D03*
X030764Y013297D03*
X011197Y024156D03*
X010016Y024156D03*
D30*
X023827Y011569D03*
X025166Y011569D03*
X006410Y009999D03*
X005071Y009999D03*
D31*
X007581Y005612D03*
X008998Y005612D03*
X024379Y003207D03*
X025796Y003207D03*
X040241Y017195D03*
X041658Y017195D03*
D32*
X031056Y015896D03*
X031056Y014479D03*
X025241Y008872D03*
X025241Y007455D03*
X022839Y007262D03*
X022839Y008679D03*
X013262Y002391D03*
X013262Y000974D03*
X037367Y023998D03*
X037367Y025416D03*
D33*
X002229Y017120D03*
D34*
X002229Y015152D03*
X002229Y013183D03*
D35*
X015024Y022518D03*
X016024Y022518D03*
X017024Y022518D03*
X018024Y022518D03*
X019024Y022518D03*
X020024Y022518D03*
X021024Y022518D03*
X022024Y022518D03*
X023024Y022518D03*
X024024Y022518D03*
X024024Y023518D03*
X023024Y023518D03*
X022024Y023518D03*
X021024Y023518D03*
X020024Y023518D03*
X019024Y023518D03*
X018024Y023518D03*
X017024Y023518D03*
X016024Y023518D03*
X015024Y023518D03*
X021142Y005687D03*
X022142Y005687D03*
X023142Y005687D03*
X024142Y005687D03*
X025142Y005687D03*
X026142Y005687D03*
X027142Y005687D03*
X028142Y005687D03*
X029142Y005687D03*
X030142Y005687D03*
X030142Y004687D03*
X029142Y004687D03*
X028142Y004687D03*
X027142Y004687D03*
X026142Y004687D03*
X025142Y004687D03*
X024142Y004687D03*
X023142Y004687D03*
X022142Y004687D03*
X021142Y004687D03*
D36*
X034863Y005317D03*
X034863Y006105D03*
X034863Y006892D03*
X034863Y007679D03*
X034863Y008467D03*
X034863Y009254D03*
X034863Y010042D03*
X034863Y010829D03*
X034863Y011616D03*
D37*
X035650Y012404D03*
X036438Y012404D03*
X037225Y012404D03*
X038012Y012404D03*
X038800Y012404D03*
X039587Y012404D03*
X040375Y012404D03*
X041162Y012404D03*
X041949Y012404D03*
X042737Y012404D03*
X043524Y012404D03*
X044312Y012404D03*
X045099Y012404D03*
X045099Y004530D03*
X044312Y004530D03*
X043524Y004530D03*
X042737Y004530D03*
X041949Y004530D03*
X041162Y004530D03*
X040375Y004530D03*
X039587Y004530D03*
X038800Y004530D03*
X038012Y004530D03*
X037225Y004530D03*
X036438Y004530D03*
X035650Y004530D03*
D38*
X046083Y005317D03*
X046083Y006105D03*
X046083Y006892D03*
X046083Y007679D03*
X046083Y008467D03*
X046083Y009254D03*
X046083Y010042D03*
X046083Y010829D03*
X046083Y011616D03*
D39*
X020593Y018589D03*
X020337Y018589D03*
X020081Y018589D03*
X019825Y018589D03*
X019570Y018589D03*
X019314Y018589D03*
X019058Y018589D03*
X018802Y018589D03*
X018546Y018589D03*
X018290Y018589D03*
X018290Y020914D03*
X018546Y020914D03*
X018802Y020914D03*
X019058Y020914D03*
X019314Y020914D03*
X019570Y020914D03*
X019825Y020914D03*
X020081Y020914D03*
X020337Y020914D03*
X020593Y020914D03*
D40*
X031040Y005601D03*
X031394Y005601D03*
M02*
