G75*
G70*
%OFA0B0*%
%FSLAX24Y24*%
%IPPOS*%
%LPD*%
%AMOC8*
5,1,8,0,0,1.08239X$1,22.5*
%
%ADD10R,0.0709X0.0394*%
%ADD11R,0.0866X0.0630*%
%ADD12R,0.0315X0.0315*%
%ADD13R,0.0394X0.0394*%
%ADD14R,0.1083X0.0551*%
%ADD15R,0.0591X0.0079*%
%ADD16R,0.0079X0.0591*%
%ADD17R,0.1181X0.0358*%
%ADD18R,0.4098X0.4252*%
%ADD19R,0.0358X0.1181*%
%ADD20R,0.4252X0.4098*%
%ADD21R,0.0433X0.0433*%
%ADD22R,0.0748X0.0709*%
%ADD23R,0.1181X0.1969*%
%ADD24R,0.1969X0.1181*%
%ADD25R,0.0709X0.1575*%
%ADD26R,0.1575X0.0709*%
%ADD27R,0.1969X0.1299*%
%ADD28R,0.2500X0.1500*%
%ADD29R,0.2500X0.1299*%
%ADD30R,0.0709X0.0748*%
%ADD31R,0.1614X0.2205*%
%ADD32R,0.2205X0.1614*%
%ADD33R,0.0480X0.0880*%
%ADD34R,0.1417X0.0866*%
%ADD35R,0.0630X0.1024*%
%ADD36R,0.0787X0.0709*%
%ADD37R,0.1260X0.0669*%
%ADD38R,0.1575X0.0787*%
%ADD39R,0.0551X0.1437*%
%ADD40R,0.1181X0.1575*%
%ADD41R,0.1181X0.1378*%
%ADD42R,0.0197X0.1280*%
%ADD43R,0.0394X0.0276*%
%ADD44R,0.0098X0.0500*%
%ADD45R,0.1024X0.0630*%
%ADD46R,0.0551X0.0709*%
%ADD47R,0.0748X0.0551*%
%ADD48R,0.0591X0.0315*%
D10*
X030638Y015294D03*
X030638Y016278D03*
D11*
X032394Y011628D03*
X034127Y011628D03*
X034127Y010526D03*
X032394Y010526D03*
D12*
X042312Y010671D03*
X042902Y010671D03*
X042902Y011420D03*
X042312Y011420D03*
X042312Y009884D03*
X042902Y009884D03*
X042906Y009116D03*
X042316Y009116D03*
X016461Y016849D03*
X015871Y016849D03*
X008414Y026368D03*
X007823Y026368D03*
X014504Y004286D03*
X015094Y004286D03*
X015099Y003510D03*
X014509Y003510D03*
D13*
X013795Y003414D03*
X013086Y003414D03*
X013552Y005845D03*
X013552Y006553D03*
X016733Y008935D03*
X016733Y009644D03*
X021595Y009042D03*
X021595Y008333D03*
X023477Y008805D03*
X023477Y009514D03*
X034745Y008447D03*
X035453Y008447D03*
X040989Y009097D03*
X041697Y009097D03*
X041694Y009884D03*
X040985Y009884D03*
X040989Y010671D03*
X041697Y010671D03*
X041701Y011420D03*
X040993Y011420D03*
X040890Y012404D03*
X040182Y012404D03*
X036631Y012620D03*
X036631Y011912D03*
X036701Y016530D03*
X035993Y016530D03*
X035993Y017203D03*
X036701Y017203D03*
X033442Y017542D03*
X033442Y018250D03*
X032757Y018719D03*
X033544Y019093D03*
X032757Y019467D03*
X028178Y019549D03*
X027469Y019549D03*
X038725Y020049D03*
X039473Y020049D03*
X040162Y019979D03*
X040162Y019270D03*
X039099Y019262D03*
X042438Y020682D03*
X042438Y021391D03*
X015879Y018317D03*
X015879Y017609D03*
X007871Y024711D03*
X007871Y025420D03*
D14*
X019306Y003254D03*
X021963Y003254D03*
X021963Y002467D03*
X021963Y001679D03*
X023636Y001675D03*
X026294Y001675D03*
X026294Y002463D03*
X026294Y003250D03*
X027967Y003258D03*
X027967Y001683D03*
X030625Y001683D03*
X030625Y002471D03*
X030625Y003258D03*
X023636Y003250D03*
X019306Y001679D03*
D15*
X024064Y011691D03*
X024064Y011849D03*
X024064Y012006D03*
X024064Y012164D03*
X024064Y012321D03*
X024064Y012479D03*
X024064Y012636D03*
X024064Y012794D03*
X024064Y012951D03*
X024064Y013109D03*
X024064Y013266D03*
X024064Y013423D03*
X024064Y013581D03*
X024064Y013738D03*
X024064Y013896D03*
X024064Y014053D03*
X024064Y014211D03*
X024064Y014368D03*
X024064Y014526D03*
X024064Y014683D03*
X024064Y014841D03*
X024064Y014998D03*
X024064Y015156D03*
X024064Y015313D03*
X024064Y015471D03*
X029398Y015471D03*
X029398Y015313D03*
X029398Y015156D03*
X029398Y014998D03*
X029398Y014841D03*
X029398Y014683D03*
X029398Y014526D03*
X029398Y014368D03*
X029398Y014211D03*
X029398Y014053D03*
X029398Y013896D03*
X029398Y013738D03*
X029398Y013581D03*
X029398Y013423D03*
X029398Y013266D03*
X029398Y013109D03*
X029398Y012951D03*
X029398Y012794D03*
X029398Y012636D03*
X029398Y012479D03*
X029398Y012321D03*
X029398Y012164D03*
X029398Y012006D03*
X029398Y011849D03*
X029398Y011691D03*
D16*
X028591Y010943D03*
X028434Y010943D03*
X028276Y010943D03*
X028119Y010943D03*
X027961Y010943D03*
X027804Y010943D03*
X027646Y010943D03*
X027489Y010943D03*
X027331Y010943D03*
X027174Y010943D03*
X027016Y010943D03*
X026859Y010943D03*
X026701Y010943D03*
X026544Y010943D03*
X026386Y010943D03*
X026229Y010943D03*
X026071Y010943D03*
X025914Y010943D03*
X025757Y010943D03*
X025599Y010943D03*
X025442Y010943D03*
X025284Y010943D03*
X025127Y010943D03*
X024969Y010943D03*
X024812Y010943D03*
X024812Y016219D03*
X024969Y016219D03*
X025127Y016219D03*
X025284Y016219D03*
X025442Y016219D03*
X025599Y016219D03*
X025757Y016219D03*
X025914Y016219D03*
X026071Y016219D03*
X026229Y016219D03*
X026386Y016219D03*
X026544Y016219D03*
X026701Y016219D03*
X026859Y016219D03*
X027016Y016219D03*
X027174Y016219D03*
X027331Y016219D03*
X027489Y016219D03*
X027646Y016219D03*
X027804Y016219D03*
X027961Y016219D03*
X028119Y016219D03*
X028276Y016219D03*
X028434Y016219D03*
X028591Y016219D03*
D17*
X009591Y013738D03*
X009591Y013238D03*
X009591Y012738D03*
X009591Y012238D03*
X009591Y011738D03*
X009591Y011238D03*
X009591Y010738D03*
D18*
X012985Y012238D03*
D19*
X006749Y022002D03*
X006249Y022002D03*
X005749Y022002D03*
X005249Y022002D03*
X004749Y022002D03*
X004249Y022002D03*
X003749Y022002D03*
D20*
X005249Y025396D03*
D21*
X008796Y022943D03*
X008796Y022274D03*
X005079Y020951D03*
X004410Y020951D03*
X004410Y020368D03*
X005079Y020368D03*
X002788Y021927D03*
X002788Y022597D03*
X009678Y014872D03*
X010347Y014872D03*
X008485Y013053D03*
X007914Y013049D03*
X007914Y012380D03*
X008485Y012384D03*
X017296Y008947D03*
X017296Y008278D03*
X015123Y005105D03*
X014453Y005105D03*
X022879Y002955D03*
X022879Y002286D03*
X024142Y008829D03*
X024823Y008829D03*
X024823Y009498D03*
X024142Y009498D03*
X026725Y009250D03*
X026725Y009920D03*
X028426Y009790D03*
X028426Y009120D03*
X031316Y010671D03*
X031316Y011341D03*
X032989Y009845D03*
X033658Y009845D03*
X034886Y010719D03*
X034886Y011388D03*
X030977Y013227D03*
X030308Y013227D03*
X031260Y015345D03*
X031930Y015345D03*
X031930Y016266D03*
X031260Y016266D03*
X026847Y019813D03*
X026847Y020483D03*
X032505Y020805D03*
X032505Y020136D03*
X038221Y016506D03*
X038221Y015837D03*
X041142Y022085D03*
X041812Y022085D03*
X035788Y024337D03*
X035119Y024337D03*
X022430Y015884D03*
X021760Y015884D03*
X017859Y013904D03*
X017859Y013234D03*
X020757Y013372D03*
X020757Y012703D03*
X045457Y005321D03*
X045457Y004652D03*
D22*
X031320Y009986D03*
X030138Y009986D03*
X015505Y005892D03*
X014323Y005892D03*
X022383Y021053D03*
X023564Y021053D03*
X034847Y023553D03*
X036028Y023553D03*
X041237Y023065D03*
X042418Y023065D03*
D23*
X009831Y016408D03*
X007040Y016408D03*
D24*
X001638Y023817D03*
X001638Y026609D03*
D25*
X013032Y026837D03*
X013032Y024475D03*
X014308Y009569D03*
X014308Y007207D03*
X039973Y023778D03*
X039973Y026140D03*
D26*
X033575Y024427D03*
X031213Y024427D03*
X011355Y024459D03*
X008993Y024459D03*
X009682Y019585D03*
X007320Y019585D03*
D27*
X006697Y003443D03*
D28*
X002918Y006274D03*
D29*
X002918Y001042D03*
D30*
X015867Y011963D03*
X015867Y013144D03*
X019886Y012648D03*
X019886Y013829D03*
X025150Y008128D03*
X025150Y006947D03*
X036564Y008927D03*
X036564Y010109D03*
X044532Y005573D03*
X044532Y004392D03*
X031694Y019880D03*
X031694Y021061D03*
X025753Y021057D03*
X025753Y019876D03*
X008087Y021971D03*
X008087Y023152D03*
D31*
X008020Y006935D03*
X012312Y006935D03*
D32*
X012792Y016203D03*
X012792Y020494D03*
D33*
X040071Y007919D03*
X040981Y007919D03*
X041891Y007919D03*
D34*
X040981Y005479D03*
D35*
X042985Y005616D03*
X042985Y004199D03*
X038426Y005471D03*
X038426Y006888D03*
X038009Y008857D03*
X038009Y010274D03*
X018540Y011278D03*
X018540Y012695D03*
X010272Y003179D03*
X010272Y001762D03*
D36*
X004512Y010723D03*
X004512Y012022D03*
D37*
X032457Y008199D03*
X032457Y006427D03*
D38*
X005225Y012931D03*
X005225Y015731D03*
D39*
X001560Y019439D03*
X001560Y021723D03*
X007154Y011963D03*
X007154Y009679D03*
D40*
X032245Y002178D03*
X036497Y002178D03*
D41*
X036497Y003851D03*
X032245Y003851D03*
D42*
X033741Y004048D03*
X034056Y004048D03*
X034371Y004048D03*
X034686Y004048D03*
X035001Y004048D03*
D43*
X024127Y007514D03*
X023182Y007888D03*
X024127Y008262D03*
D44*
X028672Y018412D03*
X028928Y018412D03*
X029184Y018412D03*
X029440Y018412D03*
X029696Y018412D03*
X029951Y018412D03*
X030207Y018412D03*
X030463Y018412D03*
X030719Y018412D03*
X030975Y018412D03*
X030975Y020736D03*
X030719Y020736D03*
X030463Y020736D03*
X030207Y020736D03*
X029951Y020736D03*
X029696Y020736D03*
X029440Y020736D03*
X029184Y020736D03*
X028928Y020736D03*
X028672Y020736D03*
D45*
X024650Y025168D03*
X023233Y025168D03*
D46*
X039493Y016290D03*
X039493Y014046D03*
D47*
X044670Y013416D03*
X045064Y018593D03*
D48*
X043548Y016758D03*
X043390Y016325D03*
X043548Y015892D03*
X043627Y015459D03*
X043548Y015026D03*
X043627Y014593D03*
X043548Y014160D03*
X043548Y013727D03*
M02*
