G75*
G70*
%OFA0B0*%
%FSLAX24Y24*%
%IPPOS*%
%LPD*%
%AMOC8*
5,1,8,0,0,1.08239X$1,22.5*
%
%ADD10C,0.1340*%
%ADD11R,0.0789X0.0474*%
%ADD12R,0.0946X0.0710*%
%ADD13R,0.0395X0.0395*%
%ADD14R,0.0474X0.0474*%
%ADD15R,0.1163X0.0631*%
%ADD16R,0.0671X0.0159*%
%ADD17R,0.0159X0.0671*%
%ADD18R,0.0820X0.0820*%
%ADD19C,0.0820*%
%ADD20C,0.1380*%
%ADD21C,0.0867*%
%ADD22C,0.1300*%
%ADD23R,0.1261X0.0438*%
%ADD24R,0.4178X0.4332*%
%ADD25R,0.0438X0.1261*%
%ADD26R,0.4332X0.4178*%
%ADD27R,0.0513X0.0513*%
%ADD28R,0.0828X0.0789*%
%ADD29R,0.1261X0.2049*%
%ADD30R,0.2049X0.1261*%
%ADD31R,0.0789X0.1655*%
%ADD32R,0.1655X0.0789*%
%ADD33R,0.2049X0.1379*%
%ADD34R,0.2580X0.1580*%
%ADD35R,0.2580X0.1379*%
%ADD36R,0.0789X0.0828*%
%ADD37R,0.1694X0.2285*%
%ADD38R,0.2285X0.1694*%
%ADD39R,0.0880X0.0880*%
%ADD40C,0.0880*%
%ADD41R,0.0560X0.0960*%
%ADD42R,0.1497X0.0946*%
%ADD43R,0.0710X0.1104*%
%ADD44R,0.0867X0.0789*%
%ADD45R,0.1030X0.1030*%
%ADD46C,0.1030*%
%ADD47OC8,0.0820*%
%ADD48R,0.1340X0.0749*%
%ADD49R,0.1655X0.0867*%
%ADD50R,0.0631X0.1517*%
%ADD51R,0.1261X0.1655*%
%ADD52R,0.1261X0.1458*%
%ADD53R,0.0277X0.1360*%
%ADD54R,0.0474X0.0356*%
%ADD55R,0.0178X0.0580*%
%ADD56R,0.1104X0.0710*%
%ADD57R,0.0580X0.0330*%
%ADD58R,0.0631X0.0789*%
%ADD59R,0.0828X0.0631*%
%ADD60R,0.0671X0.0395*%
D10*
X005166Y017168D03*
X038406Y022750D03*
X041009Y001518D03*
D11*
X030638Y015294D03*
X030638Y016278D03*
D12*
X032394Y011628D03*
X034127Y011628D03*
X034127Y010526D03*
X032394Y010526D03*
D13*
X042312Y010671D03*
X042902Y010671D03*
X042902Y011420D03*
X042312Y011420D03*
X042312Y009884D03*
X042902Y009884D03*
X042906Y009116D03*
X042316Y009116D03*
X016461Y016849D03*
X015871Y016849D03*
X008414Y026368D03*
X007823Y026368D03*
X014504Y004286D03*
X015094Y004286D03*
X015099Y003510D03*
X014509Y003510D03*
D14*
X013795Y003414D03*
X013086Y003414D03*
X013552Y005845D03*
X013552Y006553D03*
X016733Y008935D03*
X016733Y009644D03*
X021595Y009042D03*
X021595Y008333D03*
X023477Y008805D03*
X023477Y009514D03*
X034745Y008447D03*
X035453Y008447D03*
X040989Y009097D03*
X041697Y009097D03*
X041694Y009884D03*
X040985Y009884D03*
X040989Y010671D03*
X041697Y010671D03*
X041701Y011420D03*
X040993Y011420D03*
X040890Y012404D03*
X040182Y012404D03*
X036631Y012620D03*
X036631Y011912D03*
X036701Y016530D03*
X035993Y016530D03*
X035993Y017203D03*
X036701Y017203D03*
X033442Y017542D03*
X033442Y018250D03*
X032757Y018719D03*
X033544Y019093D03*
X032757Y019467D03*
X028178Y019549D03*
X027469Y019549D03*
X038725Y020049D03*
X039473Y020049D03*
X040162Y019979D03*
X040162Y019270D03*
X039099Y019262D03*
X042438Y020682D03*
X042438Y021391D03*
X015879Y018317D03*
X015879Y017609D03*
X007871Y024711D03*
X007871Y025420D03*
D15*
X019306Y003254D03*
X021963Y003254D03*
X021963Y002467D03*
X021963Y001679D03*
X023636Y001675D03*
X026294Y001675D03*
X026294Y002463D03*
X026294Y003250D03*
X027967Y003258D03*
X027967Y001683D03*
X030625Y001683D03*
X030625Y002471D03*
X030625Y003258D03*
X023636Y003250D03*
X019306Y001679D03*
D16*
X024064Y011691D03*
X024064Y011849D03*
X024064Y012006D03*
X024064Y012164D03*
X024064Y012321D03*
X024064Y012479D03*
X024064Y012636D03*
X024064Y012794D03*
X024064Y012951D03*
X024064Y013109D03*
X024064Y013266D03*
X024064Y013423D03*
X024064Y013581D03*
X024064Y013738D03*
X024064Y013896D03*
X024064Y014053D03*
X024064Y014211D03*
X024064Y014368D03*
X024064Y014526D03*
X024064Y014683D03*
X024064Y014841D03*
X024064Y014998D03*
X024064Y015156D03*
X024064Y015313D03*
X024064Y015471D03*
X029398Y015471D03*
X029398Y015313D03*
X029398Y015156D03*
X029398Y014998D03*
X029398Y014841D03*
X029398Y014683D03*
X029398Y014526D03*
X029398Y014368D03*
X029398Y014211D03*
X029398Y014053D03*
X029398Y013896D03*
X029398Y013738D03*
X029398Y013581D03*
X029398Y013423D03*
X029398Y013266D03*
X029398Y013109D03*
X029398Y012951D03*
X029398Y012794D03*
X029398Y012636D03*
X029398Y012479D03*
X029398Y012321D03*
X029398Y012164D03*
X029398Y012006D03*
X029398Y011849D03*
X029398Y011691D03*
D17*
X028591Y010943D03*
X028434Y010943D03*
X028276Y010943D03*
X028119Y010943D03*
X027961Y010943D03*
X027804Y010943D03*
X027646Y010943D03*
X027489Y010943D03*
X027331Y010943D03*
X027174Y010943D03*
X027016Y010943D03*
X026859Y010943D03*
X026701Y010943D03*
X026544Y010943D03*
X026386Y010943D03*
X026229Y010943D03*
X026071Y010943D03*
X025914Y010943D03*
X025757Y010943D03*
X025599Y010943D03*
X025442Y010943D03*
X025284Y010943D03*
X025127Y010943D03*
X024969Y010943D03*
X024812Y010943D03*
X024812Y016219D03*
X024969Y016219D03*
X025127Y016219D03*
X025284Y016219D03*
X025442Y016219D03*
X025599Y016219D03*
X025757Y016219D03*
X025914Y016219D03*
X026071Y016219D03*
X026229Y016219D03*
X026386Y016219D03*
X026544Y016219D03*
X026701Y016219D03*
X026859Y016219D03*
X027016Y016219D03*
X027174Y016219D03*
X027331Y016219D03*
X027489Y016219D03*
X027646Y016219D03*
X027804Y016219D03*
X027961Y016219D03*
X028119Y016219D03*
X028276Y016219D03*
X028434Y016219D03*
X028591Y016219D03*
D18*
X033343Y012660D03*
X019914Y006518D03*
X018320Y009947D03*
X016961Y010744D03*
X035473Y020971D03*
X031701Y022502D03*
X012643Y022512D03*
D19*
X011643Y022512D03*
X010643Y022512D03*
X009643Y022512D03*
X015946Y019309D03*
X016984Y015854D03*
X017984Y015854D03*
X018984Y015854D03*
X016961Y014744D03*
X016961Y013744D03*
X016961Y012744D03*
X016961Y011744D03*
X019914Y011518D03*
X021201Y011522D03*
X021201Y010522D03*
X019914Y010518D03*
X019914Y009518D03*
X019914Y008518D03*
X018320Y008947D03*
X018320Y007947D03*
X019914Y007518D03*
X018320Y006947D03*
X018320Y005947D03*
X018320Y004947D03*
X013583Y004742D03*
X016575Y001750D03*
X007757Y001120D03*
X029961Y008994D03*
X034339Y012679D03*
X034339Y013679D03*
X033343Y013660D03*
X033343Y014660D03*
X034347Y014679D03*
X034347Y015679D03*
X033343Y015660D03*
X034347Y016679D03*
X034347Y017679D03*
X034347Y018679D03*
X036182Y019388D03*
X036473Y020971D03*
X037473Y020971D03*
X038473Y020971D03*
X039473Y020971D03*
X040473Y020971D03*
X041473Y020971D03*
X042398Y024447D03*
X042398Y025447D03*
X034701Y022502D03*
X033701Y022502D03*
X032701Y022502D03*
X029827Y022502D03*
X028827Y022502D03*
X027827Y022502D03*
X026827Y022502D03*
X025827Y022502D03*
X025827Y023502D03*
X026827Y023502D03*
X027827Y023502D03*
X028827Y023502D03*
X029827Y023502D03*
X029827Y024502D03*
X028827Y024502D03*
X027827Y024502D03*
X026827Y024502D03*
X025827Y024502D03*
X020034Y026420D03*
X019034Y026420D03*
X018034Y026420D03*
X017034Y026420D03*
X016034Y026420D03*
X015034Y026420D03*
X009410Y027183D03*
X033741Y021006D03*
X036634Y013573D03*
X037634Y013573D03*
X038634Y013573D03*
D20*
X021343Y014160D03*
D21*
X016961Y018034D03*
X006410Y018034D03*
X006410Y007483D03*
X016961Y007483D03*
D22*
X035804Y014609D03*
X042497Y019711D03*
D23*
X009591Y013738D03*
X009591Y013238D03*
X009591Y012738D03*
X009591Y012238D03*
X009591Y011738D03*
X009591Y011238D03*
X009591Y010738D03*
D24*
X012985Y012238D03*
D25*
X006749Y022002D03*
X006249Y022002D03*
X005749Y022002D03*
X005249Y022002D03*
X004749Y022002D03*
X004249Y022002D03*
X003749Y022002D03*
D26*
X005249Y025396D03*
D27*
X008796Y022943D03*
X008796Y022274D03*
X005079Y020951D03*
X004410Y020951D03*
X004410Y020368D03*
X005079Y020368D03*
X002788Y021927D03*
X002788Y022597D03*
X009678Y014872D03*
X010347Y014872D03*
X008485Y013053D03*
X007914Y013049D03*
X007914Y012380D03*
X008485Y012384D03*
X017296Y008947D03*
X017296Y008278D03*
X015123Y005105D03*
X014453Y005105D03*
X022879Y002955D03*
X022879Y002286D03*
X024142Y008829D03*
X024823Y008829D03*
X024823Y009498D03*
X024142Y009498D03*
X026725Y009250D03*
X026725Y009920D03*
X028426Y009790D03*
X028426Y009120D03*
X031316Y010671D03*
X031316Y011341D03*
X032989Y009845D03*
X033658Y009845D03*
X034886Y010719D03*
X034886Y011388D03*
X030977Y013227D03*
X030308Y013227D03*
X031260Y015345D03*
X031930Y015345D03*
X031930Y016266D03*
X031260Y016266D03*
X026847Y019813D03*
X026847Y020483D03*
X032505Y020805D03*
X032505Y020136D03*
X038221Y016506D03*
X038221Y015837D03*
X041142Y022085D03*
X041812Y022085D03*
X035788Y024337D03*
X035119Y024337D03*
X022430Y015884D03*
X021760Y015884D03*
X017859Y013904D03*
X017859Y013234D03*
X020757Y013372D03*
X020757Y012703D03*
X045457Y005321D03*
X045457Y004652D03*
D28*
X031320Y009986D03*
X030138Y009986D03*
X015505Y005892D03*
X014323Y005892D03*
X022383Y021053D03*
X023564Y021053D03*
X034847Y023553D03*
X036028Y023553D03*
X041237Y023065D03*
X042418Y023065D03*
D29*
X009831Y016408D03*
X007040Y016408D03*
D30*
X001638Y023817D03*
X001638Y026609D03*
D31*
X013032Y026837D03*
X013032Y024475D03*
X014308Y009569D03*
X014308Y007207D03*
X039973Y023778D03*
X039973Y026140D03*
D32*
X033575Y024427D03*
X031213Y024427D03*
X011355Y024459D03*
X008993Y024459D03*
X009682Y019585D03*
X007320Y019585D03*
D33*
X006697Y003443D03*
D34*
X002918Y006274D03*
D35*
X002918Y001042D03*
D36*
X015867Y011963D03*
X015867Y013144D03*
X019886Y012648D03*
X019886Y013829D03*
X025150Y008128D03*
X025150Y006947D03*
X036564Y008927D03*
X036564Y010109D03*
X044532Y005573D03*
X044532Y004392D03*
X031694Y019880D03*
X031694Y021061D03*
X025753Y021057D03*
X025753Y019876D03*
X008087Y021971D03*
X008087Y023152D03*
D37*
X008020Y006935D03*
X012312Y006935D03*
D38*
X012792Y016203D03*
X012792Y020494D03*
D39*
X002229Y010734D03*
D40*
X002229Y008766D03*
D41*
X040071Y007919D03*
X040981Y007919D03*
X041891Y007919D03*
D42*
X040981Y005479D03*
D43*
X042985Y005616D03*
X042985Y004199D03*
X038426Y005471D03*
X038426Y006888D03*
X038009Y008857D03*
X038009Y010274D03*
X018540Y011278D03*
X018540Y012695D03*
X010272Y003179D03*
X010272Y001762D03*
D44*
X004512Y010723D03*
X004512Y012022D03*
D45*
X002229Y017120D03*
D46*
X002229Y015152D03*
X002229Y013183D03*
D47*
X015024Y022518D03*
X016024Y022518D03*
X017024Y022518D03*
X018024Y022518D03*
X019024Y022518D03*
X020024Y022518D03*
X021024Y022518D03*
X022024Y022518D03*
X023024Y022518D03*
X024024Y022518D03*
X024024Y023518D03*
X023024Y023518D03*
X022024Y023518D03*
X021024Y023518D03*
X020024Y023518D03*
X019024Y023518D03*
X018024Y023518D03*
X017024Y023518D03*
X016024Y023518D03*
X015024Y023518D03*
X021142Y005687D03*
X022142Y005687D03*
X023142Y005687D03*
X024142Y005687D03*
X025142Y005687D03*
X026142Y005687D03*
X027142Y005687D03*
X028142Y005687D03*
X029142Y005687D03*
X030142Y005687D03*
X030142Y004687D03*
X029142Y004687D03*
X028142Y004687D03*
X027142Y004687D03*
X026142Y004687D03*
X025142Y004687D03*
X024142Y004687D03*
X023142Y004687D03*
X022142Y004687D03*
X021142Y004687D03*
D48*
X032457Y006427D03*
X032457Y008199D03*
D49*
X005225Y012931D03*
X005225Y015731D03*
D50*
X001560Y019439D03*
X001560Y021723D03*
X007154Y011963D03*
X007154Y009679D03*
D51*
X032245Y002178D03*
X036497Y002178D03*
D52*
X036497Y003851D03*
X032245Y003851D03*
D53*
X033741Y004048D03*
X034056Y004048D03*
X034371Y004048D03*
X034686Y004048D03*
X035001Y004048D03*
D54*
X024127Y007514D03*
X023182Y007888D03*
X024127Y008262D03*
D55*
X028672Y018412D03*
X028928Y018412D03*
X029184Y018412D03*
X029440Y018412D03*
X029696Y018412D03*
X029951Y018412D03*
X030207Y018412D03*
X030463Y018412D03*
X030719Y018412D03*
X030975Y018412D03*
X030975Y020736D03*
X030719Y020736D03*
X030463Y020736D03*
X030207Y020736D03*
X029951Y020736D03*
X029696Y020736D03*
X029440Y020736D03*
X029184Y020736D03*
X028928Y020736D03*
X028672Y020736D03*
D56*
X024650Y025168D03*
X023233Y025168D03*
D57*
X031792Y019140D03*
X031792Y018790D03*
X031792Y018440D03*
X031788Y017711D03*
X031788Y017357D03*
X029768Y007585D03*
X029768Y007231D03*
X028839Y007231D03*
X028839Y007585D03*
X036804Y006979D03*
X036804Y006624D03*
D58*
X039493Y014046D03*
X039493Y016290D03*
D59*
X044670Y013416D03*
X045064Y018593D03*
D60*
X043548Y016758D03*
X043390Y016325D03*
X043548Y015892D03*
X043627Y015459D03*
X043548Y015026D03*
X043627Y014593D03*
X043548Y014160D03*
X043548Y013727D03*
M02*
