%
M48
M72
T01C0.0236
T02C0.0276
T03C0.0315
T04C0.0400
%
T01
X3976Y1715
X4527Y1066
X8405Y2385
X7421Y2739
X6465Y2854
X5846Y2857
X7243Y3428
X7952Y3466
X7932Y5200
X6348Y5210
X4566Y5317
X5166Y7458
X6677Y7898
X5244Y8391
X5259Y9019
X9178Y7689
X10602Y7319
X12114Y7532
X14310Y8507
X12981Y8910
X11732Y8743
X10653Y8688
X13583Y9528
X17511Y9297
X19409Y9452
X18700Y7424
X18750Y6765
X18149Y6656
X16673Y6617
X15621Y6527
X14921Y4963
X14293Y4873
X13178Y4049
X12440Y3428
X13413Y2601
X10964Y5613
X22254Y6614
T02
X21524Y3402
X20737Y3402
X19949Y3402
X18204Y3400
X17417Y3400
X16629Y3400
X14897Y3397
X14110Y3397
X13322Y3397
X9190Y8732
X8600Y8732
X8009Y8732
X7419Y8732
X6828Y8732
T03
X15039Y8526
X15610Y3034
X11065Y1840
T04
X1177Y1593
X2177Y1593
X3177Y1593
X3177Y2593
X2177Y2593
X1177Y2593
X1177Y3593
X2177Y3593
X3177Y3593
X3177Y4593
X2177Y4593
X1177Y4593
X1177Y5593
X2177Y5593
X3177Y5593
X3177Y6593
X2177Y6593
X1177Y6593
X1177Y7593
X2177Y7593
X3177Y7593
X3177Y8593
X2177Y8593
X1177Y8593
X23035Y8593
X24035Y8593
X25035Y8593
X25035Y7593
X24035Y7593
X23035Y7593
X23035Y6593
X24035Y6593
X25035Y6593
X25035Y5593
X24035Y5593
X23035Y5593
X23035Y4593
X24035Y4593
X25035Y4593
X25035Y3593
X24035Y3593
X23035Y3593
X23035Y2593
X24035Y2593
X25035Y2593
X25035Y1593
X24035Y1593
X23035Y1593
M30
