G75*
G70*
%OFA0B0*%
%FSLAX24Y24*%
%IPPOS*%
%LPD*%
%AMOC8*
5,1,8,0,0,1.08239X$1,22.5*
%
%ADD10R,0.0472X0.0217*%
%ADD11R,0.0433X0.0394*%
%ADD12R,0.0787X0.0472*%
%ADD13R,0.0476X0.0476*%
%ADD14C,0.0476*%
%ADD15R,0.0551X0.0630*%
%ADD16R,0.0630X0.0551*%
%ADD17C,0.0740*%
%ADD18R,0.0394X0.1811*%
%ADD19R,0.0630X0.1339*%
%ADD20C,0.0640*%
%ADD21C,0.0396*%
%ADD22C,0.0160*%
%ADD23C,0.0240*%
%ADD24C,0.0120*%
%ADD25C,0.0320*%
%ADD26C,0.0400*%
%ADD27C,0.0100*%
%ADD28C,0.0475*%
D10*
X014279Y001349D03*
X014279Y001723D03*
X014279Y002097D03*
X015303Y002097D03*
X015303Y001349D03*
D11*
X015007Y002652D03*
X014338Y002652D03*
X005190Y002554D03*
X004521Y002554D03*
X001662Y009472D03*
X000993Y009472D03*
D12*
X013074Y002188D03*
X013074Y000928D03*
X016279Y000865D03*
X016279Y002125D03*
D13*
X006828Y008732D03*
D14*
X007419Y008732D03*
X008009Y008732D03*
X008600Y008732D03*
X009190Y008732D03*
D15*
X015921Y008367D03*
X017023Y008367D03*
X019680Y007861D03*
X020783Y007861D03*
X020783Y006798D03*
X019680Y006798D03*
X019678Y005721D03*
X020781Y005721D03*
X012641Y005137D03*
X011539Y005137D03*
X007997Y004273D03*
X006895Y004273D03*
X019680Y008924D03*
X020783Y008924D03*
D16*
X017558Y002154D03*
X017558Y001052D03*
D17*
X023035Y001593D03*
X024035Y001593D03*
X025035Y001593D03*
X025035Y002593D03*
X024035Y002593D03*
X023035Y002593D03*
X023035Y003593D03*
X024035Y003593D03*
X025035Y003593D03*
X025035Y004593D03*
X024035Y004593D03*
X023035Y004593D03*
X023035Y005593D03*
X024035Y005593D03*
X025035Y005593D03*
X025035Y006593D03*
X024035Y006593D03*
X023035Y006593D03*
X023035Y007593D03*
X024035Y007593D03*
X025035Y007593D03*
X025035Y008593D03*
X024035Y008593D03*
X023035Y008593D03*
X003177Y008593D03*
X002177Y008593D03*
X001177Y008593D03*
X001177Y007593D03*
X002177Y007593D03*
X003177Y007593D03*
X003177Y006593D03*
X002177Y006593D03*
X001177Y006593D03*
X001177Y005593D03*
X002177Y005593D03*
X003177Y005593D03*
X003177Y004593D03*
X002177Y004593D03*
X001177Y004593D03*
X001177Y003593D03*
X002177Y003593D03*
X003177Y003593D03*
X003177Y002593D03*
X002177Y002593D03*
X001177Y002593D03*
X001177Y001593D03*
X002177Y001593D03*
X003177Y001593D03*
D18*
X010271Y003585D03*
X011058Y003585D03*
D19*
X012003Y001538D03*
X009326Y001538D03*
D20*
X013322Y003397D03*
X014110Y003397D03*
X014897Y003397D03*
X016629Y003400D03*
X017417Y003400D03*
X018204Y003400D03*
X019949Y003402D03*
X020737Y003402D03*
X021524Y003402D03*
D21*
X014921Y004963D03*
X014293Y004873D03*
X013178Y004049D03*
X012440Y003428D03*
X013413Y002601D03*
X008405Y002385D03*
X007421Y002739D03*
X006465Y002854D03*
X005846Y002857D03*
X007243Y003428D03*
X007952Y003466D03*
X007932Y005200D03*
X006348Y005210D03*
X004566Y005317D03*
X005166Y007458D03*
X006677Y007898D03*
X005244Y008391D03*
X005259Y009019D03*
X009178Y007689D03*
X010602Y007319D03*
X012114Y007532D03*
X014310Y008507D03*
X012981Y008910D03*
X011732Y008743D03*
X010653Y008688D03*
X013583Y009528D03*
X017511Y009297D03*
X019409Y009452D03*
X018700Y007424D03*
X018750Y006765D03*
X018149Y006656D03*
X016673Y006617D03*
X015621Y006527D03*
X010964Y005613D03*
X003976Y001715D03*
X004527Y001066D03*
X022254Y006614D03*
D22*
X020826Y005676D02*
X020826Y005436D01*
X020472Y005082D01*
X018936Y005082D01*
X018750Y005268D01*
X018750Y006765D01*
X020781Y005721D02*
X020826Y005676D01*
X014897Y003397D02*
X014889Y003397D01*
X014338Y002845D02*
X014338Y002652D01*
X014271Y001735D02*
X014251Y001715D01*
X013799Y001715D01*
X013503Y001420D01*
X013503Y000869D01*
X013503Y000830D01*
X013228Y000928D02*
X013074Y000928D01*
X014279Y001723D02*
X014279Y001727D01*
X014271Y001735D01*
X005236Y000593D02*
X005190Y000639D01*
X004527Y001066D02*
X005190Y001729D01*
X005190Y002554D01*
X005259Y009019D02*
X005257Y009019D01*
X005247Y009028D01*
D23*
X002165Y009097D02*
X002165Y008625D01*
X002177Y008613D01*
X002177Y008593D01*
X001220Y008507D02*
X001177Y008550D01*
X000993Y008734D01*
X000993Y009472D01*
X001662Y009472D02*
X001790Y009472D01*
X002165Y009097D01*
X001177Y008593D02*
X001177Y008550D01*
X015531Y003113D02*
X015610Y003034D01*
X015590Y003034D01*
X015984Y002129D02*
X016338Y002129D01*
X016334Y002125D01*
X016279Y002125D01*
X016531Y002109D01*
X017755Y002109D01*
X017755Y002115D01*
X017558Y002154D01*
X015984Y002129D02*
X015747Y001893D01*
X015747Y001420D01*
X015677Y001349D01*
X015303Y001349D01*
X014803Y001420D02*
X014732Y001349D01*
X014279Y001349D01*
X014803Y001420D02*
X014803Y001991D01*
X014704Y002089D01*
X014251Y002089D01*
X014259Y002097D01*
X014279Y002097D01*
X013023Y002097D01*
X012972Y002149D01*
X013011Y002188D01*
X013074Y002188D01*
X013074Y000928D02*
X013110Y000893D01*
X013110Y000869D01*
X013503Y000869D01*
X016511Y000869D01*
X016279Y000865D01*
X016637Y000987D01*
X017795Y000987D01*
X017558Y001052D01*
D24*
X017781Y001052D01*
X017755Y001026D01*
X017775Y001007D01*
X015314Y002089D02*
X015314Y002345D01*
X015007Y002652D01*
X014338Y002845D02*
X014897Y003404D01*
X014897Y003397D01*
X014897Y003404D02*
X014921Y003428D01*
X015984Y004255D02*
X016220Y004019D01*
X021417Y004019D01*
X022991Y005593D01*
X023035Y005593D01*
X022243Y005200D02*
X022243Y006026D01*
X022834Y006617D01*
X022952Y006617D01*
X022976Y006593D01*
X023035Y006593D01*
X023035Y006601D01*
X023031Y006597D01*
X023035Y006601D02*
X023051Y006617D01*
X022254Y006614D02*
X022246Y006614D01*
X022243Y006617D01*
X022007Y006381D01*
X022007Y005318D01*
X021180Y004491D01*
X016574Y004491D01*
X016456Y004609D01*
X016456Y004727D01*
X014330Y006853D01*
X011023Y006853D01*
X009369Y005200D01*
X007932Y005200D01*
X007913Y005200D01*
X006692Y005554D02*
X009369Y005554D01*
X010905Y007089D01*
X014448Y007089D01*
X016810Y004727D01*
X021062Y004727D01*
X021771Y005436D01*
X021771Y007326D01*
X022007Y007562D01*
X023070Y007562D01*
X023039Y007593D01*
X023035Y007593D01*
X023031Y007597D01*
X023031Y007601D01*
X023024Y007598D02*
X023035Y007609D01*
X023035Y007593D01*
X023035Y007609D02*
X023044Y007618D01*
X018720Y007404D02*
X018700Y007424D01*
X018700Y008271D01*
X018582Y008389D01*
X018582Y009334D01*
X018228Y009688D01*
X015984Y009688D01*
X015393Y009097D01*
X013385Y009097D01*
X013090Y009393D01*
X004704Y009393D01*
X004153Y008841D01*
X004153Y004058D01*
X003680Y003586D01*
X003680Y003593D01*
X003688Y003593D01*
X003680Y003593D02*
X003177Y003593D01*
X004617Y003282D02*
X005236Y003900D01*
X005236Y004609D01*
X005472Y004845D01*
X005472Y006499D01*
X005826Y006853D01*
X009606Y006853D01*
X010432Y007680D01*
X012086Y007680D01*
X014212Y007680D01*
X015511Y006381D01*
X015621Y006490D01*
X015621Y006527D01*
X015275Y006971D02*
X016338Y006971D01*
X016692Y006617D01*
X016673Y006617D01*
X016692Y006617D02*
X016712Y006597D01*
X015275Y006971D02*
X014330Y007916D01*
X010314Y007916D01*
X009488Y007089D01*
X005708Y007089D01*
X005236Y006617D01*
X005236Y004963D01*
X004999Y004727D01*
X004999Y004019D01*
X003858Y002877D01*
X003858Y002306D01*
X003169Y001617D01*
X003169Y001601D01*
X003177Y001593D01*
X003942Y001721D02*
X003976Y001715D01*
X003956Y001715D01*
X004521Y002280D01*
X004521Y002554D01*
X004547Y002528D01*
X004617Y002528D01*
X004617Y003282D01*
X005846Y002857D02*
X005885Y002739D01*
X006358Y002267D01*
X007499Y002267D01*
X008070Y002837D01*
X008306Y002837D01*
X008779Y003310D01*
X008779Y003900D01*
X011259Y006381D01*
X014094Y006381D01*
X015984Y004491D01*
X015984Y004255D01*
X016220Y004373D02*
X016338Y004255D01*
X021299Y004255D01*
X022243Y005200D01*
X018750Y006765D02*
X018720Y006735D01*
X017824Y007631D01*
X017795Y007601D01*
X015354Y007601D01*
X014448Y008507D01*
X014310Y008507D01*
X015039Y008526D02*
X015198Y008367D01*
X014448Y008152D02*
X015393Y007208D01*
X017519Y007208D01*
X017539Y007188D01*
X017598Y007188D01*
X018188Y006597D01*
X018149Y006656D01*
X018721Y007367D02*
X018700Y007387D01*
X018681Y007407D01*
X018700Y007424D02*
X018700Y007387D01*
X018700Y007424D02*
X018680Y007444D01*
X017824Y007631D02*
X017088Y008367D01*
X017023Y008367D01*
X014448Y008152D02*
X010196Y008152D01*
X009369Y007326D01*
X005590Y007326D01*
X004999Y006735D01*
X004999Y005082D01*
X004743Y004826D01*
X004743Y004117D01*
X003220Y002593D01*
X003177Y002593D01*
X003188Y002582D01*
X003177Y002593D02*
X003169Y002601D01*
X005472Y004019D02*
X006456Y003034D01*
X006456Y002759D01*
X006465Y002768D01*
X006465Y002854D01*
X007401Y002719D02*
X007421Y002739D01*
X007775Y003093D01*
X008208Y003093D01*
X008543Y003428D01*
X008543Y004019D01*
X011141Y006617D01*
X014212Y006617D01*
X016220Y004609D01*
X016220Y004373D01*
X014293Y004873D02*
X014293Y004883D01*
X013267Y005908D01*
X013208Y005849D01*
X010551Y007208D02*
X009960Y006617D01*
X005944Y006617D01*
X005708Y006381D01*
X005708Y004727D01*
X005472Y004491D01*
X005472Y004019D01*
X006889Y004137D02*
X007243Y003782D01*
X007243Y003428D01*
X006889Y004137D02*
X006895Y004143D01*
X006895Y004273D01*
X006417Y005160D02*
X006348Y005210D01*
X006692Y005554D01*
X003858Y004688D02*
X003763Y004593D01*
X003177Y004593D01*
X003858Y004688D02*
X003858Y009019D01*
X004468Y009629D01*
X013562Y009629D01*
X013621Y009570D01*
X013583Y009531D01*
X013583Y009528D01*
X012981Y008910D02*
X013030Y008861D01*
X013031Y008861D01*
X013031Y008625D01*
X012795Y008389D01*
X010952Y008389D01*
X010653Y008688D01*
X011338Y009137D02*
X011732Y008743D01*
X011338Y009137D02*
X007873Y009137D01*
X007419Y008682D01*
X007419Y008732D01*
X008009Y008732D02*
X008070Y008671D01*
X008070Y007916D01*
X008306Y007680D01*
X009251Y007680D01*
X009251Y007686D01*
X009178Y007689D01*
X010532Y007226D02*
X010602Y007319D01*
X010532Y007226D02*
X010551Y007208D01*
X012086Y007560D02*
X012086Y007680D01*
X012086Y007560D02*
X012114Y007532D01*
X006771Y007916D02*
X006417Y007562D01*
X005161Y007562D01*
X005057Y007458D01*
X005166Y007458D01*
X006677Y007898D02*
X006695Y007916D01*
X006771Y007916D01*
X012557Y003428D02*
X013178Y004049D01*
X012557Y003428D02*
X012440Y003428D01*
X011141Y003664D02*
X011141Y003900D01*
X011141Y003664D02*
X011058Y003581D01*
X011058Y003585D01*
X011058Y003581D02*
X011023Y003546D01*
X015303Y002097D02*
X015310Y002089D01*
X015314Y002089D01*
X014279Y001727D02*
X014273Y001721D01*
X013803Y001721D01*
X013513Y001431D01*
X013513Y000611D01*
X013503Y000601D01*
X013503Y000593D01*
D25*
X008425Y000672D02*
X008403Y000694D01*
X008403Y002384D02*
X008405Y002385D01*
X007952Y003466D02*
X007952Y004227D01*
X007997Y004273D01*
X010271Y004920D02*
X010271Y003585D01*
X010271Y004920D02*
X010905Y005554D01*
X014921Y004963D02*
X014921Y004491D01*
X015531Y003881D01*
X015531Y003113D01*
X004566Y005317D02*
X004566Y008546D01*
X004999Y008979D01*
X005236Y008979D01*
X005259Y009003D01*
X005259Y009019D01*
X015039Y008526D02*
X015039Y008519D01*
X015170Y008387D01*
X015901Y008387D01*
X015901Y009057D01*
X016141Y009297D01*
X017511Y009297D01*
X015921Y008367D02*
X015901Y008387D01*
D26*
X019409Y009452D02*
X019562Y009298D01*
X019680Y008924D01*
X019680Y007952D01*
X019645Y007916D01*
X019680Y007881D01*
X019680Y007861D01*
X019680Y006798D01*
X019680Y005708D01*
X019678Y005705D01*
X019678Y005721D01*
X019678Y005705D02*
X019645Y005672D01*
X020781Y005721D02*
X020793Y005734D01*
X020793Y006788D01*
X020783Y006798D01*
X020783Y006798D01*
X020783Y007861D01*
X020783Y007861D01*
X020783Y007921D01*
X020793Y007931D01*
X020793Y008914D01*
X020783Y008924D01*
X021420Y009561D01*
X021526Y009561D01*
X021535Y009570D01*
X024488Y009570D01*
X025043Y009014D01*
X025043Y008381D01*
X025035Y008381D01*
X025035Y008463D01*
X025078Y008507D01*
X025035Y008550D01*
X025035Y008593D01*
X025035Y008381D02*
X025035Y007593D01*
X025047Y007593D01*
X025078Y007562D01*
X025035Y007519D01*
X025035Y006593D01*
X025054Y006593D01*
X025035Y006574D01*
X025035Y005593D01*
X025039Y005593D01*
X025078Y005554D01*
X025035Y005511D01*
X025035Y004593D01*
X025062Y004593D01*
X025035Y004566D01*
X025035Y003593D01*
X025035Y003589D01*
X025078Y003546D01*
X025035Y003503D01*
X025035Y002593D01*
X024968Y002593D01*
X025035Y002526D01*
X025035Y001593D01*
X025078Y001550D01*
X025078Y000948D01*
X024724Y000593D01*
X021535Y000593D01*
X021524Y000604D01*
X021524Y003402D01*
X019173Y003192D02*
X019114Y003133D01*
X018846Y003400D01*
X018204Y003400D01*
X019114Y003133D02*
X019173Y003074D01*
X019173Y000711D01*
X019291Y000593D01*
X021535Y000593D01*
X019291Y000593D02*
X013503Y000593D01*
X010551Y000593D01*
X010271Y000873D01*
X010271Y000904D01*
X009960Y000593D01*
X008425Y000593D01*
X008425Y000672D01*
X008425Y002329D01*
X008403Y002351D01*
X008417Y002365D01*
X008425Y002365D01*
X008405Y002385D01*
X011065Y001840D02*
X011065Y003824D01*
X011141Y003900D01*
X011377Y004137D01*
X011850Y004137D01*
X012641Y004928D01*
X012641Y005137D01*
X013208Y005849D02*
X013503Y005554D01*
X013503Y004491D01*
X013858Y004137D01*
X014448Y004137D01*
X014897Y003688D01*
X014897Y003397D01*
X015610Y003034D02*
X015610Y002975D01*
X015866Y002719D01*
X017401Y002719D01*
X017558Y002562D01*
X017558Y002154D01*
X013413Y002601D02*
X013123Y002311D01*
X013123Y002221D01*
X013107Y002221D01*
X013074Y002188D01*
X010271Y000904D02*
X010271Y003585D01*
X011539Y005137D02*
X011121Y005554D01*
X011023Y005554D01*
X011377Y005908D01*
X013149Y005908D01*
X013208Y005849D01*
X011023Y005554D02*
X010964Y005613D01*
X010905Y005554D01*
X011023Y005554D01*
X019645Y006735D02*
X019680Y006771D01*
X019680Y006798D01*
X025054Y006593D02*
X025078Y006617D01*
X025078Y004609D02*
X025062Y004593D01*
X024960Y002601D02*
X024968Y002593D01*
X008425Y000715D02*
X008403Y000694D01*
X008425Y000593D02*
X005236Y000593D01*
X001810Y000593D01*
X001220Y001184D01*
X001220Y001656D01*
X001173Y001703D01*
X001173Y002597D01*
X001173Y003597D01*
X001177Y003593D01*
X001183Y003600D01*
X001183Y004591D01*
X001179Y004591D01*
X001177Y004593D01*
X001173Y004597D01*
X001173Y005597D01*
X001177Y005593D01*
X001183Y005600D01*
X001183Y006591D01*
X001179Y006591D01*
X001177Y006593D01*
X001183Y006600D01*
X001183Y007600D01*
X001177Y007593D01*
X001173Y007597D01*
X001173Y008597D01*
X001177Y008593D01*
X001173Y008597D02*
X001173Y008611D01*
X001183Y007601D02*
X001183Y007600D01*
X001173Y005601D02*
X001173Y005597D01*
X001173Y003601D02*
X001173Y003597D01*
X001173Y002601D02*
X001173Y002597D01*
X001177Y002593D01*
X001220Y001656D02*
X001177Y001613D01*
X001177Y001593D01*
D27*
X000648Y000636D02*
X000648Y009191D01*
X000714Y009125D01*
X000944Y009125D01*
X000944Y009424D01*
X001041Y009424D01*
X001041Y009125D01*
X001271Y009125D01*
X001313Y009167D01*
X001375Y009105D01*
X001747Y009105D01*
X001836Y009016D01*
X001719Y008899D01*
X001666Y008771D01*
X001617Y008888D01*
X001471Y009034D01*
X001280Y009113D01*
X001226Y009113D01*
X001226Y008644D01*
X001127Y008644D01*
X001127Y009113D01*
X001073Y009113D01*
X000882Y009034D01*
X000736Y008888D01*
X000657Y008697D01*
X000657Y008643D01*
X001126Y008643D01*
X001126Y008543D01*
X000657Y008543D01*
X000657Y008490D01*
X000736Y008299D01*
X000882Y008153D01*
X001025Y008093D01*
X000882Y008034D01*
X000736Y007888D01*
X000657Y007697D01*
X000657Y007643D01*
X001126Y007643D01*
X001126Y007543D01*
X000657Y007543D01*
X000657Y007490D01*
X000736Y007299D01*
X000882Y007153D01*
X001025Y007093D01*
X000882Y007034D01*
X000736Y006888D01*
X000657Y006697D01*
X000657Y006643D01*
X001126Y006643D01*
X001126Y006543D01*
X000657Y006543D01*
X000657Y006490D01*
X000736Y006299D01*
X000882Y006153D01*
X001025Y006093D01*
X000882Y006034D01*
X000736Y005888D01*
X000657Y005697D01*
X000657Y005643D01*
X001126Y005643D01*
X001126Y005543D01*
X000657Y005543D01*
X000657Y005490D01*
X000736Y005299D01*
X000882Y005153D01*
X001025Y005093D01*
X000882Y005034D01*
X000736Y004888D01*
X000657Y004697D01*
X000657Y004643D01*
X001126Y004643D01*
X001126Y004543D01*
X000657Y004543D01*
X000657Y004490D01*
X000736Y004299D01*
X000882Y004153D01*
X001025Y004093D01*
X000882Y004034D01*
X000736Y003888D01*
X000657Y003697D01*
X000657Y003643D01*
X001126Y003643D01*
X001126Y003543D01*
X000657Y003543D01*
X000657Y003490D01*
X000736Y003299D01*
X000882Y003153D01*
X001025Y003093D01*
X000882Y003034D01*
X000736Y002888D01*
X000657Y002697D01*
X000657Y002643D01*
X001126Y002643D01*
X001126Y002543D01*
X000657Y002543D01*
X000657Y002490D01*
X000736Y002299D01*
X000882Y002153D01*
X001025Y002093D01*
X000882Y002034D01*
X000736Y001888D01*
X000657Y001697D01*
X000657Y001643D01*
X001126Y001643D01*
X001126Y001543D01*
X000657Y001543D01*
X000657Y001490D01*
X000736Y001299D01*
X000882Y001153D01*
X001073Y001073D01*
X001127Y001073D01*
X001127Y001543D01*
X001226Y001543D01*
X001226Y001073D01*
X001280Y001073D01*
X001471Y001153D01*
X001617Y001299D01*
X001666Y001416D01*
X001719Y001287D01*
X001871Y001136D01*
X002069Y001053D01*
X002284Y001053D01*
X002482Y001136D01*
X002634Y001287D01*
X002676Y001389D01*
X002719Y001287D01*
X002871Y001136D01*
X003069Y001053D01*
X003284Y001053D01*
X003482Y001136D01*
X003634Y001287D01*
X003707Y001463D01*
X003767Y001403D01*
X003902Y001347D01*
X004049Y001347D01*
X004184Y001403D01*
X004288Y001507D01*
X004344Y001642D01*
X004344Y001778D01*
X004751Y002185D01*
X004751Y002187D01*
X004808Y002187D01*
X004856Y002235D01*
X004903Y002187D01*
X004940Y002187D01*
X004940Y001833D01*
X004541Y001434D01*
X004454Y001434D01*
X004318Y001378D01*
X004215Y001274D01*
X004159Y001139D01*
X004159Y000993D01*
X004215Y000857D01*
X004318Y000754D01*
X004454Y000698D01*
X004600Y000698D01*
X004735Y000754D01*
X004839Y000857D01*
X004895Y000993D01*
X004895Y001080D01*
X005402Y001588D01*
X005440Y001679D01*
X005440Y001779D01*
X005440Y002187D01*
X005477Y002187D01*
X005577Y002287D01*
X005577Y002606D01*
X005637Y002545D01*
X005773Y002489D01*
X005810Y002489D01*
X006128Y002171D01*
X006262Y002037D01*
X007595Y002037D01*
X007729Y002171D01*
X008165Y002607D01*
X008211Y002607D01*
X008402Y002607D01*
X008874Y003080D01*
X009009Y003215D01*
X009009Y003805D01*
X011354Y006151D01*
X013999Y006151D01*
X014827Y005323D01*
X014712Y005276D01*
X014609Y005172D01*
X014553Y005037D01*
X014553Y004890D01*
X014591Y004798D01*
X014591Y004425D01*
X014641Y004304D01*
X014734Y004211D01*
X015141Y003804D01*
X014990Y003866D01*
X014916Y003866D01*
X014878Y003866D01*
X014804Y003866D01*
X014631Y003795D01*
X014517Y003682D01*
X014387Y003812D01*
X014207Y003886D01*
X014012Y003886D01*
X013832Y003812D01*
X013716Y003696D01*
X013600Y003812D01*
X013496Y003855D01*
X013546Y003976D01*
X013546Y004122D01*
X013490Y004257D01*
X013387Y004361D01*
X013251Y004417D01*
X013105Y004417D01*
X012969Y004361D01*
X012866Y004257D01*
X012810Y004122D01*
X012810Y004006D01*
X012575Y003771D01*
X012514Y003796D01*
X012367Y003796D01*
X012232Y003740D01*
X012128Y003637D01*
X012072Y003501D01*
X012072Y003355D01*
X012128Y003219D01*
X012232Y003116D01*
X012367Y003060D01*
X012514Y003060D01*
X012649Y003116D01*
X012752Y003219D01*
X012808Y003354D01*
X012832Y003378D01*
X012832Y003299D01*
X012907Y003119D01*
X013045Y002981D01*
X013204Y002915D01*
X013203Y002915D01*
X012913Y002625D01*
X012883Y002594D01*
X012610Y002594D01*
X012510Y002494D01*
X012510Y001881D01*
X012610Y001782D01*
X013538Y001782D01*
X013564Y001807D01*
X013893Y001807D01*
X013893Y001727D01*
X014274Y001727D01*
X014274Y001719D01*
X013893Y001719D01*
X013893Y001553D01*
X013895Y001550D01*
X013873Y001528D01*
X013873Y001171D01*
X013972Y001071D01*
X014193Y001071D01*
X014221Y001059D01*
X014674Y001059D01*
X014789Y001059D01*
X014896Y001103D01*
X014930Y001137D01*
X014996Y001071D01*
X015216Y001071D01*
X015245Y001059D01*
X015619Y001059D01*
X015734Y001059D01*
X015735Y001060D01*
X015735Y000915D01*
X016229Y000915D01*
X016229Y001251D01*
X015989Y001251D01*
X015993Y001256D01*
X016037Y001362D01*
X016037Y001719D01*
X016743Y001719D01*
X016843Y001818D01*
X016843Y001819D01*
X017073Y001819D01*
X017073Y001808D01*
X017173Y001709D01*
X017944Y001709D01*
X018043Y001808D01*
X018043Y002047D01*
X018045Y002051D01*
X018045Y002086D01*
X018051Y002115D01*
X018045Y002143D01*
X018045Y002173D01*
X018043Y002177D01*
X018043Y002500D01*
X017944Y002600D01*
X017928Y002600D01*
X017928Y002635D01*
X017872Y002771D01*
X017715Y002929D01*
X017669Y002975D01*
X017694Y002985D01*
X017825Y003115D01*
X017938Y003002D01*
X018111Y002930D01*
X018185Y002930D01*
X018185Y003381D01*
X018223Y003381D01*
X018223Y002930D01*
X018298Y002930D01*
X018470Y003002D01*
X018603Y003134D01*
X018674Y003307D01*
X018674Y003381D01*
X018223Y003381D01*
X018223Y003419D01*
X018674Y003419D01*
X018674Y003494D01*
X018603Y003667D01*
X018481Y003789D01*
X019642Y003789D01*
X019534Y003680D01*
X019459Y003500D01*
X019459Y003305D01*
X019534Y003125D01*
X019672Y002987D01*
X019852Y002912D01*
X020047Y002912D01*
X020227Y002987D01*
X020343Y003103D01*
X020459Y002987D01*
X020639Y002912D01*
X020834Y002912D01*
X021014Y002987D01*
X021144Y003117D01*
X021258Y003004D01*
X021431Y002932D01*
X021505Y002932D01*
X021505Y003383D01*
X021543Y003383D01*
X021543Y002932D01*
X021617Y002932D01*
X021790Y003004D01*
X021922Y003136D01*
X021994Y003309D01*
X021994Y003383D01*
X021543Y003383D01*
X021543Y003421D01*
X021994Y003421D01*
X021994Y003496D01*
X021922Y003669D01*
X021790Y003801D01*
X021617Y003872D01*
X021596Y003872D01*
X021647Y003923D01*
X022545Y004822D01*
X022495Y004701D01*
X022495Y004486D01*
X022577Y004287D01*
X022729Y004136D01*
X022831Y004093D01*
X022729Y004051D01*
X022577Y003899D01*
X022495Y003701D01*
X022495Y003486D01*
X022577Y003287D01*
X022729Y003136D01*
X022831Y003093D01*
X022729Y003051D01*
X022577Y002899D01*
X022495Y002701D01*
X022495Y002486D01*
X018043Y002486D01*
X018043Y002387D02*
X022536Y002387D01*
X022576Y002289D02*
X018043Y002289D01*
X018043Y002190D02*
X022674Y002190D01*
X022729Y002136D02*
X022831Y002093D01*
X022729Y002051D01*
X022577Y001899D01*
X022495Y001701D01*
X022495Y001486D01*
X022577Y001287D01*
X022729Y001136D01*
X022927Y001053D01*
X023142Y001053D01*
X023341Y001136D01*
X023493Y001287D01*
X023535Y001389D01*
X023577Y001287D01*
X023729Y001136D01*
X023927Y001053D01*
X024142Y001053D01*
X024341Y001136D01*
X024493Y001287D01*
X024546Y001416D01*
X024594Y001299D01*
X024740Y001153D01*
X024931Y001073D01*
X024985Y001073D01*
X024985Y001543D01*
X025085Y001543D01*
X025085Y001073D01*
X025138Y001073D01*
X025329Y001153D01*
X025476Y001299D01*
X025555Y001490D01*
X025555Y001543D01*
X025085Y001543D01*
X025085Y001643D01*
X025555Y001643D01*
X025555Y001697D01*
X025476Y001888D01*
X025329Y002034D01*
X025186Y002093D01*
X025329Y002153D01*
X025476Y002299D01*
X025555Y002490D01*
X025555Y002543D01*
X025085Y002543D01*
X025085Y002073D01*
X025085Y001644D01*
X024985Y001644D01*
X024985Y002073D01*
X024985Y002543D01*
X025085Y002543D01*
X025085Y002643D01*
X025555Y002643D01*
X025555Y002697D01*
X025476Y002888D01*
X025329Y003034D01*
X025186Y003093D01*
X025329Y003153D01*
X025476Y003299D01*
X025555Y003490D01*
X025555Y003543D01*
X025085Y003543D01*
X025085Y003113D01*
X025085Y002644D01*
X024985Y002644D01*
X024985Y003113D01*
X024985Y003543D01*
X025085Y003543D01*
X025085Y003643D01*
X025555Y003643D01*
X025555Y003697D01*
X025476Y003888D01*
X025329Y004034D01*
X025186Y004093D01*
X025329Y004153D01*
X025476Y004299D01*
X025555Y004490D01*
X025555Y004543D01*
X025085Y004543D01*
X025085Y004073D01*
X025085Y003644D01*
X024985Y003644D01*
X024985Y004073D01*
X024985Y004543D01*
X025085Y004543D01*
X025085Y004643D01*
X025555Y004643D01*
X025555Y004697D01*
X025476Y004888D01*
X025329Y005034D01*
X025186Y005093D01*
X025329Y005153D01*
X025476Y005299D01*
X025555Y005490D01*
X025555Y005543D01*
X025085Y005543D01*
X025085Y005073D01*
X025085Y004644D01*
X024985Y004644D01*
X024985Y005073D01*
X024985Y005543D01*
X025085Y005543D01*
X025085Y005643D01*
X025555Y005643D01*
X025555Y005697D01*
X025476Y005888D01*
X025329Y006034D01*
X025186Y006093D01*
X025329Y006153D01*
X025476Y006299D01*
X025555Y006490D01*
X025555Y006543D01*
X025085Y006543D01*
X025085Y006073D01*
X025085Y005644D01*
X024985Y005644D01*
X024985Y006073D01*
X024985Y006543D01*
X025085Y006543D01*
X025085Y006643D01*
X025555Y006643D01*
X025555Y006697D01*
X025476Y006888D01*
X025329Y007034D01*
X025186Y007093D01*
X025329Y007153D01*
X025476Y007299D01*
X025555Y007490D01*
X025555Y007543D01*
X025085Y007543D01*
X025085Y007073D01*
X025085Y006644D01*
X024985Y006644D01*
X024985Y007073D01*
X024985Y007543D01*
X025085Y007543D01*
X025085Y007643D01*
X025555Y007643D01*
X025555Y007697D01*
X025476Y007888D01*
X025329Y008034D01*
X025186Y008093D01*
X025329Y008153D01*
X025476Y008299D01*
X025555Y008490D01*
X025555Y008543D01*
X025085Y008543D01*
X025085Y008113D01*
X025085Y007644D01*
X024985Y007644D01*
X024985Y008113D01*
X024985Y008543D01*
X025085Y008543D01*
X025085Y008643D01*
X025555Y008643D01*
X025555Y008697D01*
X025476Y008888D01*
X025329Y009034D01*
X025138Y009113D01*
X025085Y009113D01*
X025085Y008644D01*
X024985Y008644D01*
X024985Y009113D01*
X024931Y009113D01*
X024740Y009034D01*
X024594Y008888D01*
X024546Y008771D01*
X024493Y008899D01*
X024341Y009051D01*
X024142Y009133D01*
X023927Y009133D01*
X023729Y009051D01*
X023577Y008899D01*
X023535Y008797D01*
X023493Y008899D01*
X023341Y009051D01*
X023142Y009133D01*
X022927Y009133D01*
X022729Y009051D01*
X022577Y008899D01*
X022495Y008701D01*
X022495Y008486D01*
X022577Y008287D01*
X022729Y008136D01*
X022831Y008093D01*
X022729Y008051D01*
X022577Y007899D01*
X022533Y007792D01*
X021912Y007792D01*
X021777Y007657D01*
X021541Y007421D01*
X021541Y007230D01*
X021541Y005531D01*
X020967Y004957D01*
X016906Y004957D01*
X015701Y006161D01*
X015829Y006214D01*
X015933Y006318D01*
X015989Y006453D01*
X015989Y006600D01*
X015933Y006735D01*
X015926Y006741D01*
X016243Y006741D01*
X016304Y006680D01*
X016304Y006544D01*
X016361Y006408D01*
X016464Y006305D01*
X016599Y006249D01*
X016746Y006249D01*
X016881Y006305D01*
X016985Y006408D01*
X017041Y006544D01*
X017041Y006690D01*
X016985Y006826D01*
X016881Y006929D01*
X016764Y006978D01*
X017424Y006978D01*
X017443Y006958D01*
X017503Y006958D01*
X017781Y006680D01*
X017781Y006583D01*
X017837Y006448D01*
X017940Y006344D01*
X018076Y006288D01*
X018222Y006288D01*
X018357Y006344D01*
X018461Y006448D01*
X018517Y006583D01*
X018517Y006730D01*
X018461Y006865D01*
X018357Y006968D01*
X018222Y007024D01*
X018086Y007024D01*
X017828Y007283D01*
X017693Y007418D01*
X017634Y007418D01*
X017614Y007438D01*
X015488Y007438D01*
X014543Y008382D01*
X014353Y008382D01*
X013114Y008382D01*
X013126Y008395D01*
X013261Y008530D01*
X013261Y008670D01*
X013293Y008702D01*
X013349Y008837D01*
X013349Y008867D01*
X014803Y008867D01*
X014693Y008757D01*
X014631Y008608D01*
X014631Y008445D01*
X014693Y008296D01*
X014808Y008181D01*
X014958Y008119D01*
X014972Y008119D01*
X014983Y008107D01*
X015105Y008057D01*
X015236Y008057D01*
X015475Y008057D01*
X015475Y007982D01*
X015575Y007882D01*
X016267Y007882D01*
X016366Y007982D01*
X016366Y008752D01*
X016267Y008852D01*
X016231Y008852D01*
X016231Y008920D01*
X016277Y008967D01*
X017345Y008967D01*
X017437Y008928D01*
X017584Y008928D01*
X017719Y008984D01*
X017823Y009088D01*
X017879Y009223D01*
X017879Y009370D01*
X017842Y009458D01*
X018132Y009458D01*
X018352Y009238D01*
X018352Y008484D01*
X018352Y008293D01*
X018470Y008175D01*
X018470Y007715D01*
X018388Y007633D01*
X018332Y007497D01*
X018332Y007351D01*
X018388Y007216D01*
X017895Y007216D01*
X017828Y007283D02*
X017828Y007283D01*
X017796Y007315D02*
X018347Y007315D01*
X018332Y007413D02*
X017698Y007413D01*
X017993Y007118D02*
X018486Y007118D01*
X018492Y007112D02*
X018627Y007056D01*
X018773Y007056D01*
X018909Y007112D01*
X019012Y007216D01*
X019268Y007216D01*
X019235Y007183D02*
X019235Y006413D01*
X019310Y006337D01*
X019310Y006185D01*
X019233Y006107D01*
X019233Y005336D01*
X019332Y005236D01*
X020024Y005236D01*
X020124Y005336D01*
X020124Y006107D01*
X020050Y006180D01*
X020050Y006337D01*
X020126Y006413D01*
X020126Y007183D01*
X020050Y007259D01*
X020050Y007400D01*
X020126Y007476D01*
X020126Y008246D01*
X020050Y008322D01*
X020050Y008463D01*
X020126Y008539D01*
X020126Y009309D01*
X020026Y009409D01*
X019917Y009409D01*
X019910Y009425D01*
X019893Y009480D01*
X019882Y009492D01*
X019876Y009508D01*
X019835Y009548D01*
X019833Y009551D01*
X025579Y009551D01*
X025579Y000636D01*
X017945Y000636D01*
X018023Y000714D01*
X018023Y001002D01*
X017609Y001002D01*
X017609Y001102D01*
X018023Y001102D01*
X018023Y001390D01*
X017936Y001478D01*
X017608Y001478D01*
X017608Y001102D01*
X017508Y001102D01*
X017508Y001002D01*
X017093Y001002D01*
X017093Y000714D01*
X017172Y000636D01*
X016823Y000636D01*
X016823Y000815D01*
X016329Y000815D01*
X016329Y000915D01*
X016823Y000915D01*
X016823Y001163D01*
X016735Y001251D01*
X016329Y001251D01*
X016329Y000915D01*
X016229Y000915D01*
X016229Y000815D01*
X015735Y000815D01*
X015735Y000636D01*
X013618Y000636D01*
X013618Y000878D01*
X013124Y000878D01*
X013124Y000636D01*
X013024Y000636D01*
X013024Y000878D01*
X012530Y000878D01*
X012530Y000636D01*
X000648Y000636D01*
X000648Y000712D02*
X004419Y000712D01*
X004261Y000811D02*
X000648Y000811D01*
X000648Y000909D02*
X004193Y000909D01*
X004159Y001008D02*
X000648Y001008D01*
X000648Y001106D02*
X000993Y001106D01*
X001127Y001106D02*
X001226Y001106D01*
X001226Y001205D02*
X001127Y001205D01*
X001127Y001303D02*
X001226Y001303D01*
X001226Y001402D02*
X001127Y001402D01*
X001127Y001501D02*
X001226Y001501D01*
X001126Y001599D02*
X000648Y001599D01*
X000648Y001501D02*
X000657Y001501D01*
X000648Y001402D02*
X000693Y001402D01*
X000734Y001303D02*
X000648Y001303D01*
X000648Y001205D02*
X000830Y001205D01*
X001360Y001106D02*
X001941Y001106D01*
X001801Y001205D02*
X001523Y001205D01*
X001619Y001303D02*
X001712Y001303D01*
X001671Y001402D02*
X001660Y001402D01*
X001226Y001644D02*
X001127Y001644D01*
X001127Y002073D01*
X001127Y002543D01*
X001226Y002543D01*
X001226Y002073D01*
X001226Y001644D01*
X001226Y001698D02*
X001127Y001698D01*
X001127Y001796D02*
X001226Y001796D01*
X001226Y001895D02*
X001127Y001895D01*
X001127Y001993D02*
X001226Y001993D01*
X001226Y002092D02*
X001127Y002092D01*
X001127Y002190D02*
X001226Y002190D01*
X001226Y002289D02*
X001127Y002289D01*
X001127Y002387D02*
X001226Y002387D01*
X001226Y002486D02*
X001127Y002486D01*
X001126Y002585D02*
X000648Y002585D01*
X000648Y002683D02*
X000657Y002683D01*
X000648Y002782D02*
X000692Y002782D01*
X000733Y002880D02*
X000648Y002880D01*
X000648Y002979D02*
X000826Y002979D01*
X000986Y003077D02*
X000648Y003077D01*
X000648Y003176D02*
X000859Y003176D01*
X000760Y003274D02*
X000648Y003274D01*
X000648Y003373D02*
X000705Y003373D01*
X000664Y003471D02*
X000648Y003471D01*
X000648Y003570D02*
X001126Y003570D01*
X001127Y003543D02*
X001226Y003543D01*
X001226Y003073D01*
X001226Y002644D01*
X001127Y002644D01*
X001127Y003073D01*
X001127Y003543D01*
X001127Y003471D02*
X001226Y003471D01*
X001226Y003373D02*
X001127Y003373D01*
X001127Y003274D02*
X001226Y003274D01*
X001226Y003176D02*
X001127Y003176D01*
X001127Y003077D02*
X001226Y003077D01*
X001226Y002979D02*
X001127Y002979D01*
X001127Y002880D02*
X001226Y002880D01*
X001226Y002782D02*
X001127Y002782D01*
X001127Y002683D02*
X001226Y002683D01*
X000658Y002486D02*
X000648Y002486D01*
X000648Y002387D02*
X000699Y002387D01*
X000746Y002289D02*
X000648Y002289D01*
X000648Y002190D02*
X000844Y002190D01*
X001021Y002092D02*
X000648Y002092D01*
X000648Y001993D02*
X000841Y001993D01*
X000743Y001895D02*
X000648Y001895D01*
X000648Y001796D02*
X000698Y001796D01*
X000657Y001698D02*
X000648Y001698D01*
X002412Y001106D02*
X002941Y001106D01*
X002801Y001205D02*
X002552Y001205D01*
X002641Y001303D02*
X002712Y001303D01*
X003412Y001106D02*
X004159Y001106D01*
X004186Y001205D02*
X003552Y001205D01*
X003641Y001303D02*
X004244Y001303D01*
X004181Y001402D02*
X004377Y001402D01*
X004281Y001501D02*
X004608Y001501D01*
X004707Y001599D02*
X004326Y001599D01*
X004344Y001698D02*
X004805Y001698D01*
X004904Y001796D02*
X004362Y001796D01*
X004461Y001895D02*
X004940Y001895D01*
X004940Y001993D02*
X004559Y001993D01*
X004658Y002092D02*
X004940Y002092D01*
X004900Y002190D02*
X004811Y002190D01*
X005440Y002092D02*
X006207Y002092D01*
X006109Y002190D02*
X005480Y002190D01*
X005577Y002289D02*
X006010Y002289D01*
X005912Y002387D02*
X005577Y002387D01*
X005577Y002486D02*
X005813Y002486D01*
X005598Y002585D02*
X005577Y002585D01*
X006565Y002497D02*
X006674Y002542D01*
X006777Y002645D01*
X006833Y002781D01*
X006833Y002927D01*
X006777Y003062D01*
X006674Y003166D01*
X006633Y003183D01*
X005702Y004114D01*
X005702Y004396D01*
X005803Y004497D01*
X005938Y004632D01*
X005938Y006286D01*
X006039Y006387D01*
X009865Y006387D01*
X009877Y006387D01*
X009274Y005784D01*
X006597Y005784D01*
X006462Y005649D01*
X006391Y005578D01*
X006275Y005578D01*
X006139Y005522D01*
X006036Y005418D01*
X005980Y005283D01*
X005980Y005136D01*
X006036Y005001D01*
X006139Y004897D01*
X006275Y004841D01*
X006421Y004841D01*
X006556Y004897D01*
X006660Y005001D01*
X006716Y005136D01*
X006716Y005252D01*
X006788Y005324D01*
X007586Y005324D01*
X007564Y005273D01*
X007564Y005126D01*
X007620Y004991D01*
X007724Y004888D01*
X007859Y004832D01*
X008006Y004832D01*
X008141Y004888D01*
X008223Y004970D01*
X009169Y004970D01*
X008421Y004223D01*
X008048Y004223D01*
X008048Y004322D01*
X008423Y004322D01*
X008423Y004650D01*
X008335Y004737D01*
X008047Y004737D01*
X008047Y004323D01*
X007947Y004323D01*
X007947Y004737D01*
X007660Y004737D01*
X007572Y004650D01*
X007572Y004322D01*
X007947Y004322D01*
X007947Y004223D01*
X007572Y004223D01*
X007572Y003895D01*
X007660Y003808D01*
X007947Y003808D01*
X007947Y004222D01*
X008047Y004222D01*
X008047Y003808D01*
X008313Y003808D01*
X008313Y003523D01*
X008113Y003323D01*
X007680Y003323D01*
X007545Y003189D01*
X007463Y003107D01*
X007431Y003107D01*
X007452Y003116D01*
X007556Y003219D01*
X007612Y003355D01*
X007612Y003501D01*
X007556Y003637D01*
X007473Y003719D01*
X007473Y003878D01*
X007341Y004010D01*
X007341Y004658D01*
X007241Y004757D01*
X006549Y004757D01*
X006449Y004658D01*
X006449Y003887D01*
X006549Y003788D01*
X006913Y003788D01*
X006998Y003703D01*
X006931Y003637D01*
X006875Y003501D01*
X006875Y003355D01*
X006931Y003219D01*
X007035Y003116D01*
X007170Y003060D01*
X007233Y003060D01*
X007212Y003051D01*
X007109Y002948D01*
X007053Y002812D01*
X007053Y002666D01*
X007109Y002531D01*
X007143Y002497D01*
X006565Y002497D01*
X006716Y002585D02*
X007086Y002585D01*
X007053Y002683D02*
X006793Y002683D01*
X006833Y002782D02*
X007053Y002782D01*
X007081Y002880D02*
X006833Y002880D01*
X006812Y002979D02*
X007140Y002979D01*
X007128Y003077D02*
X006762Y003077D01*
X006650Y003176D02*
X006975Y003176D01*
X006909Y003274D02*
X006541Y003274D01*
X006443Y003373D02*
X006875Y003373D01*
X006875Y003471D02*
X006344Y003471D01*
X006246Y003570D02*
X006904Y003570D01*
X006963Y003669D02*
X006147Y003669D01*
X006049Y003767D02*
X006934Y003767D01*
X006471Y003866D02*
X005950Y003866D01*
X005851Y003964D02*
X006449Y003964D01*
X006449Y004063D02*
X005753Y004063D01*
X005702Y004161D02*
X006449Y004161D01*
X006449Y004260D02*
X005702Y004260D01*
X005702Y004358D02*
X006449Y004358D01*
X006449Y004457D02*
X005763Y004457D01*
X005861Y004555D02*
X006449Y004555D01*
X006449Y004654D02*
X005938Y004654D01*
X005938Y004752D02*
X006544Y004752D01*
X006444Y004851D02*
X007812Y004851D01*
X007662Y004950D02*
X006608Y004950D01*
X006679Y005048D02*
X007597Y005048D01*
X007564Y005147D02*
X006716Y005147D01*
X006716Y005245D02*
X007564Y005245D01*
X008053Y004851D02*
X009050Y004851D01*
X009148Y004950D02*
X008203Y004950D01*
X008047Y004654D02*
X007947Y004654D01*
X007947Y004555D02*
X008047Y004555D01*
X008047Y004457D02*
X007947Y004457D01*
X007947Y004358D02*
X008047Y004358D01*
X008048Y004260D02*
X008459Y004260D01*
X008423Y004358D02*
X008557Y004358D01*
X008656Y004457D02*
X008423Y004457D01*
X008423Y004555D02*
X008754Y004555D01*
X008853Y004654D02*
X008419Y004654D01*
X008951Y004752D02*
X007246Y004752D01*
X007341Y004654D02*
X007576Y004654D01*
X007572Y004555D02*
X007341Y004555D01*
X007341Y004457D02*
X007572Y004457D01*
X007572Y004358D02*
X007341Y004358D01*
X007341Y004260D02*
X007947Y004260D01*
X007947Y004161D02*
X008047Y004161D01*
X008047Y004063D02*
X007947Y004063D01*
X007947Y003964D02*
X008047Y003964D01*
X008047Y003866D02*
X007947Y003866D01*
X007602Y003866D02*
X007473Y003866D01*
X007473Y003767D02*
X008313Y003767D01*
X008313Y003669D02*
X007524Y003669D01*
X007583Y003570D02*
X008313Y003570D01*
X008261Y003471D02*
X007612Y003471D01*
X007612Y003373D02*
X008162Y003373D01*
X007631Y003274D02*
X007578Y003274D01*
X007532Y003176D02*
X007512Y003176D01*
X008576Y002782D02*
X009924Y002782D01*
X009924Y002880D02*
X008674Y002880D01*
X008773Y002979D02*
X009924Y002979D01*
X009924Y003077D02*
X008871Y003077D01*
X008970Y003176D02*
X009924Y003176D01*
X009924Y003274D02*
X009009Y003274D01*
X009009Y003373D02*
X009924Y003373D01*
X009924Y003471D02*
X009009Y003471D01*
X009009Y003570D02*
X010222Y003570D01*
X010222Y003536D02*
X010222Y003633D01*
X009924Y003633D01*
X009924Y004553D01*
X010012Y004640D01*
X010222Y004640D01*
X010222Y003634D01*
X010319Y003634D01*
X010319Y004640D01*
X010530Y004640D01*
X010618Y004553D01*
X010618Y003633D01*
X010320Y003633D01*
X010320Y003536D01*
X010618Y003536D01*
X010618Y002617D01*
X010530Y002529D01*
X010319Y002529D01*
X010319Y003536D01*
X010222Y003536D01*
X010222Y002529D01*
X010012Y002529D01*
X009924Y002617D01*
X009924Y003536D01*
X010222Y003536D01*
X010222Y003471D02*
X010319Y003471D01*
X010319Y003373D02*
X010222Y003373D01*
X010222Y003274D02*
X010319Y003274D01*
X010319Y003176D02*
X010222Y003176D01*
X010222Y003077D02*
X010319Y003077D01*
X010319Y002979D02*
X010222Y002979D01*
X010222Y002880D02*
X010319Y002880D01*
X010319Y002782D02*
X010222Y002782D01*
X010222Y002683D02*
X010319Y002683D01*
X010319Y002585D02*
X010222Y002585D01*
X009957Y002585D02*
X008142Y002585D01*
X008044Y002486D02*
X010695Y002486D01*
X010695Y002387D02*
X007945Y002387D01*
X007847Y002289D02*
X008853Y002289D01*
X008841Y002277D02*
X008841Y000798D01*
X008941Y000698D01*
X009711Y000698D01*
X009811Y000798D01*
X009811Y002277D01*
X009711Y002377D01*
X008941Y002377D01*
X008841Y002277D01*
X008841Y002190D02*
X007748Y002190D01*
X007729Y002171D02*
X007729Y002171D01*
X007650Y002092D02*
X008841Y002092D01*
X008841Y001993D02*
X005440Y001993D01*
X005440Y001895D02*
X008841Y001895D01*
X008841Y001796D02*
X005440Y001796D01*
X005440Y001698D02*
X008841Y001698D01*
X008841Y001599D02*
X005407Y001599D01*
X005315Y001501D02*
X008841Y001501D01*
X008841Y001402D02*
X005217Y001402D01*
X005118Y001303D02*
X008841Y001303D01*
X008841Y001205D02*
X005020Y001205D01*
X004921Y001106D02*
X008841Y001106D01*
X008841Y001008D02*
X004895Y001008D01*
X004861Y000909D02*
X008841Y000909D01*
X008841Y000811D02*
X004792Y000811D01*
X004635Y000712D02*
X008927Y000712D01*
X009725Y000712D02*
X011604Y000712D01*
X011618Y000698D02*
X011518Y000798D01*
X011518Y002277D01*
X011618Y002377D01*
X012389Y002377D01*
X012488Y002277D01*
X012488Y000798D01*
X012389Y000698D01*
X011618Y000698D01*
X011518Y000811D02*
X009811Y000811D01*
X009811Y000909D02*
X011518Y000909D01*
X011518Y001008D02*
X009811Y001008D01*
X009811Y001106D02*
X011518Y001106D01*
X011518Y001205D02*
X009811Y001205D01*
X009811Y001303D02*
X011518Y001303D01*
X011518Y001402D02*
X009811Y001402D01*
X009811Y001501D02*
X010828Y001501D01*
X010834Y001494D02*
X010984Y001432D01*
X011146Y001432D01*
X011296Y001494D01*
X011410Y001609D01*
X011472Y001758D01*
X011472Y001921D01*
X011435Y002011D01*
X011435Y003671D01*
X011455Y003691D01*
X011531Y003767D01*
X011923Y003767D01*
X012059Y003823D01*
X012163Y003927D01*
X012888Y004652D01*
X012987Y004652D01*
X013087Y004751D01*
X013087Y005522D01*
X012987Y005622D01*
X012295Y005622D01*
X012196Y005522D01*
X012196Y005006D01*
X011964Y004774D01*
X011964Y005087D01*
X011589Y005087D01*
X011589Y005187D01*
X011489Y005187D01*
X011489Y005602D01*
X011201Y005602D01*
X011113Y005514D01*
X011113Y005187D01*
X011489Y005187D01*
X011489Y005087D01*
X011589Y005087D01*
X011589Y004672D01*
X011862Y004672D01*
X011696Y004507D01*
X011451Y004507D01*
X011425Y004507D01*
X011425Y004561D01*
X011326Y004660D01*
X010791Y004660D01*
X010691Y004561D01*
X010691Y002609D01*
X010695Y002605D01*
X010695Y002011D01*
X010658Y001921D01*
X010658Y001758D01*
X010720Y001609D01*
X010834Y001494D01*
X010729Y001599D02*
X009811Y001599D01*
X009811Y001698D02*
X010683Y001698D01*
X010658Y001796D02*
X009811Y001796D01*
X009811Y001895D02*
X010658Y001895D01*
X010688Y001993D02*
X009811Y001993D01*
X009811Y002092D02*
X010695Y002092D01*
X010695Y002190D02*
X009811Y002190D01*
X009799Y002289D02*
X010695Y002289D01*
X010695Y002585D02*
X010585Y002585D01*
X010618Y002683D02*
X010691Y002683D01*
X010691Y002782D02*
X010618Y002782D01*
X010618Y002880D02*
X010691Y002880D01*
X010691Y002979D02*
X010618Y002979D01*
X010618Y003077D02*
X010691Y003077D01*
X010691Y003176D02*
X010618Y003176D01*
X010618Y003274D02*
X010691Y003274D01*
X010691Y003373D02*
X010618Y003373D01*
X010618Y003471D02*
X010691Y003471D01*
X010691Y003570D02*
X010320Y003570D01*
X010319Y003669D02*
X010222Y003669D01*
X010222Y003767D02*
X010319Y003767D01*
X010319Y003866D02*
X010222Y003866D01*
X010222Y003964D02*
X010319Y003964D01*
X010319Y004063D02*
X010222Y004063D01*
X010222Y004161D02*
X010319Y004161D01*
X010319Y004260D02*
X010222Y004260D01*
X010222Y004358D02*
X010319Y004358D01*
X010319Y004457D02*
X010222Y004457D01*
X010222Y004555D02*
X010319Y004555D01*
X010615Y004555D02*
X010691Y004555D01*
X010691Y004457D02*
X010618Y004457D01*
X010618Y004358D02*
X010691Y004358D01*
X010691Y004260D02*
X010618Y004260D01*
X010618Y004161D02*
X010691Y004161D01*
X010691Y004063D02*
X010618Y004063D01*
X010618Y003964D02*
X010691Y003964D01*
X010691Y003866D02*
X010618Y003866D01*
X010618Y003767D02*
X010691Y003767D01*
X010691Y003669D02*
X010618Y003669D01*
X009924Y003669D02*
X009009Y003669D01*
X009009Y003767D02*
X009924Y003767D01*
X009924Y003866D02*
X009069Y003866D01*
X009168Y003964D02*
X009924Y003964D01*
X009924Y004063D02*
X009266Y004063D01*
X009365Y004161D02*
X009924Y004161D01*
X009924Y004260D02*
X009463Y004260D01*
X009562Y004358D02*
X009924Y004358D01*
X009924Y004457D02*
X009660Y004457D01*
X009759Y004555D02*
X009927Y004555D01*
X009858Y004654D02*
X010784Y004654D01*
X011113Y004760D02*
X011201Y004672D01*
X011489Y004672D01*
X011489Y005087D01*
X011113Y005087D01*
X011113Y004760D01*
X011120Y004752D02*
X009956Y004752D01*
X010055Y004851D02*
X011113Y004851D01*
X011113Y004950D02*
X010153Y004950D01*
X010252Y005048D02*
X011113Y005048D01*
X011489Y005048D02*
X011589Y005048D01*
X011589Y004950D02*
X011489Y004950D01*
X011489Y004851D02*
X011589Y004851D01*
X011589Y004752D02*
X011489Y004752D01*
X011332Y004654D02*
X011844Y004654D01*
X011745Y004555D02*
X011425Y004555D01*
X011964Y004851D02*
X012041Y004851D01*
X011964Y004950D02*
X012139Y004950D01*
X012196Y005048D02*
X011964Y005048D01*
X012196Y005147D02*
X011589Y005147D01*
X011589Y005187D02*
X011964Y005187D01*
X011964Y005514D01*
X011876Y005602D01*
X011589Y005602D01*
X011589Y005187D01*
X011589Y005245D02*
X011489Y005245D01*
X011489Y005147D02*
X010350Y005147D01*
X010449Y005245D02*
X011113Y005245D01*
X011113Y005344D02*
X010547Y005344D01*
X010646Y005442D02*
X011113Y005442D01*
X011140Y005541D02*
X010744Y005541D01*
X010843Y005639D02*
X014510Y005639D01*
X014609Y005541D02*
X013068Y005541D01*
X013087Y005442D02*
X014707Y005442D01*
X014806Y005344D02*
X013087Y005344D01*
X013087Y005245D02*
X014682Y005245D01*
X014598Y005147D02*
X013087Y005147D01*
X013087Y005048D02*
X014557Y005048D01*
X014553Y004950D02*
X013087Y004950D01*
X013087Y004851D02*
X014569Y004851D01*
X014591Y004752D02*
X013087Y004752D01*
X012989Y004654D02*
X014591Y004654D01*
X014591Y004555D02*
X012792Y004555D01*
X012693Y004457D02*
X014591Y004457D01*
X014618Y004358D02*
X013389Y004358D01*
X013488Y004260D02*
X014685Y004260D01*
X014784Y004161D02*
X013530Y004161D01*
X013546Y004063D02*
X014882Y004063D01*
X014981Y003964D02*
X013541Y003964D01*
X013501Y003866D02*
X013962Y003866D01*
X013787Y003767D02*
X013645Y003767D01*
X014258Y003866D02*
X014801Y003866D01*
X014878Y003866D02*
X014878Y003416D01*
X014916Y003416D01*
X014916Y003866D01*
X014993Y003866D02*
X015079Y003866D01*
X014916Y003767D02*
X014878Y003767D01*
X014878Y003669D02*
X014916Y003669D01*
X014916Y003570D02*
X014878Y003570D01*
X014878Y003471D02*
X014916Y003471D01*
X014603Y003767D02*
X014432Y003767D01*
X012967Y004358D02*
X012595Y004358D01*
X012496Y004260D02*
X012868Y004260D01*
X012826Y004161D02*
X012397Y004161D01*
X012299Y004063D02*
X012810Y004063D01*
X012768Y003964D02*
X012200Y003964D01*
X012102Y003866D02*
X012670Y003866D01*
X012297Y003767D02*
X011924Y003767D01*
X012160Y003669D02*
X011435Y003669D01*
X011455Y003691D02*
X011455Y003691D01*
X011435Y003570D02*
X012101Y003570D01*
X012072Y003471D02*
X011435Y003471D01*
X011435Y003373D02*
X012072Y003373D01*
X012106Y003274D02*
X011435Y003274D01*
X011435Y003176D02*
X012172Y003176D01*
X012325Y003077D02*
X011435Y003077D01*
X011435Y002979D02*
X013050Y002979D01*
X012949Y003077D02*
X012555Y003077D01*
X012709Y003176D02*
X012883Y003176D01*
X012842Y003274D02*
X012775Y003274D01*
X012827Y003373D02*
X012832Y003373D01*
X013600Y002981D02*
X013716Y003097D01*
X013832Y002981D01*
X013980Y002920D01*
X013971Y002911D01*
X013971Y002701D01*
X014289Y002701D01*
X014289Y002604D01*
X013971Y002604D01*
X013971Y002393D01*
X013978Y002387D01*
X013723Y002387D01*
X013977Y002387D01*
X013971Y002486D02*
X013766Y002486D01*
X013783Y002527D02*
X013727Y002391D01*
X013723Y002387D01*
X013783Y002527D02*
X013783Y002675D01*
X013727Y002811D01*
X013623Y002915D01*
X013531Y002953D01*
X013600Y002981D01*
X013594Y002979D02*
X013838Y002979D01*
X013736Y003077D02*
X013696Y003077D01*
X013657Y002880D02*
X013971Y002880D01*
X013971Y002782D02*
X013739Y002782D01*
X013780Y002683D02*
X014289Y002683D01*
X014289Y002701D02*
X014289Y002941D01*
X014386Y002981D01*
X014386Y002701D01*
X014289Y002701D01*
X014289Y002782D02*
X014386Y002782D01*
X014386Y002880D02*
X014289Y002880D01*
X014381Y002979D02*
X014386Y002979D01*
X013971Y002585D02*
X013783Y002585D01*
X013071Y002782D02*
X011435Y002782D01*
X011435Y002880D02*
X013169Y002880D01*
X012972Y002683D02*
X011435Y002683D01*
X011435Y002585D02*
X012601Y002585D01*
X012510Y002486D02*
X011435Y002486D01*
X011435Y002387D02*
X012510Y002387D01*
X012510Y002289D02*
X012477Y002289D01*
X012488Y002190D02*
X012510Y002190D01*
X012510Y002092D02*
X012488Y002092D01*
X012488Y001993D02*
X012510Y001993D01*
X012510Y001895D02*
X012488Y001895D01*
X012488Y001796D02*
X012596Y001796D01*
X012488Y001698D02*
X013893Y001698D01*
X013893Y001796D02*
X013553Y001796D01*
X013893Y001599D02*
X012488Y001599D01*
X012488Y001501D02*
X013873Y001501D01*
X013873Y001402D02*
X012488Y001402D01*
X012488Y001303D02*
X012608Y001303D01*
X012618Y001314D02*
X012530Y001226D01*
X012530Y000978D01*
X013024Y000978D01*
X013024Y000878D01*
X013124Y000878D01*
X013124Y000978D01*
X013024Y000978D01*
X013024Y001314D01*
X012618Y001314D01*
X013024Y001303D02*
X013124Y001303D01*
X013124Y001314D02*
X013124Y000978D01*
X013618Y000978D01*
X013618Y001226D01*
X013530Y001314D01*
X013124Y001314D01*
X013541Y001303D02*
X013873Y001303D01*
X013873Y001205D02*
X013618Y001205D01*
X013618Y001106D02*
X013937Y001106D01*
X013618Y001008D02*
X015735Y001008D01*
X015735Y000811D02*
X013618Y000811D01*
X013618Y000712D02*
X015735Y000712D01*
X016229Y000909D02*
X013124Y000909D01*
X013124Y000811D02*
X013024Y000811D01*
X013024Y000909D02*
X012488Y000909D01*
X012488Y000811D02*
X012530Y000811D01*
X012530Y000712D02*
X012402Y000712D01*
X012488Y001008D02*
X012530Y001008D01*
X012530Y001106D02*
X012488Y001106D01*
X012488Y001205D02*
X012530Y001205D01*
X013024Y001205D02*
X013124Y001205D01*
X013124Y001106D02*
X013024Y001106D01*
X013024Y001008D02*
X013124Y001008D01*
X013124Y000712D02*
X013024Y000712D01*
X011518Y001501D02*
X011302Y001501D01*
X011401Y001599D02*
X011518Y001599D01*
X011518Y001698D02*
X011447Y001698D01*
X011472Y001796D02*
X011518Y001796D01*
X011518Y001895D02*
X011472Y001895D01*
X011442Y001993D02*
X011518Y001993D01*
X011518Y002092D02*
X011435Y002092D01*
X011435Y002190D02*
X011518Y002190D01*
X011530Y002289D02*
X011435Y002289D01*
X009924Y002683D02*
X008477Y002683D01*
X007572Y003964D02*
X007387Y003964D01*
X007341Y004063D02*
X007572Y004063D01*
X007572Y004161D02*
X007341Y004161D01*
X006251Y004851D02*
X005938Y004851D01*
X005938Y004950D02*
X006087Y004950D01*
X006016Y005048D02*
X005938Y005048D01*
X005938Y005147D02*
X005980Y005147D01*
X005980Y005245D02*
X005938Y005245D01*
X005938Y005344D02*
X006005Y005344D01*
X006060Y005442D02*
X005938Y005442D01*
X005938Y005541D02*
X006186Y005541D01*
X005938Y005639D02*
X006452Y005639D01*
X006551Y005738D02*
X005938Y005738D01*
X005938Y005836D02*
X009327Y005836D01*
X009425Y005935D02*
X005938Y005935D01*
X005938Y006034D02*
X009524Y006034D01*
X009622Y006132D02*
X005938Y006132D01*
X005938Y006231D02*
X009721Y006231D01*
X009819Y006329D02*
X005982Y006329D01*
X006812Y007556D02*
X006886Y007586D01*
X006990Y007690D01*
X007046Y007825D01*
X007046Y007972D01*
X006990Y008107D01*
X006886Y008210D01*
X006751Y008266D01*
X006604Y008266D01*
X006469Y008210D01*
X006365Y008107D01*
X006309Y007972D01*
X006309Y007825D01*
X006323Y007793D01*
X006321Y007792D01*
X005322Y007792D01*
X005239Y007826D01*
X005092Y007826D01*
X004957Y007770D01*
X004896Y007709D01*
X004896Y008269D01*
X004932Y008182D01*
X005035Y008079D01*
X005171Y008023D01*
X005317Y008023D01*
X005452Y008079D01*
X005556Y008182D01*
X005612Y008318D01*
X005612Y008464D01*
X005556Y008599D01*
X005454Y008701D01*
X005468Y008707D01*
X005571Y008811D01*
X005627Y008946D01*
X005627Y009092D01*
X005598Y009163D01*
X007574Y009163D01*
X007536Y009125D01*
X007500Y009140D01*
X007338Y009140D01*
X007195Y009081D01*
X007136Y009140D01*
X006520Y009140D01*
X006420Y009040D01*
X006420Y008424D01*
X006520Y008324D01*
X007136Y008324D01*
X007195Y008383D01*
X007338Y008324D01*
X007500Y008324D01*
X007650Y008386D01*
X007728Y008465D01*
X007790Y008403D01*
X007932Y008344D01*
X007990Y008344D01*
X007990Y008713D01*
X008028Y008713D01*
X008028Y008344D01*
X008086Y008344D01*
X008229Y008403D01*
X008290Y008465D01*
X008369Y008386D01*
X008519Y008324D01*
X008681Y008324D01*
X008831Y008386D01*
X008895Y008451D01*
X008959Y008386D01*
X009109Y008324D01*
X009271Y008324D01*
X009421Y008386D01*
X009536Y008501D01*
X009598Y008651D01*
X009598Y008813D01*
X009559Y008907D01*
X010350Y008907D01*
X010341Y008897D01*
X010284Y008762D01*
X010284Y008615D01*
X010341Y008480D01*
X010438Y008382D01*
X010101Y008382D01*
X009966Y008248D01*
X009274Y007556D01*
X006812Y007556D01*
X006910Y007610D02*
X009329Y007610D01*
X009427Y007709D02*
X006997Y007709D01*
X007038Y007807D02*
X009526Y007807D01*
X009624Y007906D02*
X007046Y007906D01*
X007032Y008004D02*
X009723Y008004D01*
X009821Y008103D02*
X006991Y008103D01*
X006895Y008201D02*
X009920Y008201D01*
X010019Y008300D02*
X005605Y008300D01*
X005612Y008399D02*
X006446Y008399D01*
X006420Y008497D02*
X005598Y008497D01*
X005557Y008596D02*
X006420Y008596D01*
X006420Y008694D02*
X005461Y008694D01*
X005553Y008793D02*
X006420Y008793D01*
X006420Y008891D02*
X005605Y008891D01*
X005627Y008990D02*
X006420Y008990D01*
X006468Y009088D02*
X005627Y009088D01*
X007188Y009088D02*
X007213Y009088D01*
X007990Y008694D02*
X008028Y008694D01*
X008028Y008596D02*
X007990Y008596D01*
X007990Y008497D02*
X008028Y008497D01*
X008028Y008399D02*
X007990Y008399D01*
X007801Y008399D02*
X007662Y008399D01*
X008217Y008399D02*
X008357Y008399D01*
X008843Y008399D02*
X008947Y008399D01*
X009433Y008399D02*
X010422Y008399D01*
X010333Y008497D02*
X009532Y008497D01*
X009575Y008596D02*
X010293Y008596D01*
X010284Y008694D02*
X009598Y008694D01*
X009598Y008793D02*
X010297Y008793D01*
X010338Y008891D02*
X009566Y008891D01*
X006460Y008201D02*
X005564Y008201D01*
X005476Y008103D02*
X006364Y008103D01*
X006323Y008004D02*
X004896Y008004D01*
X004896Y007906D02*
X006309Y007906D01*
X006317Y007807D02*
X005285Y007807D01*
X005046Y007807D02*
X004896Y007807D01*
X004896Y008103D02*
X005011Y008103D01*
X004924Y008201D02*
X004896Y008201D01*
X001809Y008990D02*
X001515Y008990D01*
X001614Y008891D02*
X001715Y008891D01*
X001675Y008793D02*
X001657Y008793D01*
X001764Y009088D02*
X001340Y009088D01*
X001226Y009088D02*
X001127Y009088D01*
X001127Y008990D02*
X001226Y008990D01*
X001226Y008891D02*
X001127Y008891D01*
X001127Y008793D02*
X001226Y008793D01*
X001226Y008694D02*
X001127Y008694D01*
X001126Y008596D02*
X000648Y008596D01*
X000648Y008694D02*
X000657Y008694D01*
X000648Y008793D02*
X000696Y008793D01*
X000739Y008891D02*
X000648Y008891D01*
X000648Y008990D02*
X000838Y008990D01*
X001013Y009088D02*
X000648Y009088D01*
X000648Y009187D02*
X000652Y009187D01*
X000944Y009187D02*
X001041Y009187D01*
X001041Y009285D02*
X000944Y009285D01*
X000944Y009384D02*
X001041Y009384D01*
X001127Y008543D02*
X001226Y008543D01*
X001226Y008073D01*
X001226Y007644D01*
X001127Y007644D01*
X001127Y008073D01*
X001127Y008543D01*
X001127Y008497D02*
X001226Y008497D01*
X001226Y008399D02*
X001127Y008399D01*
X001127Y008300D02*
X001226Y008300D01*
X001226Y008201D02*
X001127Y008201D01*
X001127Y008103D02*
X001226Y008103D01*
X001226Y008004D02*
X001127Y008004D01*
X001127Y007906D02*
X001226Y007906D01*
X001226Y007807D02*
X001127Y007807D01*
X001127Y007709D02*
X001226Y007709D01*
X001126Y007610D02*
X000648Y007610D01*
X000648Y007512D02*
X000657Y007512D01*
X000648Y007413D02*
X000688Y007413D01*
X000648Y007315D02*
X000729Y007315D01*
X000648Y007216D02*
X000818Y007216D01*
X000967Y007118D02*
X000648Y007118D01*
X000648Y007019D02*
X000867Y007019D01*
X000768Y006920D02*
X000648Y006920D01*
X000648Y006822D02*
X000708Y006822D01*
X000668Y006723D02*
X000648Y006723D01*
X000648Y006625D02*
X001126Y006625D01*
X001127Y006644D02*
X001127Y007073D01*
X001127Y007543D01*
X001226Y007543D01*
X001226Y007073D01*
X001226Y006644D01*
X001127Y006644D01*
X001127Y006723D02*
X001226Y006723D01*
X001226Y006822D02*
X001127Y006822D01*
X001127Y006920D02*
X001226Y006920D01*
X001226Y007019D02*
X001127Y007019D01*
X001127Y007118D02*
X001226Y007118D01*
X001226Y007216D02*
X001127Y007216D01*
X001127Y007315D02*
X001226Y007315D01*
X001226Y007413D02*
X001127Y007413D01*
X001127Y007512D02*
X001226Y007512D01*
X000661Y007709D02*
X000648Y007709D01*
X000648Y007807D02*
X000702Y007807D01*
X000754Y007906D02*
X000648Y007906D01*
X000648Y008004D02*
X000852Y008004D01*
X001002Y008103D02*
X000648Y008103D01*
X000648Y008201D02*
X000833Y008201D01*
X000735Y008300D02*
X000648Y008300D01*
X000648Y008399D02*
X000694Y008399D01*
X000657Y008497D02*
X000648Y008497D01*
X000648Y006526D02*
X000657Y006526D01*
X000648Y006428D02*
X000682Y006428D01*
X000648Y006329D02*
X000723Y006329D01*
X000648Y006231D02*
X000804Y006231D01*
X000931Y006132D02*
X000648Y006132D01*
X000648Y006034D02*
X000881Y006034D01*
X000783Y005935D02*
X000648Y005935D01*
X000648Y005836D02*
X000714Y005836D01*
X000674Y005738D02*
X000648Y005738D01*
X000648Y005639D02*
X001126Y005639D01*
X001127Y005644D02*
X001127Y006113D01*
X001127Y006543D01*
X001226Y006543D01*
X001226Y006073D01*
X001226Y005644D01*
X001127Y005644D01*
X001127Y005738D02*
X001226Y005738D01*
X001226Y005836D02*
X001127Y005836D01*
X001127Y005935D02*
X001226Y005935D01*
X001226Y006034D02*
X001127Y006034D01*
X001127Y006132D02*
X001226Y006132D01*
X001226Y006231D02*
X001127Y006231D01*
X001127Y006329D02*
X001226Y006329D01*
X001226Y006428D02*
X001127Y006428D01*
X001127Y006526D02*
X001226Y006526D01*
X001226Y005543D02*
X001226Y005113D01*
X001226Y004644D01*
X001127Y004644D01*
X001127Y005113D01*
X001127Y005543D01*
X001226Y005543D01*
X001226Y005541D02*
X001127Y005541D01*
X001127Y005442D02*
X001226Y005442D01*
X001226Y005344D02*
X001127Y005344D01*
X001127Y005245D02*
X001226Y005245D01*
X001226Y005147D02*
X001127Y005147D01*
X001127Y005048D02*
X001226Y005048D01*
X001226Y004950D02*
X001127Y004950D01*
X001127Y004851D02*
X001226Y004851D01*
X001226Y004752D02*
X001127Y004752D01*
X001127Y004654D02*
X001226Y004654D01*
X001126Y004555D02*
X000648Y004555D01*
X000648Y004457D02*
X000670Y004457D01*
X000648Y004358D02*
X000711Y004358D01*
X000648Y004260D02*
X000775Y004260D01*
X000873Y004161D02*
X000648Y004161D01*
X000648Y004063D02*
X000951Y004063D01*
X000812Y003964D02*
X000648Y003964D01*
X000648Y003866D02*
X000726Y003866D01*
X000686Y003767D02*
X000648Y003767D01*
X000648Y003669D02*
X000657Y003669D01*
X001127Y003669D02*
X001226Y003669D01*
X001226Y003644D02*
X001127Y003644D01*
X001127Y004073D01*
X001127Y004543D01*
X001226Y004543D01*
X001226Y004073D01*
X001226Y003644D01*
X001226Y003767D02*
X001127Y003767D01*
X001127Y003866D02*
X001226Y003866D01*
X001226Y003964D02*
X001127Y003964D01*
X001127Y004063D02*
X001226Y004063D01*
X001226Y004161D02*
X001127Y004161D01*
X001127Y004260D02*
X001226Y004260D01*
X001226Y004358D02*
X001127Y004358D01*
X001127Y004457D02*
X001226Y004457D01*
X000657Y004654D02*
X000648Y004654D01*
X000648Y004752D02*
X000680Y004752D01*
X000648Y004851D02*
X000720Y004851D01*
X000648Y004950D02*
X000797Y004950D01*
X000916Y005048D02*
X000648Y005048D01*
X000648Y005147D02*
X000896Y005147D01*
X000789Y005245D02*
X000648Y005245D01*
X000648Y005344D02*
X000717Y005344D01*
X000676Y005442D02*
X000648Y005442D01*
X000648Y005541D02*
X000657Y005541D01*
X010942Y005738D02*
X014411Y005738D01*
X014313Y005836D02*
X011040Y005836D01*
X011139Y005935D02*
X014214Y005935D01*
X014116Y006034D02*
X011237Y006034D01*
X011336Y006132D02*
X014017Y006132D01*
X015731Y006132D02*
X019258Y006132D01*
X019233Y006034D02*
X015829Y006034D01*
X015928Y005935D02*
X019233Y005935D01*
X019233Y005836D02*
X016026Y005836D01*
X016125Y005738D02*
X019233Y005738D01*
X019233Y005639D02*
X016223Y005639D01*
X016322Y005541D02*
X019233Y005541D01*
X019233Y005442D02*
X016421Y005442D01*
X016519Y005344D02*
X019233Y005344D01*
X019323Y005245D02*
X016618Y005245D01*
X016716Y005147D02*
X021157Y005147D01*
X021255Y005245D02*
X020033Y005245D01*
X020124Y005344D02*
X020355Y005344D01*
X020443Y005256D01*
X020731Y005256D01*
X020731Y005671D01*
X020830Y005671D01*
X020830Y005256D01*
X021118Y005256D01*
X021206Y005344D01*
X021206Y005671D01*
X020831Y005671D01*
X020831Y005771D01*
X021206Y005771D01*
X021206Y006098D01*
X021118Y006186D01*
X020830Y006186D01*
X020830Y005771D01*
X020731Y005771D01*
X020731Y006186D01*
X020443Y006186D01*
X020355Y006098D01*
X020355Y005771D01*
X020730Y005771D01*
X020730Y005671D01*
X020355Y005671D01*
X020355Y005344D01*
X020355Y005442D02*
X020124Y005442D01*
X020124Y005541D02*
X020355Y005541D01*
X020355Y005639D02*
X020124Y005639D01*
X020124Y005738D02*
X020730Y005738D01*
X020731Y005836D02*
X020830Y005836D01*
X020831Y005738D02*
X021541Y005738D01*
X021541Y005836D02*
X021206Y005836D01*
X021206Y005935D02*
X021541Y005935D01*
X021541Y006034D02*
X021206Y006034D01*
X021172Y006132D02*
X021541Y006132D01*
X021541Y006231D02*
X020050Y006231D01*
X020050Y006329D02*
X021541Y006329D01*
X021541Y006428D02*
X021208Y006428D01*
X021208Y006421D02*
X021208Y006748D01*
X020833Y006748D01*
X020833Y006848D01*
X021208Y006848D01*
X021208Y007175D01*
X021121Y007263D01*
X020833Y007263D01*
X020833Y006848D01*
X020733Y006848D01*
X020733Y007263D01*
X020445Y007263D01*
X020357Y007175D01*
X020357Y006848D01*
X020733Y006848D01*
X020733Y006748D01*
X020833Y006748D01*
X020833Y006333D01*
X021121Y006333D01*
X021208Y006421D01*
X021208Y006526D02*
X021541Y006526D01*
X021541Y006625D02*
X021208Y006625D01*
X021208Y006723D02*
X021541Y006723D01*
X021541Y006822D02*
X020833Y006822D01*
X020833Y006920D02*
X020733Y006920D01*
X020733Y006822D02*
X020126Y006822D01*
X020126Y006920D02*
X020357Y006920D01*
X020357Y007019D02*
X020126Y007019D01*
X020126Y007118D02*
X020357Y007118D01*
X020398Y007216D02*
X020093Y007216D01*
X020050Y007315D02*
X021541Y007315D01*
X021541Y007413D02*
X021138Y007413D01*
X021121Y007396D02*
X021208Y007484D01*
X021208Y007811D01*
X020833Y007811D01*
X020833Y007911D01*
X021208Y007911D01*
X021208Y008238D01*
X021121Y008326D01*
X020833Y008326D01*
X020833Y007911D01*
X020733Y007911D01*
X020733Y008326D01*
X020445Y008326D01*
X020357Y008238D01*
X020357Y007911D01*
X020733Y007911D01*
X020733Y007811D01*
X020833Y007811D01*
X020833Y007396D01*
X021121Y007396D01*
X021208Y007512D02*
X021632Y007512D01*
X021730Y007610D02*
X021208Y007610D01*
X021208Y007709D02*
X021829Y007709D01*
X021208Y007807D02*
X022539Y007807D01*
X022584Y007906D02*
X020833Y007906D01*
X020833Y008004D02*
X020733Y008004D01*
X020733Y007906D02*
X020126Y007906D01*
X020126Y008004D02*
X020357Y008004D01*
X020357Y008103D02*
X020126Y008103D01*
X020126Y008201D02*
X020357Y008201D01*
X020419Y008300D02*
X020072Y008300D01*
X020050Y008399D02*
X022531Y008399D01*
X022495Y008497D02*
X021159Y008497D01*
X021121Y008459D02*
X020833Y008459D01*
X020833Y008874D01*
X020833Y008974D01*
X021208Y008974D01*
X021208Y009301D01*
X021121Y009389D01*
X020833Y009389D01*
X020833Y008974D01*
X020733Y008974D01*
X020733Y009389D01*
X020445Y009389D01*
X020357Y009301D01*
X020357Y008974D01*
X020733Y008974D01*
X020733Y008874D01*
X020833Y008874D01*
X021208Y008874D01*
X021208Y008547D01*
X021121Y008459D01*
X021147Y008300D02*
X022572Y008300D01*
X022663Y008201D02*
X021208Y008201D01*
X021208Y008103D02*
X022808Y008103D01*
X022682Y008004D02*
X021208Y008004D01*
X020833Y008103D02*
X020733Y008103D01*
X020733Y008201D02*
X020833Y008201D01*
X020833Y008300D02*
X020733Y008300D01*
X020733Y008459D02*
X020445Y008459D01*
X020357Y008547D01*
X020357Y008874D01*
X020733Y008874D01*
X020733Y008459D01*
X020733Y008497D02*
X020833Y008497D01*
X020833Y008596D02*
X020733Y008596D01*
X020733Y008694D02*
X020833Y008694D01*
X020833Y008793D02*
X020733Y008793D01*
X020733Y008891D02*
X020126Y008891D01*
X020126Y008793D02*
X020357Y008793D01*
X020357Y008694D02*
X020126Y008694D01*
X020126Y008596D02*
X020357Y008596D01*
X020407Y008497D02*
X020084Y008497D01*
X019310Y008463D02*
X019310Y008322D01*
X019235Y008246D01*
X019235Y007476D01*
X019310Y007400D01*
X019310Y007259D01*
X019235Y007183D01*
X019235Y007118D02*
X018914Y007118D01*
X019012Y007216D02*
X019068Y007351D01*
X019068Y007497D01*
X019012Y007633D01*
X018930Y007715D01*
X018930Y008366D01*
X018812Y008484D01*
X018812Y009429D01*
X018690Y009551D01*
X019049Y009551D01*
X019039Y009525D01*
X019039Y009378D01*
X019095Y009242D01*
X019235Y009102D01*
X019235Y008539D01*
X019310Y008463D01*
X019276Y008497D02*
X018812Y008497D01*
X018812Y008596D02*
X019235Y008596D01*
X019235Y008694D02*
X018812Y008694D01*
X018812Y008793D02*
X019235Y008793D01*
X019235Y008891D02*
X018812Y008891D01*
X018812Y008990D02*
X019235Y008990D01*
X019235Y009088D02*
X018812Y009088D01*
X018812Y009187D02*
X019150Y009187D01*
X019077Y009285D02*
X018812Y009285D01*
X018812Y009384D02*
X019039Y009384D01*
X019039Y009483D02*
X018758Y009483D01*
X018305Y009285D02*
X017879Y009285D01*
X017873Y009384D02*
X018206Y009384D01*
X018352Y009187D02*
X017864Y009187D01*
X017823Y009088D02*
X018352Y009088D01*
X018352Y008990D02*
X017725Y008990D01*
X017449Y008744D02*
X017361Y008832D01*
X017073Y008832D01*
X017073Y008417D01*
X016973Y008417D01*
X016973Y008832D01*
X016685Y008832D01*
X016597Y008744D01*
X016597Y008417D01*
X016973Y008417D01*
X016973Y008317D01*
X017073Y008317D01*
X017073Y008417D01*
X017449Y008417D01*
X017449Y008744D01*
X017449Y008694D02*
X018352Y008694D01*
X018352Y008596D02*
X017449Y008596D01*
X017449Y008497D02*
X018352Y008497D01*
X018352Y008399D02*
X017073Y008399D01*
X017073Y008317D02*
X017449Y008317D01*
X017449Y007990D01*
X017361Y007902D01*
X017073Y007902D01*
X017073Y008317D01*
X017073Y008300D02*
X016973Y008300D01*
X016973Y008317D02*
X016973Y007902D01*
X016685Y007902D01*
X016597Y007990D01*
X016597Y008317D01*
X016973Y008317D01*
X016973Y008399D02*
X016366Y008399D01*
X016366Y008497D02*
X016597Y008497D01*
X016597Y008596D02*
X016366Y008596D01*
X016366Y008694D02*
X016597Y008694D01*
X016646Y008793D02*
X016326Y008793D01*
X016231Y008891D02*
X018352Y008891D01*
X018352Y008793D02*
X017400Y008793D01*
X017073Y008793D02*
X016973Y008793D01*
X016973Y008694D02*
X017073Y008694D01*
X017073Y008596D02*
X016973Y008596D01*
X016973Y008497D02*
X017073Y008497D01*
X017449Y008300D02*
X018352Y008300D01*
X018444Y008201D02*
X017449Y008201D01*
X017449Y008103D02*
X018470Y008103D01*
X018470Y008004D02*
X017449Y008004D01*
X017365Y007906D02*
X018470Y007906D01*
X018470Y007807D02*
X015119Y007807D01*
X015217Y007709D02*
X018464Y007709D01*
X018379Y007610D02*
X015316Y007610D01*
X015414Y007512D02*
X018338Y007512D01*
X018936Y007709D02*
X019235Y007709D01*
X019235Y007807D02*
X018930Y007807D01*
X018930Y007906D02*
X019235Y007906D01*
X019235Y008004D02*
X018930Y008004D01*
X018930Y008103D02*
X019235Y008103D01*
X019235Y008201D02*
X018930Y008201D01*
X018930Y008300D02*
X019288Y008300D01*
X019310Y008399D02*
X018897Y008399D01*
X020126Y008990D02*
X020357Y008990D01*
X020357Y009088D02*
X020126Y009088D01*
X020126Y009187D02*
X020357Y009187D01*
X020357Y009285D02*
X020126Y009285D01*
X020051Y009384D02*
X020440Y009384D01*
X020733Y009384D02*
X020833Y009384D01*
X020833Y009285D02*
X020733Y009285D01*
X020733Y009187D02*
X020833Y009187D01*
X020833Y009088D02*
X020733Y009088D01*
X020733Y008990D02*
X020833Y008990D01*
X020833Y008891D02*
X022574Y008891D01*
X022533Y008793D02*
X021208Y008793D01*
X021208Y008694D02*
X022495Y008694D01*
X022495Y008596D02*
X021208Y008596D01*
X021208Y008990D02*
X022668Y008990D01*
X022819Y009088D02*
X021208Y009088D01*
X021208Y009187D02*
X025579Y009187D01*
X025579Y009285D02*
X021208Y009285D01*
X021126Y009384D02*
X025579Y009384D01*
X025579Y009483D02*
X019891Y009483D01*
X017073Y008201D02*
X016973Y008201D01*
X016973Y008103D02*
X017073Y008103D01*
X017073Y008004D02*
X016973Y008004D01*
X016973Y007906D02*
X017073Y007906D01*
X016681Y007906D02*
X016290Y007906D01*
X016366Y008004D02*
X016597Y008004D01*
X016597Y008103D02*
X016366Y008103D01*
X016366Y008201D02*
X016597Y008201D01*
X016597Y008300D02*
X016366Y008300D01*
X015475Y008004D02*
X014921Y008004D01*
X014994Y008103D02*
X014823Y008103D01*
X014787Y008201D02*
X014724Y008201D01*
X014691Y008300D02*
X014626Y008300D01*
X014651Y008399D02*
X013130Y008399D01*
X013228Y008497D02*
X014631Y008497D01*
X014631Y008596D02*
X013261Y008596D01*
X013285Y008694D02*
X014667Y008694D01*
X014729Y008793D02*
X013331Y008793D01*
X015020Y007906D02*
X015551Y007906D01*
X016890Y006920D02*
X017540Y006920D01*
X017639Y006822D02*
X016986Y006822D01*
X017027Y006723D02*
X017737Y006723D01*
X017781Y006625D02*
X017041Y006625D01*
X017033Y006526D02*
X017804Y006526D01*
X017857Y006428D02*
X016993Y006428D01*
X016905Y006329D02*
X017977Y006329D01*
X018321Y006329D02*
X019310Y006329D01*
X019310Y006231D02*
X015845Y006231D01*
X015937Y006329D02*
X016440Y006329D01*
X016353Y006428D02*
X015978Y006428D01*
X015989Y006526D02*
X016312Y006526D01*
X016304Y006625D02*
X015978Y006625D01*
X015938Y006723D02*
X016261Y006723D01*
X018235Y007019D02*
X019235Y007019D01*
X019235Y006920D02*
X018405Y006920D01*
X018479Y006822D02*
X019235Y006822D01*
X019235Y006723D02*
X018517Y006723D01*
X018517Y006625D02*
X019235Y006625D01*
X019235Y006526D02*
X018493Y006526D01*
X018441Y006428D02*
X019235Y006428D01*
X020098Y006132D02*
X020389Y006132D01*
X020355Y006034D02*
X020124Y006034D01*
X020124Y005935D02*
X020355Y005935D01*
X020355Y005836D02*
X020124Y005836D01*
X020731Y005935D02*
X020830Y005935D01*
X020830Y006034D02*
X020731Y006034D01*
X020731Y006132D02*
X020830Y006132D01*
X020733Y006333D02*
X020445Y006333D01*
X020357Y006421D01*
X020357Y006748D01*
X020733Y006748D01*
X020733Y006333D01*
X020733Y006428D02*
X020833Y006428D01*
X020833Y006526D02*
X020733Y006526D01*
X020733Y006625D02*
X020833Y006625D01*
X020833Y006723D02*
X020733Y006723D01*
X020357Y006723D02*
X020126Y006723D01*
X020126Y006625D02*
X020357Y006625D01*
X020357Y006526D02*
X020126Y006526D01*
X020126Y006428D02*
X020357Y006428D01*
X021208Y006920D02*
X021541Y006920D01*
X021541Y007019D02*
X021208Y007019D01*
X021208Y007118D02*
X021541Y007118D01*
X021541Y007216D02*
X021168Y007216D01*
X020833Y007216D02*
X020733Y007216D01*
X020733Y007118D02*
X020833Y007118D01*
X020833Y007019D02*
X020733Y007019D01*
X020733Y007396D02*
X020445Y007396D01*
X020357Y007484D01*
X020357Y007811D01*
X020733Y007811D01*
X020733Y007396D01*
X020733Y007413D02*
X020833Y007413D01*
X020833Y007512D02*
X020733Y007512D01*
X020733Y007610D02*
X020833Y007610D01*
X020833Y007709D02*
X020733Y007709D01*
X020733Y007807D02*
X020833Y007807D01*
X020357Y007807D02*
X020126Y007807D01*
X020126Y007709D02*
X020357Y007709D01*
X020357Y007610D02*
X020126Y007610D01*
X020126Y007512D02*
X020357Y007512D01*
X020428Y007413D02*
X020063Y007413D01*
X019310Y007315D02*
X019053Y007315D01*
X019068Y007413D02*
X019297Y007413D01*
X019235Y007512D02*
X019062Y007512D01*
X019021Y007610D02*
X019235Y007610D01*
X018492Y007112D02*
X018388Y007216D01*
X020731Y005639D02*
X020830Y005639D01*
X020830Y005541D02*
X020731Y005541D01*
X020731Y005442D02*
X020830Y005442D01*
X020830Y005344D02*
X020731Y005344D01*
X021206Y005344D02*
X021354Y005344D01*
X021452Y005442D02*
X021206Y005442D01*
X021206Y005541D02*
X021541Y005541D01*
X021541Y005639D02*
X021206Y005639D01*
X021058Y005048D02*
X016815Y005048D01*
X018502Y003767D02*
X019621Y003767D01*
X019529Y003669D02*
X018601Y003669D01*
X018643Y003570D02*
X019488Y003570D01*
X019459Y003471D02*
X018674Y003471D01*
X018674Y003373D02*
X019459Y003373D01*
X019472Y003274D02*
X018661Y003274D01*
X018620Y003176D02*
X019513Y003176D01*
X019581Y003077D02*
X018546Y003077D01*
X018414Y002979D02*
X019692Y002979D01*
X020207Y002979D02*
X020479Y002979D01*
X020369Y003077D02*
X020317Y003077D01*
X020994Y002979D02*
X021319Y002979D01*
X021184Y003077D02*
X021104Y003077D01*
X021505Y003077D02*
X021543Y003077D01*
X021543Y002979D02*
X021505Y002979D01*
X021729Y002979D02*
X022656Y002979D01*
X022569Y002880D02*
X017763Y002880D01*
X017715Y002929D02*
X017715Y002929D01*
X017679Y002979D02*
X017994Y002979D01*
X017863Y003077D02*
X017786Y003077D01*
X018185Y003077D02*
X018223Y003077D01*
X018223Y002979D02*
X018185Y002979D01*
X018185Y003176D02*
X018223Y003176D01*
X018223Y003274D02*
X018185Y003274D01*
X018185Y003373D02*
X018223Y003373D01*
X017862Y002782D02*
X022528Y002782D01*
X022495Y002683D02*
X017909Y002683D01*
X017959Y002585D02*
X022495Y002585D01*
X022495Y002486D02*
X022577Y002287D01*
X022729Y002136D01*
X022827Y002092D02*
X018046Y002092D01*
X018043Y001993D02*
X022671Y001993D01*
X022575Y001895D02*
X018043Y001895D01*
X018031Y001796D02*
X022534Y001796D01*
X022495Y001698D02*
X016037Y001698D01*
X016037Y001599D02*
X022495Y001599D01*
X022495Y001501D02*
X016037Y001501D01*
X016037Y001402D02*
X017106Y001402D01*
X017093Y001390D02*
X017093Y001102D01*
X017508Y001102D01*
X017508Y001478D01*
X017181Y001478D01*
X017093Y001390D01*
X017093Y001303D02*
X016013Y001303D01*
X016229Y001205D02*
X016329Y001205D01*
X016329Y001106D02*
X016229Y001106D01*
X016229Y001008D02*
X016329Y001008D01*
X016329Y000909D02*
X017093Y000909D01*
X017093Y000811D02*
X016823Y000811D01*
X016823Y000712D02*
X017096Y000712D01*
X016823Y001008D02*
X017508Y001008D01*
X017508Y001106D02*
X017608Y001106D01*
X017609Y001008D02*
X025579Y001008D01*
X025579Y001106D02*
X025218Y001106D01*
X025085Y001106D02*
X024985Y001106D01*
X024985Y001205D02*
X025085Y001205D01*
X025085Y001303D02*
X024985Y001303D01*
X024985Y001402D02*
X025085Y001402D01*
X025085Y001501D02*
X024985Y001501D01*
X025085Y001599D02*
X025579Y001599D01*
X025579Y001501D02*
X025555Y001501D01*
X025579Y001402D02*
X025518Y001402D01*
X025477Y001303D02*
X025579Y001303D01*
X025579Y001205D02*
X025382Y001205D01*
X024852Y001106D02*
X024270Y001106D01*
X024410Y001205D02*
X024688Y001205D01*
X024592Y001303D02*
X024499Y001303D01*
X024540Y001402D02*
X024551Y001402D01*
X024985Y001698D02*
X025085Y001698D01*
X025085Y001796D02*
X024985Y001796D01*
X024985Y001895D02*
X025085Y001895D01*
X025085Y001993D02*
X024985Y001993D01*
X024985Y002092D02*
X025085Y002092D01*
X025085Y002190D02*
X024985Y002190D01*
X024985Y002289D02*
X025085Y002289D01*
X025085Y002387D02*
X024985Y002387D01*
X024985Y002486D02*
X025085Y002486D01*
X025085Y002585D02*
X025579Y002585D01*
X025579Y002683D02*
X025555Y002683D01*
X025579Y002782D02*
X025520Y002782D01*
X025479Y002880D02*
X025579Y002880D01*
X025579Y002979D02*
X025385Y002979D01*
X025225Y003077D02*
X025579Y003077D01*
X025579Y003176D02*
X025353Y003176D01*
X025451Y003274D02*
X025579Y003274D01*
X025579Y003373D02*
X025506Y003373D01*
X025547Y003471D02*
X025579Y003471D01*
X025579Y003570D02*
X025085Y003570D01*
X025085Y003669D02*
X024985Y003669D01*
X024985Y003767D02*
X025085Y003767D01*
X025085Y003866D02*
X024985Y003866D01*
X024985Y003964D02*
X025085Y003964D01*
X025085Y004063D02*
X024985Y004063D01*
X024985Y004161D02*
X025085Y004161D01*
X025085Y004260D02*
X024985Y004260D01*
X024985Y004358D02*
X025085Y004358D01*
X025085Y004457D02*
X024985Y004457D01*
X025085Y004555D02*
X025579Y004555D01*
X025579Y004457D02*
X025541Y004457D01*
X025579Y004358D02*
X025500Y004358D01*
X025437Y004260D02*
X025579Y004260D01*
X025579Y004161D02*
X025338Y004161D01*
X025261Y004063D02*
X025579Y004063D01*
X025579Y003964D02*
X025399Y003964D01*
X025485Y003866D02*
X025579Y003866D01*
X025579Y003767D02*
X025526Y003767D01*
X025555Y003669D02*
X025579Y003669D01*
X025085Y003471D02*
X024985Y003471D01*
X024985Y003373D02*
X025085Y003373D01*
X025085Y003274D02*
X024985Y003274D01*
X024985Y003176D02*
X025085Y003176D01*
X025085Y003077D02*
X024985Y003077D01*
X024985Y002979D02*
X025085Y002979D01*
X025085Y002880D02*
X024985Y002880D01*
X024985Y002782D02*
X025085Y002782D01*
X025085Y002683D02*
X024985Y002683D01*
X024985Y002643D02*
X024985Y002543D01*
X024575Y002543D01*
X024575Y002643D01*
X024985Y002643D01*
X024985Y002585D02*
X024575Y002585D01*
X025466Y002289D02*
X025579Y002289D01*
X025579Y002387D02*
X025512Y002387D01*
X025553Y002486D02*
X025579Y002486D01*
X025579Y002190D02*
X025367Y002190D01*
X025190Y002092D02*
X025579Y002092D01*
X025579Y001993D02*
X025370Y001993D01*
X025469Y001895D02*
X025579Y001895D01*
X025579Y001796D02*
X025514Y001796D01*
X025554Y001698D02*
X025579Y001698D01*
X023799Y001106D02*
X023270Y001106D01*
X023410Y001205D02*
X023660Y001205D01*
X023570Y001303D02*
X023499Y001303D01*
X022799Y001106D02*
X018023Y001106D01*
X018023Y001205D02*
X022660Y001205D01*
X022570Y001303D02*
X018023Y001303D01*
X018011Y001402D02*
X022530Y001402D01*
X025579Y000909D02*
X018023Y000909D01*
X018023Y000811D02*
X025579Y000811D01*
X025579Y000712D02*
X018021Y000712D01*
X017093Y001106D02*
X016823Y001106D01*
X016781Y001205D02*
X017093Y001205D01*
X017508Y001205D02*
X017608Y001205D01*
X017608Y001303D02*
X017508Y001303D01*
X017508Y001402D02*
X017608Y001402D01*
X017086Y001796D02*
X016821Y001796D01*
X014961Y001106D02*
X014899Y001106D01*
X021505Y003176D02*
X021543Y003176D01*
X021543Y003274D02*
X021505Y003274D01*
X021505Y003373D02*
X021543Y003373D01*
X021939Y003176D02*
X022689Y003176D01*
X022590Y003274D02*
X021980Y003274D01*
X021994Y003373D02*
X022542Y003373D01*
X022501Y003471D02*
X021994Y003471D01*
X021963Y003570D02*
X022495Y003570D01*
X022495Y003669D02*
X021923Y003669D01*
X021824Y003767D02*
X022522Y003767D01*
X022563Y003866D02*
X021634Y003866D01*
X021647Y003923D02*
X021647Y003923D01*
X021687Y003964D02*
X022642Y003964D01*
X022757Y004063D02*
X021786Y004063D01*
X021885Y004161D02*
X022703Y004161D01*
X022605Y004260D02*
X021983Y004260D01*
X022082Y004358D02*
X022548Y004358D01*
X022507Y004457D02*
X022180Y004457D01*
X022279Y004555D02*
X022495Y004555D01*
X022495Y004654D02*
X022377Y004654D01*
X022476Y004752D02*
X022516Y004752D01*
X024985Y004752D02*
X025085Y004752D01*
X025085Y004654D02*
X024985Y004654D01*
X024985Y004851D02*
X025085Y004851D01*
X025085Y004950D02*
X024985Y004950D01*
X024985Y005048D02*
X025085Y005048D01*
X025085Y005147D02*
X024985Y005147D01*
X024985Y005245D02*
X025085Y005245D01*
X025085Y005344D02*
X024985Y005344D01*
X024985Y005442D02*
X025085Y005442D01*
X025085Y005541D02*
X024985Y005541D01*
X025085Y005639D02*
X025579Y005639D01*
X025579Y005541D02*
X025555Y005541D01*
X025535Y005442D02*
X025579Y005442D01*
X025579Y005344D02*
X025494Y005344D01*
X025422Y005245D02*
X025579Y005245D01*
X025579Y005147D02*
X025315Y005147D01*
X025296Y005048D02*
X025579Y005048D01*
X025579Y004950D02*
X025414Y004950D01*
X025491Y004851D02*
X025579Y004851D01*
X025579Y004752D02*
X025532Y004752D01*
X025555Y004654D02*
X025579Y004654D01*
X025538Y005738D02*
X025579Y005738D01*
X025579Y005836D02*
X025497Y005836D01*
X025429Y005935D02*
X025579Y005935D01*
X025579Y006034D02*
X025330Y006034D01*
X025280Y006132D02*
X025579Y006132D01*
X025579Y006231D02*
X025407Y006231D01*
X025488Y006329D02*
X025579Y006329D01*
X025579Y006428D02*
X025529Y006428D01*
X025555Y006526D02*
X025579Y006526D01*
X025579Y006625D02*
X025085Y006625D01*
X025085Y006723D02*
X024985Y006723D01*
X024985Y006822D02*
X025085Y006822D01*
X025085Y006920D02*
X024985Y006920D01*
X024985Y007019D02*
X025085Y007019D01*
X025085Y007118D02*
X024985Y007118D01*
X024985Y007216D02*
X025085Y007216D01*
X025085Y007315D02*
X024985Y007315D01*
X024985Y007413D02*
X025085Y007413D01*
X025085Y007512D02*
X024985Y007512D01*
X025085Y007610D02*
X025579Y007610D01*
X025579Y007512D02*
X025555Y007512D01*
X025579Y007413D02*
X025523Y007413D01*
X025482Y007315D02*
X025579Y007315D01*
X025579Y007216D02*
X025393Y007216D01*
X025245Y007118D02*
X025579Y007118D01*
X025579Y007019D02*
X025345Y007019D01*
X025443Y006920D02*
X025579Y006920D01*
X025579Y006822D02*
X025503Y006822D01*
X025544Y006723D02*
X025579Y006723D01*
X025085Y006526D02*
X024985Y006526D01*
X024985Y006428D02*
X025085Y006428D01*
X025085Y006329D02*
X024985Y006329D01*
X024985Y006231D02*
X025085Y006231D01*
X025085Y006132D02*
X024985Y006132D01*
X024985Y006034D02*
X025085Y006034D01*
X025085Y005935D02*
X024985Y005935D01*
X024985Y005836D02*
X025085Y005836D01*
X025085Y005738D02*
X024985Y005738D01*
X024985Y007709D02*
X025085Y007709D01*
X025085Y007807D02*
X024985Y007807D01*
X024985Y007906D02*
X025085Y007906D01*
X025085Y008004D02*
X024985Y008004D01*
X024985Y008103D02*
X025085Y008103D01*
X025085Y008201D02*
X024985Y008201D01*
X024985Y008300D02*
X025085Y008300D01*
X025085Y008399D02*
X024985Y008399D01*
X024985Y008497D02*
X025085Y008497D01*
X025085Y008596D02*
X025579Y008596D01*
X025579Y008694D02*
X025555Y008694D01*
X025579Y008793D02*
X025515Y008793D01*
X025472Y008891D02*
X025579Y008891D01*
X025579Y008990D02*
X025374Y008990D01*
X025199Y009088D02*
X025579Y009088D01*
X025085Y009088D02*
X024985Y009088D01*
X024985Y008990D02*
X025085Y008990D01*
X025085Y008891D02*
X024985Y008891D01*
X024985Y008793D02*
X025085Y008793D01*
X025085Y008694D02*
X024985Y008694D01*
X024597Y008891D02*
X024496Y008891D01*
X024537Y008793D02*
X024555Y008793D01*
X024696Y008990D02*
X024402Y008990D01*
X024251Y009088D02*
X024871Y009088D01*
X023819Y009088D02*
X023251Y009088D01*
X023402Y008990D02*
X023668Y008990D01*
X023574Y008891D02*
X023496Y008891D01*
X025209Y008103D02*
X025579Y008103D01*
X025579Y008201D02*
X025378Y008201D01*
X025476Y008300D02*
X025579Y008300D01*
X025579Y008399D02*
X025517Y008399D01*
X025555Y008497D02*
X025579Y008497D01*
X025579Y008004D02*
X025359Y008004D01*
X025458Y007906D02*
X025579Y007906D01*
X025579Y007807D02*
X025509Y007807D01*
X025550Y007709D02*
X025579Y007709D01*
X022792Y003077D02*
X021864Y003077D01*
X012196Y005245D02*
X011964Y005245D01*
X011964Y005344D02*
X012196Y005344D01*
X012196Y005442D02*
X011964Y005442D01*
X011937Y005541D02*
X012214Y005541D01*
X011589Y005541D02*
X011489Y005541D01*
X011489Y005442D02*
X011589Y005442D01*
X011589Y005344D02*
X011489Y005344D01*
X003770Y001402D02*
X003682Y001402D01*
D28*
X011065Y001840D03*
X015610Y003034D03*
X015039Y008526D03*
M02*
