G75*
G70*
%OFA0B0*%
%FSLAX24Y24*%
%IPPOS*%
%LPD*%
%AMOC8*
5,1,8,0,0,1.08239X$1,22.5*
%
%ADD10C,0.0000*%
%ADD11R,0.0550X0.0137*%
%ADD12R,0.0476X0.0476*%
%ADD13C,0.0476*%
%ADD14R,0.0748X0.0433*%
%ADD15R,0.0394X0.0433*%
%ADD16R,0.0260X0.0800*%
%ADD17C,0.0740*%
%ADD18R,0.0433X0.0394*%
%ADD19R,0.0250X0.0500*%
%ADD20C,0.0640*%
%ADD21R,0.0394X0.1811*%
%ADD22R,0.0630X0.1339*%
%ADD23C,0.0396*%
%ADD24C,0.0160*%
%ADD25C,0.0240*%
%ADD26C,0.0120*%
%ADD27C,0.0320*%
%ADD28C,0.0475*%
%ADD29C,0.0660*%
%ADD30C,0.0400*%
%ADD31C,0.0100*%
D10*
X000198Y000186D02*
X000198Y010001D01*
X026029Y010001D01*
X026029Y000186D01*
X000198Y000186D01*
D11*
X009906Y005178D03*
X009906Y005434D03*
X009906Y005690D03*
X009906Y005946D03*
X009906Y006202D03*
X009906Y006458D03*
X009906Y006713D03*
X009906Y006969D03*
X009906Y007225D03*
X009906Y007481D03*
X009906Y007737D03*
X009906Y007993D03*
X009906Y008249D03*
X009906Y008505D03*
X012785Y008505D03*
X012785Y008249D03*
X012785Y007993D03*
X012785Y007737D03*
X012785Y007481D03*
X012785Y007225D03*
X012785Y006969D03*
X012785Y006713D03*
X012785Y006458D03*
X012785Y006202D03*
X012785Y005946D03*
X012785Y005690D03*
X012785Y005434D03*
X012785Y005178D03*
D12*
X006828Y008732D03*
D13*
X007419Y008732D03*
X008009Y008732D03*
X008600Y008732D03*
X009190Y008732D03*
D14*
X007901Y007316D03*
X006444Y007316D03*
X006444Y006410D03*
X007901Y006410D03*
D15*
X008679Y006770D03*
X008679Y007440D03*
X006149Y008367D03*
X006149Y009036D03*
X014294Y006041D03*
X014294Y005371D03*
X009308Y005025D03*
X008523Y005087D03*
X008523Y005757D03*
X009308Y004356D03*
D16*
X007927Y004499D03*
X007427Y004499D03*
X006927Y004499D03*
X006427Y004499D03*
X005927Y004499D03*
X005427Y004499D03*
X004927Y004499D03*
X004427Y004499D03*
X004427Y001889D03*
X004927Y001889D03*
X005427Y001889D03*
X005927Y001889D03*
X006427Y001889D03*
X006927Y001889D03*
X007427Y001889D03*
X007927Y001889D03*
X015682Y005729D03*
X016182Y005729D03*
X016682Y005729D03*
X017182Y005729D03*
X017682Y005729D03*
X018182Y005729D03*
X018682Y005729D03*
X019182Y005729D03*
X019182Y008339D03*
X018682Y008339D03*
X018182Y008339D03*
X017682Y008339D03*
X017182Y008339D03*
X016682Y008339D03*
X016182Y008339D03*
X015682Y008339D03*
D17*
X023035Y008593D03*
X024035Y008593D03*
X025035Y008593D03*
X025035Y007593D03*
X024035Y007593D03*
X023035Y007593D03*
X023035Y006593D03*
X024035Y006593D03*
X025035Y006593D03*
X025035Y005593D03*
X024035Y005593D03*
X023035Y005593D03*
X023035Y004593D03*
X024035Y004593D03*
X025035Y004593D03*
X025035Y003593D03*
X024035Y003593D03*
X023035Y003593D03*
X023035Y002593D03*
X024035Y002593D03*
X025035Y002593D03*
X025035Y001593D03*
X024035Y001593D03*
X023035Y001593D03*
X003177Y001593D03*
X002177Y001593D03*
X001177Y001593D03*
X001177Y002593D03*
X002177Y002593D03*
X003177Y002593D03*
X003177Y003593D03*
X002177Y003593D03*
X001177Y003593D03*
X001177Y004593D03*
X002177Y004593D03*
X003177Y004593D03*
X003177Y005593D03*
X002177Y005593D03*
X001177Y005593D03*
X001177Y006593D03*
X002177Y006593D03*
X003177Y006593D03*
X003177Y007593D03*
X002177Y007593D03*
X001177Y007593D03*
X001177Y008593D03*
X002177Y008593D03*
X003177Y008593D03*
D18*
X011635Y004436D03*
X012304Y004436D03*
D19*
X004761Y007278D03*
X004411Y007278D03*
X004061Y007278D03*
X004057Y008597D03*
X004407Y008597D03*
X004757Y008597D03*
D20*
X013322Y003397D03*
X014110Y003397D03*
X014897Y003397D03*
X016629Y003400D03*
X017417Y003400D03*
X018204Y003400D03*
X019949Y003402D03*
X020737Y003402D03*
X021524Y003402D03*
D21*
X011061Y003583D03*
X010274Y003583D03*
D22*
X009329Y001536D03*
X012006Y001536D03*
D23*
X013413Y002601D03*
X012440Y003428D03*
X013178Y004049D03*
X014293Y004873D03*
X014921Y004963D03*
X015621Y006527D03*
X016673Y006617D03*
X018149Y006656D03*
X018750Y006765D03*
X018700Y007424D03*
X022254Y006614D03*
X017511Y009297D03*
X019409Y009452D03*
X014310Y008507D03*
X012981Y008910D03*
X011732Y008743D03*
X010653Y008688D03*
X009178Y007689D03*
X010602Y007319D03*
X012114Y007532D03*
X010964Y005613D03*
X007932Y005200D03*
X006348Y005210D03*
X004566Y005317D03*
X007952Y003466D03*
X007243Y003428D03*
X006465Y002854D03*
X005846Y002857D03*
X007421Y002739D03*
X008405Y002385D03*
X004527Y001066D03*
X003976Y001715D03*
X005166Y007458D03*
X006677Y007898D03*
X005244Y008391D03*
X005259Y009019D03*
X013583Y009528D03*
D24*
X004067Y008588D02*
X004063Y008593D01*
X004059Y008597D01*
X004057Y008597D01*
X004061Y007278D02*
X004047Y007265D01*
X004047Y007258D01*
X004586Y005337D02*
X004409Y005160D01*
X004409Y004300D01*
X004427Y004499D01*
X004427Y004119D01*
X004429Y004117D01*
X004921Y004276D02*
X004927Y004499D01*
X005393Y004471D02*
X005393Y004314D01*
X005395Y004314D01*
X005427Y004499D01*
X005432Y004511D02*
X005393Y004471D01*
X005432Y004511D02*
X005432Y004609D01*
X005927Y004499D02*
X005927Y004312D01*
X005925Y004314D01*
X006427Y004499D02*
X006427Y004658D01*
X006417Y004668D01*
X006427Y004678D01*
X006427Y005150D01*
X006927Y004499D02*
X006927Y004292D01*
X006929Y004294D01*
X007421Y004294D02*
X007440Y004314D01*
X007421Y004294D02*
X007427Y004288D01*
X007427Y004499D01*
X007913Y004511D02*
X007927Y004524D01*
X007927Y005194D01*
X007913Y004511D02*
X007925Y004499D01*
X007927Y004499D01*
X009308Y004356D02*
X009724Y003941D01*
X009724Y002601D01*
X009960Y002365D01*
X011377Y002365D01*
X011614Y002601D01*
X011614Y003900D01*
X011732Y004019D01*
X012204Y004019D01*
X012322Y004137D01*
X012322Y004418D01*
X012304Y004436D01*
X011043Y004403D02*
X011023Y003664D01*
X011042Y003664D01*
X011061Y003583D01*
X007952Y003466D02*
X007952Y001863D01*
X007927Y001889D01*
X007952Y001863D02*
X007952Y001774D01*
X004527Y001066D02*
X004527Y000593D01*
X004566Y005317D02*
X004586Y005337D01*
D25*
X003177Y007593D02*
X003177Y007652D01*
X003169Y007660D01*
X003169Y007601D02*
X003177Y007593D01*
X002204Y008605D02*
X002188Y008605D01*
X002177Y008593D01*
X018682Y008339D02*
X018682Y007385D01*
X018700Y007367D01*
X018700Y007424D01*
X018700Y007367D02*
X018701Y007367D01*
X007927Y001889D02*
X007932Y001678D01*
D26*
X007427Y001889D02*
X007427Y002753D01*
X007421Y002759D01*
X007421Y002739D01*
X006889Y003074D02*
X006889Y001893D01*
X006923Y001893D01*
X006927Y001889D01*
X006927Y001753D01*
X006948Y001774D01*
X006909Y001814D01*
X006427Y001889D02*
X006427Y001647D01*
X006427Y002657D01*
X006505Y002736D01*
X006465Y002854D01*
X006527Y002758D02*
X006505Y002736D01*
X005927Y002737D02*
X005846Y002857D01*
X005927Y002737D02*
X005927Y001889D01*
X005472Y001934D02*
X005427Y001889D01*
X005427Y001721D01*
X005413Y001735D01*
X005432Y001755D01*
X005472Y001934D02*
X005472Y002365D01*
X005236Y002601D01*
X004054Y002601D01*
X003818Y002837D01*
X003818Y004952D01*
X003177Y005593D01*
X004054Y005715D02*
X004054Y003546D01*
X004291Y003310D01*
X006653Y003310D01*
X006889Y003074D01*
X007243Y003428D02*
X007163Y003508D01*
X007163Y003541D01*
X004808Y003541D01*
X004427Y003922D01*
X004427Y004119D01*
X004921Y003979D02*
X004921Y004276D01*
X005423Y004461D02*
X005423Y004495D01*
X005423Y005130D01*
X004047Y006506D01*
X004047Y007258D01*
X003511Y007258D01*
X003177Y007593D01*
X004063Y007908D02*
X004173Y007798D01*
X005354Y007798D01*
X005590Y007562D01*
X005590Y006026D01*
X006062Y005554D01*
X006653Y005554D01*
X006889Y005318D01*
X006889Y004609D01*
X006889Y004536D01*
X006927Y004499D01*
X006999Y004499D01*
X006889Y004609D01*
X006999Y004499D02*
X007007Y004491D01*
X007362Y004564D02*
X007427Y004499D01*
X007362Y004564D02*
X007362Y005200D01*
X006771Y005790D01*
X006180Y005790D01*
X005826Y006145D01*
X005826Y007680D01*
X005472Y008034D01*
X004409Y008034D01*
X004407Y008036D01*
X004407Y008597D01*
X004063Y008593D02*
X004063Y007908D01*
X004757Y008597D02*
X004966Y008389D01*
X005241Y008389D01*
X005244Y008391D01*
X005708Y008855D01*
X005708Y009334D01*
X005944Y009570D01*
X012322Y009570D01*
X013031Y008861D01*
X013030Y008861D01*
X012981Y008910D01*
X012558Y008979D02*
X012558Y008625D01*
X012682Y008501D01*
X012781Y008501D01*
X012785Y008505D01*
X012793Y008505D01*
X012795Y008507D01*
X012342Y008251D02*
X012204Y008389D01*
X012204Y008979D01*
X012086Y009097D01*
X009556Y009097D01*
X009190Y008732D01*
X009604Y008505D02*
X009400Y008301D01*
X007213Y008301D01*
X006828Y008686D01*
X006828Y008732D01*
X006817Y008743D01*
X006771Y008743D01*
X006771Y008625D01*
X006535Y008389D01*
X006171Y008389D01*
X006149Y008367D01*
X006771Y008625D02*
X006818Y008672D01*
X006828Y008732D01*
X006828Y008564D01*
X007419Y008732D02*
X007430Y008743D01*
X007480Y008743D01*
X007480Y008861D01*
X007125Y009215D01*
X006328Y009215D01*
X006149Y009036D01*
X007419Y008732D02*
X007480Y008733D01*
X007480Y008743D01*
X008600Y008732D02*
X009201Y009334D01*
X012204Y009334D01*
X012558Y008979D01*
X011732Y008743D02*
X011732Y006902D01*
X012173Y006461D01*
X012753Y006461D01*
X012763Y006451D01*
X012770Y006458D01*
X012785Y006458D01*
X013899Y006458D01*
X014330Y006026D01*
X014316Y006041D01*
X014294Y006041D01*
X014280Y006026D01*
X013858Y005554D02*
X013466Y005946D01*
X012785Y005946D01*
X012785Y005690D02*
X013367Y005690D01*
X013621Y005436D01*
X013621Y004491D01*
X013858Y004255D01*
X015984Y004255D01*
X016574Y003664D01*
X016574Y003428D01*
X016629Y003373D01*
X016629Y003400D01*
X016629Y003373D02*
X016692Y003310D01*
X015629Y003546D02*
X015629Y003054D01*
X015610Y003034D01*
X015629Y003546D02*
X015157Y004019D01*
X013208Y004019D01*
X013178Y004049D01*
X012795Y004255D02*
X013323Y004783D01*
X013323Y005381D01*
X013322Y005381D01*
X013322Y005381D01*
X013267Y005436D01*
X012795Y005436D01*
X012793Y005434D01*
X012785Y005434D01*
X012785Y005178D02*
X012689Y005082D01*
X011850Y005082D01*
X011614Y004845D01*
X011614Y004414D01*
X011635Y004436D01*
X011614Y004414D02*
X011614Y004373D01*
X011732Y004019D02*
X011850Y004019D01*
X012440Y003428D01*
X012795Y003782D02*
X013180Y003397D01*
X013322Y003397D01*
X012795Y003782D02*
X012795Y004255D01*
X013858Y004609D02*
X013976Y004491D01*
X016338Y004491D01*
X016929Y003900D01*
X019763Y003900D01*
X019999Y003664D01*
X019999Y003428D01*
X019974Y003402D01*
X019949Y003402D01*
X021535Y004137D02*
X022125Y003546D01*
X022125Y001774D01*
X022362Y001538D01*
X023070Y001538D01*
X023035Y001574D01*
X023035Y001593D01*
X022991Y002562D02*
X023031Y002601D01*
X023035Y002597D01*
X023035Y002593D01*
X023062Y002593D01*
X023070Y002601D01*
X022480Y002601D01*
X022362Y002719D01*
X022362Y003664D01*
X021653Y004373D01*
X018936Y004373D01*
X018682Y004627D01*
X018682Y005729D01*
X018188Y005735D02*
X018188Y006656D01*
X018149Y006656D01*
X018700Y006735D02*
X019173Y006263D01*
X019173Y005790D01*
X019182Y005780D01*
X019182Y005729D01*
X019192Y005719D01*
X018188Y005735D02*
X018182Y005729D01*
X017682Y005729D02*
X017677Y005735D01*
X017677Y005869D01*
X017677Y007247D01*
X017519Y007404D01*
X015314Y007404D01*
X015238Y007481D01*
X012785Y007481D01*
X012785Y007737D02*
X015336Y007737D01*
X015432Y007641D01*
X018090Y007641D01*
X018188Y007739D01*
X018188Y008251D01*
X018182Y008257D01*
X018182Y008339D01*
X018218Y008339D01*
X018188Y008310D01*
X018218Y008339D02*
X018228Y008349D01*
X017682Y008339D02*
X017682Y008867D01*
X017792Y008977D01*
X019411Y008977D01*
X019645Y008743D01*
X019645Y006617D01*
X019881Y006381D01*
X019881Y004963D01*
X019999Y004845D01*
X022716Y004845D01*
X022968Y004593D01*
X023035Y004593D01*
X023035Y004574D01*
X023031Y004570D01*
X023035Y004593D02*
X023007Y004593D01*
X022991Y004609D01*
X022834Y003546D02*
X021771Y004609D01*
X019881Y004609D01*
X019606Y004885D01*
X019606Y006302D01*
X019182Y006725D01*
X019182Y008339D01*
X017204Y008369D02*
X017184Y008389D01*
X017184Y009019D01*
X017165Y009019D01*
X016656Y009528D01*
X013583Y009528D01*
X014448Y009215D02*
X016456Y009215D01*
X016692Y008979D01*
X016673Y008960D01*
X016673Y008389D01*
X016692Y008369D01*
X016682Y008359D01*
X016682Y008339D01*
X016702Y008339D01*
X016732Y008310D01*
X016692Y008271D01*
X017182Y008339D02*
X017182Y008347D01*
X017204Y008369D01*
X016182Y008339D02*
X016182Y008899D01*
X016102Y008979D01*
X014566Y008979D01*
X014310Y008723D01*
X014310Y008507D01*
X013858Y008625D02*
X014448Y009215D01*
X013858Y008625D02*
X013858Y008152D01*
X013698Y007993D01*
X012785Y007993D01*
X012785Y008249D02*
X012783Y008251D01*
X012342Y008251D01*
X012114Y007532D02*
X012114Y007472D01*
X012086Y007444D01*
X012304Y007225D01*
X012785Y007225D01*
X012785Y006713D02*
X015135Y006713D01*
X015393Y006971D01*
X015866Y006971D01*
X016102Y006735D01*
X016102Y005908D01*
X016220Y005790D01*
X016182Y005753D01*
X016182Y005729D01*
X016182Y005769D01*
X016141Y005810D01*
X016141Y005771D02*
X016141Y006105D01*
X016141Y005771D02*
X016182Y005729D01*
X015682Y005729D02*
X015682Y006465D01*
X015621Y006527D01*
X016673Y006617D02*
X016673Y005739D01*
X016682Y005729D01*
X017182Y005729D02*
X017182Y004473D01*
X017519Y004137D01*
X021535Y004137D01*
X022834Y003546D02*
X022952Y003546D01*
X022999Y003593D01*
X023035Y003593D01*
X023035Y003589D01*
X023039Y003593D01*
X023035Y003593D01*
X023039Y003593D02*
X023070Y003625D01*
X017677Y005869D02*
X017677Y006105D01*
X018700Y006735D02*
X018730Y006765D01*
X018750Y006765D01*
X022243Y006617D02*
X022362Y006735D01*
X022362Y008034D01*
X022916Y008588D01*
X023054Y008588D01*
X023049Y008593D01*
X023035Y008593D01*
X022254Y006614D02*
X022246Y006614D01*
X022243Y006617D01*
X015688Y008349D02*
X015511Y008526D01*
X015039Y008526D01*
X015682Y008343D02*
X015682Y008339D01*
X015682Y008343D02*
X015688Y008349D01*
X010669Y008507D02*
X010411Y008249D01*
X009906Y008249D01*
X009906Y007993D02*
X009411Y007993D01*
X009353Y008051D01*
X006783Y008051D01*
X006783Y008004D01*
X006677Y007898D01*
X006671Y007898D01*
X006653Y007916D01*
X007901Y007316D02*
X007942Y007316D01*
X007952Y007326D01*
X008070Y007208D01*
X008188Y007208D01*
X008625Y006770D01*
X008679Y006770D01*
X008696Y006770D01*
X008779Y006853D01*
X009175Y006458D01*
X009906Y006458D01*
X009906Y006202D02*
X008718Y006202D01*
X008543Y006026D01*
X008543Y005790D01*
X008523Y005771D01*
X008523Y005757D01*
X008458Y005757D01*
X008425Y005790D01*
X008523Y005757D02*
X007159Y005757D01*
X006535Y006381D01*
X006505Y006410D01*
X006444Y006410D01*
X006535Y006381D02*
X006653Y006263D01*
X008661Y006735D02*
X008700Y006696D01*
X008661Y006735D02*
X008679Y006753D01*
X008679Y006770D01*
X009133Y006971D02*
X009133Y007680D01*
X009143Y007689D01*
X009178Y007689D01*
X008942Y007444D01*
X008661Y007444D01*
X008674Y007444D01*
X008679Y007440D01*
X008665Y007440D01*
X008661Y007444D01*
X008897Y007444D01*
X009906Y007225D02*
X009924Y007208D01*
X010551Y007208D01*
X010669Y007208D01*
X010602Y007259D02*
X010602Y007319D01*
X010602Y007259D02*
X010551Y007208D01*
X010336Y006713D02*
X009906Y006713D01*
X009391Y006713D01*
X009133Y006971D01*
X010336Y006713D02*
X010432Y006617D01*
X010432Y005908D01*
X010669Y005672D01*
X010905Y005672D01*
X010964Y005613D01*
X011023Y005554D01*
X011671Y006202D01*
X012785Y006202D01*
X013858Y005554D02*
X013858Y004609D01*
X014293Y004873D02*
X014321Y004845D01*
X014330Y004845D01*
X014330Y005335D01*
X014294Y005371D01*
X010905Y005672D02*
X010887Y005690D01*
X009906Y005434D02*
X009844Y005434D01*
X009842Y005436D01*
X009015Y005436D01*
X008897Y005318D01*
X008897Y004727D01*
X008779Y004609D01*
X008779Y001538D01*
X008503Y001263D01*
X005117Y001263D01*
X004921Y001460D01*
X004921Y001873D01*
X004927Y001879D01*
X004927Y001889D01*
X004927Y001690D01*
X004921Y001696D01*
X004448Y001676D02*
X004409Y001715D01*
X003976Y001715D01*
X004444Y001672D02*
X004427Y001889D01*
X004448Y001676D02*
X004444Y001672D01*
X006397Y001617D02*
X006417Y001597D01*
X006397Y001617D02*
X006427Y001647D01*
X008148Y003270D02*
X008188Y003310D01*
X008188Y003721D01*
X008099Y003811D01*
X005089Y003811D01*
X004921Y003979D01*
X005913Y004341D02*
X005913Y004485D01*
X005913Y004995D01*
X004411Y006497D01*
X004411Y007278D01*
X004761Y007278D02*
X004887Y007278D01*
X005166Y007458D01*
X004054Y005715D02*
X003177Y006593D01*
X006348Y005210D02*
X006436Y005160D01*
X006427Y005150D01*
X005927Y004499D02*
X005913Y004485D01*
X005427Y004499D02*
X005423Y004495D01*
X007927Y005194D02*
X007932Y005200D01*
X008306Y004845D02*
X008543Y005082D01*
X008529Y005082D01*
X008523Y005087D01*
X008306Y004845D02*
X008306Y004019D01*
X008099Y003811D01*
X010196Y003761D02*
X010274Y003583D01*
X010196Y003761D02*
X010196Y005082D01*
X010167Y005111D01*
X009493Y005111D01*
X009493Y005181D01*
X009904Y005181D01*
X009906Y005178D01*
X009493Y005181D02*
X009343Y005181D01*
X009251Y005089D01*
X009251Y005032D01*
X009308Y005025D01*
X009604Y008505D02*
X009906Y008505D01*
X010653Y008523D02*
X010653Y008688D01*
X010653Y008523D02*
X010669Y008507D01*
X004063Y008593D02*
X003177Y008593D01*
D27*
X011043Y004403D02*
X011592Y004403D01*
X011635Y004436D01*
X014448Y006026D02*
X014921Y005554D01*
X014921Y004963D01*
X014448Y006026D02*
X014330Y006026D01*
X014308Y006026D01*
X014294Y006041D01*
X008148Y003270D02*
X007952Y003466D01*
X008148Y003270D02*
X008403Y003015D01*
X008403Y002384D01*
X008405Y002385D01*
D28*
X011065Y001840D03*
X015610Y003034D03*
X015039Y008526D03*
D29*
X024015Y009097D02*
X024015Y002601D01*
X024035Y002582D01*
X024035Y000849D01*
X002184Y001499D02*
X002177Y001507D01*
X002177Y001593D01*
X002177Y002593D01*
X002177Y003593D01*
X002145Y003625D01*
X002177Y003656D01*
X002177Y004593D01*
X002169Y004593D01*
X002177Y004601D01*
X002177Y005593D01*
X002177Y006593D01*
X002177Y007593D01*
X002192Y007593D01*
X002177Y007609D01*
X002177Y008593D01*
X002192Y007593D02*
X002224Y007562D01*
X002177Y006593D02*
X002177Y006586D01*
X002184Y006578D01*
X002177Y005593D02*
X002177Y005523D01*
X002184Y005515D01*
X002169Y004593D02*
X002145Y004570D01*
X002177Y002593D02*
X002177Y002554D01*
X002145Y002523D01*
D30*
X002177Y001593D02*
X002177Y001467D01*
X002184Y001460D01*
X002184Y000869D01*
X002460Y000593D01*
X004527Y000593D01*
X010551Y000593D01*
X011023Y001066D01*
X011495Y000593D01*
X014094Y000593D01*
X014113Y000613D01*
X014113Y003381D01*
X014123Y003371D01*
X014123Y002621D01*
X014103Y002601D01*
X013413Y002601D01*
X014110Y003397D02*
X014110Y000609D01*
X014125Y000593D01*
X014803Y000593D01*
X014094Y000593D01*
X014110Y000609D01*
X014803Y000593D02*
X017519Y000593D01*
X017417Y000696D01*
X017417Y003400D01*
X020737Y003402D02*
X020737Y000740D01*
X020708Y000711D01*
X020708Y000593D01*
X023779Y000593D01*
X024035Y000849D01*
X020708Y000593D02*
X017519Y000593D01*
X011033Y001076D02*
X011033Y001851D01*
X011054Y001851D01*
X011065Y001840D01*
X011033Y001076D02*
X011023Y001066D01*
X002204Y008605D02*
X002204Y009019D01*
X002519Y009334D01*
X004950Y009334D01*
X005263Y009021D01*
X005261Y009019D01*
X005259Y009019D01*
X017511Y009297D02*
X017511Y009325D01*
X017637Y009452D01*
X019409Y009452D01*
X019527Y009570D01*
X023661Y009570D01*
X024035Y009196D01*
D31*
X024085Y009113D02*
X024085Y008644D01*
X023985Y008644D01*
X023985Y009113D01*
X023931Y009113D01*
X023740Y009034D01*
X023594Y008888D01*
X023546Y008771D01*
X023493Y008899D01*
X023341Y009051D01*
X023142Y009133D01*
X022927Y009133D01*
X022729Y009051D01*
X022577Y008899D01*
X022495Y008701D01*
X022495Y008493D01*
X022266Y008264D01*
X022132Y008130D01*
X022132Y006962D01*
X022045Y006926D01*
X021942Y006823D01*
X021886Y006687D01*
X021886Y006541D01*
X021942Y006406D01*
X022045Y006302D01*
X022181Y006246D01*
X022327Y006246D01*
X022462Y006302D01*
X022539Y006379D01*
X022577Y006287D01*
X022729Y006136D01*
X022831Y006093D01*
X022729Y006051D01*
X022577Y005899D01*
X022495Y005701D01*
X022495Y005486D01*
X022577Y005287D01*
X022729Y005136D01*
X022831Y005093D01*
X022787Y005075D01*
X022621Y005075D01*
X020111Y005075D01*
X020111Y006476D01*
X019976Y006611D01*
X019875Y006712D01*
X019875Y008838D01*
X019740Y008973D01*
X019507Y009206D01*
X019316Y009206D01*
X017697Y009206D01*
X017587Y009097D01*
X017452Y008962D01*
X017452Y008880D01*
X017432Y008860D01*
X017414Y008878D01*
X017414Y008923D01*
X017414Y009114D01*
X017283Y009245D01*
X017283Y009551D01*
X025579Y009551D01*
X025579Y000636D01*
X000648Y000636D01*
X000648Y001458D01*
X000719Y001287D01*
X000871Y001136D01*
X001069Y001053D01*
X001284Y001053D01*
X001482Y001136D01*
X001634Y001287D01*
X001687Y001416D01*
X001736Y001299D01*
X001882Y001153D01*
X002073Y001073D01*
X002127Y001073D01*
X002127Y001543D01*
X002226Y001543D01*
X002226Y001073D01*
X002280Y001073D01*
X002471Y001153D01*
X002617Y001299D01*
X002666Y001416D01*
X002719Y001287D01*
X002871Y001136D01*
X003069Y001053D01*
X003284Y001053D01*
X003482Y001136D01*
X003634Y001287D01*
X003707Y001463D01*
X003767Y001403D01*
X003902Y001347D01*
X004049Y001347D01*
X004154Y001391D01*
X004226Y001319D01*
X004627Y001319D01*
X004676Y001368D01*
X004726Y001319D01*
X004736Y001319D01*
X004825Y001230D01*
X004887Y001167D01*
X005022Y001033D01*
X008408Y001033D01*
X008599Y001033D01*
X008844Y001278D01*
X008844Y000796D01*
X008944Y000697D01*
X009714Y000697D01*
X009814Y000796D01*
X009814Y002158D01*
X009818Y002153D01*
X009910Y002115D01*
X011328Y002115D01*
X011427Y002115D01*
X011519Y002153D01*
X011521Y002155D01*
X011521Y000796D01*
X011621Y000697D01*
X012391Y000697D01*
X012491Y000796D01*
X012491Y002276D01*
X012391Y002375D01*
X011741Y002375D01*
X011755Y002389D01*
X011825Y002460D01*
X011864Y002551D01*
X011864Y003680D01*
X012072Y003471D01*
X012072Y003355D01*
X012128Y003219D01*
X012232Y003116D01*
X012367Y003060D01*
X012514Y003060D01*
X012649Y003116D01*
X012752Y003219D01*
X012808Y003355D01*
X012808Y003443D01*
X012832Y003420D01*
X012832Y003299D01*
X012907Y003119D01*
X013045Y002981D01*
X013225Y002907D01*
X013420Y002907D01*
X013600Y002981D01*
X013730Y003111D01*
X013843Y002998D01*
X014016Y002927D01*
X014091Y002927D01*
X014091Y003377D01*
X014129Y003377D01*
X014129Y002927D01*
X014203Y002927D01*
X014376Y002998D01*
X014489Y003111D01*
X014619Y002981D01*
X014800Y002907D01*
X014994Y002907D01*
X015175Y002981D01*
X015202Y003009D01*
X015202Y002953D01*
X015264Y002804D01*
X015379Y002689D01*
X015529Y002627D01*
X015691Y002627D01*
X015840Y002689D01*
X015955Y002804D01*
X016017Y002953D01*
X016017Y003115D01*
X015955Y003265D01*
X015859Y003361D01*
X015859Y003641D01*
X015725Y003776D01*
X015476Y004025D01*
X015888Y004025D01*
X016225Y003689D01*
X016214Y003678D01*
X016139Y003498D01*
X016139Y003303D01*
X016214Y003123D01*
X016352Y002985D01*
X016532Y002910D01*
X016727Y002910D01*
X016907Y002985D01*
X017037Y003115D01*
X017150Y003002D01*
X017323Y002930D01*
X017398Y002930D01*
X017398Y003381D01*
X017436Y003381D01*
X017436Y002930D01*
X017510Y002930D01*
X017683Y003002D01*
X017796Y003115D01*
X017926Y002985D01*
X018107Y002910D01*
X018302Y002910D01*
X018482Y002985D01*
X018619Y003123D01*
X018694Y003303D01*
X018694Y003498D01*
X018623Y003670D01*
X019530Y003670D01*
X019459Y003500D01*
X019459Y003305D01*
X019534Y003125D01*
X019672Y002987D01*
X019852Y002912D01*
X020047Y002912D01*
X020227Y002987D01*
X020357Y003117D01*
X020470Y003004D01*
X020643Y002932D01*
X020718Y002932D01*
X020718Y003383D01*
X020756Y003383D01*
X020756Y002932D01*
X020830Y002932D01*
X021003Y003004D01*
X021116Y003117D01*
X021246Y002987D01*
X021427Y002912D01*
X021621Y002912D01*
X021802Y002987D01*
X021895Y003081D01*
X021895Y001870D01*
X021895Y001679D01*
X022266Y001308D01*
X022457Y001308D01*
X022568Y001308D01*
X022577Y001287D01*
X022729Y001136D01*
X022927Y001053D01*
X023142Y001053D01*
X023341Y001136D01*
X023493Y001287D01*
X023546Y001416D01*
X023594Y001299D01*
X023740Y001153D01*
X023931Y001073D01*
X023985Y001073D01*
X023985Y001543D01*
X024085Y001543D01*
X024085Y001073D01*
X024138Y001073D01*
X024329Y001153D01*
X024476Y001299D01*
X024524Y001416D01*
X024577Y001287D01*
X024729Y001136D01*
X024927Y001053D01*
X025142Y001053D01*
X025341Y001136D01*
X025493Y001287D01*
X025575Y001486D01*
X025575Y001701D01*
X025493Y001899D01*
X025341Y002051D01*
X025239Y002093D01*
X025341Y002136D01*
X025493Y002287D01*
X025575Y002486D01*
X025579Y002486D01*
X025575Y002486D02*
X025575Y002701D01*
X025493Y002899D01*
X025341Y003051D01*
X025239Y003093D01*
X025341Y003136D01*
X025493Y003287D01*
X025575Y003486D01*
X025575Y003701D01*
X025493Y003899D01*
X025341Y004051D01*
X025239Y004093D01*
X025341Y004136D01*
X025493Y004287D01*
X025575Y004486D01*
X025575Y004701D01*
X025493Y004899D01*
X025341Y005051D01*
X025239Y005093D01*
X025341Y005136D01*
X025493Y005287D01*
X025575Y005486D01*
X025575Y005701D01*
X025493Y005899D01*
X025341Y006051D01*
X025239Y006093D01*
X025341Y006136D01*
X025493Y006287D01*
X025575Y006486D01*
X025575Y006701D01*
X025493Y006899D01*
X025341Y007051D01*
X025239Y007093D01*
X025341Y007136D01*
X025493Y007287D01*
X025575Y007486D01*
X025575Y007701D01*
X025493Y007899D01*
X025341Y008051D01*
X025239Y008093D01*
X025341Y008136D01*
X025493Y008287D01*
X025575Y008486D01*
X025575Y008701D01*
X025493Y008899D01*
X025341Y009051D01*
X025142Y009133D01*
X024927Y009133D01*
X024729Y009051D01*
X024577Y008899D01*
X024524Y008771D01*
X024476Y008888D01*
X024329Y009034D01*
X024138Y009113D01*
X024085Y009113D01*
X024085Y009088D02*
X023985Y009088D01*
X023985Y008990D02*
X024085Y008990D01*
X024085Y008891D02*
X023985Y008891D01*
X023985Y008793D02*
X024085Y008793D01*
X024085Y008694D02*
X023985Y008694D01*
X023597Y008891D02*
X023496Y008891D01*
X023537Y008793D02*
X023555Y008793D01*
X023696Y008990D02*
X023402Y008990D01*
X023251Y009088D02*
X023871Y009088D01*
X024199Y009088D02*
X024819Y009088D01*
X024668Y008990D02*
X024374Y008990D01*
X024472Y008891D02*
X024574Y008891D01*
X024533Y008793D02*
X024515Y008793D01*
X024085Y008543D02*
X023985Y008543D01*
X023985Y008073D01*
X023985Y007644D01*
X024085Y007644D01*
X024085Y008073D01*
X024085Y008543D01*
X024085Y008497D02*
X023985Y008497D01*
X023985Y008399D02*
X024085Y008399D01*
X024085Y008300D02*
X023985Y008300D01*
X023985Y008201D02*
X024085Y008201D01*
X024085Y008103D02*
X023985Y008103D01*
X023985Y008004D02*
X024085Y008004D01*
X024085Y007906D02*
X023985Y007906D01*
X023985Y007807D02*
X024085Y007807D01*
X024085Y007709D02*
X023985Y007709D01*
X023985Y007543D02*
X024085Y007543D01*
X024085Y007073D01*
X024085Y006644D01*
X023985Y006644D01*
X023985Y007073D01*
X023985Y007543D01*
X023985Y007512D02*
X024085Y007512D01*
X024085Y007413D02*
X023985Y007413D01*
X023985Y007315D02*
X024085Y007315D01*
X024085Y007216D02*
X023985Y007216D01*
X023985Y007118D02*
X024085Y007118D01*
X024085Y007019D02*
X023985Y007019D01*
X023985Y006920D02*
X024085Y006920D01*
X024085Y006822D02*
X023985Y006822D01*
X023985Y006723D02*
X024085Y006723D01*
X024085Y006543D02*
X023985Y006543D01*
X023985Y006073D01*
X023985Y005644D01*
X024085Y005644D01*
X024085Y006073D01*
X024085Y006543D01*
X024085Y006526D02*
X023985Y006526D01*
X023985Y006428D02*
X024085Y006428D01*
X024085Y006329D02*
X023985Y006329D01*
X023985Y006231D02*
X024085Y006231D01*
X024085Y006132D02*
X023985Y006132D01*
X023985Y006034D02*
X024085Y006034D01*
X024085Y005935D02*
X023985Y005935D01*
X023985Y005836D02*
X024085Y005836D01*
X024085Y005738D02*
X023985Y005738D01*
X023985Y005543D02*
X024085Y005543D01*
X024085Y005113D01*
X024085Y004644D01*
X023985Y004644D01*
X023985Y005113D01*
X023985Y005543D01*
X023985Y005541D02*
X024085Y005541D01*
X024085Y005442D02*
X023985Y005442D01*
X023985Y005344D02*
X024085Y005344D01*
X024085Y005245D02*
X023985Y005245D01*
X023985Y005147D02*
X024085Y005147D01*
X024085Y005048D02*
X023985Y005048D01*
X023985Y004950D02*
X024085Y004950D01*
X024085Y004851D02*
X023985Y004851D01*
X023985Y004752D02*
X024085Y004752D01*
X024085Y004654D02*
X023985Y004654D01*
X023985Y004543D02*
X024085Y004543D01*
X024085Y004113D01*
X024085Y003644D01*
X023985Y003644D01*
X023985Y004113D01*
X023985Y004543D01*
X023985Y004457D02*
X024085Y004457D01*
X024085Y004358D02*
X023985Y004358D01*
X023985Y004260D02*
X024085Y004260D01*
X024085Y004161D02*
X023985Y004161D01*
X023985Y004063D02*
X024085Y004063D01*
X024085Y003964D02*
X023985Y003964D01*
X023985Y003866D02*
X024085Y003866D01*
X024085Y003767D02*
X023985Y003767D01*
X023985Y003669D02*
X024085Y003669D01*
X024085Y003543D02*
X023985Y003543D01*
X023985Y003073D01*
X023985Y002644D01*
X024085Y002644D01*
X024085Y003073D01*
X024085Y003543D01*
X024085Y003471D02*
X023985Y003471D01*
X023985Y003373D02*
X024085Y003373D01*
X024085Y003274D02*
X023985Y003274D01*
X023985Y003176D02*
X024085Y003176D01*
X024085Y003077D02*
X023985Y003077D01*
X023985Y002979D02*
X024085Y002979D01*
X024085Y002880D02*
X023985Y002880D01*
X023985Y002782D02*
X024085Y002782D01*
X024085Y002683D02*
X023985Y002683D01*
X023985Y002543D02*
X024085Y002543D01*
X024085Y002073D01*
X024085Y001644D01*
X023985Y001644D01*
X023985Y002073D01*
X023985Y002543D01*
X023985Y002486D02*
X024085Y002486D01*
X024085Y002387D02*
X023985Y002387D01*
X023985Y002289D02*
X024085Y002289D01*
X024085Y002190D02*
X023985Y002190D01*
X023985Y002092D02*
X024085Y002092D01*
X024085Y001993D02*
X023985Y001993D01*
X023985Y001895D02*
X024085Y001895D01*
X024085Y001796D02*
X023985Y001796D01*
X023985Y001698D02*
X024085Y001698D01*
X024085Y001501D02*
X023985Y001501D01*
X023985Y001402D02*
X024085Y001402D01*
X024085Y001303D02*
X023985Y001303D01*
X023985Y001205D02*
X024085Y001205D01*
X024085Y001106D02*
X023985Y001106D01*
X023852Y001106D02*
X023270Y001106D01*
X023410Y001205D02*
X023688Y001205D01*
X023592Y001303D02*
X023499Y001303D01*
X023540Y001402D02*
X023551Y001402D01*
X024218Y001106D02*
X024799Y001106D01*
X024660Y001205D02*
X024382Y001205D01*
X024477Y001303D02*
X024570Y001303D01*
X024530Y001402D02*
X024518Y001402D01*
X025270Y001106D02*
X025579Y001106D01*
X025579Y001008D02*
X012491Y001008D01*
X012491Y001106D02*
X022799Y001106D01*
X022660Y001205D02*
X012491Y001205D01*
X012491Y001303D02*
X022570Y001303D01*
X022173Y001402D02*
X012491Y001402D01*
X012491Y001501D02*
X022074Y001501D01*
X021975Y001599D02*
X012491Y001599D01*
X012491Y001698D02*
X021895Y001698D01*
X021895Y001796D02*
X012491Y001796D01*
X012491Y001895D02*
X021895Y001895D01*
X021895Y001993D02*
X012491Y001993D01*
X012491Y002092D02*
X021895Y002092D01*
X021895Y002190D02*
X012491Y002190D01*
X012478Y002289D02*
X021895Y002289D01*
X021895Y002387D02*
X011753Y002387D01*
X011836Y002486D02*
X021895Y002486D01*
X021895Y002585D02*
X011864Y002585D01*
X011864Y002683D02*
X015393Y002683D01*
X015286Y002782D02*
X011864Y002782D01*
X011864Y002880D02*
X015232Y002880D01*
X015202Y002979D02*
X015169Y002979D01*
X015933Y002782D02*
X021895Y002782D01*
X021895Y002880D02*
X015987Y002880D01*
X016017Y002979D02*
X016367Y002979D01*
X016260Y003077D02*
X016017Y003077D01*
X015992Y003176D02*
X016192Y003176D01*
X016151Y003274D02*
X015946Y003274D01*
X015859Y003373D02*
X016139Y003373D01*
X016139Y003471D02*
X015859Y003471D01*
X015859Y003570D02*
X016169Y003570D01*
X016210Y003669D02*
X015832Y003669D01*
X015734Y003767D02*
X016146Y003767D01*
X016048Y003866D02*
X015635Y003866D01*
X015536Y003964D02*
X015949Y003964D01*
X017398Y003373D02*
X017436Y003373D01*
X017436Y003274D02*
X017398Y003274D01*
X017398Y003176D02*
X017436Y003176D01*
X017436Y003077D02*
X017398Y003077D01*
X017398Y002979D02*
X017436Y002979D01*
X017627Y002979D02*
X017942Y002979D01*
X017834Y003077D02*
X017758Y003077D01*
X017207Y002979D02*
X016891Y002979D01*
X016999Y003077D02*
X017075Y003077D01*
X015826Y002683D02*
X021895Y002683D01*
X021895Y002979D02*
X021781Y002979D01*
X021892Y003077D02*
X021895Y003077D01*
X021267Y002979D02*
X020942Y002979D01*
X021076Y003077D02*
X021156Y003077D01*
X020756Y003077D02*
X020718Y003077D01*
X020718Y002979D02*
X020756Y002979D01*
X020531Y002979D02*
X020207Y002979D01*
X020317Y003077D02*
X020397Y003077D01*
X020718Y003176D02*
X020756Y003176D01*
X020756Y003274D02*
X020718Y003274D01*
X020718Y003373D02*
X020756Y003373D01*
X020756Y003422D02*
X020718Y003422D01*
X020718Y003872D01*
X020643Y003872D01*
X020470Y003801D01*
X020357Y003688D01*
X020227Y003818D01*
X020132Y003857D01*
X020095Y003894D01*
X020082Y003907D01*
X021440Y003907D01*
X021454Y003892D01*
X021427Y003892D01*
X021246Y003818D01*
X021116Y003688D01*
X021003Y003801D01*
X020830Y003872D01*
X020756Y003872D01*
X020756Y003422D01*
X020756Y003471D02*
X020718Y003471D01*
X020718Y003570D02*
X020756Y003570D01*
X020756Y003669D02*
X020718Y003669D01*
X020718Y003767D02*
X020756Y003767D01*
X020756Y003866D02*
X020718Y003866D01*
X020627Y003866D02*
X020123Y003866D01*
X020278Y003767D02*
X020437Y003767D01*
X020847Y003866D02*
X021362Y003866D01*
X021196Y003767D02*
X021037Y003767D01*
X019529Y003669D02*
X018623Y003669D01*
X018664Y003570D02*
X019488Y003570D01*
X019459Y003471D02*
X018694Y003471D01*
X018694Y003373D02*
X019459Y003373D01*
X019472Y003274D02*
X018682Y003274D01*
X018641Y003176D02*
X019513Y003176D01*
X019581Y003077D02*
X018574Y003077D01*
X018466Y002979D02*
X019692Y002979D01*
X014625Y002979D02*
X014329Y002979D01*
X014455Y003077D02*
X014523Y003077D01*
X014129Y003077D02*
X014091Y003077D01*
X014091Y002979D02*
X014129Y002979D01*
X013890Y002979D02*
X013594Y002979D01*
X013696Y003077D02*
X013764Y003077D01*
X014091Y003176D02*
X014129Y003176D01*
X014129Y003274D02*
X014091Y003274D01*
X014091Y003373D02*
X014129Y003373D01*
X013050Y002979D02*
X011864Y002979D01*
X011864Y003077D02*
X012325Y003077D01*
X012172Y003176D02*
X011864Y003176D01*
X011864Y003274D02*
X012106Y003274D01*
X012072Y003373D02*
X011864Y003373D01*
X011864Y003471D02*
X012072Y003471D01*
X011973Y003570D02*
X011864Y003570D01*
X011864Y003669D02*
X011875Y003669D01*
X012808Y003373D02*
X012832Y003373D01*
X012842Y003274D02*
X012775Y003274D01*
X012709Y003176D02*
X012883Y003176D01*
X012949Y003077D02*
X012555Y003077D01*
X011521Y002092D02*
X009814Y002092D01*
X009814Y001993D02*
X011521Y001993D01*
X011521Y001895D02*
X009814Y001895D01*
X009814Y001796D02*
X011521Y001796D01*
X011521Y001698D02*
X009814Y001698D01*
X009814Y001599D02*
X011521Y001599D01*
X011521Y001501D02*
X009814Y001501D01*
X009814Y001402D02*
X011521Y001402D01*
X011521Y001303D02*
X009814Y001303D01*
X009814Y001205D02*
X011521Y001205D01*
X011521Y001106D02*
X009814Y001106D01*
X009814Y001008D02*
X011521Y001008D01*
X011521Y000909D02*
X009814Y000909D01*
X009814Y000811D02*
X011521Y000811D01*
X011605Y000712D02*
X009730Y000712D01*
X008928Y000712D02*
X000648Y000712D01*
X000648Y000811D02*
X008844Y000811D01*
X008844Y000909D02*
X000648Y000909D01*
X000648Y001008D02*
X008844Y001008D01*
X008844Y001106D02*
X008672Y001106D01*
X008771Y001205D02*
X008844Y001205D01*
X012407Y000712D02*
X025579Y000712D01*
X025579Y000811D02*
X012491Y000811D01*
X012491Y000909D02*
X025579Y000909D01*
X025579Y001205D02*
X025410Y001205D01*
X025499Y001303D02*
X025579Y001303D01*
X025579Y001402D02*
X025540Y001402D01*
X025575Y001501D02*
X025579Y001501D01*
X025575Y001599D02*
X025579Y001599D01*
X025575Y001698D02*
X025579Y001698D01*
X025579Y001796D02*
X025535Y001796D01*
X025494Y001895D02*
X025579Y001895D01*
X025579Y001993D02*
X025399Y001993D01*
X025242Y002092D02*
X025579Y002092D01*
X025579Y002190D02*
X025395Y002190D01*
X025493Y002289D02*
X025579Y002289D01*
X025579Y002387D02*
X025534Y002387D01*
X025575Y002585D02*
X025579Y002585D01*
X025575Y002683D02*
X025579Y002683D01*
X025579Y002782D02*
X025541Y002782D01*
X025579Y002880D02*
X025500Y002880D01*
X025579Y002979D02*
X025413Y002979D01*
X025278Y003077D02*
X025579Y003077D01*
X025579Y003176D02*
X025381Y003176D01*
X025479Y003274D02*
X025579Y003274D01*
X025579Y003373D02*
X025528Y003373D01*
X025569Y003471D02*
X025579Y003471D01*
X025575Y003570D02*
X025579Y003570D01*
X025575Y003669D02*
X025579Y003669D01*
X025579Y003767D02*
X025547Y003767D01*
X025579Y003866D02*
X025507Y003866D01*
X025579Y003964D02*
X025428Y003964D01*
X025313Y004063D02*
X025579Y004063D01*
X025579Y004161D02*
X025366Y004161D01*
X025465Y004260D02*
X025579Y004260D01*
X025579Y004358D02*
X025522Y004358D01*
X025563Y004457D02*
X025579Y004457D01*
X025575Y004555D02*
X025579Y004555D01*
X025575Y004654D02*
X025579Y004654D01*
X025579Y004752D02*
X025553Y004752D01*
X025579Y004851D02*
X025513Y004851D01*
X025579Y004950D02*
X025442Y004950D01*
X025344Y005048D02*
X025579Y005048D01*
X025579Y005147D02*
X025352Y005147D01*
X025450Y005245D02*
X025579Y005245D01*
X025579Y005344D02*
X025516Y005344D01*
X025557Y005442D02*
X025579Y005442D01*
X025575Y005541D02*
X025579Y005541D01*
X025575Y005639D02*
X025579Y005639D01*
X025579Y005738D02*
X025559Y005738D01*
X025579Y005836D02*
X025519Y005836D01*
X025579Y005935D02*
X025457Y005935D01*
X025358Y006034D02*
X025579Y006034D01*
X025579Y006132D02*
X025332Y006132D01*
X025436Y006231D02*
X025579Y006231D01*
X025579Y006329D02*
X025510Y006329D01*
X025551Y006428D02*
X025579Y006428D01*
X025575Y006526D02*
X025579Y006526D01*
X025575Y006625D02*
X025579Y006625D01*
X025565Y006723D02*
X025579Y006723D01*
X025579Y006822D02*
X025525Y006822D01*
X025471Y006920D02*
X025579Y006920D01*
X025579Y007019D02*
X025373Y007019D01*
X025297Y007118D02*
X025579Y007118D01*
X025579Y007216D02*
X025421Y007216D01*
X025504Y007315D02*
X025579Y007315D01*
X025579Y007413D02*
X025545Y007413D01*
X025575Y007512D02*
X025579Y007512D01*
X025575Y007610D02*
X025579Y007610D01*
X025571Y007709D02*
X025579Y007709D01*
X025579Y007807D02*
X025531Y007807D01*
X025486Y007906D02*
X025579Y007906D01*
X025579Y008004D02*
X025387Y008004D01*
X025262Y008103D02*
X025579Y008103D01*
X025579Y008201D02*
X025407Y008201D01*
X025498Y008300D02*
X025579Y008300D01*
X025579Y008399D02*
X025539Y008399D01*
X025575Y008497D02*
X025579Y008497D01*
X025575Y008596D02*
X025579Y008596D01*
X025575Y008694D02*
X025579Y008694D01*
X025579Y008793D02*
X025537Y008793D01*
X025496Y008891D02*
X025579Y008891D01*
X025579Y008990D02*
X025402Y008990D01*
X025251Y009088D02*
X025579Y009088D01*
X025579Y009187D02*
X019526Y009187D01*
X019625Y009088D02*
X022819Y009088D01*
X022668Y008990D02*
X019723Y008990D01*
X019822Y008891D02*
X022574Y008891D01*
X022533Y008793D02*
X019875Y008793D01*
X019875Y008694D02*
X022495Y008694D01*
X022495Y008596D02*
X019875Y008596D01*
X019875Y008497D02*
X022495Y008497D01*
X022401Y008399D02*
X019875Y008399D01*
X019875Y008300D02*
X022302Y008300D01*
X022266Y008264D02*
X022266Y008264D01*
X022204Y008201D02*
X019875Y008201D01*
X019875Y008103D02*
X022132Y008103D01*
X022132Y008004D02*
X019875Y008004D01*
X019875Y007906D02*
X022132Y007906D01*
X022132Y007807D02*
X019875Y007807D01*
X019875Y007709D02*
X022132Y007709D01*
X022132Y007610D02*
X019875Y007610D01*
X019875Y007512D02*
X022132Y007512D01*
X022132Y007413D02*
X019875Y007413D01*
X019875Y007315D02*
X022132Y007315D01*
X022132Y007216D02*
X019875Y007216D01*
X019875Y007118D02*
X022132Y007118D01*
X022132Y007019D02*
X019875Y007019D01*
X019875Y006920D02*
X022040Y006920D01*
X021942Y006822D02*
X019875Y006822D01*
X019875Y006723D02*
X021901Y006723D01*
X021886Y006625D02*
X019962Y006625D01*
X020061Y006526D02*
X021892Y006526D01*
X021933Y006428D02*
X020111Y006428D01*
X020111Y006329D02*
X022018Y006329D01*
X022490Y006329D02*
X022560Y006329D01*
X022634Y006231D02*
X020111Y006231D01*
X020111Y006132D02*
X022737Y006132D01*
X022711Y006034D02*
X020111Y006034D01*
X020111Y005935D02*
X022613Y005935D01*
X022551Y005836D02*
X020111Y005836D01*
X020111Y005738D02*
X022510Y005738D01*
X022495Y005639D02*
X020111Y005639D01*
X020111Y005541D02*
X022495Y005541D01*
X022513Y005442D02*
X020111Y005442D01*
X020111Y005344D02*
X022554Y005344D01*
X022619Y005245D02*
X020111Y005245D01*
X020111Y005147D02*
X022718Y005147D01*
X017452Y008891D02*
X017414Y008891D01*
X017414Y008990D02*
X017480Y008990D01*
X017414Y009088D02*
X017579Y009088D01*
X017587Y009097D02*
X017587Y009097D01*
X017677Y009187D02*
X017341Y009187D01*
X017283Y009285D02*
X025579Y009285D01*
X025579Y009384D02*
X017283Y009384D01*
X017283Y009483D02*
X025579Y009483D01*
X007601Y003581D02*
X007584Y003539D01*
X007584Y003393D01*
X007640Y003258D01*
X007702Y003196D01*
X007702Y002978D01*
X007629Y003051D01*
X007494Y003107D01*
X007347Y003107D01*
X007212Y003051D01*
X007119Y002958D01*
X007119Y003169D01*
X006984Y003304D01*
X006748Y003540D01*
X006558Y003540D01*
X004386Y003540D01*
X004284Y003641D01*
X004284Y003949D01*
X004411Y003949D01*
X004411Y004484D01*
X004442Y004484D01*
X004442Y003949D01*
X004619Y003949D01*
X004662Y003993D01*
X004691Y003964D01*
X004634Y003964D01*
X004691Y003964D02*
X004691Y003884D01*
X004994Y003581D01*
X005184Y003581D01*
X007601Y003581D01*
X007597Y003570D02*
X004356Y003570D01*
X004284Y003669D02*
X004906Y003669D01*
X004808Y003767D02*
X004284Y003767D01*
X004284Y003866D02*
X004709Y003866D01*
X004442Y003964D02*
X004411Y003964D01*
X004411Y004063D02*
X004442Y004063D01*
X004442Y004161D02*
X004411Y004161D01*
X004411Y004260D02*
X004442Y004260D01*
X004442Y004358D02*
X004411Y004358D01*
X004411Y004457D02*
X004442Y004457D01*
X004442Y004514D02*
X004411Y004514D01*
X004411Y005049D01*
X004284Y005049D01*
X004284Y005436D01*
X004792Y005436D01*
X005193Y005035D01*
X005177Y005019D01*
X005127Y005069D01*
X004726Y005069D01*
X004662Y005005D01*
X004619Y005049D01*
X004442Y005049D01*
X004442Y004514D01*
X004442Y004555D02*
X004411Y004555D01*
X004411Y004654D02*
X004442Y004654D01*
X004442Y004752D02*
X004411Y004752D01*
X004411Y004851D02*
X004442Y004851D01*
X004442Y004950D02*
X004411Y004950D01*
X004411Y005048D02*
X004442Y005048D01*
X004619Y005048D02*
X004706Y005048D01*
X005081Y005147D02*
X004284Y005147D01*
X004284Y005245D02*
X004983Y005245D01*
X004884Y005344D02*
X004284Y005344D01*
X005148Y005048D02*
X005180Y005048D01*
X002226Y005048D02*
X002127Y005048D01*
X002127Y005113D02*
X002127Y005543D01*
X002226Y005543D01*
X002226Y005073D01*
X002226Y004644D01*
X002127Y004644D01*
X002127Y005113D01*
X002127Y005147D02*
X002226Y005147D01*
X002226Y005245D02*
X002127Y005245D01*
X002127Y005344D02*
X002226Y005344D01*
X002226Y005442D02*
X002127Y005442D01*
X002127Y005541D02*
X002226Y005541D01*
X002226Y005644D02*
X002127Y005644D01*
X002127Y006113D01*
X002127Y006543D01*
X002226Y006543D01*
X002226Y006113D01*
X002226Y005644D01*
X002226Y005738D02*
X002127Y005738D01*
X002127Y005836D02*
X002226Y005836D01*
X002226Y005935D02*
X002127Y005935D01*
X002127Y006034D02*
X002226Y006034D01*
X002226Y006132D02*
X002127Y006132D01*
X002127Y006231D02*
X002226Y006231D01*
X002226Y006329D02*
X002127Y006329D01*
X002127Y006428D02*
X002226Y006428D01*
X002226Y006526D02*
X002127Y006526D01*
X002127Y006644D02*
X002127Y007073D01*
X002127Y007543D01*
X002226Y007543D01*
X002226Y007073D01*
X002226Y006644D01*
X002127Y006644D01*
X002127Y006723D02*
X002226Y006723D01*
X002226Y006822D02*
X002127Y006822D01*
X002127Y006920D02*
X002226Y006920D01*
X002226Y007019D02*
X002127Y007019D01*
X002127Y007118D02*
X002226Y007118D01*
X002226Y007216D02*
X002127Y007216D01*
X002127Y007315D02*
X002226Y007315D01*
X002226Y007413D02*
X002127Y007413D01*
X002127Y007512D02*
X002226Y007512D01*
X002226Y007644D02*
X002127Y007644D01*
X002127Y008073D01*
X002127Y008543D01*
X002226Y008543D01*
X002226Y008073D01*
X002226Y007644D01*
X002226Y007709D02*
X002127Y007709D01*
X002127Y007807D02*
X002226Y007807D01*
X002226Y007906D02*
X002127Y007906D01*
X002127Y008004D02*
X002226Y008004D01*
X002226Y008103D02*
X002127Y008103D01*
X002127Y008201D02*
X002226Y008201D01*
X002226Y008300D02*
X002127Y008300D01*
X002127Y008399D02*
X002226Y008399D01*
X002226Y008497D02*
X002127Y008497D01*
X002127Y008644D02*
X002127Y009113D01*
X002073Y009113D01*
X001882Y009034D01*
X001736Y008888D01*
X001687Y008771D01*
X001634Y008899D01*
X001482Y009051D01*
X001284Y009133D01*
X001069Y009133D01*
X000871Y009051D01*
X000719Y008899D01*
X000648Y008729D01*
X000648Y009551D01*
X004173Y009551D01*
X004173Y009017D01*
X003861Y009017D01*
X003762Y008918D01*
X003762Y008823D01*
X003666Y008823D01*
X003634Y008899D01*
X003482Y009051D01*
X003284Y009133D01*
X003069Y009133D01*
X002871Y009051D01*
X002719Y008899D01*
X002666Y008771D01*
X002617Y008888D01*
X002471Y009034D01*
X002280Y009113D01*
X002226Y009113D01*
X002226Y008644D01*
X002127Y008644D01*
X002127Y008694D02*
X002226Y008694D01*
X002226Y008793D02*
X002127Y008793D01*
X002127Y008891D02*
X002226Y008891D01*
X002226Y008990D02*
X002127Y008990D01*
X002127Y009088D02*
X002226Y009088D01*
X002340Y009088D02*
X002961Y009088D01*
X002809Y008990D02*
X002515Y008990D01*
X002614Y008891D02*
X002715Y008891D01*
X002675Y008793D02*
X002657Y008793D01*
X003393Y009088D02*
X004173Y009088D01*
X004173Y009187D02*
X000648Y009187D01*
X000648Y009285D02*
X004173Y009285D01*
X004173Y009384D02*
X000648Y009384D01*
X000648Y009483D02*
X004173Y009483D01*
X003834Y008990D02*
X003544Y008990D01*
X003638Y008891D02*
X003762Y008891D01*
X002013Y009088D02*
X001393Y009088D01*
X001544Y008990D02*
X001838Y008990D01*
X001739Y008891D02*
X001638Y008891D01*
X001678Y008793D02*
X001696Y008793D01*
X000961Y009088D02*
X000648Y009088D01*
X000648Y008990D02*
X000809Y008990D01*
X000715Y008891D02*
X000648Y008891D01*
X000648Y008793D02*
X000675Y008793D01*
X002127Y004950D02*
X002226Y004950D01*
X002226Y004851D02*
X002127Y004851D01*
X002127Y004752D02*
X002226Y004752D01*
X002226Y004654D02*
X002127Y004654D01*
X002127Y004543D02*
X002226Y004543D01*
X002226Y004073D01*
X002226Y003644D01*
X002127Y003644D01*
X002127Y004073D01*
X002127Y004543D01*
X002127Y004457D02*
X002226Y004457D01*
X002226Y004358D02*
X002127Y004358D01*
X002127Y004260D02*
X002226Y004260D01*
X002226Y004161D02*
X002127Y004161D01*
X002127Y004063D02*
X002226Y004063D01*
X002226Y003964D02*
X002127Y003964D01*
X002127Y003866D02*
X002226Y003866D01*
X002226Y003767D02*
X002127Y003767D01*
X002127Y003669D02*
X002226Y003669D01*
X002226Y003543D02*
X002226Y003073D01*
X002226Y002644D01*
X002127Y002644D01*
X002127Y003073D01*
X002127Y003543D01*
X002226Y003543D01*
X002226Y003471D02*
X002127Y003471D01*
X002127Y003373D02*
X002226Y003373D01*
X002226Y003274D02*
X002127Y003274D01*
X002127Y003176D02*
X002226Y003176D01*
X002226Y003077D02*
X002127Y003077D01*
X002127Y002979D02*
X002226Y002979D01*
X002226Y002880D02*
X002127Y002880D01*
X002127Y002782D02*
X002226Y002782D01*
X002226Y002683D02*
X002127Y002683D01*
X002127Y002543D02*
X002226Y002543D01*
X002226Y002073D01*
X002226Y001644D01*
X002127Y001644D01*
X002127Y002073D01*
X002127Y002543D01*
X002127Y002486D02*
X002226Y002486D01*
X002226Y002387D02*
X002127Y002387D01*
X002127Y002289D02*
X002226Y002289D01*
X002226Y002190D02*
X002127Y002190D01*
X002127Y002092D02*
X002226Y002092D01*
X002226Y001993D02*
X002127Y001993D01*
X002127Y001895D02*
X002226Y001895D01*
X002226Y001796D02*
X002127Y001796D01*
X002127Y001698D02*
X002226Y001698D01*
X002226Y001501D02*
X002127Y001501D01*
X002127Y001402D02*
X002226Y001402D01*
X002226Y001303D02*
X002127Y001303D01*
X002127Y001205D02*
X002226Y001205D01*
X002226Y001106D02*
X002127Y001106D01*
X001993Y001106D02*
X001412Y001106D01*
X001552Y001205D02*
X001830Y001205D01*
X001734Y001303D02*
X001641Y001303D01*
X001682Y001402D02*
X001693Y001402D01*
X002360Y001106D02*
X002941Y001106D01*
X002801Y001205D02*
X002523Y001205D01*
X002619Y001303D02*
X002712Y001303D01*
X002671Y001402D02*
X002660Y001402D01*
X003412Y001106D02*
X004949Y001106D01*
X004887Y001167D02*
X004887Y001167D01*
X004850Y001205D02*
X003552Y001205D01*
X003641Y001303D02*
X004751Y001303D01*
X003770Y001402D02*
X003682Y001402D01*
X000941Y001106D02*
X000648Y001106D01*
X000648Y001205D02*
X000801Y001205D01*
X000712Y001303D02*
X000648Y001303D01*
X000648Y001402D02*
X000671Y001402D01*
X006817Y003471D02*
X007584Y003471D01*
X007592Y003373D02*
X006915Y003373D01*
X007014Y003274D02*
X007633Y003274D01*
X007702Y003176D02*
X007112Y003176D01*
X007119Y003077D02*
X007275Y003077D01*
X007140Y002979D02*
X007119Y002979D01*
X007566Y003077D02*
X007702Y003077D01*
X007702Y002979D02*
X007702Y002979D01*
M02*
